<svg width="548" height="457" viewBox="0 0 548 457" fill="none" xmlns="http://www.w3.org/2000/svg">
<path d="M409.332 190.414C409.342 191.357 409.163 192.166 408.796 192.841C409.69 192.672 410.201 192.915 410.33 193.571C411.164 197.8 412.608 206.794 418.133 205.856L418.103 203.25C418.088 199.006 419.875 183.087 427.038 189.461L428.155 191.724C428.463 191.516 428.795 191.387 429.153 191.337C429.659 191.267 430.086 191.421 430.433 191.798L435.749 197.532C436.196 197.641 436.41 198.048 436.39 198.753C436.965 198.405 437.462 198.311 437.879 198.47C438.165 198.575 438.476 198.602 438.777 198.546C439.078 198.491 439.357 198.356 439.582 198.157C439.808 197.958 439.971 197.702 440.054 197.418C440.137 197.134 440.137 196.833 440.053 196.549L436.345 184.278C435.164 181.826 434.876 179.354 435.481 176.863C436.673 170.926 435.675 165.764 432.488 161.376C428.021 155.255 422.273 160.839 418.312 163.49C412.042 167.689 400.636 160.512 400.174 172.395C399.891 179.349 405.967 185.023 409.332 190.414Z" fill="#BDE0FF"/>
<path d="M219.318 214.894C219.16 215.143 219.378 215.54 219.974 216.086C220.917 214.527 221.88 213.48 222.863 212.944C223.359 212.676 223.791 212.755 224.158 213.182C264.384 258.561 289.685 311.221 300.059 371.164C300.138 371.66 299.95 372.018 299.493 372.236C288.34 377.448 277.112 381.111 264.394 380.709C240.538 379.935 216.057 375.08 194.063 372.742C193.527 372.693 193.383 372.43 193.631 371.953C206.656 346.876 216.449 321.685 223.011 296.38C228.859 273.775 228.75 250.361 222.684 226.137L215.983 216.637C177.31 206.913 135.614 253.895 119.844 283.856C107.008 308.238 97.9691 333.126 92.7274 358.521C85.2073 394.886 96.1375 441.674 140.618 446.067C158.795 447.864 176.977 447.953 195.165 446.335C226.506 443.545 257.594 439.232 288.429 433.395C288.629 433.355 288.837 433.372 289.029 433.442C289.221 433.512 289.389 433.634 289.517 433.794C289.644 433.954 289.726 434.145 289.752 434.348C289.778 434.551 289.748 434.756 289.665 434.943C286.955 441.212 287.461 446.886 296.113 446.156C291.497 442.002 293.507 437.46 295.234 432.129C295.393 431.652 295.716 431.359 296.202 431.25C309.009 428.257 339.968 420.067 346.46 407.513C346.577 407.286 346.612 407.025 346.557 406.775C346.503 406.525 346.363 406.302 346.163 406.143C344.564 404.873 342.718 404.535 340.623 405.131C340.523 405.158 340.417 405.147 340.325 405.101C340.233 405.054 340.161 404.975 340.124 404.878C340.087 404.782 340.087 404.675 340.124 404.579C340.161 404.482 340.233 404.403 340.325 404.357C345.329 401.845 349.736 398.509 353.549 394.35C353.722 394.16 353.851 393.933 353.925 393.686C353.999 393.439 354.017 393.178 353.977 392.923C353.937 392.667 353.841 392.423 353.694 392.209C353.548 391.995 353.356 391.815 353.132 391.684L351.136 390.522C350.978 390.435 350.859 390.29 350.804 390.116C350.749 389.942 350.761 389.752 350.838 389.584C351.057 389.108 351.429 388.706 351.955 388.378C352.321 388.151 352.605 387.814 352.768 387.416C352.931 387.017 352.963 386.577 352.86 386.159C352.758 385.741 352.526 385.366 352.198 385.088C351.869 384.81 351.461 384.643 351.032 384.611C344.877 384.114 338.786 384.794 332.76 386.651C332.552 386.71 332.393 386.636 332.284 386.427C332.214 386.278 332.249 386.164 332.388 386.085L340.563 380.962C340.969 380.71 341.281 380.332 341.45 379.885C341.619 379.438 341.637 378.948 341.499 378.49C341.362 378.033 341.078 377.633 340.691 377.353C340.303 377.073 339.835 376.928 339.357 376.942C329.271 377.18 319.274 378.406 309.366 380.62C309.256 380.643 309.142 380.639 309.035 380.607C308.927 380.575 308.83 380.517 308.752 380.437C308.675 380.358 308.619 380.261 308.591 380.154C308.563 380.048 308.563 379.937 308.592 379.831C312.692 363.51 316.822 347.248 320.981 331.047C321.279 329.915 322.034 328.927 323.245 328.083C323.612 327.825 323.572 327.671 323.126 327.622L321.964 327.502C318.668 327.125 316.722 328.053 316.127 330.287C312.741 343.004 309.505 355.776 306.418 368.602C306.386 368.737 306.307 368.855 306.194 368.935C306.082 369.015 305.944 369.051 305.807 369.037C305.669 369.022 305.542 368.958 305.449 368.856C305.356 368.754 305.303 368.621 305.301 368.483C304.914 351.527 303.628 334.531 301.444 317.496C297.513 286.77 289.446 256.674 277.246 227.21C275.717 225.244 274.813 222.544 274.535 219.109C273.116 211.881 272.426 204.302 272.465 196.37C272.467 196.185 272.509 196.003 272.588 195.836C272.667 195.669 272.781 195.521 272.922 195.402C273.064 195.283 273.229 195.196 273.407 195.147C273.586 195.098 273.772 195.089 273.955 195.119C282.413 196.474 298.927 195.67 304.333 187.643C309.634 179.766 302.427 169.938 298.942 162.924C294.951 154.868 294.371 144.92 293.79 136.119C293.75 135.603 293.964 135.236 294.43 135.017C311.034 127.274 300.521 103.716 281.653 110.357C278.764 112.502 276.546 115.083 274.997 118.101C274.971 118.165 274.932 118.222 274.883 118.271C274.834 118.319 274.777 118.358 274.713 118.384C274.649 118.411 274.581 118.424 274.512 118.424C274.444 118.424 274.376 118.41 274.312 118.384C274.248 118.357 274.191 118.319 274.142 118.27C274.093 118.221 274.055 118.164 274.029 118.1C274.002 118.036 273.989 117.968 273.989 117.899C273.989 117.831 274.003 117.762 274.029 117.699C275.141 114.026 277.509 111.291 281.132 109.494C275.771 98.504 259.406 97.2085 255.072 109.226C255.028 109.353 254.954 109.468 254.858 109.562C254.761 109.656 254.644 109.727 254.516 109.768C254.388 109.81 254.252 109.822 254.119 109.803C253.985 109.783 253.858 109.734 253.747 109.658C241.149 100.946 225.022 114.423 231.083 128.823C233.445 134.452 234.776 140.408 235.073 146.692C235.084 146.91 235.049 147.127 234.97 147.33C234.892 147.532 234.771 147.716 234.617 147.87C234.462 148.023 234.277 148.141 234.074 148.218C233.87 148.295 233.653 148.328 233.435 148.315C225.245 147.859 220.549 150.991 219.348 157.712C217.442 168.314 227.121 175.864 236.488 178.143C236.701 178.193 236.902 178.286 237.078 178.416C237.255 178.546 237.402 178.71 237.512 178.898C237.622 179.086 237.693 179.295 237.719 179.511C237.745 179.726 237.727 179.945 237.664 180.153C233.971 192.86 227.856 204.441 219.318 214.894ZM245.14 176.907C237.109 177.929 230.283 175.611 224.664 169.952C213.064 158.248 227.077 141.882 241.03 154.183C245.08 157.757 250.635 167.347 255.251 157.429C257.505 152.614 260.438 147.983 264.052 143.535C264.117 143.443 264.212 143.377 264.32 143.349C264.429 143.32 264.544 143.331 264.646 143.379C264.747 143.427 264.828 143.509 264.875 143.612C264.922 143.714 264.931 143.829 264.901 143.937L264.32 146.767C264.243 147.146 264.28 147.539 264.426 147.897C264.572 148.255 264.82 148.562 265.14 148.78C265.459 148.998 265.836 149.116 266.222 149.121C266.609 149.126 266.988 149.017 267.313 148.807L277.663 142.046C277.928 141.872 278.146 141.635 278.297 141.356C278.448 141.076 278.527 140.763 278.527 140.445C278.527 140.126 278.448 139.812 278.297 139.53C278.146 139.248 277.928 139.008 277.663 138.83L276.129 137.817C276.069 137.775 276.023 137.716 275.997 137.648C275.97 137.579 275.965 137.505 275.981 137.435C275.997 137.365 276.035 137.303 276.088 137.257C276.141 137.21 276.207 137.183 276.278 137.177L285.897 136.015C285.975 136.006 286.053 136.018 286.124 136.051C286.195 136.084 286.254 136.137 286.295 136.201C286.337 136.266 286.357 136.341 286.355 136.416C286.354 136.492 286.329 136.564 286.285 136.626L284.721 138.934C284.195 139.708 284.388 140.2 285.302 140.408L291.973 141.957C292.231 142.019 292.464 142.158 292.64 142.355C292.816 142.552 292.926 142.798 292.956 143.059L293.447 147.303C293.537 148.127 293.169 148.539 292.345 148.539H286.493C286.143 148.541 285.801 148.64 285.504 148.825C285.207 149.01 284.967 149.274 284.811 149.588C284.655 149.901 284.589 150.251 284.621 150.6C284.652 150.948 284.78 151.281 284.989 151.562L289.59 157.637C289.726 157.812 289.799 158.027 289.799 158.248C289.799 158.469 289.726 158.684 289.59 158.858L287.744 161.226C287.667 161.322 287.625 161.442 287.626 161.566C287.627 161.69 287.671 161.809 287.75 161.902C287.829 161.995 287.937 162.056 288.056 162.074C288.175 162.093 288.297 162.066 288.399 162.001C289.779 161.216 290.707 160.085 291.184 158.605C291.262 158.371 291.281 158.121 291.24 157.877C291.198 157.633 291.097 157.403 290.946 157.206L288.235 153.706C288.163 153.608 288.12 153.492 288.111 153.37C288.101 153.249 288.126 153.127 288.181 153.019C288.237 152.911 288.322 152.82 288.426 152.758C288.53 152.695 288.65 152.662 288.771 152.664C290.29 152.703 291.457 152.113 292.271 150.892C292.368 150.741 292.509 150.624 292.675 150.556C292.841 150.488 293.024 150.472 293.199 150.511C293.374 150.55 293.533 150.641 293.655 150.773C293.777 150.905 293.855 151.071 293.879 151.249C294.753 157.424 296.818 163.212 300.074 168.612C315.01 193.421 287.431 196.653 271.274 193.257C268.872 192.751 265.099 190.81 259.957 187.435C259.361 187.038 259.043 187.197 259.004 187.911C258.557 196.146 263.203 201.165 270.53 204.217C270.746 204.308 270.933 204.456 271.072 204.644C271.211 204.833 271.297 205.056 271.319 205.29C271.835 210.968 272.634 216.602 273.716 222.191C274.893 228.252 273.731 232.436 268.653 235.549C268.188 235.829 267.651 235.955 267.119 235.906C249.627 234.089 235.684 226.187 225.29 212.199C224.99 211.796 224.824 211.309 224.816 210.807C224.808 210.304 224.958 209.812 225.245 209.4C231.579 200.227 236.275 190.269 239.332 179.528C239.432 179.16 239.67 178.932 240.047 178.843L245.274 177.696C245.371 177.67 245.454 177.609 245.508 177.525C245.562 177.44 245.583 177.339 245.566 177.24C245.549 177.142 245.496 177.053 245.417 176.991C245.339 176.929 245.24 176.899 245.14 176.907ZM161.764 376.406C165.705 374.797 170.108 373.939 174.972 373.829C196.758 373.338 212.722 376.033 237.635 379.875C238.21 379.965 238.31 380.228 237.933 380.664C223.875 396.553 224.128 422.137 232.199 440.408C232.223 440.456 232.234 440.509 232.233 440.562C232.231 440.616 232.217 440.668 232.191 440.716C232.165 440.764 232.128 440.805 232.083 440.837C232.038 440.869 231.986 440.89 231.931 440.9C201.806 445.233 168.301 448.971 138.071 444.235C91.7148 436.983 86.7858 386.904 95.9737 350.614C108.572 300.802 128.898 256.516 173.349 227.433C182.537 221.432 213.704 207.866 219.988 224.157C237.977 270.662 213.407 330.689 192.41 372.057C192.181 372.524 191.804 372.742 191.278 372.712C185.262 372.34 166.305 371.283 161.376 375.795C161.319 375.855 161.283 375.933 161.275 376.016C161.266 376.098 161.286 376.182 161.331 376.252C161.375 376.322 161.442 376.376 161.521 376.403C161.599 376.431 161.685 376.432 161.764 376.406ZM259.778 259.553C252.958 248.236 245.448 237.39 237.248 227.016C237.186 226.934 237.156 226.832 237.163 226.729C237.17 226.627 237.213 226.53 237.285 226.456C237.357 226.383 237.452 226.337 237.555 226.328C237.657 226.319 237.759 226.346 237.843 226.405C246.46 232.57 256.065 236.115 266.658 237.038C267.214 237.087 267.482 237.39 267.462 237.946C267.174 245.7 265.045 252.897 261.074 259.539C261.007 259.65 260.913 259.743 260.8 259.808C260.687 259.873 260.56 259.908 260.43 259.909C260.3 259.911 260.172 259.879 260.058 259.816C259.943 259.754 259.847 259.664 259.778 259.553ZM290.633 269.367C298.664 299.427 302.943 330.228 303.469 361.767C303.514 364.046 303.871 366.577 304.08 368.96C304.129 369.486 303.946 369.918 303.529 370.255L302.591 371.015C302.478 371.109 302.342 371.171 302.197 371.195C302.052 371.22 301.904 371.205 301.766 371.154C301.629 371.103 301.507 371.016 301.414 370.903C301.321 370.789 301.259 370.653 301.235 370.509C296.738 343.794 288.975 318.116 277.945 293.476L261.639 262.249C261.401 261.792 261.396 261.335 261.625 260.879L266.732 250.425L269.398 236.561C272.217 234.645 274.113 232.342 275.086 229.652C275.129 229.526 275.208 229.416 275.314 229.336C275.421 229.256 275.549 229.21 275.683 229.204C275.817 229.198 275.95 229.231 276.067 229.3C276.183 229.369 276.277 229.471 276.337 229.592C282.135 242.141 286.9 255.399 290.633 269.367ZM310.721 393.769C323.587 390.165 336.707 385.832 350.094 385.579C350.398 385.578 350.695 385.673 350.942 385.85C351.19 386.028 351.374 386.28 351.47 386.569C351.566 386.858 351.568 387.169 351.476 387.46C351.384 387.75 351.202 388.004 350.958 388.185C338.836 396.921 325.712 402.788 311.585 405.786C311.267 405.856 311.039 406.069 310.9 406.426C310.866 406.511 310.856 406.603 310.87 406.692C310.884 406.782 310.922 406.867 310.98 406.937C311.038 407.007 311.113 407.06 311.199 407.091C311.284 407.121 311.377 407.129 311.466 407.111C324.223 404.391 336.106 399.532 347.116 392.533C348.883 391.411 350.555 391.505 352.134 392.816C352.551 393.163 352.586 393.54 352.238 393.947C343.631 404.103 323.319 412.353 311.287 415.763C310.969 415.853 310.845 416.056 310.915 416.374C310.945 416.533 311.024 416.647 311.153 416.716C311.302 416.816 311.53 416.821 311.838 416.731C318.39 414.994 324.714 412.651 330.81 409.702C335.188 407.578 339.635 406.506 344.152 406.486C344.375 406.483 344.593 406.548 344.777 406.673C344.961 406.798 345.103 406.976 345.182 407.184C345.262 407.392 345.276 407.619 345.222 407.835C345.168 408.051 345.05 408.246 344.882 408.392C336.89 415.441 327.921 420.608 317.973 423.894C299.736 429.92 280.983 434.08 261.714 436.373C261.198 436.432 260.825 436.229 260.597 435.762C253.181 420.901 251.498 396.077 263.739 382.749C264.097 382.372 264.528 382.203 265.035 382.243C277.826 383.241 292.867 377.046 304.884 371.342C305.47 371.065 305.683 371.238 305.524 371.864L303.365 380.173C303.292 380.449 303.133 380.695 302.911 380.875C302.688 381.054 302.414 381.158 302.129 381.171L299.999 381.26C299.808 381.258 299.625 381.332 299.491 381.466C299.357 381.6 299.282 381.783 299.284 381.975C299.286 382.166 299.364 382.351 299.501 382.488C299.638 382.625 299.823 382.703 300.014 382.705C309.262 382.913 320.549 380.099 329.871 378.773C333.058 378.327 335.575 378.257 337.421 378.565C339.913 378.992 340.082 379.87 337.928 381.201C329.519 386.422 320.505 390.18 310.885 392.473C310.438 392.582 310.17 392.811 310.081 393.158C309.952 393.714 310.165 393.918 310.721 393.769ZM259.495 437.043L235.982 440.483C234.731 440.671 233.847 440.185 233.331 439.023C225.811 422.122 225.081 395.124 239.913 380.873C240.058 380.737 240.23 380.632 240.417 380.565C240.604 380.498 240.803 380.471 241 380.486L261.371 382.109C261.466 382.12 261.556 382.155 261.633 382.212C261.71 382.268 261.771 382.344 261.81 382.431C261.849 382.518 261.865 382.614 261.856 382.708C261.847 382.803 261.813 382.894 261.759 382.973C250.784 398.191 251.305 420.573 259.748 436.537C259.773 436.587 259.786 436.643 259.786 436.699C259.786 436.755 259.773 436.81 259.748 436.86C259.723 436.909 259.688 436.952 259.644 436.983C259.6 437.015 259.549 437.036 259.495 437.043Z" fill="#102348"/>
<path d="M245.275 177.698L240.048 178.845C239.671 178.934 239.432 179.163 239.333 179.53C236.275 190.272 231.58 200.229 225.246 209.402C224.959 209.815 224.809 210.307 224.817 210.809C224.825 211.311 224.991 211.798 225.291 212.202C235.685 226.19 249.628 234.092 267.12 235.909C267.652 235.957 268.189 235.832 268.654 235.551C273.732 232.439 274.894 228.254 273.717 222.194C272.635 216.604 271.836 210.971 271.32 205.292C271.297 205.059 271.212 204.836 271.073 204.647C270.934 204.458 270.747 204.31 270.53 204.22C263.204 201.167 258.558 196.149 259.004 187.914C259.044 187.199 259.362 187.04 259.958 187.437C265.1 190.813 268.872 192.754 271.275 193.26C287.432 196.655 315.011 193.424 300.075 168.615C296.818 163.214 294.754 157.426 293.88 151.252C293.856 151.074 293.777 150.908 293.656 150.776C293.534 150.644 293.375 150.552 293.2 150.513C293.025 150.475 292.842 150.49 292.676 150.558C292.51 150.626 292.369 150.743 292.272 150.894C291.458 152.115 290.291 152.706 288.772 152.666C288.651 152.665 288.531 152.697 288.427 152.76C288.322 152.823 288.238 152.913 288.182 153.022C288.126 153.13 288.102 153.251 288.111 153.373C288.121 153.494 288.164 153.61 288.236 153.709L290.946 157.208C291.098 157.405 291.199 157.636 291.24 157.88C291.282 158.124 291.263 158.374 291.185 158.608C290.708 160.087 289.78 161.219 288.4 162.003C288.298 162.069 288.176 162.095 288.057 162.077C287.938 162.059 287.829 161.998 287.75 161.905C287.672 161.811 287.628 161.692 287.627 161.568C287.626 161.444 287.667 161.324 287.745 161.229L289.591 158.861C289.726 158.686 289.8 158.471 289.8 158.25C289.8 158.029 289.726 157.815 289.591 157.64L284.99 151.564C284.78 151.284 284.653 150.951 284.621 150.602C284.59 150.254 284.656 149.903 284.812 149.59C284.968 149.277 285.207 149.013 285.504 148.828C285.801 148.642 286.144 148.543 286.494 148.541H292.346C293.17 148.541 293.537 148.129 293.448 147.305L292.957 143.061C292.927 142.8 292.816 142.555 292.641 142.358C292.465 142.16 292.232 142.021 291.974 141.959L285.303 140.411C284.389 140.202 284.196 139.711 284.722 138.936L286.285 136.628C286.33 136.567 286.354 136.494 286.356 136.419C286.358 136.343 286.337 136.269 286.296 136.204C286.255 136.139 286.196 136.087 286.125 136.054C286.054 136.021 285.975 136.008 285.898 136.018L276.278 137.179C276.208 137.185 276.141 137.213 276.088 137.259C276.035 137.305 275.998 137.368 275.982 137.438C275.966 137.508 275.971 137.582 275.997 137.65C276.024 137.718 276.07 137.778 276.129 137.82L277.663 138.832C277.929 139.01 278.147 139.251 278.298 139.532C278.449 139.814 278.528 140.128 278.528 140.447C278.528 140.766 278.449 141.079 278.298 141.358C278.147 141.638 277.929 141.875 277.663 142.049L267.314 148.809C266.989 149.019 266.61 149.128 266.223 149.124C265.836 149.119 265.46 149 265.14 148.782C264.821 148.565 264.573 148.257 264.427 147.899C264.281 147.541 264.244 147.148 264.321 146.769L264.901 143.94C264.932 143.832 264.923 143.716 264.876 143.614C264.829 143.512 264.748 143.429 264.646 143.381C264.545 143.333 264.43 143.323 264.321 143.351C264.212 143.38 264.117 143.446 264.053 143.538C260.439 147.985 257.505 152.617 255.252 157.431C250.636 167.349 245.081 157.759 241.031 154.185C227.078 141.885 213.065 158.25 224.665 169.955C230.284 175.614 237.109 177.932 245.141 176.909C245.24 176.902 245.339 176.932 245.418 176.994C245.497 177.055 245.55 177.144 245.567 177.243C245.583 177.342 245.563 177.443 245.509 177.527C245.455 177.611 245.371 177.672 245.275 177.698ZM269.011 152.696C272.149 151.852 275.231 150.805 278.259 149.554C278.676 149.375 279.038 149.455 279.346 149.792C280.369 150.924 280.607 152.195 280.061 153.604C279.852 154.15 279.47 154.528 278.914 154.736C275.34 156.066 271.796 156.032 268.282 154.632C267.577 154.354 267.463 153.917 267.939 153.321C268.168 153.034 268.525 152.825 269.011 152.696ZM228.477 156.985C235.134 156.583 241.343 161.482 242.684 167.96C242.702 168.042 242.692 168.128 242.655 168.204C242.619 168.28 242.557 168.341 242.481 168.377C242.405 168.414 242.318 168.423 242.236 168.404C242.154 168.385 242.081 168.338 242.028 168.272C237.576 162.405 237.233 158.37 228.611 158.236C228.194 158.226 227.991 158.007 228.001 157.58C228.011 157.203 228.17 157.005 228.477 156.985ZM279.659 166.679C281.178 172.412 284.454 171.459 289.13 170.893C289.288 170.876 289.448 170.918 289.578 171.01C289.709 171.102 289.801 171.239 289.837 171.395C289.874 171.55 289.852 171.713 289.777 171.854C289.701 171.995 289.577 172.103 289.427 172.159C284.057 174.144 280.503 172.735 278.765 167.93C278.517 167.255 278.582 166.763 278.959 166.456C279.306 166.158 279.54 166.232 279.659 166.679Z" fill="white"/>
<path d="M437.209 176.654C437.06 176.842 437.115 177.15 437.373 177.577C443.826 184.02 446.516 191.808 445.444 200.941C445.384 201.448 445.121 201.795 444.655 201.984C437.963 204.754 433.298 209.39 430.657 215.892C429.952 217.62 430.215 218.905 431.446 219.749C433.635 221.268 436.792 219.719 438.892 218.558C438.994 218.504 439.111 218.483 439.226 218.498C439.341 218.512 439.448 218.562 439.533 218.639C439.617 218.717 439.674 218.819 439.695 218.93C439.716 219.041 439.701 219.156 439.651 219.258C438.892 220.911 437.968 222.445 438.46 224.157C439.964 229.518 450.462 222.042 452.696 219.749C452.733 219.708 452.753 219.655 452.753 219.6C452.753 219.545 452.733 219.492 452.696 219.451C452.607 219.362 452.517 219.273 452.428 219.183C452.229 218.985 452.031 218.98 451.832 219.168C448.983 221.859 445.662 223.73 441.87 224.782C441.531 224.876 441.173 224.874 440.835 224.775C440.498 224.676 440.195 224.486 439.96 224.224C439.725 223.963 439.567 223.641 439.505 223.295C439.442 222.949 439.477 222.593 439.606 222.266C442.019 216.23 446.313 212.244 452.487 210.308C452.717 210.233 452.961 210.209 453.202 210.238C453.444 210.266 453.677 210.346 453.887 210.472C457.054 212.398 458.176 215.222 457.253 218.945C452.051 239.813 448.278 256.426 445.935 268.786C445.846 269.243 445.573 269.506 445.116 269.575C428.483 272.092 404.627 267.759 393.384 253.791C392.629 252.848 392.466 251.81 392.892 250.678C399.802 232.541 409.005 214.448 408.052 195C408.032 194.533 408.131 194.091 408.35 193.675L408.796 192.841C409.164 192.166 409.342 191.356 409.332 190.413C407.307 191.337 406.344 192.652 406.444 194.36C406.95 203.086 405.927 211.162 403.376 218.588C392.922 249.115 379.505 277.989 365.82 307.265C365.779 307.358 365.712 307.436 365.628 307.491C365.543 307.546 365.444 307.575 365.344 307.575C365.243 307.575 365.144 307.546 365.059 307.491C364.975 307.436 364.908 307.358 364.867 307.265C351.897 278.897 319.895 224.053 282.473 227.552L283.873 228.803C318.912 226.406 350.78 279.642 363.274 306.595C363.601 307.29 363.998 307.975 364.465 308.65C364.713 309.008 364.753 309.385 364.584 309.782L361.77 316.051C361.561 316.498 361.214 316.731 360.727 316.751C351.39 317.243 350.556 316.513 348.501 327.16C348.779 327.657 349.231 327.552 349.857 326.847L351.956 319.283C352.074 318.897 352.334 318.571 352.683 318.369C353.033 318.168 353.445 318.106 353.838 318.197C354.231 318.288 354.575 318.524 354.8 318.858C355.026 319.192 355.116 319.599 355.054 319.997L353.505 328.322L351.316 337.48C351.217 337.898 351.214 338.333 351.307 338.752C351.4 339.171 351.587 339.564 351.853 339.9C352.12 340.237 352.459 340.509 352.846 340.696C353.232 340.883 353.656 340.98 354.086 340.979L383.883 341.009C384.579 341.009 385.255 340.778 385.807 340.353C386.359 339.927 386.756 339.331 386.936 338.656L390.242 326.148C392.163 320.429 390.927 317.183 384.509 317.183C377.391 317.183 370.357 317.183 363.408 317.183C363.319 317.181 363.232 317.157 363.154 317.114C363.077 317.07 363.012 317.007 362.964 316.932C362.917 316.857 362.889 316.771 362.883 316.682C362.878 316.593 362.894 316.504 362.931 316.424L379.163 281.548C379.229 281.403 379.33 281.277 379.458 281.182C379.586 281.087 379.736 281.027 379.894 281.006C380.052 280.985 380.213 281.005 380.361 281.063C380.509 281.121 380.64 281.217 380.741 281.34C393.994 296.961 422.288 302.098 441.379 299.611C441.776 299.562 441.949 299.73 441.9 300.118C438.921 325.8 435.189 346.747 430.701 362.959C425.251 382.645 417.433 401.944 397.673 411.43L397.256 413.277C422.377 401.929 430.344 374.038 435.243 349.497C439.294 329.265 442.555 308.903 445.027 288.413C448.035 263.47 452.16 243.65 458.28 220.404C459.64 215.252 458.171 211.395 453.872 208.834C453.455 208.586 453.222 208.218 453.172 207.732C452.795 204.198 450.879 202.014 447.424 201.18C446.978 201.071 446.779 200.783 446.829 200.316C447.633 192.086 445.498 184.869 440.425 178.664C439.304 177.304 438.232 176.634 437.209 176.654ZM431.684 216.473C433.65 211.887 443.568 199.02 449.599 203.428C451.058 204.5 451.718 206.114 451.579 208.268C451.549 208.794 451.301 209.191 450.835 209.459C445.474 212.542 440.917 216.741 435.214 218.871C432.821 219.764 431.605 219.173 431.565 217.099C431.555 216.892 431.596 216.678 431.684 216.473ZM437.328 271.392C439.959 271.313 442.59 271.119 445.22 270.811C445.637 270.762 445.821 270.945 445.771 271.362L442.674 296.395C442.603 296.983 442.335 297.531 441.913 297.947C441.491 298.364 440.941 298.625 440.351 298.688C419.612 300.892 400.899 295.878 384.211 283.648C383.109 282.834 381.987 281.498 380.845 279.642C380.698 279.4 380.613 279.125 380.598 278.842C380.582 278.559 380.637 278.276 380.756 278.019L391.195 255.027C391.383 254.61 391.647 254.555 391.984 254.863C404.741 266.399 419.856 271.908 437.328 271.392ZM390.063 321.859L385.908 338.641C385.848 338.892 385.705 339.115 385.503 339.275C385.3 339.434 385.049 339.52 384.792 339.52H353.654C353.465 339.52 353.279 339.478 353.109 339.396C352.939 339.315 352.79 339.196 352.673 339.048C352.555 338.901 352.473 338.729 352.431 338.545C352.39 338.361 352.39 338.17 352.433 337.986L356.93 319.149C356.993 318.885 357.143 318.651 357.353 318.484C357.564 318.316 357.824 318.225 358.091 318.225L387.308 318.33C387.74 318.33 388.165 318.429 388.552 318.619C388.94 318.809 389.279 319.084 389.545 319.424C389.81 319.764 389.995 320.16 390.084 320.582C390.174 321.003 390.167 321.44 390.063 321.859Z" fill="#102348"/>
<path d="M219.974 216.089C233.068 232.489 241.71 251.138 245.9 272.035C245.999 272.551 246.312 272.844 246.838 272.914C259.317 274.492 264.603 289.026 264.41 300.016C265.601 313.627 262.965 326.23 256.502 337.825C256.244 338.292 255.887 338.669 255.43 338.957C254.845 339.324 254.462 339.825 254.284 340.461C254.135 340.967 254.323 341.27 254.849 341.369L258.959 342.129C260.955 340.322 263.129 339.761 265.482 340.446C265.857 340.556 266.191 340.775 266.443 341.074C266.695 341.372 266.853 341.738 266.898 342.125C266.942 342.512 266.871 342.903 266.693 343.248C266.516 343.593 266.239 343.877 265.899 344.065C263.506 345.395 261.496 345.395 259.868 344.065C257.366 344.462 254.984 344.06 252.72 342.858C252.293 342.63 251.856 342.625 251.41 342.843L246.049 345.479C244.371 348.12 242.237 348.77 239.645 347.43C239.272 347.239 238.963 346.942 238.758 346.576C238.553 346.21 238.46 345.791 238.492 345.373C238.524 344.954 238.679 344.555 238.937 344.224C239.195 343.893 239.545 343.646 239.943 343.514C241.939 342.838 243.835 342.739 245.632 343.216C247.141 342.958 248.307 342.481 249.131 341.786C249.214 341.714 249.281 341.627 249.33 341.529C249.379 341.431 249.407 341.325 249.414 341.217C249.421 341.108 249.406 341 249.37 340.898C249.335 340.797 249.279 340.704 249.206 340.625C240.048 330.752 235.863 316.322 233.332 303.456C229.892 293.806 230.77 278.036 241.7 273.465C242.157 273.276 242.341 272.939 242.251 272.452C239.114 255.546 232.592 240.108 222.684 226.14C228.75 250.363 228.859 273.778 223.012 296.383C216.45 321.688 206.656 346.879 193.631 371.956C193.383 372.432 193.527 372.696 194.063 372.745C216.058 375.083 240.539 379.938 264.395 380.712C277.112 381.114 288.34 377.451 299.494 372.239C299.95 372.02 300.139 371.663 300.059 371.167C289.685 311.224 264.385 258.564 224.159 213.185C223.791 212.758 223.359 212.679 222.863 212.947C221.88 213.483 220.917 214.53 219.974 216.089Z" fill="white"/>
<path d="M274.536 219.111C274.813 222.546 275.717 225.246 277.246 227.212C289.099 243.701 297.969 261.591 303.857 280.88C303.995 281.327 303.916 281.734 303.618 282.101C293.954 293.835 315.472 302.889 314.4 288.579C314.132 285.084 312.141 282.538 308.428 280.94C307.991 280.751 307.694 280.433 307.535 279.986C302.859 267.021 297.26 253.877 290.737 240.554L286.776 233.719L283.872 228.805L282.473 227.554L274.536 219.111ZM308.733 291.668C308.399 291.759 308.047 291.77 307.696 291.7C307.345 291.63 307.003 291.48 306.689 291.259C306.375 291.038 306.095 290.751 305.865 290.413C305.635 290.075 305.46 289.693 305.35 289.289C305.239 288.886 305.196 288.468 305.221 288.06C305.247 287.652 305.342 287.262 305.5 286.912C305.658 286.562 305.876 286.259 306.142 286.02C306.408 285.781 306.717 285.611 307.051 285.52C307.385 285.428 307.737 285.418 308.088 285.488C308.439 285.558 308.781 285.707 309.095 285.928C309.409 286.149 309.689 286.437 309.919 286.775C310.149 287.113 310.324 287.494 310.434 287.898C310.545 288.302 310.588 288.719 310.563 289.127C310.537 289.535 310.442 289.925 310.284 290.275C310.126 290.625 309.908 290.929 309.642 291.167C309.376 291.406 309.067 291.576 308.733 291.668Z" fill="#BDE0FF"/>
<path d="M277.247 227.211C289.448 256.676 297.514 286.771 301.445 317.497C303.629 334.533 304.915 351.528 305.302 368.485C305.304 368.623 305.357 368.755 305.45 368.857C305.543 368.959 305.67 369.023 305.808 369.038C305.945 369.053 306.083 369.017 306.195 368.937C306.308 368.857 306.387 368.738 306.419 368.604C309.506 355.777 312.743 343.006 316.128 330.289C316.724 328.055 318.669 327.127 321.965 327.504L327.028 326.908C321.861 297.006 310.946 264.26 290.738 240.554C297.261 253.876 302.86 267.02 307.536 279.986C307.694 280.432 307.992 280.75 308.429 280.939C312.142 282.537 314.132 285.083 314.401 288.578C315.473 302.889 293.955 293.835 303.619 282.1C303.917 281.733 303.996 281.326 303.857 280.879C297.97 261.59 289.1 243.701 277.247 227.211Z" fill="white"/>
<path d="M283.872 228.805L286.776 233.719C310.23 259.541 322.336 293.106 328.472 326.968L348.5 327.162C350.555 316.515 351.389 317.244 360.726 316.753C361.213 316.733 361.56 316.5 361.769 316.053L364.583 309.784C364.752 309.387 364.712 309.009 364.464 308.652C363.997 307.977 363.6 307.292 363.273 306.597C350.779 279.644 318.911 226.407 283.872 228.805Z" fill="white"/>
<path d="M219.319 214.895C217.343 214.498 216.232 215.079 215.983 216.638L222.684 226.138C232.592 240.106 239.115 255.544 242.252 272.45C242.341 272.937 242.157 273.274 241.701 273.463C230.77 278.034 229.892 293.804 233.332 303.454C233.917 303.097 234.593 302.943 235.357 302.992L235.759 301.205C235.868 300.739 235.873 300.267 235.774 299.791C234.712 294.44 234.99 289.243 236.608 284.2C241.314 269.487 257.232 278.332 259.064 288.92C259.789 293.129 260.876 297.066 262.325 300.729L264.41 300.014C264.604 289.024 259.317 274.49 246.838 272.912C246.312 272.842 245.999 272.55 245.9 272.033C241.711 251.136 233.069 232.487 219.974 216.087C219.379 215.541 219.16 215.144 219.319 214.895Z" fill="#BDE0FF"/>
<path d="M161.378 375.797C166.307 371.285 185.264 372.342 191.28 372.715C191.806 372.744 192.183 372.526 192.412 372.059C213.408 330.691 237.979 270.665 219.99 224.159C213.706 207.868 182.539 221.434 173.351 227.435C128.9 256.518 108.573 300.805 95.9754 350.616C86.7875 386.906 91.7165 436.986 138.073 444.238C168.302 448.973 201.808 445.235 231.933 440.902C231.988 440.893 232.04 440.871 232.085 440.839C232.13 440.807 232.167 440.766 232.193 440.718C232.219 440.67 232.233 440.618 232.234 440.564C232.236 440.511 232.224 440.458 232.201 440.411C224.13 422.139 223.877 396.556 237.934 380.667C238.311 380.23 238.212 379.967 237.636 379.877C212.723 376.035 196.76 373.34 174.974 373.832C170.109 373.941 165.706 374.799 161.765 376.408C161.686 376.434 161.601 376.433 161.522 376.406C161.444 376.378 161.377 376.324 161.332 376.254C161.288 376.184 161.268 376.101 161.276 376.018C161.285 375.935 161.32 375.857 161.378 375.797Z" fill="white"/>
<path d="M259.778 259.555C259.847 259.665 259.943 259.756 260.057 259.818C260.172 259.88 260.3 259.912 260.43 259.91C260.56 259.909 260.687 259.874 260.8 259.809C260.913 259.744 261.007 259.652 261.074 259.54C265.045 252.898 267.174 245.701 267.462 237.948C267.482 237.392 267.214 237.089 266.658 237.039C256.065 236.116 246.46 232.572 237.843 226.407C237.759 226.348 237.657 226.32 237.554 226.329C237.452 226.339 237.356 226.384 237.285 226.458C237.213 226.531 237.17 226.628 237.163 226.731C237.156 226.833 237.186 226.935 237.247 227.017C245.448 237.392 252.958 248.237 259.778 259.555Z" fill="white"/>
<path d="M269.399 236.561C277.212 239.41 282.136 244.538 284.171 251.943C286.017 258.615 274.715 259.478 270.888 259.062C270.382 259.012 269.975 258.784 269.667 258.377C268.198 256.49 267.22 253.84 266.733 250.425L261.626 260.878C261.397 261.335 261.402 261.792 261.64 262.248L277.946 293.475L271.32 261.519C271.295 261.394 271.299 261.266 271.331 261.143C271.362 261.021 271.421 260.906 271.502 260.809C271.583 260.712 271.686 260.635 271.801 260.582C271.916 260.53 272.042 260.504 272.169 260.506C276.537 260.585 280.518 259.429 284.111 257.036C284.205 256.972 284.312 256.929 284.425 256.911C284.537 256.893 284.652 256.899 284.762 256.931C284.871 256.962 284.972 257.017 285.058 257.092C285.144 257.167 285.212 257.26 285.258 257.364L290.634 269.366C286.901 255.398 282.136 242.14 276.338 229.592C276.278 229.47 276.184 229.369 276.068 229.3C275.951 229.231 275.818 229.197 275.684 229.203C275.55 229.21 275.421 229.256 275.315 229.335C275.209 229.415 275.13 229.525 275.087 229.651C274.114 232.342 272.218 234.645 269.399 236.561Z" fill="white"/>
<path d="M235.358 302.994C238.262 315.562 241.627 328.77 250.338 338.509C250.532 338.727 250.773 338.897 251.042 339.007C251.312 339.117 251.603 339.163 251.894 339.143C252.184 339.123 252.466 339.037 252.718 338.891C252.97 338.745 253.185 338.543 253.346 338.301C257.953 331.421 260.757 324.129 261.76 316.425C262.475 310.955 262.663 305.724 262.326 300.73C260.876 297.067 259.789 293.131 259.065 288.921C257.233 278.334 241.314 269.488 236.609 284.201C234.99 289.244 234.712 294.441 235.775 299.792C235.874 300.268 235.869 300.74 235.76 301.207L235.358 302.994Z" fill="white"/>
<path d="M264.41 300.015L262.326 300.729C262.663 305.723 262.474 310.955 261.76 316.425C260.757 324.129 257.952 331.42 253.346 338.3C253.184 338.542 252.969 338.744 252.717 338.89C252.466 339.036 252.184 339.122 251.893 339.142C251.603 339.163 251.312 339.116 251.042 339.006C250.773 338.896 250.532 338.726 250.338 338.509C241.627 328.77 238.261 315.561 235.357 302.993C234.593 302.943 233.918 303.097 233.332 303.455C235.864 316.321 240.048 330.75 249.206 340.623C249.279 340.702 249.335 340.795 249.371 340.897C249.407 340.999 249.422 341.107 249.415 341.215C249.408 341.324 249.379 341.43 249.331 341.528C249.282 341.625 249.214 341.713 249.132 341.785C248.308 342.48 247.141 342.956 245.632 343.214C245.622 344.128 245.761 344.882 246.049 345.478L251.41 342.842C251.857 342.624 252.294 342.629 252.721 342.857C254.984 344.058 257.367 344.46 259.868 344.063C259.978 343.328 259.675 342.683 258.96 342.127L254.85 341.368C254.324 341.269 254.135 340.966 254.284 340.459C254.463 339.824 254.845 339.323 255.431 338.955C255.888 338.667 256.245 338.29 256.503 337.824C262.966 326.228 265.602 313.625 264.41 300.015Z" fill="#102348"/>
<path d="M246.05 345.478C245.762 344.883 245.623 344.128 245.633 343.215C243.836 342.738 241.94 342.837 239.944 343.513C239.546 343.645 239.196 343.892 238.938 344.223C238.68 344.554 238.525 344.953 238.493 345.372C238.461 345.79 238.554 346.209 238.759 346.575C238.964 346.941 239.273 347.238 239.647 347.429C242.238 348.769 244.372 348.119 246.05 345.478Z" fill="#BDE0FF"/>
<path d="M258.959 342.125C259.674 342.681 259.977 343.327 259.867 344.061C261.496 345.392 263.506 345.392 265.898 344.061C266.239 343.874 266.515 343.59 266.693 343.245C266.871 342.9 266.942 342.509 266.897 342.122C266.853 341.735 266.694 341.369 266.442 341.07C266.191 340.771 265.856 340.553 265.482 340.443C263.129 339.758 260.955 340.319 258.959 342.125Z" fill="#BDE0FF"/>
<path d="M269.399 236.563L266.733 250.427C267.219 253.842 268.197 256.493 269.667 258.379C269.974 258.786 270.381 259.015 270.888 259.064C274.715 259.481 286.017 258.618 284.171 251.946C282.136 244.54 277.212 239.413 269.399 236.563Z" fill="#D9C6F4"/>
<path d="M286.777 233.718L290.738 240.553C310.946 264.26 321.861 297.006 327.028 326.908C327.822 327.424 328.304 327.444 328.473 326.967C322.337 293.104 310.231 259.539 286.777 233.718Z" fill="#102348"/>
<path d="M310.435 287.9C310.9 289.597 310.138 291.285 308.734 291.669C307.33 292.053 305.815 290.988 305.351 289.291C304.886 287.593 305.648 285.905 307.052 285.521C308.456 285.137 309.971 286.202 310.435 287.9Z" fill="white"/>
<path d="M277.946 293.479C288.975 318.119 296.739 343.797 301.236 370.512C301.26 370.656 301.321 370.792 301.414 370.906C301.508 371.019 301.629 371.106 301.767 371.157C301.904 371.208 302.053 371.223 302.197 371.198C302.342 371.174 302.478 371.112 302.591 371.018L303.529 370.258C303.946 369.921 304.13 369.489 304.08 368.963C303.871 366.58 303.514 364.049 303.469 361.77C302.943 330.231 298.665 299.43 290.633 269.37L285.257 257.367C285.212 257.263 285.143 257.17 285.058 257.095C284.972 257.02 284.871 256.965 284.761 256.934C284.652 256.903 284.536 256.896 284.424 256.914C284.312 256.933 284.205 256.975 284.111 257.04C280.517 259.432 276.536 260.589 272.168 260.509C272.041 260.507 271.916 260.533 271.8 260.586C271.685 260.638 271.583 260.716 271.501 260.813C271.42 260.91 271.361 261.024 271.33 261.147C271.298 261.27 271.295 261.398 271.319 261.522L277.946 293.479Z" fill="#D9C6F4"/>
<path d="M437.208 176.657C436.6 176.592 435.982 176.638 435.481 176.865C434.875 179.357 435.163 181.829 436.345 184.281C435.918 182.027 435.888 179.913 436.255 177.937C436.315 177.6 436.687 177.48 437.372 177.58C437.114 177.153 437.059 176.845 437.208 176.657Z" fill="#102348"/>
<path d="M437.372 177.578C436.687 177.479 436.315 177.598 436.255 177.935C435.888 179.911 435.918 182.025 436.344 184.279L440.052 196.549C440.136 196.834 440.137 197.134 440.054 197.418C439.97 197.702 439.807 197.958 439.582 198.158C439.356 198.357 439.077 198.492 438.777 198.547C438.476 198.602 438.165 198.576 437.878 198.47C437.461 198.311 436.965 198.406 436.389 198.753C436.081 202 434.94 204.69 432.964 206.824C432.886 206.909 432.782 206.963 432.669 206.976C432.556 206.99 432.441 206.963 432.344 206.9C432.247 206.837 432.175 206.741 432.138 206.629C432.102 206.518 432.104 206.397 432.145 206.288L435.749 197.532L430.433 191.799C430.085 191.422 429.658 191.268 429.152 191.337C428.795 191.387 428.462 191.516 428.154 191.725C427.39 197.989 425.176 203.657 421.513 208.73C421.225 209.127 421.16 209.559 421.319 210.026C423.414 216.419 424.426 222.986 424.357 229.727C424.347 229.926 424.302 230.07 424.223 230.159C424.134 230.268 424.009 230.343 423.851 230.382C423.394 230.492 423.171 230.318 423.181 229.861C423.2 221.403 421.518 213.401 418.132 205.856C412.608 206.795 411.163 197.8 410.329 193.571C410.2 192.916 409.689 192.673 408.796 192.841L408.349 193.675C408.13 194.092 408.031 194.534 408.051 195.001C409.004 214.449 399.801 232.542 392.892 250.679C392.465 251.811 392.629 252.848 393.383 253.791C404.626 267.76 428.482 272.093 445.115 269.576C445.572 269.507 445.845 269.244 445.934 268.787C448.277 256.427 452.05 239.814 457.252 218.946C458.175 215.223 457.053 212.399 453.886 210.473C453.677 210.347 453.443 210.267 453.202 210.238C452.96 210.21 452.716 210.234 452.487 210.309C446.312 212.245 442.018 216.231 439.606 222.267C439.477 222.594 439.441 222.95 439.504 223.296C439.566 223.642 439.724 223.964 439.959 224.225C440.194 224.487 440.497 224.677 440.835 224.776C441.172 224.874 441.53 224.877 441.869 224.783C445.661 223.731 448.982 221.86 451.831 219.169C452.03 218.981 452.229 218.986 452.427 219.184C452.516 219.273 452.606 219.363 452.695 219.452C452.732 219.493 452.752 219.546 452.752 219.601C452.752 219.656 452.732 219.709 452.695 219.75C450.461 222.043 439.963 229.519 438.459 224.158C437.968 222.445 438.891 220.911 439.65 219.259C439.7 219.156 439.715 219.042 439.694 218.93C439.673 218.819 439.616 218.718 439.532 218.64C439.448 218.563 439.34 218.513 439.225 218.498C439.11 218.484 438.993 218.505 438.891 218.559C436.791 219.72 433.634 221.269 431.445 219.75C430.214 218.906 429.951 217.621 430.656 215.893C433.297 209.391 437.963 204.754 444.654 201.985C445.12 201.796 445.383 201.449 445.443 200.942C446.515 191.809 443.825 184.021 437.372 177.578Z" fill="white"/>
<path d="M437.328 271.392C419.856 271.909 404.741 266.399 391.984 254.863C391.646 254.555 391.383 254.61 391.195 255.027L380.756 278.019C380.636 278.276 380.582 278.559 380.598 278.842C380.613 279.125 380.698 279.4 380.845 279.642C381.987 281.499 383.109 282.834 384.211 283.648C400.899 295.879 419.612 300.892 440.351 298.688C440.94 298.625 441.491 298.364 441.913 297.947C442.335 297.531 442.603 296.984 442.674 296.395L445.771 271.363C445.821 270.946 445.637 270.762 445.22 270.812C442.59 271.119 439.959 271.313 437.328 271.392ZM426.562 283.484C426.562 282.56 426.929 281.674 427.582 281.02C428.236 280.367 429.122 280 430.046 280C430.97 280 431.857 280.367 432.51 281.02C433.164 281.674 433.531 282.56 433.531 283.484C433.531 284.408 433.164 285.295 432.51 285.948C431.857 286.602 430.97 286.969 430.046 286.969C429.122 286.969 428.236 286.602 427.582 285.948C426.929 285.295 426.562 284.408 426.562 283.484Z" fill="white"/>
<path d="M426.561 283.484C426.561 284.408 426.928 285.295 427.582 285.948C428.235 286.602 429.122 286.969 430.046 286.969C430.97 286.969 431.856 286.602 432.51 285.948C433.163 285.295 433.53 284.408 433.53 283.484C433.53 282.56 433.163 281.674 432.51 281.02C431.856 280.367 430.97 280 430.046 280C429.122 280 428.235 280.367 427.582 281.02C426.928 281.674 426.561 282.56 426.561 283.484ZM427.782 283.499C427.782 282.895 428.022 282.315 428.45 281.888C428.877 281.461 429.456 281.221 430.061 281.221C430.665 281.221 431.244 281.461 431.672 281.888C432.099 282.315 432.339 282.895 432.339 283.499C432.339 284.103 432.099 284.683 431.672 285.11C431.244 285.537 430.665 285.777 430.061 285.777C429.456 285.777 428.877 285.537 428.45 285.11C428.022 284.683 427.782 284.103 427.782 283.499Z" fill="#102348"/>
<path d="M430.06 285.779C428.802 285.779 427.782 284.759 427.782 283.501C427.782 282.242 428.802 281.222 430.06 281.222C431.319 281.222 432.339 282.242 432.339 283.501C432.339 284.759 431.319 285.779 430.06 285.779Z" fill="white"/>
<path d="M390.241 326.15L413.501 327.714C414.142 327.758 414.766 327.942 415.328 328.253C415.89 328.564 416.377 328.994 416.755 329.514C417.132 330.034 417.391 330.63 417.514 331.26C417.636 331.891 417.618 332.541 417.462 333.164L397.672 411.433C417.433 401.947 425.25 382.648 430.701 362.962C435.188 346.75 438.921 325.803 441.899 300.12C441.949 299.733 441.775 299.564 441.378 299.614C422.287 302.101 393.994 296.963 380.74 281.342C380.639 281.219 380.508 281.124 380.36 281.066C380.212 281.007 380.051 280.988 379.893 281.009C379.735 281.029 379.585 281.09 379.457 281.185C379.329 281.28 379.228 281.406 379.162 281.551L362.93 316.426C362.893 316.507 362.877 316.596 362.883 316.685C362.889 316.773 362.916 316.859 362.964 316.935C363.011 317.01 363.076 317.072 363.153 317.116C363.231 317.16 363.318 317.184 363.407 317.186C370.356 317.186 377.39 317.186 384.508 317.186C390.926 317.186 392.162 320.432 390.241 326.15Z" fill="white"/>
<path d="M390.063 321.859C390.167 321.44 390.174 321.004 390.084 320.582C389.994 320.16 389.81 319.764 389.544 319.424C389.279 319.084 388.94 318.809 388.552 318.619C388.165 318.43 387.739 318.331 387.308 318.33L358.091 318.226C357.824 318.225 357.564 318.316 357.353 318.484C357.142 318.651 356.993 318.886 356.93 319.149L352.432 337.986C352.39 338.17 352.389 338.361 352.431 338.545C352.472 338.729 352.555 338.901 352.672 339.048C352.79 339.196 352.939 339.315 353.109 339.397C353.279 339.478 353.465 339.521 353.654 339.52H384.791C385.049 339.521 385.3 339.434 385.502 339.275C385.705 339.115 385.848 338.892 385.908 338.642L390.063 321.859Z" fill="white"/>
<path d="M349.857 326.849L353.505 328.324L355.054 319.999C355.117 319.601 355.026 319.194 354.8 318.86C354.575 318.526 354.231 318.29 353.838 318.199C353.445 318.108 353.033 318.17 352.684 318.371C352.334 318.573 352.075 318.899 351.956 319.285L349.857 326.849Z" fill="white"/>
<path d="M390.242 326.149L386.936 338.658C386.756 339.333 386.359 339.929 385.807 340.355C385.255 340.78 384.578 341.011 383.883 341.011L354.086 340.981C353.656 340.981 353.232 340.885 352.846 340.698C352.459 340.511 352.12 340.239 351.853 339.902C351.587 339.565 351.4 339.173 351.307 338.754C351.214 338.334 351.217 337.9 351.316 337.482L353.505 328.324L349.857 326.849C349.231 327.554 348.779 327.658 348.501 327.162L328.473 326.968C328.304 327.445 327.822 327.425 327.028 326.909L321.965 327.505L323.127 327.624C323.573 327.673 323.613 327.827 323.246 328.085C322.035 328.929 321.28 329.917 320.982 331.049C316.823 347.25 312.693 363.512 308.593 379.833C308.564 379.939 308.564 380.05 308.592 380.156C308.62 380.263 308.676 380.36 308.753 380.439C308.831 380.519 308.928 380.577 309.036 380.609C309.143 380.641 309.257 380.645 309.367 380.622C319.275 378.408 329.272 377.182 339.358 376.944C339.836 376.931 340.304 377.075 340.692 377.355C341.079 377.635 341.363 378.035 341.5 378.492C341.638 378.95 341.62 379.44 341.451 379.887C341.282 380.334 340.97 380.712 340.564 380.964L332.389 386.087C332.25 386.166 332.215 386.28 332.285 386.429C332.394 386.638 332.553 386.712 332.761 386.653C338.787 384.796 344.878 384.116 351.033 384.613C351.462 384.645 351.87 384.812 352.199 385.09C352.527 385.368 352.759 385.743 352.861 386.161C352.964 386.58 352.931 387.019 352.769 387.418C352.606 387.816 352.322 388.153 351.956 388.38C351.43 388.708 351.058 389.11 350.839 389.586C350.762 389.754 350.75 389.944 350.805 390.118C350.86 390.292 350.979 390.437 351.137 390.525L353.133 391.686C353.357 391.817 353.549 391.997 353.695 392.211C353.842 392.425 353.938 392.669 353.978 392.925C354.018 393.18 354 393.441 353.926 393.688C353.852 393.935 353.723 394.162 353.55 394.352C349.737 398.511 345.33 401.847 340.326 404.359C340.234 404.405 340.162 404.484 340.125 404.581C340.088 404.677 340.088 404.784 340.125 404.88C340.162 404.977 340.234 405.056 340.326 405.103C340.418 405.149 340.524 405.16 340.624 405.133C342.719 404.537 344.565 404.875 346.163 406.145C346.364 406.304 346.504 406.527 346.558 406.777C346.613 407.027 346.578 407.288 346.461 407.516C339.969 420.069 309.01 428.259 296.203 431.252C295.717 431.361 295.394 431.654 295.235 432.131C293.508 437.462 291.498 442.004 296.114 446.158L384.851 446.099C385.981 446.099 387.078 445.724 387.97 445.034C388.863 444.344 389.499 443.378 389.78 442.287L397.256 413.278L397.673 411.432L417.463 333.163C417.619 332.54 417.637 331.89 417.514 331.26C417.392 330.629 417.133 330.033 416.755 329.513C416.378 328.993 415.891 328.563 415.328 328.252C414.766 327.941 414.143 327.757 413.502 327.713L390.242 326.149Z" fill="#BDE0FF"/>
<path d="M310.081 393.159C310.171 392.811 310.439 392.583 310.886 392.474C320.505 390.181 329.52 386.423 337.928 381.201C340.082 379.871 339.914 378.992 337.422 378.565C335.575 378.258 333.059 378.327 329.872 378.774C320.55 380.099 309.262 382.914 300.015 382.705C299.823 382.703 299.639 382.625 299.502 382.488C299.365 382.352 299.287 382.167 299.285 381.976C299.283 381.784 299.357 381.601 299.491 381.467C299.625 381.333 299.808 381.259 300 381.261L302.129 381.171C302.415 381.159 302.689 381.055 302.911 380.875C303.134 380.696 303.293 380.45 303.365 380.174L305.525 371.864C305.684 371.239 305.47 371.065 304.884 371.343C292.867 377.047 277.827 383.241 265.035 382.244C264.529 382.204 264.097 382.373 263.74 382.75C251.499 396.078 253.182 420.901 260.598 435.763C260.826 436.23 261.198 436.433 261.714 436.373C280.984 434.08 299.737 429.921 317.974 423.895C327.921 420.609 336.891 415.441 344.882 408.393C345.05 408.246 345.169 408.052 345.223 407.836C345.276 407.62 345.263 407.393 345.183 407.185C345.103 406.977 344.962 406.799 344.778 406.674C344.593 406.549 344.375 406.484 344.153 406.487C339.636 406.506 335.188 407.579 330.81 409.703C324.715 412.652 318.391 414.995 311.839 416.732C311.531 416.821 311.302 416.816 311.154 416.717C311.025 416.647 310.945 416.533 310.915 416.374C310.846 416.057 310.97 415.853 311.288 415.764C323.32 412.354 343.632 404.104 352.239 393.948C352.586 393.541 352.551 393.164 352.134 392.816C350.556 391.506 348.883 391.412 347.116 392.533C336.106 399.532 324.223 404.392 311.466 407.112C311.377 407.129 311.285 407.122 311.199 407.091C311.114 407.061 311.038 407.007 310.98 406.937C310.922 406.867 310.884 406.783 310.87 406.693C310.856 406.603 310.867 406.511 310.9 406.427C311.039 406.07 311.268 405.856 311.585 405.787C325.712 402.789 338.836 396.921 350.958 388.185C351.203 388.004 351.384 387.751 351.476 387.46C351.568 387.17 351.566 386.858 351.47 386.569C351.375 386.28 351.19 386.029 350.943 385.851C350.696 385.673 350.399 385.578 350.094 385.579C336.707 385.832 323.588 390.166 310.722 393.769C310.166 393.918 309.952 393.715 310.081 393.159Z" fill="white"/>
<path d="M259.495 437.045C259.549 437.037 259.6 437.017 259.643 436.985C259.687 436.953 259.723 436.911 259.748 436.862C259.773 436.812 259.786 436.757 259.786 436.701C259.786 436.645 259.773 436.589 259.748 436.539C251.305 420.575 250.784 398.193 261.758 382.974C261.813 382.896 261.847 382.805 261.856 382.71C261.865 382.615 261.849 382.52 261.81 382.433C261.771 382.346 261.71 382.27 261.633 382.214C261.556 382.157 261.466 382.122 261.371 382.111L241 380.488C240.803 380.473 240.604 380.5 240.417 380.567C240.23 380.634 240.058 380.738 239.913 380.875C225.081 395.126 225.811 422.124 233.331 439.025C233.847 440.187 234.731 440.673 235.982 440.485L259.495 437.045ZM239.675 432.324C239.675 431.392 240.045 430.498 240.704 429.839C241.363 429.18 242.257 428.81 243.189 428.81C244.121 428.81 245.015 429.18 245.674 429.839C246.333 430.498 246.703 431.392 246.703 432.324C246.703 433.256 246.333 434.15 245.674 434.809C245.015 435.468 244.121 435.839 243.189 435.839C242.257 435.839 241.363 435.468 240.704 434.809C240.045 434.15 239.675 433.256 239.675 432.324Z" fill="white"/>
<path d="M239.675 432.325C239.675 433.257 240.046 434.151 240.705 434.81C241.364 435.469 242.258 435.84 243.19 435.84C244.122 435.84 245.016 435.469 245.675 434.81C246.334 434.151 246.704 433.257 246.704 432.325C246.704 431.393 246.334 430.499 245.675 429.84C245.016 429.181 244.122 428.811 243.19 428.811C242.258 428.811 241.364 429.181 240.705 429.84C240.046 430.499 239.675 431.393 239.675 432.325ZM240.956 432.415C240.956 431.834 241.187 431.277 241.597 430.867C242.008 430.456 242.565 430.226 243.145 430.226C243.726 430.226 244.282 430.456 244.693 430.867C245.103 431.277 245.334 431.834 245.334 432.415C245.334 432.995 245.103 433.552 244.693 433.963C244.282 434.373 243.726 434.604 243.145 434.604C242.565 434.604 242.008 434.373 241.597 433.963C241.187 433.552 240.956 432.995 240.956 432.415Z" fill="#102348"/>
<path d="M243.146 434.604C241.937 434.604 240.957 433.624 240.957 432.415C240.957 431.206 241.937 430.226 243.146 430.226C244.355 430.226 245.335 431.206 245.335 432.415C245.335 433.624 244.355 434.604 243.146 434.604Z" fill="white"/>
<path d="M435.749 197.533L432.145 206.289C432.105 206.398 432.102 206.519 432.139 206.63C432.175 206.742 432.248 206.838 432.344 206.901C432.441 206.964 432.556 206.991 432.669 206.978C432.782 206.964 432.886 206.91 432.964 206.825C434.94 204.691 436.082 202.001 436.389 198.754C436.409 198.049 436.196 197.642 435.749 197.533Z" fill="#102348"/>
<path d="M449.598 203.43C443.567 199.023 433.649 211.889 431.684 216.475C431.596 216.681 431.555 216.895 431.565 217.101C431.604 219.175 432.82 219.766 435.213 218.873C440.916 216.743 445.473 212.544 450.834 209.461C451.301 209.193 451.549 208.796 451.579 208.27C451.718 206.116 451.057 204.503 449.598 203.43Z" fill="white"/>
<path d="M427.037 189.462C426.402 195.766 424.456 201.668 421.2 207.168C421.122 207.304 421.003 207.412 420.861 207.476C420.718 207.54 420.559 207.558 420.405 207.527C420.252 207.495 420.113 207.416 420.007 207.301C419.901 207.186 419.834 207.041 419.815 206.885C419.656 205.565 419.085 204.354 418.103 203.252L418.132 205.858C421.518 213.403 423.2 221.404 423.181 229.863C423.171 230.319 423.394 230.493 423.851 230.384C424.01 230.344 424.134 230.27 424.223 230.16C424.302 230.071 424.347 229.927 424.357 229.728C424.427 222.988 423.414 216.421 421.319 210.027C421.16 209.561 421.225 209.129 421.513 208.732C425.176 203.659 427.39 197.99 428.154 191.726L427.037 189.462Z" fill="#102348"/>
<path d="M289.129 170.894C284.454 171.46 281.177 172.413 279.659 166.68C279.539 166.233 279.306 166.159 278.959 166.457C278.581 166.764 278.517 167.256 278.765 167.931C280.502 172.736 284.056 174.145 289.427 172.16C289.577 172.104 289.701 171.996 289.777 171.855C289.852 171.714 289.874 171.551 289.837 171.396C289.8 171.24 289.708 171.103 289.578 171.011C289.448 170.919 289.288 170.877 289.129 170.894Z" fill="#102348"/>
<path d="M242.684 167.958C241.344 161.48 235.134 156.581 228.478 156.983C228.17 157.003 228.011 157.201 228.001 157.579C227.991 158.006 228.195 158.224 228.612 158.234C237.234 158.368 237.577 162.403 242.029 168.271C242.081 168.337 242.155 168.383 242.237 168.402C242.319 168.421 242.405 168.412 242.481 168.376C242.558 168.339 242.619 168.278 242.656 168.202C242.693 168.126 242.703 168.04 242.684 167.958Z" fill="#102348"/>
<path d="M269.012 152.694C268.526 152.823 268.168 153.032 267.94 153.32C267.464 153.915 267.578 154.352 268.283 154.63C271.797 156.03 275.341 156.065 278.915 154.734C279.471 154.526 279.853 154.149 280.062 153.603C280.608 152.193 280.369 150.922 279.347 149.791C279.039 149.453 278.677 149.374 278.26 149.552C275.232 150.803 272.149 151.85 269.012 152.694Z" fill="#102348"/>
<path d="M281.133 109.496C277.51 111.292 275.142 114.028 274.03 117.701C274.004 117.764 273.99 117.832 273.99 117.901C273.99 117.97 274.003 118.038 274.03 118.102C274.056 118.165 274.094 118.223 274.143 118.272C274.192 118.321 274.249 118.359 274.313 118.386C274.376 118.412 274.445 118.426 274.513 118.426C274.582 118.426 274.65 118.412 274.714 118.386C274.778 118.36 274.835 118.321 274.884 118.273C274.933 118.224 274.971 118.166 274.998 118.103C276.547 115.085 278.765 112.504 281.654 110.359C281.237 109.952 281.064 109.664 281.133 109.496Z" fill="white"/>
</svg>
