<svg width="486" height="336" viewBox="0 0 486 336" fill="none" xmlns="http://www.w3.org/2000/svg">
<path d="M220.78 99.7206C220.387 99.6873 220.03 99.8473 219.71 100.201C217.237 102.974 215.85 106.221 215.55 109.941C215.543 110.018 215.556 110.096 215.588 110.167C215.619 110.238 215.669 110.299 215.732 110.346C215.795 110.393 215.869 110.424 215.947 110.435C216.026 110.446 216.106 110.438 216.18 110.411C216.46 110.297 216.627 110.021 216.68 109.581C217.127 105.921 218.614 102.751 221.14 100.071C222.17 100.081 222.59 99.1206 223.39 98.7506C239.9 91.1106 254 112.141 238.54 123.511C238.1 123.831 237.944 124.257 238.07 124.791C239.364 130.311 240.86 135.627 242.56 140.741C245.08 148.341 248.34 152.541 253.45 158.551C260.22 166.501 261.41 177.021 251.15 182.921C244.057 187.001 236.22 189.007 227.64 188.941C227.234 188.941 227.047 189.144 227.08 189.551L228.09 200.931C227.764 201.157 227.46 201.281 227.18 201.301C226.987 200.841 226.68 200.571 226.26 200.491C217.82 198.931 211.5 193.891 210.44 184.891C210.412 184.667 210.446 184.441 210.539 184.236C210.632 184.03 210.78 183.855 210.966 183.729C211.153 183.603 211.37 183.53 211.595 183.52C211.82 183.51 212.043 183.562 212.24 183.671C220.094 187.931 228.347 189.071 237 187.091C244.21 185.441 254.31 182.411 257.24 174.711C258.75 170.741 256.64 164.531 254.45 161.801C248.6 154.511 242.97 147.941 240.86 138.541C240.841 138.444 240.79 138.357 240.714 138.294C240.638 138.232 240.542 138.198 240.443 138.198C240.344 138.198 240.247 138.232 240.168 138.294C240.089 138.357 240.034 138.444 240.01 138.541C239.35 141.321 237.6 142.814 234.76 143.021C234.676 143.027 234.596 143.06 234.532 143.114C234.467 143.169 234.422 143.242 234.403 143.324C234.384 143.405 234.391 143.49 234.425 143.565C234.459 143.64 234.517 143.702 234.59 143.741C237.67 145.481 241.91 148.241 237.32 151.891C237.207 151.977 237.104 152.014 237.01 152.001C236.91 151.987 236.814 151.944 236.72 151.871C236.673 151.833 236.635 151.785 236.609 151.731C236.583 151.677 236.569 151.618 236.568 151.558C236.567 151.498 236.579 151.438 236.604 151.383C236.628 151.329 236.665 151.28 236.71 151.241C239.14 149.151 238.47 147.311 235.91 145.771C233.93 144.584 232.41 143.007 231.35 141.041C231.234 140.825 231.171 140.585 231.166 140.34C231.161 140.095 231.214 139.853 231.322 139.633C231.43 139.413 231.588 139.222 231.784 139.075C231.98 138.929 232.209 138.831 232.45 138.791L239.54 137.631C240.087 137.544 240.287 137.234 240.14 136.701L238.65 131.231C238.613 131.092 238.531 130.97 238.417 130.884C238.303 130.797 238.163 130.75 238.02 130.751C236.727 130.751 234.64 130.754 231.76 130.761C228.09 130.771 229.58 127.381 231.22 125.951C231.634 125.584 231.57 125.454 231.03 125.561C227.11 126.314 223.304 127.447 219.61 128.961C218.604 129.374 218.644 129.567 219.73 129.541C221.39 129.501 222.574 130.151 223.28 131.491C223.42 131.76 223.468 132.069 223.415 132.367C223.363 132.665 223.213 132.937 222.99 133.141L212.49 142.741C212.272 142.939 212.005 143.076 211.717 143.138C211.429 143.2 211.129 143.185 210.848 143.093C210.568 143.002 210.317 142.838 210.12 142.618C209.924 142.398 209.789 142.13 209.73 141.841C209.284 139.621 209.577 137.514 210.61 135.521C210.724 135.301 210.66 135.224 210.42 135.291C210.287 135.331 210.167 135.427 210.06 135.581C206.194 141.274 203.367 147.441 201.58 154.081C200.55 157.901 198.49 160.501 194.49 157.531C189.87 154.101 181.94 147.821 175.48 148.951C167.9 150.291 163.19 159.751 167.55 166.691C172.65 174.811 184.44 178.901 193.33 175.571C193.584 175.477 193.724 175.567 193.75 175.841C193.784 176.207 193.624 176.437 193.27 176.531C191.684 176.951 190.367 177.351 189.32 177.731C189.147 177.796 188.992 177.901 188.869 178.039C188.745 178.176 188.656 178.342 188.61 178.521C185.91 189.414 182.147 199.924 177.32 210.051C177.187 210.337 177.21 210.614 177.39 210.881C187.82 225.721 205.73 238.011 224.46 238.251C224.8 238.257 225.104 238.161 225.37 237.961C228.17 235.927 230.024 233.154 230.93 229.641L232.46 230.141C232.34 230.174 232.237 230.201 232.15 230.221C231.93 230.274 231.79 230.411 231.73 230.631C230.83 233.957 228.71 236.711 225.37 238.891L222.39 255.111L217.28 266.051C217.14 266.351 217.15 266.647 217.31 266.941C224.997 281.214 231.91 295.944 238.05 311.131C242.537 322.757 246.937 336.131 251.25 351.251C253.577 359.391 255.234 366.597 256.22 372.871C253.82 364.571 251.504 356.387 249.27 348.321C237.71 306.631 219.57 267.781 194.09 232.421C188.57 224.771 182.18 218.311 176.5 211.581C175.96 211.674 175.707 211.484 175.74 211.011C180.867 200.704 184.804 189.934 187.55 178.701C187.637 178.341 187.497 178.141 187.13 178.101C177.78 177.041 166.66 172.881 165.11 162.241C163.96 154.441 170.17 147.441 178.17 148.011C178.302 148.019 178.435 147.998 178.558 147.95C178.681 147.902 178.792 147.827 178.883 147.732C178.974 147.636 179.042 147.522 179.083 147.397C179.124 147.273 179.137 147.141 179.12 147.011C178.34 140.711 176.294 134.874 172.98 129.501C169.31 123.561 167.37 119.381 170.17 113.191C174.11 104.491 183.57 99.8906 192.5 104.251C192.638 104.319 192.795 104.339 192.944 104.306C193.094 104.273 193.226 104.19 193.32 104.071C193.5 103.851 193.564 103.594 193.51 103.301C193.444 102.941 193.47 102.587 193.59 102.241C198.03 89.8406 213.92 88.7006 220.78 99.7206ZM224.03 239.401C211.944 238.434 201.11 234.281 191.53 226.941C191.504 226.914 191.468 226.899 191.43 226.899C191.393 226.899 191.357 226.914 191.33 226.941C191.304 226.967 191.289 227.003 191.289 227.041C191.289 227.078 191.304 227.114 191.33 227.141C200.524 239.114 208.764 251.721 216.05 264.961C216.093 265.039 216.155 265.104 216.232 265.149C216.308 265.194 216.396 265.218 216.485 265.218C216.575 265.218 216.663 265.194 216.741 265.149C216.82 265.104 216.885 265.039 216.93 264.961C221.357 257.087 223.77 248.621 224.17 239.561C224.17 239.52 224.156 239.481 224.13 239.451C224.104 239.421 224.068 239.403 224.03 239.401Z" fill="#102348"/>
<path d="M220.78 99.7192C220.833 99.7192 220.953 99.8358 221.14 100.069C218.613 102.749 217.126 105.919 216.68 109.579C216.626 110.019 216.46 110.296 216.18 110.409C216.105 110.436 216.025 110.445 215.947 110.434C215.869 110.422 215.794 110.392 215.732 110.345C215.669 110.298 215.619 110.236 215.587 110.165C215.555 110.094 215.543 110.017 215.55 109.939C215.85 106.219 217.236 102.972 219.71 100.199C220.03 99.8458 220.386 99.6858 220.78 99.7192Z" fill="white"/>
<path d="M227.18 201.299C228.26 209.246 229.513 217.166 230.94 225.059C231.1 225.973 231.096 227.499 230.93 229.639C230.023 233.153 228.17 235.926 225.37 237.959C225.103 238.159 224.8 238.256 224.46 238.249C205.73 238.009 187.82 225.719 177.39 210.879C177.21 210.613 177.186 210.336 177.32 210.049C182.146 199.923 185.91 189.413 188.61 178.519C188.656 178.34 188.744 178.175 188.868 178.038C188.992 177.9 189.147 177.794 189.32 177.729C190.366 177.349 191.683 176.949 193.27 176.529C193.623 176.436 193.783 176.206 193.75 175.839C193.723 175.566 193.583 175.476 193.33 175.569C184.44 178.899 172.65 174.809 167.55 166.689C163.19 159.749 167.9 150.289 175.48 148.949C181.94 147.819 189.87 154.099 194.49 157.529C198.49 160.499 200.55 157.899 201.58 154.079C203.366 147.439 206.193 141.273 210.06 135.579C210.166 135.426 210.286 135.329 210.42 135.289C210.66 135.223 210.723 135.299 210.61 135.519C209.576 137.513 209.283 139.619 209.73 141.839C209.789 142.128 209.924 142.397 210.12 142.617C210.316 142.837 210.568 143.001 210.848 143.092C211.128 143.184 211.428 143.199 211.716 143.137C212.005 143.075 212.272 142.938 212.49 142.739L222.99 133.139C223.213 132.936 223.362 132.664 223.415 132.366C223.467 132.067 223.42 131.759 223.28 131.489C222.573 130.149 221.39 129.499 219.73 129.539C218.643 129.566 218.603 129.373 219.61 128.959C223.303 127.446 227.11 126.313 231.03 125.559C231.57 125.453 231.633 125.583 231.22 125.949C229.58 127.379 228.09 130.769 231.76 130.759C234.64 130.753 236.726 130.749 238.02 130.749C238.163 130.749 238.302 130.796 238.416 130.882C238.53 130.969 238.612 131.091 238.65 131.229L240.14 136.699C240.286 137.233 240.086 137.543 239.54 137.629L232.45 138.789C232.208 138.83 231.98 138.928 231.784 139.074C231.587 139.221 231.429 139.412 231.321 139.632C231.214 139.852 231.16 140.094 231.165 140.339C231.17 140.584 231.233 140.824 231.35 141.039C232.41 143.006 233.93 144.583 235.91 145.769C238.47 147.309 239.14 149.149 236.71 151.239C236.664 151.279 236.628 151.327 236.603 151.382C236.578 151.437 236.566 151.497 236.567 151.557C236.568 151.617 236.582 151.676 236.609 151.73C236.635 151.784 236.673 151.832 236.72 151.869C236.813 151.943 236.91 151.986 237.01 151.999C237.103 152.013 237.206 151.976 237.32 151.889C241.91 148.239 237.67 145.479 234.59 143.739C234.516 143.701 234.459 143.639 234.425 143.564C234.391 143.488 234.383 143.404 234.402 143.323C234.421 143.241 234.467 143.168 234.531 143.113C234.596 143.058 234.676 143.026 234.76 143.019C237.6 142.813 239.35 141.319 240.01 138.539C240.033 138.442 240.089 138.356 240.167 138.293C240.246 138.231 240.343 138.197 240.443 138.197C240.542 138.197 240.637 138.231 240.713 138.293C240.789 138.356 240.841 138.442 240.86 138.539C242.97 147.939 248.6 154.509 254.45 161.799C256.64 164.529 258.75 170.739 257.24 174.709C254.31 182.409 244.21 185.439 237 187.089C228.346 189.069 220.093 187.929 212.24 183.669C212.043 183.561 211.819 183.509 211.594 183.519C211.37 183.529 211.152 183.601 210.966 183.728C210.779 183.854 210.632 184.029 210.539 184.234C210.446 184.439 210.412 184.666 210.44 184.889C211.5 193.889 217.82 198.929 226.26 200.489C226.68 200.569 226.986 200.839 227.18 201.299ZM214.51 148.049C218.03 148.896 221.283 148.689 224.27 147.429C227.08 146.249 228.25 143.849 225.81 141.429C225.641 141.263 225.422 141.156 225.185 141.125C224.949 141.094 224.708 141.142 224.5 141.259L214.37 147.049C214.274 147.102 214.196 147.183 214.147 147.281C214.098 147.379 214.079 147.489 214.095 147.598C214.11 147.706 214.158 147.808 214.232 147.888C214.306 147.969 214.403 148.025 214.51 148.049ZM239.62 160.799C235.7 164.319 230.37 163.109 228.26 158.289C228.233 158.228 228.193 158.172 228.144 158.126C228.094 158.08 228.036 158.045 227.973 158.023C227.91 158.002 227.843 157.994 227.777 158C227.711 158.006 227.647 158.026 227.59 158.059C227.29 158.233 227.183 158.446 227.27 158.699C228.97 163.499 232.166 165.269 236.86 164.009C238.12 163.669 239.92 162.529 240.46 161.469C240.606 161.189 240.583 160.966 240.39 160.799C240.136 160.573 239.88 160.573 239.62 160.799ZM189.47 166.539C187.04 160.689 180.75 157.429 174.63 158.649C174.51 158.676 174.42 158.723 174.36 158.789C174.28 158.883 174.236 158.983 174.23 159.089C174.21 159.329 174.32 159.436 174.56 159.409C181.013 158.756 185.753 161.236 188.78 166.849C188.853 166.989 188.96 167.023 189.1 166.949L189.38 166.789C189.486 166.736 189.516 166.653 189.47 166.539Z" fill="white"/>
<path d="M214.51 148.051C214.403 148.027 214.306 147.97 214.232 147.89C214.158 147.809 214.11 147.708 214.095 147.599C214.08 147.491 214.098 147.38 214.147 147.282C214.196 147.184 214.274 147.104 214.37 147.051L224.5 141.261C224.709 141.143 224.949 141.096 225.186 141.126C225.422 141.157 225.641 141.264 225.81 141.431C228.25 143.851 227.08 146.251 224.27 147.431C221.283 148.691 218.03 148.898 214.51 148.051Z" fill="#102348"/>
<path d="M228.259 158.29C230.369 163.11 235.699 164.32 239.619 160.8C239.879 160.573 240.136 160.573 240.389 160.8C240.583 160.966 240.606 161.19 240.459 161.47C239.919 162.53 238.119 163.67 236.859 164.01C232.166 165.27 228.969 163.5 227.269 158.7C227.183 158.446 227.289 158.233 227.589 158.06C227.647 158.027 227.71 158.006 227.777 158C227.843 157.994 227.909 158.002 227.973 158.024C228.036 158.045 228.094 158.08 228.144 158.126C228.193 158.172 228.232 158.228 228.259 158.29Z" fill="#102348"/>
<path d="M174.63 158.651C180.75 157.431 187.04 160.691 189.47 166.541C189.517 166.654 189.487 166.737 189.38 166.791L189.1 166.951C188.96 167.024 188.853 166.991 188.78 166.851C185.753 161.237 181.013 158.757 174.56 159.411C174.32 159.437 174.21 159.331 174.23 159.091C174.237 158.984 174.28 158.884 174.36 158.791C174.42 158.724 174.51 158.677 174.63 158.651Z" fill="#102348"/>
<path d="M427 266.829V275.809C424.4 307.569 418.34 342.399 407.21 372.769C402.87 384.616 397.237 394.966 390.31 403.819C375.32 422.989 352.94 430.109 329.09 431.329C317.44 431.929 308.8 430.219 300.41 422.849C300.206 422.669 299.958 422.546 299.691 422.492C299.425 422.438 299.148 422.454 298.89 422.539C252.94 437.719 203.82 450.009 155.95 451.999H147.47C119.5 451.579 86.89 443.139 71.11 417.999C62.58 404.409 59.3 387.479 59 371.419V364.199C60.5 312.859 82.92 266.409 120.2 232.179C132.98 220.439 154.05 206.009 171.33 218.599C171.603 218.793 171.813 218.743 171.96 218.449L175.74 211.009C175.707 211.483 175.96 211.673 176.5 211.579L172.66 219.189C172.5 219.496 172.51 219.799 172.69 220.099C177.183 227.486 179.887 235.203 180.8 243.249C182.793 260.816 182.27 278.923 179.23 297.569C178.937 297.703 178.593 297.769 178.2 297.769C182.04 275.099 183.18 249.969 175.76 227.949C173.513 221.269 169.173 217.196 162.74 215.729C148.39 212.449 135.93 220.209 125.54 229.079C82.99 265.429 58.84 316.789 60.25 373.189C60.63 388.109 63.44 402.459 70.77 415.319C81.36 433.899 103.37 445.279 124.02 448.639C163.36 455.039 205.33 446.959 243.78 437.379C243.841 437.364 243.897 437.332 243.943 437.288C243.988 437.244 244.021 437.189 244.038 437.128C244.055 437.068 244.056 437.003 244.041 436.942C244.025 436.881 243.994 436.825 243.95 436.779C227.95 420.389 223.28 395.359 224.73 373.279C224.75 372.939 224.593 372.756 224.26 372.729L187.51 369.789C187.203 369.316 187.203 369.016 187.51 368.889C210.297 371.116 233.123 372.573 255.99 373.259L262.1 373.449C262.487 373.456 262.69 373.269 262.71 372.889C264.73 334.059 257.17 294.599 243.86 257.729L243.58 256.809L238.54 243.809L232.46 230.139L230.93 229.639C231.097 227.499 231.1 225.973 230.94 225.059C229.513 217.166 228.26 209.246 227.18 201.299C227.46 201.279 227.763 201.156 228.09 200.929L232.01 225.699C232.061 226.008 232.225 226.286 232.47 226.479L236.46 229.539C236.74 229.759 237.05 229.813 237.39 229.699C244.797 227.246 252.28 227.659 259.84 230.939C299.5 248.119 324.47 295.079 332.93 335.669C332.948 335.753 332.987 335.83 333.044 335.894C333.102 335.957 333.175 336.004 333.257 336.029C333.338 336.054 333.425 336.058 333.508 336.038C333.591 336.019 333.668 335.978 333.73 335.919C351.41 318.789 363.75 296.279 371.87 273.789C375.71 263.139 378.78 249.539 381.88 237.349C382.028 236.764 382.038 236.153 381.909 235.563C381.78 234.974 381.516 234.423 381.138 233.954C380.759 233.485 380.276 233.111 379.728 232.862C379.18 232.613 378.582 232.496 377.98 232.519C370.97 232.779 364.01 234.049 368.46 223.739C368.613 223.386 368.543 223.086 368.25 222.839C365.257 220.333 364.677 217.286 366.51 213.699C366.67 213.379 366.63 213.086 366.39 212.819C364.883 211.193 364.39 209.306 364.91 207.159C365.26 205.709 367.01 203.979 367.12 202.829C367.413 199.963 368.187 197.913 369.44 196.679C381.39 184.939 396.44 189.269 406.31 200.699C420.64 217.279 426.32 245.579 427 266.829ZM393.13 201.789C390.2 201.079 387.58 200.259 385.03 200.169C380.04 199.979 360.16 202.169 366.96 211.979C367.167 212.279 367.44 212.356 367.78 212.209C376.613 208.296 385.507 208.159 394.46 211.799C394.505 211.818 394.545 211.847 394.578 211.884C394.61 211.921 394.633 211.965 394.646 212.012C394.658 212.06 394.66 212.109 394.65 212.157C394.64 212.205 394.62 212.25 394.59 212.289C394.517 212.389 394.42 212.459 394.3 212.499C394.147 212.553 393.937 212.526 393.67 212.419C385.137 209.073 376.71 209.239 368.39 212.919C368.072 213.062 367.809 213.3 367.64 213.599C365.653 216.999 366.113 219.906 369.02 222.319C369.15 222.428 369.308 222.499 369.477 222.526C369.646 222.552 369.819 222.533 369.98 222.469C377.707 219.449 385.103 220.023 392.17 224.189C392.27 224.249 392.303 224.336 392.27 224.449C392.237 224.536 392.207 224.623 392.18 224.709C392.073 224.969 391.9 225.029 391.66 224.889C384.827 220.916 377.697 220.386 370.27 223.299C369.937 223.426 369.673 223.643 369.48 223.949C362.4 235.389 377.66 229.909 380.81 232.399C382.623 233.833 383.21 235.876 382.57 238.529C379.81 249.929 376.843 261.149 373.67 272.189C373.584 272.489 373.598 272.808 373.71 273.098C373.822 273.389 374.025 273.635 374.29 273.799C389.543 283.266 406.2 287.193 424.26 285.579C424.84 285.526 425.16 285.209 425.22 284.629C427.8 259.549 423.8 232.369 411.48 210.179C404.72 198.009 390.3 184.259 375.31 193.379C371.43 195.729 368.9 197.679 368.2 202.099C368.133 202.553 368.307 202.689 368.72 202.509C376.56 199.169 385.52 197.799 393.34 201.169C393.412 201.204 393.469 201.265 393.5 201.339C393.531 201.413 393.533 201.496 393.508 201.572C393.482 201.648 393.429 201.712 393.36 201.752C393.29 201.792 393.209 201.805 393.13 201.789ZM236.56 231.189C235.38 230.029 234.37 229.176 233.53 228.629C233.461 228.585 233.379 228.564 233.297 228.57C233.215 228.576 233.137 228.608 233.075 228.663C233.013 228.717 232.97 228.79 232.953 228.87C232.936 228.951 232.945 229.035 232.98 229.109C253.62 273.279 265.78 323.709 263.74 372.769C263.727 373.143 263.907 373.323 264.28 373.309L288.5 372.559C288.893 372.546 289.087 372.343 289.08 371.949C288.41 320.879 274.09 267.969 236.56 231.189ZM316.34 351.119C316.14 350.919 316.177 350.706 316.45 350.479C321.643 346.079 326.777 341.656 331.85 337.209C332.103 336.983 332.197 336.703 332.13 336.369C323.92 296.989 298.72 248.509 259.88 231.819C253.627 229.133 246.903 228.459 239.71 229.799C238.11 230.099 237.873 230.836 239 232.009C275.06 269.329 289.61 320.829 289.92 371.919C289.92 371.977 289.932 372.033 289.954 372.086C289.977 372.139 290.01 372.187 290.052 372.227C290.094 372.267 290.144 372.298 290.198 372.319C290.253 372.34 290.311 372.351 290.37 372.349C308.637 371.883 326.677 369.836 344.49 366.209C347.783 365.543 350.713 365.259 353.28 365.359C353.464 365.365 353.644 365.417 353.803 365.509C353.962 365.602 354.095 365.733 354.19 365.889C357.02 370.379 343.55 377.329 340.76 378.749C340.621 378.822 340.513 378.94 340.452 379.085C340.392 379.229 340.384 379.39 340.43 379.539C341.59 383.253 340.95 386.546 338.51 389.419C338.303 389.666 338.267 389.933 338.4 390.219C339.853 393.373 339.43 396.199 337.13 398.699C336.93 398.919 336.847 399.173 336.88 399.459C337.613 405.886 335.13 410.056 329.43 411.969C320.13 415.096 310.807 418.316 301.46 421.629C301.147 421.736 301.113 421.899 301.36 422.119C307.673 427.779 314.637 430.579 322.25 430.519C342.34 430.359 362.63 426.699 378.82 413.929C405.53 392.859 415.55 348.219 420.78 316.559C420.796 316.458 420.79 316.355 420.762 316.256C420.733 316.158 420.683 316.067 420.615 315.991C420.547 315.914 420.463 315.854 420.369 315.813C420.274 315.773 420.172 315.755 420.07 315.759C398.77 316.733 379.527 311.123 362.34 298.929C362.279 298.887 362.21 298.858 362.137 298.845C362.064 298.831 361.989 298.834 361.917 298.852C361.845 298.87 361.778 298.903 361.719 298.949C361.661 298.995 361.614 299.053 361.58 299.119C355.94 310.379 348.99 320.646 340.73 329.919C334.15 337.299 325 344.249 316.95 351.149C316.863 351.222 316.752 351.259 316.639 351.254C316.526 351.248 316.419 351.2 316.34 351.119ZM372.87 274.259C369.957 282.113 366.58 289.766 362.74 297.219C362.636 297.422 362.61 297.655 362.665 297.876C362.72 298.096 362.853 298.289 363.04 298.419C380.287 310.426 399.51 315.906 420.71 314.859C420.834 314.854 420.952 314.805 421.043 314.723C421.135 314.641 421.194 314.53 421.21 314.409L425.05 287.269C425.066 287.167 425.058 287.062 425.027 286.963C424.996 286.864 424.943 286.773 424.871 286.698C424.8 286.623 424.712 286.565 424.615 286.528C424.518 286.492 424.413 286.479 424.31 286.489C406.67 288.159 388.18 284.319 373.42 274.089C373.373 274.058 373.32 274.037 373.265 274.029C373.209 274.02 373.153 274.025 373.1 274.041C373.047 274.057 372.999 274.086 372.959 274.123C372.919 274.161 372.889 274.208 372.87 274.259ZM312.69 383.799C328.36 381.999 341.86 379.959 353.63 368.719C353.836 368.522 353.979 368.268 354.04 367.989C354.102 367.711 354.079 367.42 353.975 367.154C353.871 366.889 353.691 366.66 353.457 366.497C353.223 366.334 352.945 366.244 352.66 366.239C346.12 366.099 338.44 368.189 332 369.489C323.953 371.103 312.223 372.289 296.81 373.049C282.277 373.769 267.75 374.119 253.23 374.099C252.897 374.093 252.727 374.256 252.72 374.589C252.33 393.299 256.57 418.749 275.28 428.449C275.583 428.597 275.928 428.629 276.25 428.539C294.06 423.539 311.42 417.109 328.86 410.989C333.887 409.229 336.36 405.743 336.28 400.529C336.279 400.439 336.255 400.351 336.21 400.274C336.164 400.196 336.1 400.132 336.022 400.086C335.945 400.041 335.857 400.016 335.767 400.015C335.677 400.014 335.589 400.036 335.51 400.079C328.53 403.946 321.033 406.003 313.02 406.249C312.72 406.263 312.553 406.116 312.52 405.809C312.487 405.476 312.643 405.303 312.99 405.289C319.61 404.959 342.29 401.839 337.6 390.709C337.46 390.369 337.22 390.269 336.88 390.409C328.987 393.616 320.763 395.069 312.21 394.769C312.156 394.765 312.104 394.745 312.061 394.712C312.019 394.678 311.987 394.632 311.971 394.58C311.955 394.529 311.955 394.473 311.971 394.421C311.986 394.369 312.018 394.323 312.06 394.289L312.5 393.969C312.787 393.756 313.107 393.659 313.46 393.679C321.327 394.066 328.853 392.729 336.04 389.669C340.02 387.979 340.71 383.629 339.62 379.879C339.533 379.579 339.34 379.476 339.04 379.569C330.547 382.129 321.873 383.763 313.02 384.469C312.969 384.472 312.918 384.465 312.87 384.448C312.822 384.431 312.778 384.404 312.74 384.369C312.68 384.303 312.62 384.239 312.56 384.179C312.529 384.15 312.507 384.113 312.497 384.072C312.486 384.031 312.488 383.987 312.502 383.947C312.516 383.907 312.541 383.872 312.574 383.845C312.607 383.819 312.648 383.803 312.69 383.799ZM246.13 436.859L273.41 429.469C274.183 429.256 274.223 428.953 273.53 428.559C255.63 418.429 251.23 393.039 251.8 374.649C251.803 374.504 251.75 374.363 251.653 374.257C251.556 374.151 251.422 374.087 251.28 374.079L226.2 372.899C225.847 372.879 225.66 373.043 225.64 373.389C224.35 393.909 228.94 421.599 245.1 436.609C245.393 436.883 245.737 436.966 246.13 436.859Z" fill="#102348"/>
<path d="M393.341 201.169C385.521 197.799 376.561 199.169 368.721 202.509C368.307 202.689 368.134 202.553 368.201 202.099C368.901 197.679 371.431 195.729 375.311 193.379C390.301 184.259 404.721 198.009 411.481 210.179C423.801 232.369 427.801 259.549 425.221 284.629C425.161 285.209 424.841 285.526 424.261 285.579C406.201 287.193 389.544 283.266 374.291 273.799C374.026 273.635 373.822 273.389 373.71 273.098C373.599 272.808 373.585 272.489 373.671 272.189C376.844 261.149 379.811 249.929 382.571 238.529C383.211 235.876 382.624 233.833 380.811 232.399C377.661 229.909 362.401 235.389 369.481 223.949C369.674 223.643 369.937 223.426 370.271 223.299C377.697 220.386 384.827 220.916 391.661 224.889C391.901 225.029 392.074 224.969 392.181 224.709C392.207 224.623 392.237 224.536 392.271 224.449C392.304 224.336 392.271 224.249 392.171 224.189C385.104 220.023 377.707 219.449 369.981 222.469C369.82 222.533 369.646 222.552 369.477 222.526C369.308 222.499 369.151 222.428 369.021 222.319C366.114 219.906 365.654 216.999 367.641 213.599C367.81 213.3 368.072 213.062 368.391 212.919C376.711 209.239 385.137 209.073 393.671 212.419C393.937 212.526 394.147 212.553 394.301 212.499C394.421 212.459 394.517 212.389 394.591 212.289C394.62 212.25 394.641 212.205 394.651 212.157C394.66 212.109 394.659 212.06 394.646 212.012C394.634 211.965 394.61 211.921 394.578 211.884C394.546 211.847 394.506 211.818 394.461 211.799C385.507 208.159 376.614 208.296 367.781 212.209C367.441 212.356 367.167 212.279 366.961 211.979C360.161 202.169 380.041 199.979 385.031 200.169C387.581 200.259 390.201 201.079 393.131 201.789C393.209 201.805 393.291 201.792 393.361 201.752C393.43 201.712 393.483 201.648 393.508 201.572C393.534 201.496 393.531 201.413 393.5 201.339C393.469 201.265 393.413 201.205 393.341 201.169Z" fill="white"/>
<path d="M176.5 211.58C182.18 218.31 188.57 224.77 194.09 232.42C219.57 267.78 237.71 306.63 249.27 348.32C251.503 356.387 253.82 364.57 256.22 372.87C256.046 372.61 255.97 372.74 255.99 373.26C233.123 372.573 210.296 371.117 187.51 368.89C179.123 367.817 170.716 367.257 162.29 367.21C161.91 367.21 161.783 367.03 161.91 366.67C169.716 344.063 175.49 321.03 179.23 297.57C182.27 278.923 182.793 260.817 180.8 243.25C179.886 235.203 177.183 227.487 172.69 220.1C172.51 219.8 172.5 219.497 172.66 219.19L176.5 211.58Z" fill="white"/>
<path d="M178.2 297.77C174.46 321.27 168.627 344.303 160.7 366.87C160.587 367.19 160.36 367.37 160.02 367.41C151.987 368.35 144.267 370.433 136.86 373.66C136.607 373.767 136.46 373.863 136.42 373.95C136.381 374.024 136.366 374.108 136.378 374.191C136.389 374.273 136.426 374.35 136.483 374.411C136.541 374.472 136.615 374.513 136.697 374.529C136.779 374.545 136.864 374.535 136.94 374.5C154.05 366.96 169.31 368 187.51 369.79L224.26 372.73C224.593 372.757 224.75 372.94 224.73 373.28C223.28 395.36 227.95 420.39 243.95 436.78C243.994 436.825 244.025 436.882 244.041 436.943C244.056 437.004 244.055 437.068 244.038 437.129C244.021 437.19 243.988 437.245 243.943 437.289C243.897 437.333 243.841 437.365 243.78 437.38C205.33 446.96 163.36 455.04 124.02 448.64C103.37 445.28 81.3599 433.9 70.7699 415.32C63.4399 402.46 60.6299 388.11 60.2499 373.19C58.8399 316.79 82.9899 265.43 125.54 229.08C135.93 220.21 148.39 212.45 162.74 215.73C169.173 217.197 173.513 221.27 175.76 227.95C183.18 249.97 182.04 275.1 178.2 297.77Z" fill="white"/>
<path d="M224.03 239.4C224.069 239.402 224.104 239.42 224.13 239.45C224.156 239.48 224.171 239.519 224.17 239.56C223.77 248.62 221.357 257.087 216.93 264.96C216.885 265.038 216.82 265.103 216.742 265.148C216.663 265.193 216.575 265.217 216.485 265.217C216.396 265.217 216.308 265.193 216.232 265.148C216.156 265.103 216.093 265.038 216.05 264.96C208.764 251.72 200.524 239.113 191.33 227.14C191.304 227.113 191.289 227.077 191.289 227.04C191.289 227.002 191.304 226.966 191.33 226.94C191.357 226.913 191.393 226.898 191.43 226.898C191.468 226.898 191.504 226.913 191.53 226.94C201.11 234.28 211.944 238.433 224.03 239.4Z" fill="white"/>
<path d="M236.56 231.191C274.09 267.971 288.41 320.881 289.08 371.951C289.087 372.344 288.893 372.547 288.5 372.561L264.28 373.311C263.906 373.324 263.727 373.144 263.74 372.771C265.78 323.711 253.62 273.281 232.98 229.111C232.945 229.036 232.936 228.952 232.953 228.872C232.97 228.791 233.012 228.718 233.074 228.664C233.137 228.61 233.214 228.577 233.297 228.571C233.379 228.565 233.461 228.586 233.53 228.631C234.37 229.177 235.38 230.031 236.56 231.191Z" fill="white"/>
<path d="M316.34 351.12C316.419 351.201 316.526 351.249 316.639 351.254C316.752 351.26 316.863 351.222 316.95 351.15C325 344.25 334.15 337.3 340.73 329.92C348.99 320.646 355.94 310.38 361.58 299.12C361.614 299.054 361.661 298.996 361.719 298.949C361.778 298.903 361.845 298.87 361.917 298.852C361.989 298.834 362.064 298.832 362.137 298.845C362.21 298.858 362.279 298.887 362.34 298.93C379.527 311.123 398.77 316.733 420.07 315.76C420.172 315.755 420.274 315.774 420.369 315.814C420.463 315.854 420.547 315.915 420.615 315.991C420.683 316.068 420.733 316.158 420.762 316.257C420.79 316.355 420.796 316.459 420.78 316.56C415.55 348.22 405.53 392.86 378.82 413.93C362.63 426.7 342.34 430.36 322.25 430.52C314.637 430.58 307.673 427.78 301.36 422.12C301.113 421.9 301.147 421.736 301.46 421.63C310.807 418.316 320.13 415.096 329.43 411.97C335.13 410.056 337.613 405.886 336.88 399.46C336.847 399.173 336.93 398.92 337.13 398.7C339.43 396.2 339.853 393.373 338.4 390.22C338.267 389.933 338.303 389.666 338.51 389.42C340.95 386.546 341.59 383.253 340.43 379.54C340.384 379.39 340.392 379.229 340.452 379.085C340.513 378.941 340.622 378.822 340.76 378.75C343.55 377.33 357.02 370.38 354.19 365.89C354.095 365.733 353.962 365.603 353.803 365.51C353.644 365.417 353.465 365.366 353.28 365.36C350.713 365.26 347.783 365.543 344.49 366.21C326.677 369.836 308.637 371.883 290.37 372.35C290.311 372.351 290.253 372.341 290.199 372.32C290.144 372.299 290.094 372.267 290.052 372.227C290.01 372.187 289.977 372.139 289.954 372.087C289.932 372.034 289.92 371.977 289.92 371.92C289.61 320.83 275.06 269.33 239 232.01C237.873 230.836 238.11 230.1 239.71 229.8C246.903 228.46 253.627 229.133 259.88 231.82C298.72 248.51 323.92 296.99 332.13 336.37C332.197 336.703 332.103 336.983 331.85 337.21C326.777 341.656 321.643 346.08 316.45 350.48C316.177 350.706 316.14 350.92 316.34 351.12Z" fill="white"/>
<path d="M232.46 230.141L238.54 243.811C234.98 241.024 230.59 239.384 225.37 238.891C228.71 236.711 230.83 233.957 231.73 230.631C231.79 230.411 231.93 230.274 232.15 230.221C232.237 230.201 232.34 230.174 232.46 230.141Z" fill="white"/>
<path d="M225.371 238.891C230.591 239.384 234.981 241.024 238.541 243.811L243.581 256.811C239.791 258.971 228.581 263.661 224.921 260.221C223.754 259.121 222.911 257.417 222.391 255.111L225.371 238.891Z" fill="#D9C6F4"/>
<path d="M222.39 255.109C222.91 257.416 223.753 259.119 224.92 260.219C228.58 263.659 239.79 258.969 243.58 256.809L243.86 257.729C239.573 260.336 235.036 261.856 230.25 262.289C230.163 262.298 230.079 262.325 230.004 262.37C229.929 262.414 229.864 262.474 229.814 262.546C229.764 262.618 229.729 262.7 229.713 262.787C229.697 262.874 229.699 262.963 229.72 263.049C233.533 278.896 236.31 294.923 238.05 311.129C231.91 295.943 224.996 281.213 217.31 266.939C217.15 266.646 217.14 266.349 217.28 266.049L222.39 255.109Z" fill="white"/>
<path d="M243.86 257.73C257.17 294.6 264.73 334.06 262.71 372.89C262.69 373.27 262.487 373.457 262.1 373.45L255.99 373.26C255.97 372.74 256.047 372.61 256.22 372.87C255.234 366.597 253.577 359.39 251.25 351.25C246.937 336.13 242.537 322.757 238.05 311.13C236.31 294.924 233.534 278.897 229.72 263.05C229.7 262.964 229.698 262.875 229.714 262.788C229.73 262.701 229.765 262.619 229.815 262.547C229.865 262.475 229.93 262.415 230.005 262.371C230.08 262.327 230.164 262.299 230.25 262.29C235.037 261.857 239.574 260.337 243.86 257.73Z" fill="#D9C6F4"/>
<path d="M372.87 274.26C372.888 274.208 372.919 274.162 372.959 274.124C372.998 274.086 373.047 274.058 373.1 274.042C373.153 274.025 373.209 274.021 373.265 274.03C373.32 274.038 373.373 274.059 373.42 274.09C388.18 284.32 406.67 288.16 424.31 286.49C424.413 286.48 424.517 286.493 424.615 286.529C424.712 286.565 424.8 286.623 424.871 286.699C424.943 286.774 424.996 286.864 425.027 286.964C425.058 287.063 425.066 287.167 425.05 287.27L421.21 314.41C421.194 314.531 421.135 314.642 421.043 314.724C420.952 314.806 420.834 314.854 420.71 314.86C399.51 315.907 380.287 310.427 363.04 298.42C362.853 298.29 362.72 298.097 362.665 297.876C362.61 297.656 362.636 297.422 362.74 297.22C366.58 289.767 369.957 282.113 372.87 274.26ZM376.15 289.82C376.15 289.226 375.914 288.656 375.494 288.236C375.074 287.816 374.504 287.58 373.91 287.58C373.316 287.58 372.746 287.816 372.326 288.236C371.906 288.656 371.67 289.226 371.67 289.82C371.67 290.114 371.728 290.405 371.84 290.677C371.953 290.949 372.118 291.196 372.326 291.404C372.534 291.612 372.781 291.777 373.053 291.889C373.325 292.002 373.616 292.06 373.91 292.06C374.204 292.06 374.495 292.002 374.767 291.889C375.039 291.777 375.286 291.612 375.494 291.404C375.702 291.196 375.867 290.949 375.979 290.677C376.092 290.405 376.15 290.114 376.15 289.82Z" fill="white"/>
<path d="M373.91 292.06C375.147 292.06 376.15 291.057 376.15 289.82C376.15 288.583 375.147 287.58 373.91 287.58C372.673 287.58 371.67 288.583 371.67 289.82C371.67 291.057 372.673 292.06 373.91 292.06Z" fill="#102348"/>
<path d="M179.23 297.57C175.49 321.03 169.717 344.064 161.91 366.67C161.783 367.03 161.91 367.21 162.29 367.21C170.717 367.257 179.123 367.817 187.51 368.89C187.203 369.017 187.203 369.317 187.51 369.79C169.31 368 154.05 366.96 136.94 374.5C136.864 374.535 136.779 374.545 136.697 374.529C136.615 374.513 136.541 374.472 136.483 374.411C136.426 374.351 136.389 374.274 136.378 374.191C136.366 374.108 136.381 374.024 136.42 373.95C136.46 373.864 136.607 373.767 136.86 373.66C144.267 370.434 151.987 368.35 160.02 367.41C160.36 367.37 160.587 367.19 160.7 366.87C168.627 344.304 174.46 321.27 178.2 297.77C178.593 297.77 178.937 297.704 179.23 297.57Z" fill="#102348"/>
<mask id="path-21-inside-1_3866_6341" fill="white">
<path fill-rule="evenodd" clip-rule="evenodd" d="M338.368 98.4662C353.685 98.4662 366.101 86.0496 366.101 70.7331C366.101 55.4165 353.685 43 338.368 43C323.052 43 310.635 55.4165 310.635 70.7331C310.635 73.8413 311.146 76.83 312.09 79.6198C312.394 80.5218 312.397 81.5057 312.031 82.3843L308.13 91.7254C307.639 92.9012 308.605 94.1675 309.869 94.0048L319.72 92.7364C320.688 92.6117 321.659 92.8912 322.459 93.4519C326.963 96.6116 332.449 98.4662 338.368 98.4662Z"/>
</mask>
<path fill-rule="evenodd" clip-rule="evenodd" d="M338.368 98.4662C353.685 98.4662 366.101 86.0496 366.101 70.7331C366.101 55.4165 353.685 43 338.368 43C323.052 43 310.635 55.4165 310.635 70.7331C310.635 73.8413 311.146 76.83 312.09 79.6198C312.394 80.5218 312.397 81.5057 312.031 82.3843L308.13 91.7254C307.639 92.9012 308.605 94.1675 309.869 94.0048L319.72 92.7364C320.688 92.6117 321.659 92.8912 322.459 93.4519C326.963 96.6116 332.449 98.4662 338.368 98.4662Z" fill="white"/>
<path d="M308.13 91.7254L307.023 91.263H307.023L308.13 91.7254ZM309.869 94.0048L310.022 95.195H310.022L309.869 94.0048ZM319.72 92.7364L319.873 93.9265L319.72 92.7364ZM322.459 93.4519L323.148 92.4695L322.459 93.4519ZM312.09 79.6198L310.953 80.0041L312.09 79.6198ZM312.031 82.3843L310.923 81.922L312.031 82.3843ZM364.901 70.7331C364.901 85.3869 353.022 97.2662 338.368 97.2662V99.6662C354.347 99.6662 367.301 86.7124 367.301 70.7331H364.901ZM338.368 44.2C353.022 44.2 364.901 56.0793 364.901 70.7331H367.301C367.301 54.7538 354.347 41.8 338.368 41.8V44.2ZM311.835 70.7331C311.835 56.0793 323.714 44.2 338.368 44.2V41.8C322.389 41.8 309.435 54.7538 309.435 70.7331H311.835ZM313.226 79.2355C312.325 76.5679 311.835 73.7089 311.835 70.7331H309.435C309.435 73.9736 309.968 77.0921 310.953 80.0041L313.226 79.2355ZM309.238 92.1878L313.138 82.8467L310.923 81.922L307.023 91.263L309.238 92.1878ZM309.716 92.8146C309.368 92.8594 309.103 92.5111 309.238 92.1878L307.023 91.263C306.176 93.2912 307.842 95.4757 310.022 95.195L309.716 92.8146ZM319.567 91.5462L309.716 92.8146L310.022 95.195L319.873 93.9265L319.567 91.5462ZM338.368 97.2662C332.703 97.2662 327.456 95.4922 323.148 92.4695L321.77 94.4342C326.469 97.731 332.194 99.6662 338.368 99.6662V97.2662ZM319.873 93.9265C320.511 93.8444 321.186 94.025 321.77 94.4342L323.148 92.4695C322.133 91.7573 320.865 91.379 319.567 91.5462L319.873 93.9265ZM310.953 80.0041C311.175 80.6627 311.165 81.3431 310.923 81.922L313.138 82.8467C313.63 81.6683 313.614 80.3809 313.226 79.2355L310.953 80.0041Z" fill="#102348" mask="url(#path-21-inside-1_3866_6341)"/>
<path d="M330.055 78.6732C329.714 78.484 329.525 78.2758 329.487 78.0488C329.468 77.8218 329.601 77.4244 329.884 76.8569C330.168 76.2893 330.613 75.4095 331.218 74.2175C331.672 73.3661 332.013 72.7039 332.24 72.2309C332.486 71.739 332.647 71.389 332.722 71.1809C332.817 70.9727 332.864 70.8403 332.864 70.7835C332.826 70.6133 332.845 70.4808 332.921 70.3862C332.997 70.2727 333.12 70.1781 333.29 70.1024C333.385 70.0078 333.536 69.8375 333.744 69.5916C333.971 69.3456 334.179 69.0524 334.368 68.7118C334.539 68.3145 334.737 67.9077 334.964 67.4915C335.191 67.0752 335.494 66.5549 335.873 65.9306C336.251 65.2873 336.743 64.4548 337.348 63.4331C337.727 62.7709 338.143 62.0993 338.597 61.4182C339.051 60.7181 339.534 60.0275 340.044 59.3464C340.253 59.0815 340.442 58.8734 340.612 58.7221C340.782 58.5518 340.953 58.4761 341.123 58.495C341.35 58.495 341.605 58.5707 341.889 58.7221C342.192 58.8734 342.466 59.0721 342.712 59.318C342.958 59.564 343.138 59.8289 343.251 60.1127C343.346 60.264 343.384 60.5857 343.365 61.0776C343.346 61.5695 343.308 62.1655 343.251 62.8655C343.195 63.5656 343.128 64.3129 343.053 65.1076C342.996 65.8833 342.911 66.8009 342.797 67.8604C342.684 68.9199 342.57 70.0267 342.457 71.1809C342.362 72.335 342.286 73.4513 342.23 74.5297C342.173 75.5892 342.173 76.5163 342.23 77.3109C342.249 77.4812 342.249 77.642 342.23 77.7934C342.211 77.9447 342.201 78.0677 342.201 78.1623C342.088 78.2758 341.899 78.3231 341.634 78.3042C341.388 78.3042 341.142 78.2475 340.896 78.1339C340.669 78.0204 340.536 77.8785 340.499 77.7083C340.442 77.6515 340.404 77.5758 340.385 77.4812C340.385 77.3677 340.394 77.1407 340.413 76.8001C340.432 76.4595 340.451 75.9203 340.47 75.1824L340.612 70.5849L340.243 70.6133C340.073 70.6133 339.751 70.6322 339.278 70.67C338.805 70.7079 338.294 70.7646 337.746 70.8403C337.197 70.8971 336.686 70.9633 336.213 71.039C335.759 71.0957 335.447 71.1525 335.277 71.2092C335.106 71.2092 334.898 71.3228 334.652 71.5498C334.425 71.7768 334.208 72.0701 334 72.4296C333.924 72.6945 333.782 72.9783 333.574 73.281C333.385 73.5648 333.29 73.754 333.29 73.8486C333.158 73.9432 333.044 74.0567 332.949 74.1891C332.874 74.3216 332.836 74.3878 332.836 74.3878C332.836 74.5013 332.741 74.7851 332.552 75.2392C332.382 75.6744 332.164 76.1663 331.899 76.715C331.635 77.2447 331.37 77.7083 331.105 78.1056L330.509 79.0137L330.055 78.6732ZM335.929 69.5348C335.929 69.5348 336.024 69.5159 336.213 69.4781C336.421 69.4402 336.658 69.4024 336.923 69.3645C337.206 69.3078 337.462 69.2794 337.689 69.2794C338.484 69.0902 339.061 68.9672 339.42 68.9105C339.78 68.8348 340.026 68.7969 340.158 68.7969C340.309 68.7969 340.442 68.8253 340.555 68.8821C340.631 68.9767 340.697 69.0334 340.754 69.0524C340.83 69.0713 340.867 69.0807 340.867 69.0807C340.886 69.0429 340.915 68.8253 340.953 68.428C340.99 68.0307 341.038 67.5388 341.095 66.9522C341.17 66.3657 341.236 65.7603 341.293 65.1359C341.369 64.4927 341.426 63.9061 341.463 63.3764C341.501 62.8277 341.53 62.4115 341.549 62.1277C341.568 61.7682 341.586 61.4465 341.605 61.1627C341.624 60.86 341.634 60.7087 341.634 60.7087C341.52 60.7087 341.274 60.9168 340.896 61.333C340.536 61.7493 340.13 62.2979 339.676 62.9791C339.221 63.6602 338.796 64.3886 338.398 65.1643C338.209 65.5238 338.029 65.8454 337.859 66.1292C337.689 66.413 337.556 66.5549 337.462 66.5549C337.424 66.5928 337.311 66.7631 337.121 67.0658C336.951 67.3496 336.762 67.6807 336.554 68.0591C336.346 68.4185 336.175 68.7496 336.043 69.0524C335.91 69.3362 335.873 69.497 335.929 69.5348Z" fill="#102348"/>
<mask id="path-24-inside-2_3866_6341" fill="white">
<path d="M411 142C411 165.196 392.196 184 369 184C345.804 184 327 165.196 327 142C327 118.804 345.804 100 369 100C392.196 100 411 118.804 411 142Z"/>
</mask>
<path d="M411 142C411 165.196 392.196 184 369 184C345.804 184 327 165.196 327 142C327 118.804 345.804 100 369 100C392.196 100 411 118.804 411 142Z" fill="#BDE0FF"/>
<path d="M409.8 142C409.8 164.533 391.533 182.8 369 182.8V185.2C392.859 185.2 412.2 165.859 412.2 142H409.8ZM369 182.8C346.467 182.8 328.2 164.533 328.2 142H325.8C325.8 165.859 345.141 185.2 369 185.2V182.8ZM328.2 142C328.2 119.467 346.467 101.2 369 101.2V98.8C345.141 98.8 325.8 118.141 325.8 142H328.2ZM369 101.2C391.533 101.2 409.8 119.467 409.8 142H412.2C412.2 118.141 392.859 98.8 369 98.8V101.2Z" fill="#102348" mask="url(#path-24-inside-2_3866_6341)"/>
<path d="M369 123C365.242 123 361.569 124.114 358.444 126.202C355.32 128.29 352.884 131.257 351.446 134.729C350.008 138.201 349.632 142.021 350.365 145.707C351.098 149.392 352.908 152.778 355.565 155.435C358.222 158.092 361.608 159.902 365.293 160.635C368.979 161.368 372.799 160.992 376.271 159.554C379.743 158.116 382.71 155.68 384.798 152.556C386.886 149.431 388 145.758 388 142C388 136.961 385.998 132.128 382.435 128.565C378.872 125.002 374.039 123 369 123ZM382.901 152.163C381.641 151.424 380.308 150.817 378.924 150.351C379.585 147.915 379.947 145.407 380.002 142.884H386.188C386.025 146.232 384.881 149.458 382.901 152.163ZM351.79 142.884H357.998C358.051 145.409 358.412 147.918 359.071 150.356C357.687 150.822 356.355 151.429 355.095 152.167C353.107 149.463 351.958 146.235 351.79 142.884ZM355.099 131.837C356.359 132.576 357.692 133.183 359.076 133.649C358.415 136.085 358.053 138.593 357.998 141.116H351.812C351.976 137.768 353.119 134.542 355.099 131.837ZM369.884 135.204C372.353 135.147 374.808 134.8 377.197 134.17C377.825 136.435 378.174 138.767 378.235 141.116H369.884V135.204ZM369.884 133.437V124.851C372.667 125.373 375.137 128.302 376.657 132.487C374.444 133.064 372.171 133.382 369.884 133.437ZM368.116 124.851V133.437C365.829 133.382 363.556 133.064 361.343 132.487C362.863 128.302 365.333 125.373 368.116 124.851ZM368.116 135.204V141.116H359.765C359.826 138.767 360.175 136.435 360.804 134.17C363.192 134.8 365.647 135.147 368.116 135.204ZM359.765 142.884H368.116V148.796C365.647 148.853 363.192 149.201 360.804 149.83C360.175 147.566 359.826 145.233 359.765 142.884ZM368.116 150.563V159.149C365.333 158.627 362.863 155.698 361.343 151.513C363.556 150.936 365.829 150.618 368.116 150.563ZM369.884 159.149V150.563C372.171 150.618 374.444 150.936 376.657 151.513C375.137 155.698 372.667 158.627 369.884 159.149ZM369.884 148.796V142.884H378.235C378.174 145.233 377.825 147.566 377.197 149.83C374.808 149.201 372.353 148.853 369.884 148.796ZM380.002 141.116C379.949 138.591 379.588 136.082 378.929 133.644C380.313 133.179 381.645 132.571 382.905 131.833C384.901 134.534 386.058 137.762 386.233 141.116H380.002ZM381.77 130.445C380.695 131.056 379.565 131.564 378.394 131.961C377.639 129.673 376.417 127.566 374.806 125.775C377.478 126.735 379.871 128.339 381.774 130.445H381.77ZM363.19 125.779C361.578 127.571 360.357 129.677 359.602 131.965C358.431 131.568 357.301 131.061 356.226 130.45C358.128 128.344 360.52 126.74 363.19 125.779ZM356.226 153.555C357.301 152.944 358.431 152.436 359.602 152.039C360.357 154.327 361.578 156.434 363.19 158.225C360.52 157.264 358.128 155.66 356.226 153.555ZM374.81 158.221C376.422 156.429 377.644 154.323 378.398 152.035C379.569 152.432 380.699 152.939 381.774 153.55C379.872 155.656 377.48 157.26 374.81 158.221Z" fill="#102348"/>
<mask id="path-27-inside-3_3866_6341" fill="white">
<path fill-rule="evenodd" clip-rule="evenodd" d="M438.442 84.7915C438.286 83.9814 438.39 83.1454 438.701 82.3812C440.364 78.2947 441.281 73.8246 441.281 69.1404C441.281 49.7329 425.548 34 406.14 34C386.733 34 371 49.7329 371 69.1404C371 88.5479 386.733 104.281 406.14 104.281C412.167 104.281 417.839 102.764 422.795 100.091C423.846 99.5243 425.083 99.3777 426.212 99.7674L437.51 103.67C439.693 104.423 441.874 102.532 441.435 100.264L438.442 84.7915Z"/>
</mask>
<path fill-rule="evenodd" clip-rule="evenodd" d="M438.442 84.7915C438.286 83.9814 438.39 83.1454 438.701 82.3812C440.364 78.2947 441.281 73.8246 441.281 69.1404C441.281 49.7329 425.548 34 406.14 34C386.733 34 371 49.7329 371 69.1404C371 88.5479 386.733 104.281 406.14 104.281C412.167 104.281 417.839 102.764 422.795 100.091C423.846 99.5243 425.083 99.3777 426.212 99.7674L437.51 103.67C439.693 104.423 441.874 102.532 441.435 100.264L438.442 84.7915Z" fill="#FED9FF"/>
<path d="M437.51 103.67L437.119 104.804L437.51 103.67ZM441.435 100.264L442.613 100.036L441.435 100.264ZM422.795 100.091L423.365 101.147L422.795 100.091ZM426.212 99.7674L426.603 98.6332L426.212 99.7674ZM438.701 82.3812L437.589 81.9287L438.701 82.3812ZM438.442 84.7915L437.264 85.0194L438.442 84.7915ZM440.081 69.1404C440.081 73.6668 439.195 77.9834 437.589 81.9287L439.812 82.8336C441.533 78.6059 442.481 73.9823 442.481 69.1404H440.081ZM406.14 35.2C424.885 35.2 440.081 50.3956 440.081 69.1404H442.481C442.481 49.0701 426.211 32.8 406.14 32.8V35.2ZM372.2 69.1404C372.2 50.3956 387.396 35.2 406.14 35.2V32.8C386.07 32.8 369.8 49.0701 369.8 69.1404H372.2ZM406.14 103.081C387.396 103.081 372.2 87.8851 372.2 69.1404H369.8C369.8 89.2106 386.07 105.481 406.14 105.481V103.081ZM422.226 99.0347C417.44 101.616 411.963 103.081 406.14 103.081V105.481C412.37 105.481 418.238 103.912 423.365 101.147L422.226 99.0347ZM437.902 102.535L426.603 98.6332L425.82 100.902L437.119 104.804L437.902 102.535ZM440.257 100.492C440.52 101.853 439.212 102.988 437.902 102.535L437.119 104.804C440.175 105.859 443.227 103.211 442.613 100.036L440.257 100.492ZM437.264 85.0194L440.257 100.492L442.613 100.036L439.621 84.5636L437.264 85.0194ZM423.365 101.147C424.151 100.723 425.041 100.633 425.82 100.902L426.603 98.6332C425.126 98.1229 423.541 98.3255 422.226 99.0347L423.365 101.147ZM437.589 81.9287C437.199 82.8872 437.059 83.9593 437.264 85.0194L439.621 84.5636C439.512 84.0035 439.58 83.4036 439.812 82.8336L437.589 81.9287Z" fill="#102348" mask="url(#path-27-inside-3_3866_6341)"/>
<g clip-path="url(#clip0_3866_6341)">
<path d="M404.003 80.7766C403.674 80.7762 403.356 80.6592 403.105 80.4464C402.854 80.2336 402.686 79.9388 402.632 79.6143C401.687 73.9491 401.498 68.1836 402.069 62.4687L402.619 56.9731C402.656 56.6057 402.838 56.2681 403.123 56.0344C403.409 55.8008 403.776 55.6903 404.144 55.7272C404.511 55.7641 404.849 55.9454 405.082 56.2313C405.316 56.5172 405.426 56.8841 405.389 57.2515L404.84 62.7458C404.293 68.2152 404.474 73.733 405.378 79.1549C405.412 79.3545 405.401 79.5591 405.347 79.7543C405.294 79.9494 405.198 80.1305 405.067 80.2849C404.936 80.4393 404.773 80.5633 404.589 80.6482C404.406 80.7331 404.205 80.7769 404.003 80.7766Z" fill="#102348"/>
<path d="M398.436 62.6803C398.067 62.6803 397.713 62.5337 397.452 62.2726C397.191 62.0116 397.044 61.6575 397.044 61.2883C397.044 60.9191 397.191 60.5651 397.452 60.304C397.713 60.043 398.067 59.8963 398.436 59.8963C402.021 59.8962 405.591 59.4568 409.069 58.5878L409.238 58.546C409.418 58.494 409.607 58.4789 409.793 58.5015C409.979 58.5242 410.158 58.5841 410.321 58.6777C410.483 58.7714 410.625 58.8968 410.737 59.0465C410.85 59.1963 410.931 59.3672 410.976 59.549C411.021 59.7309 411.029 59.9199 410.999 60.1049C410.969 60.2898 410.902 60.4669 410.803 60.6254C410.703 60.7839 410.572 60.9206 410.418 61.0273C410.264 61.1341 410.09 61.2086 409.907 61.2466L409.74 61.2883C406.043 62.2124 402.247 62.6798 398.436 62.6803ZM408.18 74.8883C407.927 74.8884 407.678 74.8191 407.461 74.688C407.243 74.5568 407.066 74.3688 406.948 74.1442C406.83 73.9196 406.775 73.667 406.791 73.4137C406.806 73.1604 406.89 72.9161 407.033 72.7071C407.801 71.7404 408.369 70.6306 408.704 69.4425C409.039 68.2543 409.135 67.0113 408.985 65.7859C408.937 65.606 408.925 65.4183 408.95 65.2337C408.976 65.0492 409.038 64.8717 409.133 64.7116C409.229 64.5516 409.355 64.4123 409.505 64.3021C409.656 64.1918 409.826 64.1128 410.008 64.0698C410.189 64.0267 410.377 64.0205 410.561 64.0515C410.744 64.0824 410.92 64.1499 411.077 64.25C411.234 64.35 411.37 64.4806 411.475 64.634C411.581 64.7873 411.655 64.9604 411.693 65.1428C411.944 66.7474 411.864 68.3865 411.457 69.959C411.051 71.5315 410.327 73.0039 409.329 74.2856C409.201 74.4719 409.029 74.6242 408.829 74.7292C408.628 74.8342 408.407 74.8889 408.18 74.8883Z" fill="#102348"/>
<path d="M409.628 83.5606C409.326 83.5609 409.032 83.463 408.791 83.2816C408.55 83.1003 408.374 82.8454 408.29 82.5554C408.206 82.2654 408.219 81.956 408.326 81.6738C408.433 81.3916 408.629 81.1519 408.885 80.991C413.693 77.9605 416.452 73.4922 415.033 71.0325C414.637 70.4973 414.119 70.0642 413.522 69.7689C412.925 69.4736 412.267 69.3246 411.601 69.3342C410.828 72.2283 409.281 74.8573 407.127 76.9388C404.908 79.2673 402.038 80.8722 398.893 81.5436C398.074 81.6849 397.232 81.5791 396.474 81.2398C395.715 80.9004 395.075 80.3429 394.635 79.6382C394.195 78.9336 393.975 78.1138 394.002 77.2834C394.03 76.4531 394.304 75.6498 394.791 74.976C395.841 73.5587 397.081 72.2935 398.478 71.2162L398.509 71.1911C399.369 70.5192 400.276 69.9098 401.223 69.3676C404.003 67.6853 407.152 66.7085 410.397 66.5223C413.711 66.4082 416.215 67.5246 417.443 69.6363C419.673 73.5061 416.633 79.3985 410.37 83.3463C410.148 83.4868 409.891 83.5612 409.628 83.5606ZM400.268 73.3502L400.231 73.3794C399.025 74.3058 397.952 75.3939 397.043 76.6131C396.883 76.8378 396.794 77.1047 396.785 77.3803C396.777 77.6558 396.85 77.9277 396.996 78.1617C397.141 78.3958 397.353 78.5816 397.604 78.6959C397.855 78.8102 398.134 78.8478 398.406 78.8041C400.985 78.221 403.335 76.8871 405.157 74.9705C406.735 73.44 407.937 71.5646 408.669 69.4915C406.533 69.8934 404.484 70.6671 402.615 71.7772C401.797 72.2456 401.013 72.7712 400.268 73.3502Z" fill="#102348"/>
</g>
<defs>
<clipPath id="clip0_3866_6341">
<rect width="36" height="36" fill="white" transform="translate(387.615 51.6406)"/>
</clipPath>
</defs>
</svg>
