<svg width="530" height="381" viewBox="0 0 530 381" fill="none" xmlns="http://www.w3.org/2000/svg">
<path d="M385.244 259.888C385.503 260.147 385.911 260.315 386.468 260.392C380.779 268.832 374.298 277.934 372.426 287.799C371.37 293.368 371.005 299.043 371.331 304.823C371.333 304.888 371.315 304.953 371.279 305.008C371.244 305.063 371.193 305.107 371.133 305.133C371.072 305.159 371.006 305.167 370.941 305.156C370.876 305.144 370.817 305.113 370.77 305.067L370.438 304.722C370.342 304.635 370.29 304.525 370.28 304.391C369.608 297.151 370.41 290.089 372.685 283.205C372.858 282.686 372.685 282.518 372.167 282.701C371.783 282.835 371.509 283.095 371.346 283.479C369.32 288.078 367.947 292.864 367.227 297.838C367.217 297.901 367.191 297.961 367.151 298.011C367.111 298.062 367.059 298.101 367 298.126C366.941 298.15 366.876 298.159 366.813 298.152C366.749 298.144 366.688 298.12 366.636 298.082C366.3 297.823 366.18 297.362 366.276 296.7C367.265 289.864 369.656 283.858 373.448 278.683C373.679 278.362 373.81 277.981 373.826 277.589C373.841 277.197 373.74 276.811 373.535 276.479C355.518 247.459 334.462 224.098 301.74 211.669C291.351 207.723 280.607 207.834 269.508 212.001C269.057 212.164 268.999 212.418 269.335 212.764C287.194 231.3 298.154 255.538 305.513 279.878C313.223 305.408 318.528 331.241 321.428 357.376C321.533 358.375 321.994 359.167 322.81 359.753C349.872 379.267 391.077 384.006 416.9 359.623C428.345 348.821 437.13 335.446 443.256 319.498C443.448 319.402 443.453 318.922 443.27 318.058L496.429 317.986C498.647 317.986 499.756 316.872 499.756 314.645V163.581C499.756 163.228 499.616 162.889 499.368 162.638C499.12 162.388 498.783 162.245 498.431 162.241L468.503 161.939C467.908 161.929 467.538 162.207 467.394 162.774C466.285 167.023 462.454 170.638 458.853 165.928C458.797 165.853 458.724 165.793 458.64 165.751C458.557 165.71 458.464 165.688 458.371 165.688C458.277 165.688 458.185 165.71 458.101 165.751C458.018 165.793 457.945 165.853 457.888 165.928C455.997 168.405 453.635 168.996 450.803 167.7C450.736 167.671 450.676 167.621 450.63 167.555L449.593 165.914C449.266 165.386 448.911 165.362 448.527 165.842C445.877 169.106 443.15 169.308 440.347 166.447C439.943 166.024 439.53 166.019 439.108 166.432L436.904 168.607C436.492 169.01 435.997 169.231 435.421 169.269C431.316 169.5 429.804 165.986 428.753 162.673C428.609 162.251 428.316 162.044 427.874 162.054L390.169 162.371C389.725 162.375 389.3 162.554 388.987 162.869C388.674 163.185 388.499 163.611 388.499 164.056V315.682C388.499 316.282 388.737 316.857 389.161 317.281C389.585 317.705 390.16 317.943 390.76 317.943L410.779 317.986C412.718 318.245 413.448 318.654 412.968 319.21L392.603 319.455C391.918 319.465 391.238 319.338 390.603 319.083C389.967 318.827 389.388 318.448 388.901 317.967C388.413 317.485 388.026 316.912 387.761 316.28C387.497 315.648 387.361 314.97 387.361 314.285L387.318 259.974C387.059 258.438 386.761 257.833 386.425 258.16C386.958 257.223 387.419 256.374 387.419 255.207C387.428 224.617 387.428 194.166 387.419 163.854C387.419 163.469 387.494 163.088 387.641 162.732C387.789 162.376 388.004 162.053 388.276 161.782C388.547 161.51 388.87 161.295 389.224 161.149C389.579 161.003 389.959 160.929 390.342 160.931L427.86 160.988C428.407 160.988 428.695 160.71 428.724 160.153C428.935 155.333 431.398 152.87 436.112 152.764C436.186 152.759 436.341 152.793 436.559 152.862C436.776 152.931 437.046 153.032 437.337 153.153C438.287 153.557 438.945 154.209 439.31 155.112C439.54 155.688 439.895 155.779 440.375 155.386C443.208 153.043 446.179 152.937 449.29 155.069C449.742 155.386 450.207 155.405 450.687 155.126C453.865 153.302 456.722 153.696 459.257 156.307C459.679 156.749 460.188 156.912 460.783 156.797C464.019 156.173 466.333 157.33 467.725 160.268C467.82 160.466 467.969 160.634 468.155 160.751C468.341 160.868 468.557 160.93 468.776 160.931L497.653 160.974C498.594 160.978 499.495 161.352 500.159 162.016C500.823 162.681 501.196 163.579 501.196 164.517V315.048C501.196 316.194 500.741 317.293 499.93 318.103C499.12 318.914 498.021 319.369 496.875 319.369H446.482C445.988 319.369 445.506 319.517 445.098 319.794C444.689 320.072 444.374 320.465 444.192 320.924C437.817 337.064 428.398 350.842 415.935 362.258C390.717 385.36 349.339 380.103 323.098 361.61C323.01 361.549 322.907 361.514 322.799 361.509C322.692 361.504 322.585 361.53 322.491 361.584C322.397 361.638 322.319 361.718 322.266 361.814C322.213 361.91 322.187 362.019 322.191 362.129L325.331 416.051C325.364 416.613 325.195 417.169 324.855 417.618C324.514 418.067 324.024 418.38 323.473 418.499C261.299 432.037 198.073 432.455 136.158 418.47C135.9 418.412 135.668 418.27 135.501 418.066C135.334 417.862 135.24 417.609 135.237 417.347L134.977 396.392C135.429 396.699 135.875 396.843 136.317 396.824L136.389 415.863C136.392 416.256 136.527 416.635 136.773 416.941C137.018 417.247 137.36 417.461 137.743 417.548C199.393 431.096 261.035 430.966 322.666 417.16C323.55 416.968 323.967 416.415 323.919 415.503C323.286 401.936 322.508 388.336 321.586 374.702C318.72 331.971 310.122 288.03 292.307 248.827C286.229 235.452 278.231 223.623 268.313 213.34C268.005 213.023 267.631 212.855 267.189 212.836L259.787 212.562C259.578 212.553 259.37 212.595 259.181 212.685C258.992 212.775 258.828 212.909 258.703 213.077C258.578 213.244 258.496 213.44 258.464 213.646C258.432 213.853 258.451 214.064 258.519 214.262C259.931 218.338 268.01 242.778 260.78 243.037C255.903 239.254 251.933 234.449 248.87 228.621C248.787 228.463 248.656 228.335 248.496 228.257C248.335 228.179 248.154 228.154 247.979 228.186C247.803 228.218 247.642 228.306 247.52 228.436C247.398 228.566 247.321 228.732 247.3 228.909C246.561 235.39 245.024 241.391 242.691 246.911C233.949 262.696 213.685 215.457 211.568 210.964C211.395 210.608 211.112 210.426 210.718 210.416L183.685 209.826C183.62 209.825 183.555 209.843 183.5 209.878C183.445 209.913 183.401 209.965 183.375 210.025C183.349 210.085 183.341 210.152 183.353 210.216C183.364 210.281 183.395 210.34 183.441 210.388C195.495 223.566 196.403 241.093 191.362 258.088C191.311 258.263 191.328 258.452 191.411 258.615C191.494 258.778 191.636 258.904 191.808 258.966L216.609 267.607C217.732 268.001 218.107 268.76 217.732 269.883L214.391 279.878L210.286 291.688C210.204 291.927 210.075 292.147 209.907 292.336C209.739 292.524 209.535 292.678 209.308 292.788C209.08 292.898 208.833 292.961 208.581 292.975C208.329 292.989 208.076 292.953 207.838 292.869L177.003 282.139C176.446 281.947 176.264 281.568 176.456 281.001L180.935 268.155L184.319 258.232C184.397 258 184.522 257.786 184.686 257.604C184.85 257.423 185.05 257.277 185.273 257.175C185.496 257.074 185.737 257.02 185.982 257.016C186.226 257.011 186.469 257.058 186.696 257.151L189.043 258.131C189.59 258.352 189.955 258.184 190.138 257.627C196.835 237.334 193.436 208.89 167.411 204.857C152.534 202.553 139.888 205.966 125.76 213.124C93.6719 229.379 66.6198 252.428 44.6036 282.269C33.514 297.305 26.6153 315.567 30.3599 333.987C35.0694 357.059 54.3971 372.786 77.455 376.762C101.406 380.881 125.976 379.051 149.999 376.473C150.709 376.397 150.959 376.013 150.748 375.321C143.844 353.315 143.71 331.279 150.344 309.215C150.488 308.735 150.32 308.418 149.84 308.265C127.517 301.222 107.743 296.657 85.261 301.035C84.9249 301.102 84.7089 300.968 84.6129 300.632C84.5169 300.238 84.6321 300.003 84.9585 299.926C94.8096 297.881 104.637 297.367 114.44 298.385C114.554 298.397 114.669 298.372 114.766 298.312C114.864 298.253 114.94 298.163 114.981 298.056C115.022 297.949 115.027 297.831 114.994 297.721C114.961 297.612 114.893 297.516 114.8 297.449C109.442 293.579 103.533 290.886 97.0708 289.369C96.994 289.359 96.9556 289.316 96.9556 289.239C96.9459 289.067 96.9459 288.923 96.9556 288.807C96.9748 288.529 97.1188 288.419 97.3876 288.476C104.07 289.868 110.086 292.566 115.434 296.57C120.114 300.07 127.877 300.646 133.566 302.101C145.856 305.442 158.141 308.937 170.421 312.585C174.022 313.651 177.324 314.078 180.33 313.867C195.711 312.787 205.173 307.631 218.207 297.377C219.475 296.378 221.266 296.066 223.579 296.441C224.05 296.517 224.348 296.786 224.472 297.247C225.711 302.129 221.736 310.886 220.281 315.639C219.494 318.183 220.43 319.412 223.09 319.326C227.785 319.182 235.303 318.361 238.241 314.414C241.515 319.023 241.28 323.728 237.535 328.529C237.259 328.897 237.14 329.363 237.204 329.825C237.722 333.445 236.868 336.671 234.64 339.503C234.295 339.945 234.093 340.449 234.035 341.015C233.066 350.54 227.746 354.817 218.078 353.848C217.915 353.838 217.833 353.752 217.833 353.588C217.833 353.444 217.828 353.3 217.819 353.156C217.809 352.916 217.929 352.806 218.179 352.825C226.301 353.507 231.241 350.041 232.998 342.427C233.162 341.716 232.912 341.519 232.25 341.836C228.879 343.449 225.524 344.059 222.182 343.665C221.818 343.627 221.573 343.363 221.448 342.873C221.362 342.537 221.491 342.393 221.837 342.441C230.757 343.603 235.61 339.786 236.397 330.991C236.465 330.29 236.186 330.103 235.562 330.43C232.374 332.091 229.004 332.844 225.452 332.691C225.039 332.672 224.765 332.489 224.631 332.144C224.42 331.615 224.597 331.385 225.164 331.452C234.064 332.475 241.323 326.411 239.019 317.525C238.981 317.38 238.912 317.245 238.815 317.13C238.718 317.015 238.597 316.924 238.459 316.863C238.322 316.802 238.173 316.773 238.023 316.778C237.873 316.783 237.726 316.822 237.593 316.892C232.466 319.59 226.998 320.569 221.189 319.83C220.799 319.781 220.425 319.648 220.092 319.44C219.759 319.233 219.475 318.955 219.261 318.627C219.047 318.299 218.908 317.929 218.853 317.542C218.798 317.155 218.828 316.761 218.942 316.388L224.012 299.465C224.125 299.091 224.125 298.691 224.009 298.317C223.893 297.943 223.668 297.612 223.363 297.367C223.058 297.122 222.686 296.974 222.296 296.943C221.906 296.911 221.515 296.997 221.174 297.189C216.263 299.955 211.554 304.29 207.334 306.695C198.068 311.966 188.035 314.895 177.233 315.48C176.686 315.509 176.345 315.792 176.211 316.33C171.698 335.11 173.042 353.42 180.243 371.26C180.426 371.721 180.762 371.913 181.251 371.836C192.471 370.136 223.623 367.011 227.079 353.473C227.137 353.243 227.367 353.18 227.77 353.286C228.164 353.392 228.299 353.636 228.174 354.02C226.916 357.736 224.578 360.761 221.16 363.094C216.378 364.937 211.77 366.867 206.83 367.976C181.501 373.699 155.875 377.405 129.951 379.095C122.02 379.613 114.142 380.074 106.317 380.477C97.6565 380.439 89.1928 379.896 80.9259 378.85C33.2979 372.844 13.1493 325.202 40.427 285.97C61.9919 254.948 89.3368 230.695 122.462 213.21C140.508 203.691 159.072 199.154 178.601 207.104C186.912 210.488 202.077 208.947 211.266 209.063C211.717 209.072 211.957 208.851 211.986 208.4L213.455 186.221C213.464 186.044 213.435 185.868 213.37 185.703C213.305 185.539 213.205 185.392 213.077 185.271C212.949 185.15 212.797 185.059 212.631 185.004C212.465 184.949 212.289 184.932 212.115 184.953C203.464 186.009 197.094 183.417 193.004 177.176C187.401 168.621 191.189 158.972 202.077 158.338C202.193 158.332 202.306 158.297 202.406 158.238C202.506 158.178 202.59 158.095 202.65 157.996C202.711 157.897 202.747 157.785 202.755 157.669C202.763 157.553 202.743 157.436 202.696 157.33C200.594 152.587 197.876 148.343 194.545 144.598C189.418 138.852 186.465 134.992 189.014 127.82C192.01 119.38 198.126 115.756 207.363 116.946C207.852 117.013 208.102 116.797 208.112 116.298C208.313 103.423 223.407 99.0444 232.278 107.095C232.427 107.229 232.602 107.329 232.792 107.389C232.982 107.449 233.183 107.467 233.38 107.442C233.577 107.418 233.766 107.351 233.934 107.246C234.102 107.141 234.244 107.001 234.352 106.836C238.054 101.219 244.434 100.902 250.022 104.042C260.377 109.875 258.922 118.847 253.766 128.353C253.546 128.756 253.502 129.179 253.637 129.62C257.77 143.417 262.192 151.324 272.532 159.606C279.157 164.906 277.933 173.561 273.267 179.855C268.629 186.115 262.086 189.639 253.637 190.426C253.508 190.438 253.384 190.477 253.27 190.539C253.157 190.601 253.057 190.685 252.976 190.787C252.895 190.889 252.836 191.007 252.801 191.133C252.766 191.259 252.756 191.391 252.773 191.521C253.608 198.261 255.322 204.747 257.914 210.978C258.087 211.41 258.399 211.607 258.85 211.569C263.329 211.252 266.728 211.842 271.049 210.143C299.565 198.909 337.414 227.152 354.697 248.035C361.888 256.734 368.369 265.759 374.14 275.111C374.222 275.245 374.338 275.356 374.475 275.432C374.613 275.509 374.767 275.549 374.925 275.549C375.082 275.549 375.237 275.509 375.374 275.432C375.512 275.356 375.627 275.245 375.71 275.111L385.244 259.888ZM231.529 108.291C230.132 111.646 228.879 113.49 229.456 117.335C229.463 117.469 229.524 117.594 229.624 117.683C229.723 117.772 229.855 117.818 229.988 117.81C230.122 117.803 230.247 117.742 230.336 117.642C230.426 117.542 230.471 117.411 230.464 117.278C230.541 114.09 231.376 111.118 232.97 108.363C233.219 107.921 233.09 107.681 232.581 107.642C232.072 107.614 231.721 107.83 231.529 108.291ZM252.297 200.839C245.197 200.709 236.441 196.533 235.792 188.655C235.783 188.553 235.796 188.451 235.832 188.356C235.867 188.26 235.924 188.174 235.997 188.103C236.07 188.033 236.159 187.98 236.256 187.948C236.352 187.916 236.455 187.907 236.556 187.92C251.016 189.965 269.062 190.887 274.995 173.748C278.106 164.761 271.078 159.994 264.352 154.378C262.201 152.582 259.974 148.943 257.669 143.461C257.625 143.351 257.546 143.26 257.445 143.2C257.343 143.141 257.225 143.116 257.108 143.131C256.991 143.146 256.883 143.199 256.799 143.282C256.716 143.365 256.662 143.474 256.647 143.59C256.359 145.626 255.207 146.84 253.19 147.234C252.547 147.368 252.485 147.637 253.003 148.041L257.122 151.281C257.641 151.694 257.741 152.188 257.425 152.764L255.812 155.731C255.687 155.962 255.533 155.981 255.351 155.789L255.048 155.486C254.983 155.421 254.941 155.334 254.931 155.24C254.92 155.146 254.941 155.05 254.991 154.968L256.316 152.822C256.584 152.39 256.512 152.025 256.1 151.728L249.633 147.018C249.359 146.822 249.148 146.551 249.022 146.239C248.897 145.926 248.863 145.584 248.925 145.253C248.987 144.922 249.142 144.616 249.372 144.37C249.602 144.124 249.897 143.948 250.223 143.864L256.028 142.337C256.508 142.212 256.661 141.915 256.488 141.444L254.818 136.893C254.744 136.686 254.603 136.508 254.416 136.386C254.229 136.264 254.007 136.205 253.781 136.216L247.314 136.548C247.088 136.559 246.863 136.512 246.66 136.412C246.457 136.313 246.283 136.163 246.154 135.979C246.025 135.794 245.947 135.58 245.926 135.356C245.904 135.133 245.941 134.909 246.032 134.704L246.997 132.501C247.151 132.145 247.045 132.025 246.681 132.141C243.022 133.293 239.532 134.858 236.21 136.836C235.941 136.999 235.965 137.095 236.282 137.124L239.307 137.383C239.627 137.41 239.934 137.526 240.193 137.717C240.452 137.908 240.653 138.167 240.774 138.465C240.895 138.763 240.931 139.089 240.877 139.407C240.824 139.724 240.684 140.021 240.473 140.263L232.624 149.423C232.407 149.673 232.131 149.865 231.82 149.979C231.51 150.093 231.175 150.127 230.849 150.076C230.523 150.026 230.216 149.893 229.957 149.691C229.698 149.488 229.496 149.223 229.369 148.919C228.822 147.613 228.803 146.356 229.312 145.146C229.609 144.426 229.436 144.277 228.793 144.699C228.591 144.834 228.452 145.002 228.375 145.203C226.359 150.263 224.693 155.775 223.378 161.737C222.586 165.323 220.296 167.7 216.666 165.395C210.401 161.406 198.592 155.616 193.292 164.445C188.582 172.294 195.711 181.007 203.431 182.937C208.385 184.185 213.647 184.06 219.216 182.563C219.276 182.542 219.339 182.533 219.401 182.537C219.464 182.541 219.525 182.558 219.581 182.586C219.637 182.614 219.686 182.653 219.726 182.701C219.767 182.749 219.797 182.805 219.816 182.866C219.835 182.926 219.842 182.99 219.837 183.054C219.831 183.118 219.813 183.18 219.784 183.238C219.755 183.295 219.716 183.347 219.667 183.389C219.619 183.431 219.564 183.464 219.504 183.484L215.557 184.953C215.287 185.056 215.051 185.234 214.877 185.466C214.704 185.698 214.6 185.975 214.578 186.264C214.232 192.082 211.712 208.299 214.665 213.11C220.382 222.5 248.279 230.853 255.135 218.194C257.785 213.297 255.12 206.499 253.277 201.545C253.114 201.084 252.787 200.849 252.297 200.839ZM439.454 159.49C440.203 146.96 421.12 158.871 433.606 168.16C433.784 168.293 433.991 168.379 434.209 168.412C434.428 168.444 434.651 168.422 434.859 168.348C438.647 167.008 439.238 163.235 439.454 159.49ZM448.91 159.109C448.967 158.609 448.925 158.103 448.786 157.62C448.648 157.136 448.415 156.684 448.102 156.291C447.789 155.897 447.401 155.569 446.961 155.325C446.521 155.081 446.037 154.926 445.538 154.869L444.937 154.801C443.927 154.686 442.913 154.976 442.118 155.609C441.323 156.241 440.812 157.164 440.697 158.173L440.165 162.838C440.108 163.338 440.15 163.844 440.289 164.328C440.427 164.812 440.66 165.263 440.973 165.657C441.286 166.051 441.674 166.379 442.114 166.623C442.554 166.867 443.038 167.021 443.538 167.078L444.139 167.147C445.148 167.262 446.162 166.971 446.957 166.339C447.752 165.706 448.264 164.784 448.379 163.774L448.91 159.109ZM450.414 156.984C449.478 159.101 449.881 163.71 450.817 165.712C450.994 166.097 451.252 166.439 451.573 166.716C451.894 166.993 452.271 167.198 452.679 167.318C453.086 167.438 453.515 167.47 453.937 167.412C454.358 167.353 454.763 167.206 455.123 166.979C460.51 163.595 459.732 151.627 451.321 156.048C450.889 156.288 450.587 156.6 450.414 156.984ZM460.222 159.058C458.724 161.814 458.839 164.262 460.567 166.403C460.748 166.632 460.984 166.809 461.252 166.918C461.519 167.026 461.81 167.063 462.094 167.023C466.962 166.346 467.437 160.599 463.937 158.165C462.363 157.08 461.124 157.378 460.222 159.058ZM260.492 241.554C260.586 241.647 260.699 241.72 260.822 241.768C260.946 241.816 261.078 241.838 261.21 241.832C261.343 241.827 261.473 241.794 261.592 241.736C261.711 241.679 261.817 241.597 261.904 241.496C262.499 240.815 262.734 239.893 262.609 238.731C261.822 231.28 260.382 224.079 258.289 217.128C258.253 217.004 258.179 216.895 258.078 216.817C257.977 216.738 257.853 216.693 257.723 216.688C257.594 216.684 257.465 216.719 257.354 216.79C257.244 216.861 257.158 216.964 257.108 217.085C255.619 220.944 252.921 223.566 249.014 224.948C248.457 225.15 248.322 225.51 248.61 226.028C251.846 231.77 255.807 236.945 260.492 241.554ZM245.615 225.769C234.856 225.668 226.129 224.055 217.026 218.15C216.566 217.853 216.45 217.958 216.681 218.467C220.929 227.843 227.843 242.504 236.138 248.726C236.512 249.008 236.944 249.203 237.402 249.297C237.861 249.39 238.335 249.38 238.789 249.267C239.244 249.154 239.667 248.94 240.028 248.642C240.389 248.345 240.679 247.97 240.876 247.545C243.978 240.901 245.788 233.897 246.306 226.532C246.344 226.033 246.114 225.779 245.615 225.769ZM174.569 315.019L152.649 308.841C152.416 308.775 152.167 308.804 151.954 308.923C151.741 309.041 151.582 309.24 151.511 309.475C144.963 331.625 145.131 353.756 152.015 375.869C152.061 376.007 152.154 376.124 152.278 376.2C152.401 376.277 152.548 376.307 152.692 376.286L178.213 372.628C178.36 372.606 178.5 372.551 178.622 372.468C178.745 372.384 178.847 372.273 178.92 372.144C178.994 372.015 179.037 371.871 179.047 371.723C179.056 371.575 179.032 371.426 178.976 371.289C171.756 353.276 170.459 334.818 175.087 315.912C175.135 315.728 175.108 315.531 175.011 315.364C174.914 315.198 174.756 315.074 174.569 315.019Z" fill="#102348"/>
<path d="M460.222 159.058C461.124 157.378 462.363 157.08 463.938 158.165C467.437 160.599 466.962 166.345 462.094 167.022C461.81 167.062 461.52 167.026 461.252 166.917C460.984 166.809 460.748 166.631 460.568 166.403C458.839 164.262 458.724 161.813 460.222 159.058Z" fill="white"/>
<path d="M450.816 165.711C449.88 163.709 449.477 159.1 450.413 156.983C450.586 156.599 450.888 156.287 451.32 156.047C459.731 151.626 460.509 163.594 455.123 166.978C454.762 167.205 454.357 167.352 453.936 167.41C453.514 167.469 453.086 167.437 452.678 167.317C452.271 167.197 451.894 166.992 451.573 166.715C451.252 166.438 450.994 166.096 450.816 165.711Z" fill="white"/>
<path d="M445.536 154.869L444.935 154.801C442.833 154.561 440.935 156.071 440.695 158.174L440.164 162.838C439.924 164.941 441.434 166.839 443.536 167.078L444.137 167.147C446.24 167.386 448.138 165.876 448.377 163.774L448.909 159.109C449.148 157.007 447.638 155.109 445.536 154.869Z" fill="white"/>
<path d="M433.607 168.161C421.12 158.872 440.203 146.961 439.454 159.491C439.238 163.236 438.647 167.009 434.86 168.348C434.651 168.423 434.428 168.445 434.21 168.412C433.991 168.38 433.784 168.293 433.607 168.161Z" fill="white"/>
<path d="M443.27 318.057L410.779 317.985L390.76 317.942C390.16 317.942 389.585 317.704 389.161 317.28C388.737 316.856 388.499 316.281 388.499 315.681V164.055C388.499 163.61 388.675 163.184 388.987 162.868C389.3 162.553 389.725 162.374 390.17 162.37L427.875 162.053C428.316 162.043 428.609 162.25 428.753 162.672C429.804 165.985 431.317 169.499 435.421 169.268C435.997 169.23 436.492 169.009 436.905 168.606L439.108 166.431C439.531 166.018 439.944 166.023 440.347 166.446C443.15 169.307 445.877 169.105 448.527 165.841C448.911 165.361 449.267 165.385 449.593 165.913L450.63 167.555C450.677 167.62 450.737 167.67 450.803 167.699C453.635 168.995 455.997 168.404 457.889 165.927C457.945 165.853 458.018 165.792 458.102 165.75C458.185 165.709 458.278 165.687 458.371 165.687C458.465 165.687 458.557 165.709 458.641 165.75C458.724 165.792 458.797 165.853 458.854 165.927C462.454 170.637 466.285 167.022 467.394 162.773C467.538 162.207 467.908 161.928 468.503 161.938L498.431 162.24C498.784 162.244 499.121 162.387 499.369 162.638C499.617 162.888 499.756 163.227 499.756 163.58V314.644C499.756 316.872 498.647 317.985 496.429 317.985L443.27 318.057ZM453.827 180.084C449.708 170.953 437.265 171.688 434.284 181.021C434.255 181.097 433.995 181.361 433.506 181.813C433.122 182.158 432.709 182.269 432.267 182.144C431.739 181.99 431.216 182.019 430.697 182.23L413.818 189.259C413.012 189.585 412.613 190.185 412.623 191.059C412.637 196.978 411.917 203.978 413.861 209.306C416.386 216.248 421.125 221.255 428.076 224.328C438.345 228.879 448.959 214.578 451.062 206.512C451.206 205.936 451.537 205.802 452.056 206.109L453.698 207.06C454.149 207.329 454.61 207.348 455.08 207.117C460.332 204.506 465.051 201.15 469.238 197.05C485.411 181.237 463.146 163.565 454.591 180.113C454.322 180.632 454.067 180.622 453.827 180.084ZM436.588 234.942C436.588 234.809 436.535 234.68 436.44 234.586C436.346 234.491 436.218 234.438 436.084 234.438H402.008C401.875 234.438 401.746 234.491 401.652 234.586C401.557 234.68 401.504 234.809 401.504 234.942V234.971C401.504 235.105 401.557 235.233 401.652 235.328C401.746 235.422 401.875 235.475 402.008 235.475H436.084C436.218 235.475 436.346 235.422 436.44 235.328C436.535 235.233 436.588 235.105 436.588 234.971V234.942ZM483.856 234.908C483.856 234.785 483.808 234.668 483.722 234.581C483.635 234.495 483.518 234.446 483.396 234.446L441.658 234.373C441.598 234.373 441.538 234.385 441.482 234.408C441.426 234.431 441.375 234.465 441.332 234.507C441.289 234.55 441.255 234.601 441.232 234.657C441.209 234.713 441.197 234.773 441.197 234.833L441.196 235.035C441.196 235.157 441.245 235.274 441.331 235.361C441.417 235.447 441.534 235.496 441.656 235.496L483.394 235.569C483.454 235.569 483.514 235.558 483.57 235.535C483.626 235.511 483.677 235.478 483.72 235.435C483.763 235.392 483.797 235.341 483.82 235.285C483.844 235.23 483.856 235.17 483.856 235.109L483.856 234.908ZM483.985 247.034C483.984 246.854 482.695 246.689 480.401 246.574C478.107 246.459 474.997 246.404 471.754 246.421C470.149 246.429 468.559 246.455 467.075 246.497C465.592 246.539 464.244 246.596 463.109 246.664C461.974 246.733 461.074 246.813 460.46 246.898C459.846 246.983 459.53 247.073 459.531 247.162C459.532 247.341 460.821 247.507 463.115 247.622C465.409 247.737 468.519 247.792 471.762 247.775C473.367 247.766 474.957 247.74 476.441 247.699C477.924 247.657 479.272 247.6 480.407 247.531C481.542 247.462 482.442 247.383 483.056 247.298C483.67 247.212 483.986 247.123 483.985 247.034ZM423.684 246.997C423.684 247.092 423.646 247.184 423.578 247.252C423.511 247.319 423.419 247.357 423.323 247.357H401.922C401.826 247.357 401.735 247.319 401.667 247.252C401.6 247.184 401.562 247.092 401.562 246.997C401.562 246.901 401.6 246.81 401.667 246.742C401.735 246.675 401.826 246.637 401.922 246.637H423.323C423.419 246.637 423.511 246.675 423.578 246.742C423.646 246.81 423.684 246.901 423.684 246.997ZM455.123 246.974C455.124 247.021 455.114 247.068 455.096 247.111C455.078 247.155 455.052 247.195 455.018 247.228C454.985 247.262 454.945 247.288 454.902 247.307C454.858 247.325 454.811 247.334 454.764 247.334L428.61 247.38C428.563 247.38 428.516 247.371 428.472 247.353C428.428 247.335 428.389 247.308 428.355 247.275C428.321 247.241 428.295 247.202 428.277 247.158C428.259 247.115 428.249 247.068 428.249 247.02C428.249 246.973 428.258 246.926 428.276 246.883C428.294 246.839 428.321 246.799 428.354 246.766C428.387 246.732 428.427 246.705 428.471 246.687C428.514 246.669 428.561 246.66 428.609 246.66L454.763 246.614C454.81 246.614 454.857 246.623 454.901 246.641C454.944 246.659 454.984 246.686 455.018 246.719C455.051 246.752 455.078 246.792 455.096 246.836C455.114 246.879 455.123 246.926 455.123 246.974ZM483.395 258.412C483.394 258.313 483.354 258.217 483.284 258.148C483.213 258.078 483.118 258.038 483.019 258.039L447.33 258.163C447.281 258.164 447.233 258.173 447.187 258.192C447.142 258.211 447.101 258.239 447.066 258.274C447.031 258.309 447.004 258.35 446.985 258.396C446.967 258.441 446.957 258.49 446.957 258.539L446.958 258.712C446.958 258.811 446.998 258.906 447.069 258.976C447.139 259.046 447.234 259.085 447.334 259.085L483.022 258.96C483.071 258.96 483.12 258.95 483.165 258.931C483.211 258.912 483.252 258.885 483.286 258.85C483.321 258.815 483.348 258.774 483.367 258.728C483.386 258.683 483.395 258.634 483.395 258.585L483.395 258.412ZM442.162 258.519C442.162 258.614 442.124 258.706 442.056 258.773C441.989 258.841 441.897 258.879 441.801 258.879H402.167C402.071 258.879 401.98 258.841 401.912 258.773C401.845 258.706 401.807 258.614 401.807 258.519C401.807 258.423 401.845 258.332 401.912 258.264C401.98 258.197 402.071 258.159 402.167 258.159H441.801C441.897 258.159 441.989 258.197 442.056 258.264C442.124 258.332 442.162 258.423 442.162 258.519ZM412.594 268.399L401.835 268.197C401.346 268.197 401.101 268.442 401.101 268.931V279.431C401.101 279.53 401.12 279.629 401.158 279.721C401.196 279.812 401.251 279.896 401.321 279.965C401.391 280.035 401.474 280.09 401.564 280.127C401.655 280.164 401.752 280.181 401.85 280.18L413.343 280.093C413.794 280.093 414.02 279.868 414.02 279.416L413.933 270.3L414.437 268.499C414.543 268.106 414.394 267.88 413.991 267.823C413.588 267.755 413.122 267.947 412.594 268.399ZM478.743 273.928C478.743 273.879 478.734 273.83 478.715 273.785C478.696 273.74 478.669 273.698 478.634 273.663C478.599 273.629 478.558 273.601 478.513 273.582C478.467 273.563 478.419 273.553 478.369 273.553L430.353 273.469C430.303 273.469 430.255 273.479 430.209 273.498C430.164 273.516 430.122 273.544 430.088 273.579C430.053 273.613 430.025 273.655 430.006 273.7C429.987 273.745 429.978 273.794 429.977 273.843L429.977 274.016C429.977 274.065 429.987 274.114 430.005 274.16C430.024 274.205 430.052 274.246 430.086 274.281C430.121 274.316 430.162 274.344 430.208 274.362C430.253 274.381 430.302 274.391 430.351 274.391L478.368 274.475C478.417 274.475 478.466 274.466 478.511 274.447C478.557 274.428 478.598 274.401 478.633 274.366C478.668 274.331 478.695 274.29 478.714 274.244C478.733 274.199 478.743 274.15 478.743 274.101L478.743 273.928ZM418.672 273.814C418.565 273.839 418.471 273.9 418.406 273.988C418.341 274.075 418.309 274.183 418.316 274.292C418.323 274.401 418.368 274.504 418.444 274.582C418.52 274.661 418.621 274.71 418.729 274.721H425.239C425.347 274.71 425.449 274.661 425.524 274.582C425.6 274.504 425.645 274.401 425.652 274.292C425.659 274.183 425.627 274.075 425.562 273.988C425.497 273.9 425.403 273.839 425.297 273.814C423.088 273.526 420.88 273.526 418.672 273.814ZM412.651 287.741L401.763 287.712C401.255 287.712 401 287.966 401 288.475L401.015 299.162C401.015 299.671 401.269 299.925 401.778 299.925H413.4C413.967 299.925 414.24 299.642 414.221 299.075L413.976 290.506L415.244 287.467C415.484 286.901 415.297 286.646 414.682 286.704C414.125 286.752 413.448 287.097 412.651 287.741ZM428.508 293.367C428.509 293.199 428.442 293.037 428.324 292.918C428.205 292.799 428.044 292.732 427.876 292.732L418.716 292.716C418.633 292.716 418.55 292.732 418.474 292.764C418.397 292.795 418.327 292.842 418.268 292.901C418.209 292.959 418.162 293.029 418.13 293.106C418.098 293.183 418.081 293.265 418.081 293.348L418.081 293.521C418.081 293.689 418.147 293.851 418.266 293.97C418.384 294.089 418.545 294.156 418.713 294.156L427.873 294.172C427.957 294.172 428.039 294.156 428.116 294.124C428.193 294.093 428.263 294.046 428.322 293.987C428.381 293.928 428.427 293.859 428.459 293.782C428.491 293.705 428.508 293.623 428.508 293.539L428.508 293.367ZM464.658 293.574C464.657 293.387 462.962 293.211 459.945 293.084C456.928 292.956 452.836 292.889 448.569 292.897C446.457 292.9 444.365 292.922 442.413 292.961C440.461 293 438.688 293.055 437.194 293.123C435.7 293.191 434.516 293.271 433.707 293.358C432.899 293.445 432.483 293.538 432.483 293.63C432.484 293.818 434.179 293.994 437.196 294.121C440.213 294.248 444.305 294.316 448.572 294.308C450.684 294.304 452.776 294.283 454.728 294.244C456.68 294.205 458.453 294.15 459.947 294.082C461.441 294.013 462.625 293.934 463.434 293.847C464.242 293.759 464.658 293.667 464.658 293.574Z" fill="white"/>
<path d="M483.018 258.038L447.33 258.163C447.123 258.163 446.956 258.332 446.956 258.539L446.957 258.711C446.958 258.918 447.126 259.085 447.333 259.084L483.021 258.96C483.228 258.959 483.395 258.791 483.394 258.584L483.394 258.411C483.393 258.205 483.225 258.037 483.018 258.038Z" fill="#102348"/>
<path d="M471.762 247.774C478.515 247.739 483.987 247.407 483.985 247.033C483.983 246.659 478.508 246.385 471.755 246.42C465.002 246.456 459.529 246.787 459.531 247.161C459.533 247.535 465.009 247.809 471.762 247.774Z" fill="#102348"/>
<path d="M454.591 180.113C463.146 163.565 485.411 181.236 469.238 197.05C465.051 201.149 460.332 204.505 455.08 207.117C454.61 207.347 454.149 207.328 453.698 207.059L452.056 206.109C451.537 205.801 451.206 205.936 451.062 206.512C448.959 214.577 438.345 228.878 428.076 224.327C421.125 221.255 416.386 216.248 413.861 209.306C411.917 203.977 412.637 196.978 412.623 191.058C412.613 190.185 413.012 189.584 413.818 189.258L430.697 182.23C431.216 182.019 431.739 181.99 432.267 182.143C432.709 182.268 433.122 182.158 433.506 181.812C433.995 181.361 434.255 181.097 434.284 181.02C437.265 171.687 449.708 170.953 453.827 180.084C454.067 180.622 454.322 180.631 454.591 180.113ZM432.728 224.414C442.262 221.389 450.011 212.575 450.054 202.004C450.073 198.442 450.078 194.884 450.068 191.332C450.059 190.794 449.804 190.42 449.305 190.209L432.541 183.18C432.125 183.014 431.661 183.014 431.245 183.18L414.639 190.122C414.159 190.324 413.895 190.679 413.847 191.188C412.464 206.382 415.446 219.099 431.317 224.414C431.775 224.563 432.27 224.563 432.728 224.414Z" fill="#102348"/>
<path d="M450.054 202.005C450.01 212.576 442.262 221.391 432.728 224.415C432.269 224.565 431.775 224.565 431.316 224.415C415.445 219.101 412.464 206.384 413.847 191.189C413.895 190.68 414.159 190.325 414.639 190.123L431.244 183.182C431.66 183.015 432.125 183.015 432.541 183.182L449.305 190.21C449.804 190.421 450.058 190.796 450.068 191.333C450.078 194.886 450.073 198.443 450.054 202.005ZM439.814 217.257C446.957 210.632 447.576 203.993 446.64 194.228C446.592 193.729 446.343 193.383 445.891 193.191L432.497 187.358C432.065 187.176 431.638 187.176 431.216 187.358L418.095 193.119C417.749 193.273 417.456 193.525 417.251 193.842C417.046 194.159 416.939 194.529 416.943 194.905C416.957 199.182 416.439 204.194 417.85 208.083C420.947 216.609 430.812 225.639 439.814 217.257Z" fill="white"/>
<path d="M439.813 217.255C430.812 225.638 420.947 216.607 417.85 208.081C416.439 204.193 416.957 199.181 416.943 194.903C416.939 194.527 417.046 194.158 417.251 193.84C417.455 193.523 417.749 193.272 418.095 193.117L431.215 187.357C431.638 187.174 432.065 187.174 432.497 187.357L445.891 193.189C446.342 193.381 446.592 193.727 446.64 194.226C447.576 203.991 446.957 210.63 439.813 217.255ZM433.894 201.067L433.851 197.467C433.848 197.337 433.818 197.209 433.762 197.092C433.707 196.975 433.627 196.871 433.529 196.788C433.431 196.705 433.316 196.644 433.193 196.609C433.069 196.575 432.94 196.568 432.814 196.588L430.726 196.948C430.178 197.044 429.905 197.371 429.905 197.928V200.851C429.905 201.475 429.597 201.84 428.983 201.946C428.042 202.109 426.995 202.052 425.843 201.773C425.331 201.654 424.828 201.747 424.44 202.031C424.052 202.316 423.811 202.769 423.767 203.296C423.724 203.822 423.882 204.379 424.208 204.848C424.534 205.317 425.002 205.66 425.512 205.806C426.347 206.036 427.504 206.06 428.983 205.878C429.099 205.863 429.217 205.874 429.329 205.908C429.44 205.942 429.543 205.999 429.631 206.075C429.718 206.151 429.787 206.245 429.835 206.35C429.882 206.455 429.906 206.569 429.905 206.684V210.011C429.905 210.626 430.212 210.943 430.826 210.962L432.756 211.005C432.901 211.009 433.044 210.984 433.179 210.931C433.313 210.879 433.435 210.8 433.539 210.699C433.642 210.598 433.724 210.478 433.78 210.345C433.836 210.212 433.865 210.069 433.865 209.925V207.044C433.865 206.334 434.221 205.974 434.931 205.964L438.344 205.921C438.59 205.917 438.825 205.817 438.997 205.642C439.169 205.467 439.266 205.231 439.266 204.985V202.897C439.266 202.292 438.968 201.989 438.373 201.989H434.83C434.584 201.989 434.348 201.893 434.173 201.72C433.998 201.548 433.898 201.313 433.894 201.067Z" fill="#D9C6F4"/>
<path d="M434.83 201.991H438.373C438.968 201.991 439.265 202.293 439.265 202.898V204.987C439.266 205.232 439.169 205.468 438.996 205.643C438.824 205.819 438.59 205.919 438.344 205.923L434.93 205.966C434.22 205.976 433.865 206.336 433.865 207.046V209.926C433.865 210.071 433.836 210.214 433.78 210.347C433.724 210.48 433.642 210.6 433.538 210.701C433.435 210.801 433.312 210.88 433.178 210.933C433.044 210.985 432.9 211.011 432.756 211.007L430.826 210.963C430.211 210.944 429.904 210.627 429.904 210.013V206.686C429.905 206.571 429.881 206.457 429.834 206.352C429.787 206.247 429.717 206.153 429.63 206.077C429.543 206 429.44 205.943 429.328 205.909C429.216 205.875 429.098 205.865 428.982 205.879C427.504 206.062 426.347 206.038 425.511 205.807C425.002 205.662 424.534 205.318 424.208 204.849C423.882 204.381 423.724 203.824 423.767 203.297C423.81 202.771 424.051 202.317 424.439 202.033C424.827 201.749 425.331 201.656 425.843 201.775C426.995 202.053 428.041 202.111 428.982 201.948C429.597 201.842 429.904 201.477 429.904 200.853V197.929C429.904 197.373 430.178 197.046 430.725 196.95L432.813 196.59C432.939 196.57 433.069 196.577 433.192 196.611C433.315 196.646 433.43 196.707 433.528 196.79C433.627 196.873 433.706 196.977 433.762 197.094C433.817 197.211 433.847 197.339 433.85 197.469L433.893 201.069C433.897 201.315 433.998 201.549 434.173 201.722C434.348 201.894 434.584 201.991 434.83 201.991Z" fill="white"/>
<path d="M235.792 188.654C236.44 196.532 245.197 200.709 252.297 200.838C252.787 200.848 253.113 201.083 253.277 201.544C255.12 206.498 257.784 213.296 255.134 218.193C248.279 230.852 220.382 222.499 214.664 213.109C211.712 208.299 214.232 192.082 214.578 186.263C214.6 185.974 214.704 185.698 214.877 185.466C215.051 185.234 215.286 185.056 215.557 184.953L219.503 183.484C219.563 183.463 219.619 183.431 219.667 183.388C219.715 183.346 219.755 183.295 219.784 183.237C219.813 183.18 219.831 183.117 219.836 183.053C219.842 182.99 219.835 182.926 219.816 182.865C219.797 182.805 219.767 182.749 219.726 182.701C219.686 182.653 219.636 182.614 219.58 182.585C219.525 182.557 219.464 182.541 219.401 182.537C219.338 182.533 219.275 182.541 219.215 182.562C213.647 184.06 208.385 184.185 203.431 182.936C195.711 181.007 188.582 172.293 193.291 164.444C198.591 155.616 210.401 161.405 216.666 165.395C220.296 167.699 222.585 165.323 223.378 161.736C224.693 155.774 226.359 150.263 228.375 145.203C228.452 145.001 228.591 144.833 228.793 144.699C229.436 144.276 229.609 144.425 229.311 145.145C228.802 146.355 228.822 147.613 229.369 148.919C229.496 149.222 229.698 149.488 229.957 149.69C230.216 149.893 230.523 150.025 230.849 150.076C231.175 150.126 231.509 150.093 231.82 149.979C232.13 149.864 232.407 149.673 232.624 149.423L240.473 140.263C240.684 140.02 240.824 139.724 240.877 139.406C240.93 139.089 240.894 138.763 240.774 138.465C240.653 138.166 240.452 137.907 240.193 137.716C239.934 137.525 239.627 137.41 239.306 137.382L236.282 137.123C235.965 137.094 235.941 136.998 236.21 136.835C239.532 134.857 243.022 133.292 246.68 132.14C247.045 132.025 247.151 132.145 246.997 132.5L246.032 134.704C245.941 134.908 245.904 135.133 245.925 135.356C245.947 135.579 246.025 135.793 246.154 135.978C246.282 136.163 246.456 136.312 246.66 136.412C246.863 136.511 247.088 136.558 247.314 136.547L253.781 136.216C254.006 136.204 254.229 136.264 254.416 136.386C254.603 136.508 254.744 136.685 254.818 136.893L256.488 141.444C256.661 141.914 256.507 142.212 256.027 142.337L250.223 143.863C249.897 143.948 249.602 144.123 249.372 144.369C249.142 144.615 248.987 144.922 248.925 145.253C248.863 145.584 248.897 145.925 249.022 146.238C249.147 146.551 249.359 146.821 249.633 147.017L256.099 151.727C256.512 152.025 256.584 152.389 256.315 152.822L254.99 154.967C254.941 155.05 254.92 155.146 254.931 155.24C254.941 155.333 254.982 155.42 255.048 155.486L255.35 155.788C255.533 155.98 255.686 155.961 255.811 155.731L257.424 152.764C257.741 152.188 257.64 151.693 257.122 151.28L253.003 148.04C252.484 147.637 252.547 147.368 253.19 147.233C255.206 146.84 256.359 145.625 256.647 143.59C256.662 143.473 256.716 143.365 256.799 143.282C256.883 143.199 256.991 143.145 257.108 143.131C257.225 143.116 257.343 143.14 257.445 143.2C257.546 143.259 257.625 143.351 257.669 143.46C259.974 148.943 262.201 152.581 264.352 154.377C271.078 159.994 278.106 164.761 274.995 173.748C269.061 190.886 251.015 189.965 236.556 187.92C236.455 187.906 236.352 187.916 236.255 187.947C236.159 187.979 236.07 188.032 235.997 188.103C235.923 188.173 235.867 188.26 235.832 188.355C235.796 188.451 235.783 188.553 235.792 188.654ZM234.856 154.535C238.63 154.987 242 154.07 244.966 151.785C245.162 151.635 245.324 151.446 245.443 151.23C245.562 151.015 245.635 150.777 245.658 150.532C245.773 149.111 245.264 147.968 244.131 147.104C243.776 146.825 243.421 146.821 243.065 147.089L234.554 153.398C234.452 153.473 234.375 153.578 234.333 153.697C234.292 153.817 234.287 153.946 234.319 154.069C234.352 154.192 234.42 154.301 234.516 154.385C234.612 154.468 234.73 154.52 234.856 154.535ZM258.908 162.572C255.61 165.769 251.116 165.798 248.769 161.592C248.723 161.513 248.658 161.445 248.58 161.396C248.503 161.346 248.415 161.316 248.323 161.307C248.231 161.299 248.139 161.312 248.054 161.347C247.968 161.382 247.892 161.436 247.833 161.506C247.458 161.938 247.458 162.447 247.833 163.033C250.675 167.392 254.328 168.016 258.793 164.905C259.599 164.338 259.95 163.671 259.844 162.903C259.829 162.802 259.787 162.707 259.722 162.628C259.657 162.549 259.572 162.49 259.476 162.455C259.379 162.421 259.276 162.414 259.176 162.435C259.075 162.455 258.983 162.503 258.908 162.572ZM214.491 173.258C211.222 168.174 204.842 165.913 199.081 167.613C198.966 167.641 198.894 167.709 198.865 167.814C198.807 167.977 198.755 168.131 198.707 168.275C198.563 168.707 198.711 168.87 199.153 168.765C205.125 167.324 209.878 169.058 213.411 173.964C213.456 174.025 213.513 174.077 213.578 174.117C213.644 174.156 213.717 174.181 213.793 174.192C213.87 174.203 213.948 174.198 214.023 174.179C214.099 174.16 214.17 174.126 214.232 174.079C214.587 173.81 214.674 173.537 214.491 173.258Z" fill="white"/>
<path d="M386.467 260.391C385.997 260.094 386.28 259.954 387.317 259.974L387.36 314.284C387.36 314.969 387.496 315.647 387.76 316.28C388.025 316.912 388.412 317.485 388.9 317.966C389.388 318.447 389.966 318.826 390.602 319.082C391.237 319.337 391.917 319.464 392.603 319.455L412.967 319.21L443.255 319.498C437.129 335.446 428.344 348.821 416.899 359.622C391.076 384.005 349.871 379.267 322.81 359.752C321.993 359.166 321.533 358.374 321.427 357.375C318.527 331.24 313.223 305.408 305.513 279.877C298.153 255.538 287.193 231.299 269.334 212.763C268.998 212.418 269.056 212.163 269.507 212C280.606 207.833 291.35 207.722 301.739 211.669C334.461 224.098 355.517 247.458 373.534 276.478C373.739 276.81 373.84 277.196 373.825 277.588C373.809 277.981 373.678 278.361 373.448 278.682C369.655 283.857 367.264 289.863 366.275 296.699C366.179 297.362 366.299 297.822 366.635 298.082C366.687 298.119 366.748 298.143 366.812 298.151C366.875 298.158 366.94 298.15 366.999 298.125C367.059 298.1 367.111 298.061 367.15 298.011C367.19 297.96 367.216 297.9 367.226 297.837C367.946 292.863 369.319 288.077 371.345 283.478C371.508 283.094 371.782 282.835 372.166 282.7C372.684 282.518 372.857 282.686 372.684 283.204C370.409 290.088 369.607 297.15 370.279 304.39C370.289 304.524 370.342 304.635 370.438 304.721L370.769 305.067C370.816 305.112 370.876 305.143 370.94 305.155C371.005 305.166 371.071 305.159 371.132 305.132C371.192 305.106 371.243 305.063 371.278 305.007C371.314 304.952 371.332 304.888 371.33 304.822C371.004 299.042 371.369 293.367 372.425 287.799C374.297 277.933 380.778 268.831 386.467 260.391Z" fill="white"/>
<path d="M410.778 317.984L443.27 318.056C443.452 318.921 443.447 319.401 443.255 319.497L412.967 319.209C413.448 318.652 412.718 318.244 410.778 317.984Z" fill="#BDE0FF"/>
<path d="M448.572 294.307C457.457 294.292 464.659 293.963 464.658 293.573C464.657 293.184 457.454 292.88 448.57 292.896C439.685 292.911 432.483 293.24 432.484 293.63C432.484 294.019 439.687 294.323 448.572 294.307Z" fill="#102348"/>
<path d="M427.875 292.732L418.716 292.716C418.366 292.715 418.082 292.999 418.081 293.349L418.081 293.521C418.08 293.871 418.363 294.156 418.713 294.156L427.873 294.172C428.223 294.173 428.507 293.89 428.508 293.54L428.508 293.367C428.509 293.017 428.225 292.733 427.875 292.732Z" fill="#BDE0FF"/>
<path d="M413.976 290.506C413.409 291.073 413.169 291.126 413.256 290.665C411.297 291.855 409.895 293.492 409.05 295.576C408.951 295.819 408.79 296.031 408.583 296.191C408.375 296.351 408.129 296.454 407.868 296.489C407.607 296.524 407.341 296.49 407.096 296.39C406.851 296.291 406.636 296.129 406.472 295.922L402.627 290.967C403.021 291.006 403.409 291.039 403.794 291.068L406.775 294.467C407.178 294.928 407.572 294.918 407.956 294.438L412.406 288.778C412.051 288.759 412.132 288.413 412.651 287.741C413.448 287.098 414.125 286.752 414.682 286.704C415.296 286.647 415.483 286.901 415.243 287.468L413.976 290.506Z" fill="#102348"/>
<path d="M412.65 287.74C412.132 288.412 412.05 288.758 412.406 288.777L403.289 289.18C402.818 289.209 402.559 289.454 402.511 289.915C402.434 290.731 402.862 291.115 403.793 291.067C403.409 291.038 403.02 291.005 402.626 290.966L402.655 298.225C402.665 298.667 402.891 298.888 403.332 298.888L412.146 298.758C412.36 298.754 412.565 298.669 412.718 298.519C412.871 298.368 412.96 298.165 412.967 297.951L413.255 290.664C413.169 291.125 413.409 291.072 413.975 290.505L414.22 299.075C414.239 299.641 413.966 299.924 413.399 299.924H401.777C401.268 299.924 401.013 299.67 401.013 299.161L400.999 288.475C400.999 287.966 401.253 287.711 401.762 287.711L412.65 287.74Z" fill="#BDE0FF"/>
<path d="M412.406 288.778L407.956 294.438C407.572 294.918 407.178 294.928 406.775 294.467L403.793 291.068C402.862 291.116 402.435 290.732 402.512 289.916C402.56 289.455 402.819 289.21 403.289 289.181L412.406 288.778Z" fill="white"/>
<path d="M413.256 290.665L412.968 297.953C412.96 298.167 412.871 298.37 412.718 298.52C412.566 298.67 412.361 298.755 412.147 298.759L403.333 298.889C402.891 298.889 402.665 298.668 402.656 298.226L402.627 290.967L406.472 295.922C406.636 296.129 406.851 296.291 407.096 296.39C407.341 296.49 407.607 296.524 407.868 296.489C408.129 296.454 408.375 296.351 408.583 296.191C408.79 296.031 408.951 295.819 409.05 295.576C409.895 293.493 411.297 291.856 413.256 290.665Z" fill="white"/>
<path d="M418.671 273.815C420.879 273.527 423.087 273.527 425.296 273.815C425.402 273.84 425.496 273.902 425.561 273.989C425.626 274.077 425.658 274.184 425.651 274.293C425.644 274.402 425.599 274.505 425.523 274.584C425.448 274.662 425.347 274.711 425.238 274.722H418.728C418.62 274.711 418.519 274.662 418.443 274.584C418.368 274.505 418.322 274.402 418.315 274.293C418.308 274.184 418.34 274.077 418.405 273.989C418.471 273.902 418.565 273.84 418.671 273.815Z" fill="#102348"/>
<path d="M478.37 273.553L430.353 273.469C430.146 273.469 429.978 273.636 429.978 273.843L429.978 274.016C429.977 274.223 430.145 274.391 430.351 274.391L478.368 274.475C478.575 274.475 478.743 274.308 478.743 274.101L478.744 273.928C478.744 273.722 478.577 273.554 478.37 273.553Z" fill="#102348"/>
<path d="M413.933 270.3C412.474 270.531 412.157 270.632 412.983 270.603C412.752 270.622 412.522 270.646 412.291 270.675L412.263 269.22C412.541 269.489 412.652 269.215 412.594 268.399C413.122 267.948 413.588 267.756 413.991 267.823C414.394 267.881 414.543 268.106 414.437 268.5L413.933 270.3Z" fill="#102348"/>
<path d="M412.594 268.4C412.651 269.216 412.541 269.49 412.262 269.221L402.886 269.206C402.786 269.206 402.687 269.227 402.595 269.266C402.503 269.306 402.42 269.364 402.351 269.437C402.282 269.509 402.229 269.596 402.195 269.69C402.161 269.784 402.146 269.884 402.152 269.984L402.627 277.934C402.666 278.481 402.958 278.76 403.506 278.769L411.787 278.827C412.392 278.837 412.704 278.539 412.723 277.934L412.982 270.603C412.157 270.632 412.474 270.531 413.933 270.301L414.019 279.418C414.019 279.869 413.794 280.094 413.342 280.094L401.849 280.181C401.752 280.183 401.655 280.165 401.564 280.128C401.473 280.091 401.391 280.036 401.321 279.967C401.251 279.897 401.196 279.814 401.158 279.722C401.12 279.63 401.101 279.532 401.101 279.432V268.933C401.101 268.443 401.345 268.198 401.835 268.198L412.594 268.4Z" fill="#BDE0FF"/>
<path d="M412.263 269.219L412.292 270.674C410.659 271.433 409.402 272.71 408.518 274.505C408.423 274.691 408.279 274.848 408.103 274.96C407.926 275.072 407.722 275.134 407.513 275.139C407.304 275.145 407.097 275.095 406.914 274.993C406.731 274.892 406.579 274.743 406.473 274.563C405.628 273.084 404.524 271.821 403.161 270.775C403.116 270.741 403.06 270.724 403.004 270.726C402.948 270.728 402.894 270.749 402.852 270.787C402.809 270.824 402.781 270.875 402.772 270.93C402.763 270.986 402.773 271.043 402.801 271.092C403.972 273.127 405.384 274.966 407.035 276.608C407.429 276.992 407.789 276.958 408.115 276.507L412.292 270.674C412.522 270.645 412.753 270.621 412.983 270.602L412.724 277.933C412.705 278.538 412.393 278.835 411.788 278.826L403.506 278.768C402.959 278.759 402.666 278.48 402.628 277.933L402.153 269.983C402.147 269.883 402.161 269.783 402.196 269.688C402.23 269.594 402.283 269.508 402.352 269.435C402.421 269.362 402.504 269.304 402.596 269.265C402.688 269.225 402.787 269.205 402.887 269.205L412.263 269.219Z" fill="white"/>
<path d="M412.291 270.674L408.114 276.507C407.788 276.958 407.428 276.992 407.034 276.608C405.383 274.966 403.971 273.127 402.8 271.091C402.772 271.043 402.762 270.985 402.771 270.93C402.78 270.874 402.808 270.824 402.851 270.786C402.893 270.749 402.947 270.728 403.003 270.725C403.059 270.723 403.115 270.741 403.16 270.775C404.523 271.821 405.627 273.084 406.472 274.562C406.578 274.743 406.73 274.892 406.913 274.993C407.096 275.095 407.303 275.145 407.512 275.139C407.721 275.133 407.925 275.071 408.102 274.96C408.278 274.848 408.422 274.691 408.517 274.505C409.401 272.709 410.659 271.432 412.291 270.674Z" fill="#102348"/>
<path d="M441.802 258.159H402.167C401.968 258.159 401.807 258.32 401.807 258.519C401.807 258.718 401.968 258.879 402.167 258.879H441.802C442 258.879 442.162 258.718 442.162 258.519C442.162 258.32 442 258.159 441.802 258.159Z" fill="#102348"/>
<path d="M386.425 258.158C386.761 257.831 387.059 258.436 387.318 259.972C386.281 259.953 385.998 260.092 386.468 260.39C385.911 260.313 385.503 260.145 385.244 259.886C385.35 259.367 385.743 258.791 386.425 258.158Z" fill="#BDE0FF"/>
<path d="M423.323 246.637H401.922C401.723 246.637 401.562 246.798 401.562 246.997C401.562 247.196 401.723 247.357 401.922 247.357H423.323C423.522 247.357 423.683 247.196 423.683 246.997C423.683 246.798 423.522 246.637 423.323 246.637Z" fill="#102348"/>
<path d="M454.762 246.614L428.608 246.66C428.409 246.66 428.248 246.821 428.249 247.02C428.249 247.219 428.411 247.38 428.609 247.38L454.764 247.334C454.963 247.334 455.123 247.172 455.123 246.973C455.123 246.774 454.961 246.614 454.762 246.614Z" fill="#102348"/>
<path d="M436.084 234.438H402.008C401.73 234.438 401.504 234.663 401.504 234.942V234.97C401.504 235.249 401.73 235.474 402.008 235.474H436.084C436.362 235.474 436.588 235.249 436.588 234.97V234.942C436.588 234.663 436.362 234.438 436.084 234.438Z" fill="#102348"/>
<path d="M483.396 234.447L441.658 234.374C441.404 234.373 441.197 234.579 441.196 234.834L441.196 235.036C441.196 235.29 441.402 235.497 441.656 235.497L483.394 235.57C483.648 235.571 483.855 235.365 483.855 235.11L483.856 234.908C483.856 234.654 483.65 234.447 483.396 234.447Z" fill="#102348"/>
<path d="M180.934 268.154L150.589 257.784C150.39 257.715 150.18 257.686 149.97 257.698C149.76 257.71 149.555 257.763 149.366 257.854C149.178 257.945 149.009 258.072 148.87 258.228C148.732 258.384 148.626 258.566 148.558 258.763L133.565 302.1C127.876 300.645 120.114 300.069 115.433 296.569C110.085 292.565 104.07 289.867 97.3871 288.475C97.1182 288.418 96.9742 288.528 96.955 288.806C96.9454 288.922 96.9454 289.066 96.955 289.238C96.955 289.315 96.9934 289.359 97.0702 289.368C103.532 290.885 109.442 293.578 114.799 297.448C114.892 297.515 114.961 297.611 114.993 297.72C115.026 297.83 115.021 297.948 114.98 298.055C114.939 298.162 114.864 298.252 114.766 298.312C114.668 298.371 114.553 298.396 114.439 298.384C104.636 297.366 94.8091 297.88 84.958 299.925C84.6316 300.002 84.5163 300.237 84.6124 300.631C84.7084 300.967 84.9244 301.101 85.2604 301.034C107.742 296.656 127.516 301.221 149.84 308.264C150.32 308.417 150.488 308.734 150.344 309.214C143.709 331.278 143.844 353.314 150.747 375.32C150.958 376.012 150.709 376.396 149.998 376.472C125.975 379.05 101.405 380.88 77.4545 376.761C54.3966 372.786 35.0689 357.058 30.3594 333.986C26.6148 315.566 33.5134 297.304 44.6031 282.268C66.6192 252.427 93.6713 229.378 125.759 213.123C139.888 205.965 152.533 202.552 167.41 204.856C193.435 208.889 196.834 237.333 190.137 257.626C189.955 258.183 189.59 258.351 189.042 258.13L186.695 257.15C186.469 257.057 186.226 257.01 185.981 257.015C185.736 257.019 185.495 257.073 185.272 257.174C185.049 257.276 184.85 257.422 184.686 257.603C184.522 257.785 184.397 257.999 184.319 258.231L180.934 268.154Z" fill="white"/>
<path d="M242.692 246.91L247.257 256.358C247.357 256.567 247.512 256.746 247.704 256.875C247.897 257.004 248.12 257.079 248.352 257.093C252.154 257.246 255.783 256.531 259.24 254.947C259.701 254.736 259.946 254.38 259.974 253.881L260.781 243.036C268.011 242.777 259.931 218.336 258.52 214.261C258.452 214.063 258.433 213.852 258.465 213.645C258.497 213.439 258.579 213.243 258.704 213.075C258.829 212.908 258.993 212.773 259.182 212.684C259.37 212.594 259.578 212.552 259.787 212.561L267.19 212.835C267.632 212.854 268.006 213.022 268.313 213.339C278.232 223.622 286.23 235.451 292.307 248.826C310.123 288.029 318.721 331.97 321.587 374.701C322.509 388.335 323.286 401.935 323.92 415.502C323.968 416.414 323.55 416.966 322.667 417.158C261.035 430.965 199.394 431.095 137.743 417.547C137.361 417.46 137.019 417.246 136.773 416.94C136.528 416.634 136.392 416.255 136.389 415.862L136.317 396.823C136.519 396.275 137.047 396.146 137.902 396.434C159.073 403.673 180.119 410.956 201.041 418.282C201.293 418.369 201.569 418.353 201.81 418.237C202.05 418.121 202.234 417.914 202.323 417.663L221.161 363.093C224.579 360.76 226.917 357.735 228.174 354.019C228.299 353.635 228.165 353.39 227.771 353.285C227.368 353.179 227.137 353.242 227.08 353.472C223.623 367.01 192.471 370.135 181.252 371.835C180.762 371.912 180.426 371.72 180.244 371.259C173.043 353.419 171.699 335.109 176.211 316.329C176.346 315.791 176.687 315.508 177.234 315.479C188.036 314.893 198.069 311.965 207.335 306.694C211.554 304.289 216.264 299.954 221.175 297.188C221.516 296.996 221.906 296.91 222.297 296.941C222.687 296.973 223.058 297.121 223.364 297.366C223.669 297.611 223.894 297.941 224.01 298.315C224.125 298.689 224.126 299.089 224.012 299.464L218.943 316.386C218.829 316.76 218.798 317.154 218.853 317.541C218.909 317.928 219.048 318.298 219.262 318.626C219.476 318.954 219.76 319.232 220.092 319.439C220.425 319.647 220.8 319.78 221.189 319.829C226.998 320.568 232.466 319.589 237.593 316.891C237.726 316.821 237.873 316.782 238.023 316.777C238.174 316.772 238.323 316.801 238.46 316.862C238.597 316.923 238.719 317.014 238.816 317.129C238.913 317.244 238.982 317.379 239.019 317.524C241.324 326.41 234.065 332.474 225.164 331.451C224.598 331.384 224.42 331.614 224.632 332.142C224.766 332.488 225.04 332.671 225.452 332.69C229.005 332.843 232.375 332.09 235.563 330.429C236.187 330.102 236.465 330.289 236.398 330.99C235.611 339.785 230.757 343.602 221.837 342.44C221.492 342.392 221.362 342.536 221.449 342.872C221.573 343.362 221.818 343.626 222.183 343.664C225.524 344.058 228.88 343.448 232.25 341.835C232.913 341.518 233.162 341.715 232.999 342.426C231.242 350.04 226.302 353.506 218.179 352.824C217.93 352.805 217.81 352.915 217.819 353.155C217.829 353.299 217.834 353.443 217.834 353.587C217.834 353.75 217.915 353.837 218.079 353.847C227.747 354.816 233.066 350.539 234.036 341.014C234.094 340.448 234.295 339.944 234.641 339.502C236.869 336.67 237.723 333.443 237.205 329.824C237.141 329.362 237.26 328.896 237.536 328.527C241.28 323.727 241.516 319.022 238.242 314.413L245.947 292.076C246.043 291.795 246.025 291.487 245.895 291.22C245.766 290.953 245.536 290.748 245.255 290.65L214.392 279.877L217.733 269.882C218.107 268.758 217.733 268 216.609 267.606L191.809 258.965C191.637 258.903 191.495 258.777 191.412 258.614C191.329 258.451 191.311 258.262 191.362 258.086C196.403 241.092 195.496 223.564 183.441 210.386C183.396 210.339 183.365 210.28 183.353 210.215C183.342 210.15 183.349 210.084 183.376 210.024C183.402 209.963 183.445 209.912 183.501 209.877C183.556 209.842 183.62 209.823 183.686 209.825L210.719 210.415C211.113 210.425 211.396 210.607 211.569 210.963C213.686 215.456 233.95 262.695 242.692 246.91ZM248.136 360.27L271.093 378.071C271.477 378.359 271.808 378.316 272.087 377.941L288.592 355.935C288.88 355.551 289 355.124 288.952 354.653C285.409 319.497 276.782 288.792 260.565 257.41C260.344 256.977 259.994 256.814 259.514 256.92L248.77 259.195C248.579 259.237 248.41 259.349 248.298 259.509C248.186 259.669 248.138 259.866 248.165 260.06C253.061 292.22 250.743 325.82 247.056 357.706C246.931 358.762 247.291 359.617 248.136 360.27Z" fill="white"/>
<path d="M180.935 268.153L176.456 281C176.264 281.566 176.446 281.946 177.003 282.138L207.838 292.867C208.077 292.951 208.329 292.987 208.581 292.974C208.834 292.96 209.081 292.896 209.308 292.786C209.536 292.677 209.74 292.523 209.908 292.334C210.075 292.145 210.204 291.925 210.287 291.686L214.391 279.876L245.255 290.649C245.536 290.747 245.766 290.952 245.895 291.22C246.025 291.487 246.043 291.794 245.947 292.075L238.241 314.413C235.303 318.359 227.785 319.18 223.09 319.324C220.431 319.41 219.495 318.181 220.282 315.637C221.737 310.884 225.712 302.128 224.473 297.245C224.348 296.785 224.05 296.516 223.58 296.439C221.266 296.064 219.475 296.377 218.208 297.375C205.174 307.629 195.712 312.785 180.33 313.866C177.325 314.077 174.022 313.65 170.422 312.584C158.141 308.935 145.856 305.44 133.566 302.099L148.559 258.763C148.627 258.566 148.733 258.384 148.871 258.228C149.01 258.072 149.179 257.944 149.367 257.853C149.556 257.762 149.761 257.709 149.971 257.697C150.181 257.685 150.391 257.715 150.59 257.784L180.935 268.153Z" fill="#BDE0FF"/>
<path d="M174.568 315.019C174.755 315.073 174.913 315.197 175.01 315.364C175.107 315.53 175.134 315.727 175.086 315.912C170.458 334.817 171.755 353.276 178.975 371.288C179.031 371.425 179.055 371.574 179.046 371.722C179.036 371.87 178.993 372.014 178.919 372.143C178.846 372.272 178.744 372.383 178.621 372.467C178.499 372.551 178.359 372.606 178.212 372.627L152.691 376.285C152.547 376.306 152.4 376.276 152.277 376.2C152.153 376.123 152.06 376.006 152.014 375.868C145.13 353.756 144.962 331.624 151.51 309.474C151.581 309.239 151.74 309.041 151.953 308.922C152.166 308.804 152.415 308.774 152.648 308.84L174.568 315.019ZM165.163 364.101C165.163 363.257 164.828 362.448 164.231 361.851C163.634 361.254 162.824 360.918 161.98 360.918C161.136 360.918 160.327 361.254 159.73 361.851C159.133 362.448 158.797 363.257 158.797 364.101C158.797 364.519 158.88 364.933 159.04 365.319C159.2 365.705 159.434 366.056 159.73 366.352C160.025 366.647 160.376 366.882 160.762 367.042C161.148 367.202 161.562 367.284 161.98 367.284C162.398 367.284 162.812 367.202 163.198 367.042C163.585 366.882 163.935 366.647 164.231 366.352C164.527 366.056 164.761 365.705 164.921 365.319C165.081 364.933 165.163 364.519 165.163 364.101Z" fill="white"/>
<path d="M161.981 367.284C163.739 367.284 165.164 365.859 165.164 364.101C165.164 362.343 163.739 360.918 161.981 360.918C160.223 360.918 158.798 362.343 158.798 364.101C158.798 365.859 160.223 367.284 161.981 367.284Z" fill="#102348"/>
<path d="M221.16 363.092L202.322 417.662C202.234 417.914 202.049 418.121 201.809 418.237C201.569 418.353 201.292 418.369 201.04 418.281C180.119 410.955 159.072 403.673 137.901 396.433C137.047 396.145 136.519 396.275 136.317 396.822C135.875 396.841 135.429 396.697 134.978 396.39C135.074 396.131 134.982 395.838 134.704 395.512C134.541 395.32 134.301 395.166 133.984 395.051C124.661 391.757 115.295 388.507 105.885 385.3C105.338 385.118 105.141 384.748 105.295 384.191L106.317 380.476C114.142 380.072 122.02 379.612 129.951 379.093C155.875 377.403 181.501 373.697 206.83 367.975C211.77 366.866 216.379 364.936 221.16 363.092Z" fill="#BDE0FF"/>
<path d="M217.026 218.15C226.128 224.055 234.856 225.668 245.615 225.768C246.114 225.778 246.344 226.032 246.306 226.532C245.787 233.896 243.978 240.9 240.876 247.544C240.679 247.969 240.389 248.344 240.028 248.642C239.667 248.94 239.243 249.153 238.789 249.266C238.335 249.379 237.861 249.39 237.402 249.296C236.944 249.202 236.512 249.008 236.138 248.725C227.842 242.504 220.929 227.842 216.681 218.466C216.45 217.958 216.565 217.852 217.026 218.15Z" fill="white"/>
<path d="M260.492 241.554C255.806 236.945 251.846 231.77 248.61 226.028C248.322 225.51 248.457 225.15 249.013 224.948C252.921 223.566 255.619 220.944 257.107 217.085C257.158 216.964 257.244 216.861 257.354 216.79C257.464 216.719 257.593 216.684 257.723 216.688C257.852 216.693 257.976 216.738 258.078 216.817C258.179 216.895 258.253 217.004 258.288 217.128C260.382 224.079 261.822 231.28 262.609 238.731C262.734 239.893 262.499 240.815 261.903 241.496C261.817 241.597 261.711 241.679 261.592 241.737C261.473 241.794 261.343 241.827 261.21 241.832C261.078 241.838 260.946 241.816 260.822 241.768C260.699 241.72 260.586 241.647 260.492 241.554Z" fill="white"/>
<path d="M260.78 243.036L259.973 253.88C259.944 254.38 259.699 254.735 259.239 254.946C255.782 256.53 252.153 257.246 248.35 257.092C248.119 257.079 247.895 257.003 247.703 256.874C247.51 256.745 247.356 256.567 247.256 256.358L242.69 246.91C245.024 241.389 246.56 235.388 247.299 228.907C247.32 228.73 247.397 228.564 247.52 228.434C247.642 228.304 247.802 228.216 247.978 228.184C248.153 228.152 248.335 228.177 248.495 228.255C248.655 228.333 248.786 228.461 248.869 228.619C251.932 234.447 255.902 239.253 260.78 243.036Z" fill="#D9C6F4"/>
<path d="M248.136 360.271C247.291 359.618 246.931 358.764 247.055 357.708C250.742 325.821 253.061 292.221 248.164 260.061C248.138 259.867 248.186 259.671 248.298 259.511C248.41 259.351 248.578 259.238 248.769 259.197L259.513 256.921C259.993 256.816 260.344 256.979 260.565 257.411C276.781 288.793 285.408 319.499 288.951 354.654C288.999 355.125 288.879 355.552 288.591 355.936L272.086 377.943C271.808 378.317 271.477 378.36 271.093 378.072L248.136 360.271Z" fill="#D9C6F4"/>
<path d="M199.082 167.613C204.843 165.913 211.223 168.175 214.492 173.259C214.675 173.537 214.588 173.811 214.233 174.079C214.17 174.126 214.099 174.16 214.024 174.179C213.949 174.199 213.871 174.203 213.794 174.193C213.718 174.182 213.645 174.156 213.579 174.117C213.514 174.078 213.457 174.026 213.412 173.964C209.879 169.058 205.126 167.325 199.154 168.765C198.712 168.871 198.563 168.707 198.707 168.275C198.755 168.131 198.808 167.978 198.866 167.815C198.895 167.709 198.967 167.642 199.082 167.613Z" fill="#102348"/>
<path d="M248.769 161.592C251.116 165.797 255.61 165.768 258.908 162.571C258.983 162.502 259.076 162.455 259.176 162.434C259.276 162.414 259.379 162.421 259.476 162.455C259.572 162.489 259.657 162.549 259.722 162.627C259.787 162.706 259.829 162.801 259.844 162.902C259.95 163.671 259.599 164.338 258.793 164.904C254.328 168.015 250.675 167.391 247.833 163.032C247.458 162.446 247.458 161.938 247.833 161.505C247.893 161.436 247.968 161.381 248.054 161.346C248.139 161.312 248.231 161.298 248.323 161.307C248.415 161.315 248.503 161.345 248.581 161.395C248.658 161.445 248.723 161.512 248.769 161.592Z" fill="#102348"/>
<path d="M234.857 154.535C234.731 154.52 234.613 154.467 234.517 154.384C234.421 154.301 234.353 154.191 234.32 154.069C234.288 153.946 234.292 153.817 234.334 153.697C234.376 153.577 234.453 153.473 234.555 153.397L243.066 147.089C243.421 146.82 243.777 146.825 244.132 147.104C245.265 147.968 245.774 149.11 245.659 150.531C245.636 150.777 245.563 151.014 245.444 151.23C245.325 151.446 245.163 151.634 244.967 151.784C242 154.069 238.63 154.986 234.857 154.535Z" fill="#102348"/>
<path d="M231.53 108.29C231.722 107.829 232.072 107.613 232.581 107.642C233.09 107.68 233.22 107.92 232.97 108.362C231.376 111.117 230.541 114.089 230.464 117.277C230.472 117.41 230.426 117.542 230.337 117.642C230.248 117.742 230.123 117.802 229.989 117.81C229.855 117.817 229.724 117.772 229.624 117.682C229.524 117.593 229.464 117.468 229.456 117.334C228.88 113.489 230.133 111.646 231.53 108.29Z" fill="white"/>
</svg>
