<svg width="231" height="72" viewBox="0 0 231 72" fill="none" xmlns="http://www.w3.org/2000/svg">
<g clip-path="url(#clip0_3837_7079)">
<mask id="mask0_3837_7079" style="mask-type:alpha" maskUnits="userSpaceOnUse" x="26" y="10" width="51" height="51">
<path fill-rule="evenodd" clip-rule="evenodd" d="M38.7003 10.1481L40.8759 10.125L63.5058 10.1342C63.8494 10.1373 64.0636 10.1419 64.2762 10.1481C65.398 10.1774 66.5305 10.2421 67.6398 10.4409C68.7511 10.6284 69.8286 10.9794 70.837 11.4825C71.8416 11.9878 72.7631 12.6473 73.5597 13.4378C74.3566 14.2244 75.0238 15.1325 75.5365 16.128C76.0604 17.1403 76.3886 18.1773 76.5904 19.2898C76.7907 20.3868 76.857 21.5055 76.8863 22.6149C76.9017 23.1233 76.9078 23.6318 76.9094 24.1418L76.9125 25.0493V45.137C76.9125 45.741 76.9125 46.3465 76.9094 46.952C76.9063 47.4605 76.9017 47.969 76.8863 48.4774C76.8555 49.5868 76.7907 50.707 76.5904 51.8025C76.4003 52.9035 76.045 53.9694 75.5365 54.9643C75.0236 55.9601 74.3564 56.8686 73.5597 57.6561C72.76 58.4462 71.8413 59.106 70.837 59.6114C69.8286 60.1146 68.7512 60.4656 67.6398 60.653C66.5305 60.8502 65.398 60.9149 64.2762 60.9457L60.8957 60.9719L39.4691 60.9596C39.2128 60.9568 38.9565 60.9517 38.7003 60.9442C37.5785 60.9164 36.446 60.8502 35.3367 60.653C34.2259 60.4654 33.149 60.1144 32.141 59.6114C30.1234 58.596 28.4777 56.9697 27.4384 54.9643C26.9307 53.9691 26.5754 52.9033 26.3845 51.8025C26.1842 50.707 26.1195 49.5868 26.0902 48.479C26.0748 47.9705 26.0702 47.4605 26.0671 46.952L26.0625 46.0414V25.9569C26.0625 25.3529 26.0625 24.7473 26.0671 24.1433C26.0702 23.6349 26.0764 23.1264 26.0902 22.6164C26.1211 21.507 26.1858 20.3884 26.3845 19.2913C26.5753 18.1905 26.9306 17.1247 27.4384 16.1296C28.4762 14.1235 30.1216 12.497 32.1395 11.4825C33.1479 10.9793 34.2254 10.6283 35.3367 10.4409C36.446 10.2436 37.5785 10.1789 38.7003 10.1481Z" fill="white"/>
</mask>
<g mask="url(#mask0_3837_7079)">
<path d="M26.0625 10.1187H76.8364V60.8925H26.0625V10.1187Z" fill="#19AA1E"/>
<path fill-rule="evenodd" clip-rule="evenodd" d="M26.0625 10.1187H76.8364V26.7771L26.0625 18.8448V10.1187Z" fill="#FFB919"/>
<path fill-rule="evenodd" clip-rule="evenodd" d="M26.0625 55.34L76.8364 47.4077V60.8939H26.0625V55.34Z" fill="#82D714"/>
<path fill-rule="evenodd" clip-rule="evenodd" d="M26.0625 17.8447L43.7856 20.614C45.9917 19.217 48.6164 18.4509 51.4487 18.4509C55.3717 18.4509 58.8979 19.9201 61.4641 22.4986C61.7871 22.8247 62.0917 23.1647 62.3794 23.5186L76.8364 25.777V27.7847L63.8471 25.754C64.8193 27.6125 65.3286 29.6781 65.3317 31.7755C65.3317 34.4955 64.7241 37.2078 63.4656 39.9309L63.4287 40.014L62.8933 41.1586H61.6317C59.0225 41.1586 57.2933 41.9386 56.161 43.3216C55.2733 44.4063 54.7594 45.8709 54.5871 47.4678L54.581 47.517L54.5564 47.7724L54.5456 47.8832L54.524 48.1001C54.4579 48.814 54.4148 49.4186 54.3917 49.9109L76.8364 46.4032V48.4109L26.0625 56.3447V54.337L48.5317 50.8263L48.5225 50.3755L48.5194 50.2493L48.5164 50.1832L48.5133 50.0832C48.4933 49.537 48.4425 48.837 48.3625 47.9878L48.3471 47.8263L48.3194 47.5478C48.1594 45.9417 47.6533 44.4601 46.7656 43.3586C45.6471 41.9663 43.9348 41.174 41.3456 41.1586H40.004L39.4702 40.014C38.1871 37.2632 37.5656 34.5232 37.5656 31.7755C37.5656 28.3201 38.9671 24.9786 41.4348 22.4986L41.6502 22.2878L26.0625 19.8509V17.8447Z" fill="white"/>
<path fill-rule="evenodd" clip-rule="evenodd" d="M51.4479 20.4338C58.5371 20.4338 63.3479 25.8892 63.3479 31.7754C63.3479 34.1385 62.8325 36.5969 61.6294 39.1754C54.6556 39.1754 52.934 44.1692 52.6079 47.3138L52.5863 47.5215C52.4771 48.6446 52.4125 49.5446 52.3956 50.2215L50.5063 50.5169V50.4554C50.48 49.4556 50.4123 48.4573 50.3032 47.4631L50.2986 47.4077C49.9971 44.2708 48.3125 39.1754 41.2679 39.1754C40.0632 36.5969 39.5479 34.1385 39.5479 31.7754C39.5479 25.8892 44.3602 20.4338 51.4479 20.4338Z" fill="#0073FA"/>
</g>
<path fill-rule="evenodd" clip-rule="evenodd" d="M101.238 19.3555C93.4163 19.3555 87.5517 24.0062 87.6009 32.0832H94.8701C94.7701 28.8524 96.8747 25.7185 101.238 25.7185C104.546 25.7185 106.652 27.8724 106.652 30.6139C106.652 33.4539 104.344 35.0201 100.636 36.7832C95.7732 39.0832 92.8655 40.1601 87.6009 41.8724V51.1739H114.672V44.8093H97.4271C99.9394 43.7862 102.386 42.6632 104.596 41.6278C110.461 38.8878 113.919 35.8032 113.919 30.2724C113.919 23.6139 108.807 19.3555 101.238 19.3555ZM125.701 26.2078H139.738V19.8447H118.682V51.1739H125.701V26.2078ZM150.767 19.8447H143.749V51.1739H150.716L163.801 31.1524V51.1739H170.819V19.8447H163.801L150.767 39.8662V19.8447ZM206.062 39.4247H198.793C197.69 42.9016 194.332 45.3001 190.372 45.3001C184.606 45.3001 180.846 40.4539 180.846 35.5093C180.846 30.5647 184.506 25.7185 190.572 25.7185C194.582 25.7185 197.69 28.1185 198.793 31.5939H206.062C205.01 24.5939 199.346 19.3555 190.372 19.3555C180.446 19.3555 173.827 26.1601 173.827 35.5093C173.827 44.8585 180.446 51.6632 190.372 51.6632C199.346 51.6632 205.01 46.5247 206.062 39.4247Z" fill="#262626"/>
</g>
<defs>
<clipPath id="clip0_3837_7079">
<rect width="180" height="50.7692" fill="white" transform="translate(26.0625 10.125)"/>
</clipPath>
</defs>
</svg>
