<svg width="314" height="155" viewBox="0 0 314 155" fill="none" xmlns="http://www.w3.org/2000/svg">
<path d="M37.6458 150.494C36.3764 148.862 35.7418 146.958 35.7418 144.782C35.7418 142.606 36.5578 138.163 38.1898 131.454C39.0964 126.739 40.1844 121.662 41.4538 116.222C42.7231 110.6 43.7205 106.158 44.4458 102.894C45.8965 99.4484 46.9844 96.2751 47.7098 93.3737C48.6164 90.4724 49.0698 89.0217 49.0698 89.0217C49.0698 89.0217 47.8911 89.1124 45.5338 89.2937C43.1764 89.4751 40.3658 90.2911 37.1018 91.7417C28.0351 93.9177 20.9631 94.5524 15.8858 93.6457C10.9898 92.7391 7.09111 89.8377 4.18978 84.9417C3.28311 84.035 2.46711 82.4937 1.74178 80.3177C1.19778 77.9604 0.925781 75.6937 0.925781 73.5177C0.925781 71.3417 1.37911 69.8004 2.28578 68.8937C3.37378 66.5364 4.46178 64.179 5.54978 61.8217C6.81912 59.4644 7.81645 57.3791 8.54178 55.5657C9.44845 53.7524 9.90178 52.6644 9.90178 52.3017C9.90178 51.7577 10.0831 51.2137 10.4458 50.6697C10.9898 49.9444 11.2618 49.219 11.2618 48.4937C11.9871 46.8617 13.7098 43.8697 16.4298 39.5177C19.3311 34.9844 22.5045 30.0884 25.9498 24.8297C29.5764 19.5711 32.9311 14.7657 36.0138 10.4137C39.2778 6.06172 41.6351 3.25105 43.0858 1.98171C44.5364 1.25638 46.0778 0.71238 47.7098 0.349718C49.3418 -0.194286 50.4298 -0.103621 50.9738 0.621714C51.5178 1.52838 52.0618 2.88838 52.6058 4.70171C53.1498 6.51504 53.5125 8.14704 53.6938 9.59771C54.0564 11.0484 53.9658 11.7737 53.4218 11.7737C53.4218 11.7737 53.1498 11.8644 52.6058 12.0457C52.2431 12.0457 52.0618 12.4084 52.0618 13.1337C52.0618 13.8591 51.1551 15.4004 49.3418 17.7577C47.5285 20.115 45.5338 22.563 43.3578 25.1017C40.8191 28.547 38.4618 31.9017 36.2858 35.1657C34.1098 38.2484 32.0244 41.331 30.0298 44.4137C28.0351 47.4964 26.0405 50.579 24.0458 53.6617C22.2324 56.7444 20.4191 59.9177 18.6058 63.1817C16.6111 69.3471 15.4324 73.2457 15.0698 74.8777C14.8884 76.5097 15.1604 77.6884 15.8858 78.4137C16.9738 78.9577 19.2404 79.139 22.6858 78.9577C26.3124 78.595 31.2991 77.507 37.6458 75.6937C41.0911 74.9684 44.2645 74.3337 47.1658 73.7897C50.2485 73.0644 52.4244 72.3391 53.6938 71.6137C55.1444 71.6137 56.4138 71.3417 57.5018 70.7977C58.7711 70.2537 59.4058 69.6191 59.4058 68.8937C59.4058 68.1684 59.9498 66.6271 61.0378 64.2697C62.3071 61.9124 63.3045 59.7364 64.0298 57.7417C65.4805 55.0217 67.2031 51.3951 69.1978 46.8617C71.3738 42.147 73.5498 38.067 75.7258 34.6217C80.2591 24.467 83.0698 17.9391 84.1578 15.0377C85.4271 11.9551 86.4245 10.4137 87.1498 10.4137C87.8751 10.4137 88.8725 10.7764 90.1418 11.5017C91.4111 12.0457 92.4085 13.043 93.1338 14.4937C94.4031 15.7631 95.2191 17.0324 95.5818 18.3017C95.9445 19.3897 95.4005 21.2031 93.9498 23.7417C93.5871 25.9177 93.0431 27.8217 92.3178 29.4537C91.7738 30.9044 90.8671 32.7177 89.5978 34.8937C88.5098 37.0697 86.8778 40.2431 84.7018 44.4137C82.5258 48.7657 79.9871 53.9337 77.0858 59.9177C74.3658 65.9017 71.6458 72.0671 68.9258 78.4137C66.2058 84.7604 63.6671 90.7444 61.3098 96.3657C59.1338 101.806 57.5018 106.158 56.4138 109.422C53.8751 116.675 51.9711 122.387 50.7018 126.558C49.4324 130.547 48.7071 133.72 48.5258 136.078C48.5258 138.254 48.9791 140.248 49.8858 142.062C50.2485 145.326 49.5231 148.136 47.7098 150.494C45.8964 152.67 43.9018 153.848 41.7258 154.03C39.7311 154.392 38.3711 153.214 37.6458 150.494Z" fill="#102348"/>
<path d="M136.435 146.686C135.166 146.686 133.171 146.142 130.451 145.054C127.912 143.784 125.192 142.334 122.291 140.702C119.39 138.888 117.032 137.166 115.219 135.534C111.23 131.726 107.875 127.102 105.155 121.662C102.435 116.222 100.531 110.419 99.4429 104.254C98.3549 97.9071 98.2642 91.8324 99.1709 86.0297C101.166 74.4244 105.518 63.0004 112.227 51.7577C118.936 40.3337 126.643 30.9044 135.347 23.4697C140.062 19.299 144.323 16.1257 148.131 13.9497C151.939 11.5924 156.563 9.77905 162.003 8.50971C163.998 7.96572 166.174 7.69372 168.531 7.69372C170.888 7.51238 172.702 7.42171 173.971 7.42171C177.598 7.42171 181.224 8.14704 184.851 9.59771C188.478 11.0484 191.56 12.8617 194.099 15.0377C196.638 17.0324 197.907 18.9364 197.907 20.7497C197.907 22.019 197.816 23.0164 197.635 23.7417C197.454 24.2857 196.638 24.195 195.187 23.4697H192.467L195.187 31.3577C195.912 32.8084 196.547 34.8031 197.091 37.3417C197.635 39.6991 197.907 41.875 197.907 43.8697C197.907 45.5017 197.635 48.1311 197.091 51.7577C196.547 55.2031 195.822 58.9204 194.915 62.9097C194.008 66.899 193.102 70.6164 192.195 74.0617C191.288 77.507 190.472 80.0457 189.747 81.6777C189.203 82.7657 188.84 83.8537 188.659 84.9417C188.659 85.8484 188.659 86.6644 188.659 87.3897C187.934 88.659 186.755 91.1071 185.123 94.7337C183.672 98.3604 182.584 100.899 181.859 102.35C181.134 103.075 180.499 103.71 179.955 104.254C179.592 104.798 179.774 105.432 180.499 106.158C180.499 106.52 180.046 107.699 179.139 109.694C178.232 111.507 177.235 113.23 176.147 114.862C175.24 116.494 174.515 117.31 173.971 117.31C173.971 117.31 173.699 117.4 173.155 117.582C172.792 117.582 172.611 117.854 172.611 118.398C172.611 119.123 171.432 121.027 169.075 124.11C166.718 127.011 163.907 130.094 160.643 133.358C158.83 135.171 156.291 137.166 153.027 139.342C149.944 141.336 146.862 143.059 143.779 144.51C140.696 145.96 138.248 146.686 136.435 146.686ZM135.619 129.55C137.614 129.55 139.518 129.278 141.331 128.734C143.144 128.008 144.686 127.011 145.955 125.742C149.219 123.566 153.027 120.03 157.379 115.134C161.731 110.056 164.904 105.16 166.899 100.446C168.894 97.7257 170.435 94.9151 171.523 92.0137C172.792 88.9311 174.696 83.7631 177.235 76.5097C178.686 74.5151 179.683 72.0671 180.227 69.1657C180.771 66.2644 181.043 63.8164 181.043 61.8217C181.043 59.8271 181.043 57.1071 181.043 53.6617C181.224 50.2164 181.678 47.315 182.403 44.9577C182.403 40.243 182.312 37.1604 182.131 35.7097C181.95 34.0777 181.224 32.5364 179.955 31.0857C179.23 30.5417 178.232 29.9977 176.963 29.4537C175.875 28.9097 174.696 28.6377 173.427 28.6377C172.158 28.6377 169.8 29.3631 166.355 30.8137C162.91 32.083 160.462 33.171 159.011 34.0777C157.742 34.803 156.291 34.8937 154.659 34.3497C153.208 33.8057 152.483 33.0804 152.483 32.1737C152.483 29.635 150.851 29.4537 147.587 31.6297C144.323 33.6244 140.696 37.0697 136.707 41.9657C133.443 45.2297 130.632 48.5844 128.275 52.0297C126.099 55.2937 125.011 57.2884 125.011 58.0137C125.011 58.7391 124.739 59.6457 124.195 60.7337C123.651 61.8217 123.107 63.091 122.563 64.5417C121.656 65.8111 120.568 67.8964 119.299 70.7977C118.03 73.6991 116.76 76.6004 115.491 79.5017C114.403 82.2217 113.678 84.3071 113.315 85.7577C113.315 86.4831 113.315 88.4777 113.315 91.7417C113.315 94.8244 113.315 97.7257 113.315 100.446C113.315 103.528 113.406 106.158 113.587 108.334C113.95 110.51 114.403 112.414 114.947 114.046C115.491 115.496 116.216 117.128 117.123 118.942C117.848 120.211 118.936 121.752 120.387 123.566C122.019 125.198 123.107 126.376 123.651 127.102C125.646 128.915 127.278 130.003 128.547 130.366C129.816 130.547 132.174 130.275 135.619 129.55Z" fill="#102348"/>
<path d="M255.352 150.494C254.083 148.862 253.448 146.958 253.448 144.782C253.448 142.606 254.264 138.163 255.896 131.454C256.803 126.739 257.891 121.662 259.16 116.222C260.429 110.6 261.427 106.158 262.152 102.894C263.603 99.4484 264.691 96.2751 265.416 93.3737C266.323 90.4724 266.776 89.0217 266.776 89.0217C266.776 89.0217 265.597 89.1124 263.24 89.2937C260.883 89.4751 258.072 90.2911 254.808 91.7417C245.741 93.9177 238.669 94.5524 233.592 93.6457C228.696 92.7391 224.797 89.8377 221.896 84.9417C220.989 84.035 220.173 82.4937 219.448 80.3177C218.904 77.9604 218.632 75.6937 218.632 73.5177C218.632 71.3417 219.085 69.8004 219.992 68.8937C221.08 66.5364 222.168 64.179 223.256 61.8217C224.525 59.4644 225.523 57.3791 226.248 55.5657C227.155 53.7524 227.608 52.6644 227.608 52.3017C227.608 51.7577 227.789 51.2137 228.152 50.6697C228.696 49.9444 228.968 49.219 228.968 48.4937C229.693 46.8617 231.416 43.8697 234.136 39.5177C237.037 34.9844 240.211 30.0884 243.656 24.8297C247.283 19.5711 250.637 14.7657 253.72 10.4137C256.984 6.06172 259.341 3.25105 260.792 1.98171C262.243 1.25638 263.784 0.71238 265.416 0.349718C267.048 -0.194286 268.136 -0.103621 268.68 0.621714C269.224 1.52838 269.768 2.88838 270.312 4.70171C270.856 6.51504 271.219 8.14704 271.4 9.59771C271.763 11.0484 271.672 11.7737 271.128 11.7737C271.128 11.7737 270.856 11.8644 270.312 12.0457C269.949 12.0457 269.768 12.4084 269.768 13.1337C269.768 13.8591 268.861 15.4004 267.048 17.7577C265.235 20.115 263.24 22.563 261.064 25.1017C258.525 28.547 256.168 31.9017 253.992 35.1657C251.816 38.2484 249.731 41.331 247.736 44.4137C245.741 47.4964 243.747 50.579 241.752 53.6617C239.939 56.7444 238.125 59.9177 236.312 63.1817C234.317 69.3471 233.139 73.2457 232.776 74.8777C232.595 76.5097 232.867 77.6884 233.592 78.4137C234.68 78.9577 236.947 79.139 240.392 78.9577C244.019 78.595 249.005 77.507 255.352 75.6937C258.797 74.9684 261.971 74.3337 264.872 73.7897C267.955 73.0644 270.131 72.3391 271.4 71.6137C272.851 71.6137 274.12 71.3417 275.208 70.7977C276.477 70.2537 277.112 69.6191 277.112 68.8937C277.112 68.1684 277.656 66.6271 278.744 64.2697C280.013 61.9124 281.011 59.7364 281.736 57.7417C283.187 55.0217 284.909 51.3951 286.904 46.8617C289.08 42.147 291.256 38.067 293.432 34.6217C297.965 24.467 300.776 17.9391 301.864 15.0377C303.133 11.9551 304.131 10.4137 304.856 10.4137C305.581 10.4137 306.579 10.7764 307.848 11.5017C309.117 12.0457 310.115 13.043 310.84 14.4937C312.109 15.7631 312.925 17.0324 313.288 18.3017C313.651 19.3897 313.107 21.2031 311.656 23.7417C311.293 25.9177 310.749 27.8217 310.024 29.4537C309.48 30.9044 308.573 32.7177 307.304 34.8937C306.216 37.0697 304.584 40.2431 302.408 44.4137C300.232 48.7657 297.693 53.9337 294.792 59.9177C292.072 65.9017 289.352 72.0671 286.632 78.4137C283.912 84.7604 281.373 90.7444 279.016 96.3657C276.84 101.806 275.208 106.158 274.12 109.422C271.581 116.675 269.677 122.387 268.408 126.558C267.139 130.547 266.413 133.72 266.232 136.078C266.232 138.254 266.685 140.248 267.592 142.062C267.955 145.326 267.229 148.136 265.416 150.494C263.603 152.67 261.608 153.848 259.432 154.03C257.437 154.392 256.077 153.214 255.352 150.494Z" fill="#102348"/>
</svg>
