<svg width="65" height="101" viewBox="0 0 65 101" fill="none" xmlns="http://www.w3.org/2000/svg">
<path d="M9.01678 73.2426C9.96327 70.212 11.0237 67.2095 12.2504 64.2674C13.4757 61.3188 14.8767 58.4464 16.4459 55.6657C18.1179 52.7042 20.0034 49.8685 22.0872 47.1808C24.8639 43.5606 28.1277 40.3415 31.7857 37.6147C33.6335 36.2477 35.5986 35.0468 37.6581 34.026C38.7176 33.4897 39.8208 33.0448 40.9559 32.6959C42.1653 32.3201 43.4285 32.1467 44.6945 32.1828C45.3903 32.2065 46.0787 32.3344 46.7366 32.5625C47.4743 32.8148 48.1414 33.2391 48.6827 33.8002C49.2396 34.3884 49.6284 35.1155 49.8081 35.9055C49.9728 36.6344 49.9885 37.3893 49.8542 38.1244C49.7337 38.8045 49.5175 39.4638 49.2118 40.0831C48.9237 40.6574 48.5826 41.2037 48.1929 41.7147C47.4808 42.6674 46.6909 43.5594 45.8315 44.3817C44.1341 46.0085 42.2253 47.399 40.1566 48.516C38.0801 49.6379 35.8524 50.4544 33.5427 50.9401C30.6683 51.5533 27.699 51.5717 24.8172 50.994C24.4261 50.9093 24.0407 50.8 23.6632 50.667C23.273 50.5298 22.8948 50.3604 22.5326 50.1606C21.787 49.7678 21.1154 49.2483 20.5481 48.6252C19.9748 47.9901 19.5267 47.2526 19.227 46.4513C18.9429 45.6867 18.7734 44.8845 18.7238 44.0703C18.6487 42.5558 18.8262 41.0392 19.2492 39.5828C19.4388 38.8806 19.6653 38.1887 19.9276 37.5104C20.058 37.1735 20.1927 36.8391 20.3378 36.5099C20.4809 36.1785 20.63 35.8732 20.7761 35.5536C21.9467 33.0246 23.2821 30.5752 24.7737 28.2211C30.785 18.8169 39.0488 11.0621 48.8159 5.66016C49.1776 5.45087 49.5507 5.26116 49.9219 5.06719C50.2945 4.87627 50.6626 4.67634 51.0403 4.49465C51.7966 4.13347 52.5481 3.76268 53.3188 3.43568C54.8457 2.75138 56.4069 2.16133 57.9593 1.61311C59.1995 1.17969 60.4651 0.823252 61.749 0.545738C62.2706 0.440303 62.7355 0.354201 63.1506 0.29291C63.5682 0.240618 63.9341 0.206203 64.2533 0.187353C65.1829 0.132507 65.2186 0.314799 64.5046 0.667954C64.3261 0.756243 64.1006 0.855236 63.8303 0.963712C63.5593 1.06939 63.246 1.19161 62.8902 1.33048C62.5351 1.4679 62.1379 1.61445 61.6987 1.77035C61.263 1.93489 60.7889 2.11633 60.2747 2.30179C57.5717 3.30227 54.9256 4.45003 52.3483 5.74006C46.4588 8.68655 41.0694 12.5412 36.378 17.1629C31.6895 21.749 27.7734 27.063 24.7816 32.8993C24.5809 33.302 24.3793 33.7064 24.1768 34.1126C23.9865 34.5243 23.7957 34.9369 23.6044 35.3509C23.4069 35.7613 23.2399 36.1866 23.0568 36.604C22.8767 37.0243 22.6922 37.4424 22.539 37.8481C21.9067 39.4136 21.5059 41.0629 21.3491 42.7439C21.2544 43.9971 21.4368 45.2084 21.9864 46.1553C22.2675 46.6297 22.6386 47.0445 23.0789 47.3764C23.309 47.549 23.5534 47.7019 23.8095 47.8333C24.0644 47.972 24.3317 48.0864 24.6081 48.1749C24.8977 48.2693 25.1931 48.3452 25.4924 48.4021L26.4749 48.5607C26.8065 48.5968 27.138 48.6367 27.4705 48.668C27.8045 48.6838 28.1378 48.7124 28.4724 48.7189C29.8166 48.7474 31.1601 48.6367 32.4815 48.3885C35.1421 47.8834 37.6867 46.8911 39.9871 45.462C41.1392 44.7458 42.2304 43.9363 43.25 43.0415C44.2613 42.1625 45.1819 41.1845 45.9982 40.1221L46.2154 39.8259L46.3235 39.6774L46.4162 39.5387C46.5383 39.3567 46.6501 39.1681 46.7511 38.9736C46.9462 38.6011 47.0919 38.2048 47.1843 37.7946C47.2693 37.4252 47.2855 37.0432 47.232 36.6679C47.2086 36.5015 47.1637 36.3388 47.0984 36.184C47.0407 36.0368 46.9616 35.8988 46.8638 35.7745C46.7685 35.6462 46.655 35.5324 46.527 35.4366C46.3907 35.3302 46.2423 35.2401 46.0849 35.1681C45.7205 35.0075 45.3329 34.9054 44.9367 34.8654C44.4908 34.8189 44.0413 34.8182 43.5952 34.8631C43.1274 34.9081 42.6634 34.9875 42.2073 35.1007C41.2518 35.3474 40.321 35.6815 39.4266 36.0985C38.9654 36.3072 38.5058 36.5318 38.0456 36.7683C37.5898 37.0043 37.1386 37.2488 36.6919 37.502C34.9041 38.5308 33.1983 39.696 31.5895 40.9869C28.7049 43.3086 26.0991 45.9568 23.8241 48.8784C21.5356 51.8183 19.514 54.9567 17.7839 58.2562C16.9117 59.9072 16.0981 61.5894 15.3433 63.303C14.969 64.1601 14.6023 65.0205 14.2636 65.8941L13.75 67.2022L13.2628 68.5217C12.9307 69.3985 12.6428 70.2923 12.3326 71.1776C12.0485 72.0727 11.7455 72.9616 11.4805 73.864C10.9236 75.6589 10.4292 77.4758 9.94734 79.2963C8.43719 85.1153 7.13098 90.6546 5.56428 95.5142C4.84593 97.7482 4.23095 97.4745 4.56221 94.7809C5.07687 90.9769 5.72164 86.9966 6.53351 83.0528C7.19531 79.8107 8.09109 76.5187 9.05242 73.2851C9.04001 73.2717 9.02882 73.2584 9.01678 73.2426Z" fill="#F8ED3A"/>
<path d="M17.7925 79.7645C16.3843 81.1496 15.0854 82.643 13.9077 84.23C13.6063 84.6593 13.2994 85.0886 13.003 85.5252C12.7211 85.9727 12.4447 86.4238 12.1822 86.8811C11.0808 88.8816 10.1256 90.9842 9.19774 93.1173L7.82039 96.3363C7.36156 97.4125 6.91111 98.4985 6.42358 99.5662L6.4164 99.582C6.2487 99.9493 5.94188 100.235 5.56355 100.376C5.18535 100.517 4.7664 100.501 4.39914 100.334C4.16796 100.227 3.96706 100.064 3.81444 99.8605C3.66182 99.6562 3.56222 99.4179 3.52464 99.1649L3.05523 95.8936C2.52939 92.3706 2.005 88.8427 1.50276 85.305C1.00184 81.7674 0.521972 78.22 0.134158 74.6447C0.0312757 73.5612 -0.0125033 72.4728 0.00306275 71.3844C0.000995385 70.3519 0.269873 69.6599 0.636527 69.2234C1.17441 68.5885 1.83548 69.1479 2.11603 70.5525C2.29383 71.4804 2.41641 72.418 2.48305 73.3605C2.86552 77.6752 3.52525 81.962 4.45812 86.1916C4.71131 87.3639 5.01898 88.5763 5.11347 89.7414C5.35913 92.7585 5.90856 95.7489 6.37968 98.7454L3.78926 98.3878C4.06958 97.7433 4.35949 97.1024 4.67009 96.4725C5.88545 93.9819 6.97508 91.405 8.26937 88.901C9.41615 86.6415 10.7361 84.4744 12.2174 82.4192C13.7201 80.3774 15.3979 78.4718 17.232 76.7218C17.5969 76.3777 17.9648 76.0457 18.3362 75.7319C18.7175 75.4303 19.1031 75.1482 19.4929 74.8855C20.2442 74.3723 21.0557 73.954 21.909 73.639C22.2904 73.5004 22.5645 73.5527 22.6822 73.7363C22.7962 73.9163 22.7686 74.2434 22.5062 74.6058C22.1126 75.0947 21.6845 75.5653 21.2636 76.0444C20.8458 76.5285 20.4119 77.0003 19.9735 77.4624C19.6269 77.854 19.2539 78.2261 18.8728 78.5946L18.5864 78.8694L18.3112 79.154C18.1289 79.3449 17.9468 79.5359 17.765 79.7256L17.7925 79.7645Z" fill="#F8ED3A"/>
</svg>
