<svg version="1.2" xmlns="http://www.w3.org/2000/svg" viewBox="0 0 498 348" width="498" height="348">
	<title>adv_02-svg</title>
	<style>
		.s0 { fill: #102348 } 
		.s1 { fill: #ffffff } 
		.s2 { fill: #d9c6f4 } 
		.s3 { fill: #a2d3ff } 
	</style>
	<path fill-rule="evenodd" class="s0" d="m372.5 168.8q0.4 0.4 1.3 0.5c-5.8 8.6-12.4 17.9-14.3 27.9q-1.7 8.5-1.2 17.4 0 0.1 0 0.2-0.1 0-0.2 0.1-0.1 0-0.2 0-0.1 0-0.1-0.1l-0.4-0.3q-0.1-0.2-0.1-0.4-1.1-11 2.4-21.6 0.3-0.7-0.5-0.5-0.6 0.2-0.8 0.8-3.1 7.1-4.2 14.7-0.1 0.1-0.1 0.1-0.1 0.1-0.2 0.2-0.1 0-0.2 0-0.1 0-0.1-0.1-0.6-0.4-0.4-1.4 1.5-10.5 7.3-18.4 0.4-0.5 0.4-1.1 0-0.6-0.3-1.1c-18.4-29.6-39.8-53.4-73.2-66q-15.8-6.1-32.8 0.3-0.7 0.3-0.2 0.8c18.2 18.9 29.4 43.6 36.9 68.4q11.8 39 16.2 78.9 0.2 1.5 1.4 2.4c27.6 19.9 69.6 24.8 95.9-0.1q17.5-16.5 26.8-40.9 0.3-0.1 0-1.4l54.2-0.1q3.4 0 3.4-3.4v-153.9c0-0.4-0.2-0.7-0.4-1-0.3-0.2-0.6-0.4-1-0.4l-30.5-0.3q-0.9 0-1.1 0.8c-1.1 4.4-5 8.1-8.7 3.3q-0.1-0.2-0.2-0.2-0.1-0.1-0.3-0.1-0.1 0-0.3 0.1-0.1 0-0.2 0.2-2.9 3.7-7.2 1.8-0.1-0.1-0.2-0.2l-1-1.7q-0.5-0.8-1.1 0-4.1 5-8.3 0.6-0.7-0.7-1.3 0l-2.3 2.2q-0.6 0.6-1.5 0.7c-4.1 0.2-5.7-3.4-6.8-6.8q-0.2-0.6-0.9-0.6l-38.4 0.3c-0.4 0-0.9 0.2-1.2 0.5-0.3 0.4-0.5 0.8-0.5 1.3v154.4c0 0.6 0.3 1.2 0.7 1.7 0.4 0.4 1 0.6 1.6 0.6l20.4 0.1q3 0.4 2.3 1.2l-20.8 0.3q-1 0-2-0.4-1-0.4-1.8-1.1-0.7-0.8-1.1-1.8-0.4-0.9-0.4-2l-0.1-55.3q-0.4-2.4-0.9-1.9c0.6-0.9 1-1.8 1-3q0-46.7 0-93.1 0-0.5 0.3-1.1 0.2-0.5 0.6-1 0.4-0.4 1-0.6 0.5-0.2 1.1-0.2h38.2q0.9 0 0.9-0.8 0.3-7.4 7.5-7.6 0.2 0 0.5 0.1 0.3 0.2 0.8 0.3 1.4 0.7 2 2 0.4 0.9 1.1 0.3 4.3-3.6 9.1-0.3 0.7 0.5 1.4 0.1 4.8-2.8 8.7 1.2 0.7 0.6 1.6 0.5 4.9-1 7.1 3.5 0.1 0.3 0.4 0.5 0.3 0.2 0.6 0.2h29.4c1 0 1.9 0.4 2.6 1.1 0.7 0.6 1.1 1.6 1.1 2.5v153.4c0 1.2-0.5 2.3-1.3 3.1-0.9 0.8-2 1.3-3.2 1.3h-51.3c-0.5 0-1 0.1-1.4 0.4-0.4 0.3-0.7 0.7-0.9 1.2q-9.8 24.6-28.8 42.1c-25.7 23.5-67.9 18.2-94.6-0.7q-0.1-0.1-0.3-0.1-0.2 0-0.3 0.1-0.2 0.1-0.3 0.2 0 0.2 0 0.4l3.2 54.9c0 0.6-0.2 1.1-0.5 1.6-0.4 0.5-0.9 0.8-1.4 0.9-63.4 13.8-127.8 14.2-190.9 0q-0.4-0.1-0.6-0.4-0.3-0.4-0.3-0.8l-0.3-21.3q0.7 0.4 1.4 0.4l0.1 19.4c0 0.4 0.1 0.8 0.4 1.1 0.2 0.3 0.6 0.5 0.9 0.6q94.3 20.7 188.5-0.4 1.3-0.3 1.2-1.7-0.9-20.7-2.3-41.5c-3-43.6-11.7-88.3-29.9-128.3q-9.3-20.4-24.4-36.1-0.5-0.5-1.2-0.5l-7.5-0.3q-0.3 0-0.6 0.1-0.3 0.1-0.5 0.4-0.2 0.3-0.3 0.6 0 0.3 0.1 0.6c1.4 4.2 9.7 29.1 2.3 29.3q-7.5-5.8-12.1-14.7-0.2-0.2-0.4-0.3-0.3-0.2-0.5-0.1-0.3 0-0.5 0.2-0.2 0.3-0.2 0.5-1.2 9.9-4.7 18.4c-8.9 16.1-29.6-32.1-31.7-36.7q-0.3-0.5-0.9-0.5l-27.5-0.6q-0.2 0-0.2 0-0.1 0.1-0.2 0.2 0 0.1 0 0.2 0 0.1 0.1 0.2c12.3 13.4 13.2 31.2 8.1 48.6q-0.1 0.2 0 0.5 0.2 0.3 0.4 0.4l25.3 8.8q1.7 0.6 1.1 2.3l-3.4 10.2-4.1 12q-0.2 0.4-0.4 0.7-0.3 0.2-0.6 0.4-0.4 0.2-0.8 0.2-0.4 0-0.7-0.1l-31.5-10.9q-0.8-0.3-0.5-1.2l4.5-13.1 3.5-10.1q0.1-0.4 0.4-0.6 0.2-0.3 0.6-0.5 0.3-0.1 0.7-0.1 0.4 0 0.7 0.1l2.4 1q0.8 0.3 1.1-0.5c6.8-20.7 3.4-49.7-23.1-53.8-15.2-2.3-28.1 1.2-42.5 8.4q-49 24.9-82.7 70.5c-11.3 15.3-18.3 33.9-14.5 52.7 4.8 23.5 24.5 39.5 48 43.6 24.4 4.2 49.5 2.3 73.9-0.3q1.1-0.1 0.8-1.2-10.6-33.6-0.4-67.4 0.2-0.7-0.5-0.9c-22.8-7.2-42.9-11.8-65.8-7.4q-0.5 0.1-0.7-0.4-0.1-0.6 0.4-0.7 15-3.1 30-1.6 0.2 0 0.3-0.1 0.2-0.1 0.3-0.2 0-0.2 0-0.4-0.1-0.1-0.2-0.2-8.2-6-18.1-8.3-0.1 0-0.1-0.1 0-0.3 0-0.4 0-0.5 0.4-0.4 10.2 2.1 18.4 8.3c4.8 3.5 12.7 4.1 18.5 5.6q18.8 5.1 37.5 10.7 5.5 1.6 10.1 1.3c15.7-1.1 25.3-6.4 38.6-16.8q2-1.5 5.5-1 0.7 0.2 0.9 0.9c1.3 4.9-2.8 13.9-4.3 18.7q-1.2 3.9 2.9 3.8c4.8-0.2 12.4-1 15.4-5.1q5 7.1-0.7 14.4c-0.3 0.4-0.4 0.9-0.3 1.3q0.8 5.6-2.6 9.9-0.6 0.7-0.6 1.5-1.5 14.6-16.3 13.1-0.3 0-0.3-0.2 0-0.3 0-0.5 0-0.3 0.4-0.3 12.4 1 15.1-10.6 0.2-1.1-0.8-0.6-5.1 2.5-10.2 1.8-0.6 0-0.8-0.8-0.1-0.5 0.4-0.4 13.7 1.8 14.9-11.7 0.1-1-0.9-0.5-4.9 2.5-10.3 2.3-0.6-0.1-0.8-0.6-0.4-0.8 0.5-0.7c9.1 1 16.5-5.1 14.1-14.2q0-0.2-0.2-0.4-0.1-0.2-0.3-0.3-0.3-0.1-0.5 0-0.2 0-0.4 0.1-7.9 4.1-16.7 3-0.6-0.1-1.2-0.4-0.5-0.4-0.8-0.9-0.3-0.5-0.4-1.1-0.1-0.6 0.1-1.1l5.1-17.3q0.2-0.6 0-1.2-0.1-0.5-0.6-0.9-0.5-0.4-1.1-0.5-0.6 0-1.2 0.3c-5 2.8-9.8 7.2-14.1 9.7q-14.1 8-30.6 8.9-0.9 0.1-1.1 0.9-6.9 28.7 4.1 56 0.3 0.7 1.1 0.6c11.4-1.8 43.1-5 46.7-18.8q0.1-0.3 0.7-0.1 0.6 0.1 0.4 0.7-1.9 5.7-7.2 9.2c-4.8 1.9-9.5 3.9-14.6 5q-38.7 8.8-78.3 11.3-12.1 0.8-24.1 1.5-13.2-0.1-25.8-1.7c-48.6-6.1-69.1-54.7-41.3-94.6q32.9-47.4 83.6-74.2c18.4-9.7 37.3-14.3 57.2-6.2 8.4 3.5 23.9 1.9 33.3 2q0.6 0 0.7-0.7l1.5-22.6q0-0.2-0.1-0.5-0.1-0.2-0.3-0.4-0.2-0.2-0.5-0.3-0.2-0.1-0.5-0.1-13.2 1.7-19.5-7.9c-5.7-8.7-1.8-18.5 9.3-19.2q0.2 0 0.3-0.1 0.2-0.1 0.3-0.2 0.1-0.2 0.1-0.4 0-0.1-0.1-0.3-3.2-7.3-8.3-13c-5.2-5.8-8.2-9.8-5.6-17.1q4.6-12.9 18.7-11 0.7 0.1 0.7-0.7c0.2-13.1 15.6-17.6 24.7-9.4q0.2 0.2 0.5 0.3 0.3 0.1 0.6 0.1 0.3-0.1 0.5-0.2 0.3-0.2 0.5-0.4c3.7-5.8 10.2-6.1 15.9-2.9 10.6 5.9 9.1 15.1 3.9 24.8q-0.4 0.6-0.2 1.3c4.2 14 8.7 22.1 19.3 30.5 6.7 5.4 5.5 14.2 0.7 20.6q-7.1 9.6-20 10.8-0.2 0-0.4 0.1-0.1 0.1-0.3 0.3-0.1 0.1-0.1 0.3-0.1 0.2-0.1 0.4 1.3 10.3 5.3 19.9 0.2 0.6 0.9 0.6c4.6-0.4 8.1 0.2 12.5-1.5 29-11.4 67.6 17.3 85.2 38.6q11 13.3 19.8 27.6 0.1 0.2 0.3 0.3 0.3 0.1 0.5 0.1 0.2 0 0.5-0.1 0.2-0.1 0.3-0.3zm-156.6-154.5c-1.4 3.5-2.7 5.3-2.1 9.3q0 0.2 0.1 0.3 0.2 0.2 0.4 0.1 0.2 0 0.4-0.1 0.1-0.2 0.1-0.4 0.1-4.9 2.6-9.1 0.3-0.7-0.4-0.7-0.8-0.1-1.1 0.6zm21.1 94.3c-7.2-0.1-16.1-4.3-16.8-12.4q0-0.1 0.1-0.3 0-0.1 0.1-0.2 0.1-0.1 0.3-0.2 0.1 0 0.3 0c14.7 2.1 33.1 3 39.2-14.5 3.1-9.1-4-14-10.9-19.7q-3.3-2.7-6.8-11.1-0.1-0.2-0.2-0.3-0.2-0.1-0.4-0.1-0.1 0.1-0.3 0.2-0.1 0.1-0.1 0.3-0.5 3.1-3.5 3.7-1 0.2-0.2 0.8l4.2 3.3q0.8 0.7 0.3 1.6l-1.7 3q-0.2 0.3-0.4 0l-0.4-0.3q-0.1-0.1-0.1-0.2 0-0.2 0.1-0.3l1.3-2.2q0.4-0.6-0.2-1.1l-6.6-4.8q-0.4-0.3-0.6-0.8-0.2-0.5-0.1-1 0.1-0.5 0.5-0.9 0.3-0.4 0.8-0.5l5.9-1.6q0.8-0.2 0.5-0.9l-1.7-4.6q-0.1-0.3-0.4-0.5-0.3-0.2-0.6-0.2l-6.6 0.3q-0.4 0.1-0.7-0.1-0.3-0.2-0.5-0.4-0.2-0.3-0.2-0.7-0.1-0.3 0.1-0.6l0.9-2.3q0.3-0.5-0.3-0.4-5.6 1.8-10.6 4.8-0.5 0.3 0 0.3l3.1 0.3q0.5 0 0.9 0.3 0.4 0.3 0.6 0.8 0.2 0.5 0.1 0.9-0.1 0.5-0.4 0.9l-8 9.4q-0.3 0.3-0.8 0.5-0.5 0.2-1 0.1-0.5-0.1-0.9-0.4-0.4-0.3-0.6-0.8-0.9-2-0.1-3.8 0.5-1.1-0.5-0.5-0.3 0.2-0.4 0.6-3.1 7.7-5.1 16.8c-0.8 3.7-3.2 6.1-6.9 3.7-6.3-4-18.4-9.9-23.8-0.9-4.8 8 2.5 16.8 10.4 18.8q7.5 1.9 16-0.4 0.1 0 0.2 0 0.1 0 0.2 0 0.1 0.1 0.2 0.2 0 0 0 0.1 0.1 0.1 0.1 0.2 0 0.1-0.1 0.2 0 0.1-0.1 0.2-0.1 0-0.2 0.1l-4 1.5q-0.4 0.1-0.7 0.5-0.3 0.3-0.3 0.8c-0.3 5.9-2.9 22.4 0.1 27.3 5.8 9.6 34.2 18.1 41.2 5.2 2.7-5 0-11.9-1.9-16.9q-0.2-0.7-1-0.8zm190.7-42.1c0.8-12.8-18.6-0.6-5.9 8.8q0.3 0.2 0.6 0.3 0.3 0 0.7-0.1c3.8-1.3 4.4-5.2 4.6-9zm9.7-0.4q0.1-0.7-0.2-1.5-0.2-0.7-0.7-1.3-0.4-0.7-1.1-1-0.7-0.4-1.5-0.5l-0.6-0.1c-1-0.1-2 0.2-2.9 0.9-0.8 0.6-1.3 1.5-1.4 2.6l-0.5 4.7q-0.1 0.8 0.1 1.5 0.2 0.8 0.7 1.4 0.5 0.6 1.1 1 0.7 0.4 1.5 0.4l0.6 0.1c1 0.1 2.1-0.2 2.9-0.8 0.8-0.7 1.3-1.6 1.4-2.6zm1.6-2.2c-1 2.2-0.6 6.9 0.4 8.9q0.2 0.6 0.7 1 0.5 0.5 1.2 0.6 0.6 0.2 1.2 0.1 0.7-0.1 1.3-0.4c5.4-3.5 4.7-15.6-3.9-11.1q-0.7 0.3-0.9 0.9zm9.9 2.1q-2.2 4.2 0.4 7.5 0.3 0.4 0.7 0.5 0.4 0.2 0.9 0.1c4.9-0.7 5.4-6.5 1.8-9q-2.4-1.6-3.8 0.9zm-203.4 84.1q0.1 0.1 0.3 0.2 0.2 0.1 0.4 0.1 0.2-0.1 0.4-0.1 0.2-0.1 0.3-0.3 0.9-1 0.7-2.8-1.2-11.4-4.4-22-0.1-0.2-0.2-0.3-0.2-0.2-0.4-0.2-0.2 0-0.3 0.1-0.2 0.2-0.3 0.3-2.3 5.9-8.2 8.1-0.9 0.3-0.5 1.1 5 8.7 12.2 15.8zm-15.2-16.1c-11-0.1-19.9-1.8-29.1-7.8q-0.7-0.4-0.4 0.4c4.3 9.5 11.4 24.4 19.8 30.8q0.6 0.4 1.3 0.6 0.7 0.1 1.4-0.1 0.7-0.1 1.3-0.6 0.6-0.5 0.9-1.1 4.7-10.2 5.5-21.4 0.1-0.8-0.7-0.8zm-72.4 90.9l-22.3-6.3q-0.4-0.1-0.7 0.1-0.4 0.2-0.5 0.6-10 33.8 0.5 67.6 0.1 0.2 0.3 0.4 0.2 0.1 0.4 0l26-3.7q0.2 0 0.4-0.1 0.2-0.2 0.3-0.4 0.2-0.2 0.2-0.4 0-0.2-0.1-0.4-11-27.6-4-56.5 0.1-0.3 0-0.5-0.2-0.3-0.5-0.4z"/>
	<path class="s1" d="m448.9 66.1q1.4-2.6 3.8-1c3.6 2.5 3.1 8.4-1.9 9.1q-0.4 0-0.8-0.1-0.5-0.2-0.7-0.6-2.7-3.2-0.4-7.4z"/>
	<path class="s1" d="m439.3 72.8c-0.9-2-1.3-6.7-0.4-8.9q0.3-0.5 0.9-0.9c8.6-4.5 9.4 7.7 3.9 11.1q-0.5 0.4-1.2 0.5-0.6 0.1-1.3-0.1-0.6-0.2-1.1-0.6-0.5-0.5-0.8-1.1z"/>
	<path class="s1" d="m433.9 61.8l-0.6-0.1c-2.1-0.2-4 1.3-4.3 3.5l-0.5 4.7c-0.3 2.2 1.3 4.1 3.4 4.3l0.6 0.1c2.2 0.2 4.1-1.3 4.3-3.4l0.6-4.8c0.2-2.1-1.3-4.1-3.5-4.3z"/>
	<path class="s1" d="m421.8 75.3c-12.7-9.4 6.7-21.6 5.9-8.8-0.2 3.8-0.8 7.7-4.6 9q-0.4 0.1-0.7 0.1-0.3-0.1-0.6-0.3z"/>
	<path fill-rule="evenodd" class="s1" d="m431.6 228.1l-33.1-0.1-20.4-0.1c-0.6 0-1.2-0.2-1.6-0.6-0.4-0.5-0.7-1.1-0.7-1.7v-154.4c0-0.5 0.2-0.9 0.5-1.3 0.3-0.3 0.8-0.5 1.2-0.5l38.5-0.3q0.6 0 0.8 0.6c1.1 3.4 2.7 7 6.8 6.8q0.9-0.1 1.6-0.7l2.2-2.2q0.6-0.7 1.3 0 4.2 4.4 8.3-0.6 0.6-0.8 1.1 0l1 1.7q0.1 0.1 0.2 0.2 4.3 1.9 7.2-1.8 0.1-0.2 0.2-0.2 0.2-0.1 0.3-0.1 0.2 0 0.3 0.1 0.1 0 0.2 0.2c3.7 4.8 7.6 1.1 8.7-3.3q0.2-0.8 1.1-0.8l30.5 0.3c0.4 0 0.7 0.2 1 0.4 0.2 0.3 0.4 0.6 0.4 1v153.9q0 3.4-3.4 3.4zm10.8-140.6c-4.2-9.3-16.9-8.5-20 1q0 0.1-0.8 0.8-0.5 0.5-1.2 0.3-0.8-0.2-1.6 0.1l-17.2 7.2q-1.2 0.5-1.2 1.8c0 6-0.7 13.2 1.2 18.6q3.9 10.6 14.5 15.3c10.5 4.6 21.3-9.9 23.4-18.2q0.3-0.8 1-0.4l1.7 1q0.7 0.4 1.4 0.1 8.1-4 14.5-10.3c16.4-16.1-6.3-34.1-15-17.3q-0.4 0.8-0.7 0zm-17.6 55.9q0-0.2-0.2-0.4-0.1-0.1-0.3-0.1h-34.7q-0.3 0-0.4 0.1-0.2 0.2-0.2 0.4 0 0.2 0.2 0.4 0.1 0.1 0.4 0.1h34.7q0.2 0 0.3-0.1 0.2-0.2 0.2-0.4zm48.1 0q0-0.2-0.1-0.3-0.1-0.2-0.3-0.2h-42.5q-0.1 0-0.2 0-0.1 0-0.2 0.1 0 0.1-0.1 0.1 0 0.1 0 0.2v0.2q0 0.2 0.1 0.4 0.2 0.1 0.4 0.1l42.5 0.1q0.1 0 0.2-0.1 0 0 0.1-0.1 0.1 0 0.1-0.1 0-0.1 0-0.2zm0.2 12.4c0-0.2-1.3-0.4-3.7-0.5-2.3-0.1-5.5-0.2-8.8-0.2-1.6 0-3.2 0.1-4.7 0.1-1.6 0.1-2.9 0.1-4.1 0.2q-1.7 0.1-2.7 0.2-0.9 0.1-0.9 0.3c0 0.2 1.3 0.3 3.6 0.5 2.4 0.1 5.5 0.1 8.8 0.1 1.7 0 3.3 0 4.8-0.1 1.5 0 2.9-0.1 4-0.1q1.8-0.1 2.7-0.3 1-0.1 1-0.2zm-61.6-0.3q-0.1-0.1-0.2-0.1h-21.8q-0.2 0-0.3 0.1-0.1 0.1-0.1 0.2 0 0.2 0.1 0.3 0.1 0.1 0.3 0.1h21.8q0.1 0 0.2-0.1 0.1-0.1 0.1-0.3 0-0.1-0.1-0.2zm32.1 0.1q0-0.1 0-0.2-0.1 0-0.2 0 0-0.1-0.1-0.1l-26.6 0.1q-0.1 0-0.2 0 0 0-0.1 0.1-0.1 0-0.1 0.1 0 0.1 0 0.1 0 0.1 0 0.2 0 0.1 0.1 0.1 0.1 0.1 0.1 0.1 0.1 0 0.2 0h26.6q0.1 0 0.1-0.1 0.1 0 0.2 0 0-0.1 0-0.2 0.1 0 0.1-0.1 0-0.1-0.1-0.1zm28.9 11.7q0-0.1-0.1-0.2-0.1-0.1-0.3-0.1l-36.4 0.1q0 0-0.1 0-0.1 0.1-0.1 0.1-0.1 0.1-0.1 0.1 0 0.1 0 0.2v0.2q0 0.1 0.1 0.2 0.1 0.1 0.2 0.1l36.4-0.1q0.1 0 0.1 0 0.1-0.1 0.2-0.1 0-0.1 0.1-0.1 0-0.1 0-0.2zm-42.1-0.1q-0.1-0.1-0.3-0.1h-40.4q-0.1 0-0.2 0.1-0.1 0.1-0.1 0.2 0 0.2 0.1 0.3 0.1 0.1 0.2 0.1h40.4q0.2 0 0.3-0.1 0.1-0.1 0.1-0.3 0-0.1-0.1-0.2zm-30.1 10.3l-10.9-0.2q-0.8 0-0.8 0.7v10.7q0 0.2 0.1 0.3 0.1 0.2 0.2 0.3 0.1 0.1 0.2 0.2 0.1 0 0.3 0l11.7-0.1q0.7 0 0.7-0.7l-0.1-9.3 0.5-1.8q0.2-0.6-0.4-0.7-0.6-0.1-1.5 0.6zm67.4 5.6q0 0 0-0.1 0-0.1-0.1-0.1 0-0.1-0.1-0.1-0.1 0-0.1 0l-49-0.1q0 0-0.1 0-0.1 0-0.1 0.1-0.1 0-0.1 0.1 0 0.1 0 0.1v0.2q0 0.1 0 0.2 0 0 0.1 0.1 0 0 0.1 0.1 0.1 0 0.1 0l49 0.1q0 0 0.1 0 0.1-0.1 0.1-0.1 0.1-0.1 0.1-0.1 0-0.1 0-0.2zm-61.2-0.1q-0.1 0-0.2 0.2-0.1 0.1-0.1 0.3 0 0.2 0.1 0.3 0.1 0.1 0.3 0.1h6.6q0.2 0 0.3-0.1 0.1-0.1 0.1-0.3 0.1-0.2 0-0.3-0.1-0.2-0.3-0.2-3.4-0.4-6.8 0zm-6.1 14.2h-11.1q-0.8 0-0.8 0.7v10.9q0 0.8 0.8 0.8h11.9q0.8 0 0.8-0.9l-0.2-8.7 1.2-3.1q0.4-0.9-0.5-0.8-0.9 0.1-2.1 1.1zm16.2 5.7q0-0.3-0.2-0.4-0.2-0.2-0.5-0.2h-9.3q-0.1 0-0.3 0-0.1 0.1-0.2 0.1-0.1 0.1-0.1 0.2-0.1 0.2-0.1 0.3v0.2q0 0.2 0.2 0.4 0.2 0.2 0.5 0.2h9.3q0.1 0 0.3 0 0.1-0.1 0.2-0.2 0.1 0 0.1-0.2 0.1-0.1 0.1-0.2zm36.8 0.2c0-0.2-1.7-0.4-4.8-0.5-3.1-0.1-7.3-0.2-11.6-0.2-2.2 0-4.3 0-6.3 0.1-2 0-3.8 0.1-5.3 0.1-1.5 0.1-2.7 0.2-3.5 0.3q-1.3 0.1-1.3 0.3c0 0.2 1.7 0.3 4.8 0.5 3.1 0.1 7.3 0.2 11.6 0.2 2.2-0.1 4.3-0.1 6.3-0.1 2-0.1 3.8-0.1 5.3-0.2 1.5 0 2.7-0.1 3.5-0.2q1.3-0.2 1.3-0.3z"/>
	<path class="s0" d="m472.1 166.9l-36.3 0.1c-0.2 0-0.4 0.2-0.4 0.4v0.2c0 0.2 0.2 0.4 0.4 0.4l36.3-0.2c0.2 0 0.4-0.1 0.4-0.3v-0.2c0-0.2-0.2-0.4-0.4-0.4z"/>
	<path class="s0" d="m460.7 156.4c6.8 0 12.4-0.3 12.4-0.7 0-0.4-5.6-0.7-12.4-0.6-6.9 0-12.5 0.3-12.5 0.7 0 0.4 5.6 0.7 12.5 0.6z"/>
	<path fill-rule="evenodd" class="s0" d="m443.2 87.5c8.7-16.8 31.4 1.2 14.9 17.3q-6.4 6.2-14.4 10.2-0.8 0.4-1.4 0l-1.7-1q-0.8-0.5-1 0.4c-2.2 8.2-13 22.8-23.4 18.2q-10.7-4.7-14.5-15.3c-2-5.5-1.3-12.6-1.3-18.6q0-1.4 1.2-1.9l17.2-7.1q0.8-0.4 1.6-0.1 0.7 0.2 1.3-0.4 0.7-0.6 0.8-0.8c3-9.5 15.7-10.2 19.9-0.9q0.4 0.8 0.8 0zm-22.3 45.1c9.7-3 17.6-12 17.6-22.8q0.1-5.4 0.1-10.9-0.1-0.8-0.8-1.1l-17.1-7.2c-0.4-0.1-0.9-0.1-1.3 0l-16.9 7.1q-0.8 0.3-0.8 1.1c-1.5 15.5 1.6 28.4 17.8 33.8 0.4 0.2 0.9 0.2 1.4 0z"/>
	<path fill-rule="evenodd" class="s1" d="m438.5 109.8c0 10.8-7.9 19.8-17.6 22.8-0.5 0.2-1 0.2-1.4 0-16.2-5.4-19.3-18.3-17.8-33.8q0-0.8 0.8-1.1l16.9-7.1c0.4-0.1 0.9-0.1 1.3 0l17.1 7.2q0.7 0.3 0.8 1.1 0 5.5-0.1 10.9zm-10.4 15.6c7.3-6.8 7.9-13.6 7-23.5q-0.1-0.8-0.8-1.1l-13.6-5.9q-0.7-0.3-1.3 0l-13.4 5.9q-0.6 0.2-0.9 0.7-0.3 0.5-0.3 1.1c0 4.3-0.5 9.4 0.9 13.4 3.2 8.7 13.2 17.9 22.4 9.4z"/>
	<path fill-rule="evenodd" class="s2" d="m428.1 125.4c-9.2 8.5-19.2-0.7-22.4-9.4-1.4-4-0.9-9.1-0.9-13.4q0-0.6 0.3-1.1 0.3-0.5 0.9-0.7l13.4-5.9q0.6-0.3 1.3 0l13.6 5.9q0.7 0.3 0.8 1.1c0.9 9.9 0.3 16.7-7 23.5zm-6-16.5l-0.1-3.7q0-0.2-0.1-0.4 0-0.2-0.2-0.3-0.1-0.1-0.3-0.2-0.2 0-0.4 0l-2.1 0.4q-0.9 0.1-0.9 1v2.9q0 1-0.9 1.2-1.5 0.2-3.2-0.2c-0.5-0.1-1.1 0-1.4 0.2-0.4 0.3-0.7 0.8-0.7 1.3-0.1 0.6 0.1 1.1 0.4 1.6 0.3 0.5 0.8 0.8 1.3 1q1.3 0.3 3.6 0.1 0.2-0.1 0.3 0 0.2 0 0.3 0.2 0.2 0.1 0.2 0.2 0.1 0.2 0.1 0.4v3.4q0 0.9 1 0.9l1.9 0.1q0.2 0 0.5-0.1 0.2-0.1 0.3-0.2 0.2-0.2 0.3-0.4 0.1-0.2 0.1-0.4v-2.9q0-1.1 1-1.2h3.5q0.4 0 0.7-0.3 0.3-0.3 0.3-0.6v-2.2q0-0.9-1-0.9h-3.6q-0.3 0-0.6-0.3-0.3-0.2-0.3-0.6z"/>
	<path class="s1" d="m423 109.8h3.6q1 0 1 0.9v2.2q0 0.3-0.3 0.6-0.3 0.3-0.7 0.3l-3.5 0.1q-1 0-1 1.1v2.9q0 0.2-0.1 0.4-0.1 0.2-0.3 0.4-0.1 0.1-0.3 0.2-0.3 0.1-0.5 0.1l-1.9-0.1q-1 0-1-0.9v-3.4q0-0.2-0.1-0.4 0-0.1-0.2-0.2-0.1-0.2-0.3-0.2-0.1-0.1-0.3 0-2.3 0.2-3.6-0.1c-0.5-0.2-1-0.5-1.3-1-0.3-0.5-0.5-1-0.4-1.6 0-0.5 0.3-1 0.6-1.3 0.4-0.2 1-0.3 1.5-0.2q1.7 0.4 3.2 0.2 0.9-0.2 0.9-1.2v-2.9q0-0.9 0.9-1l2.1-0.4q0.2 0 0.4 0 0.2 0.1 0.3 0.2 0.2 0.1 0.2 0.3 0.1 0.2 0.1 0.4l0.1 3.7q0 0.4 0.3 0.6 0.2 0.3 0.6 0.3z"/>
	<path fill-rule="evenodd" class="s1" d="m220.2 96.2c0.7 8 9.6 12.3 16.9 12.4q0.7 0 1 0.7c1.8 5.1 4.5 12 1.8 17-6.9 12.9-35.4 4.4-41.2-5.2-3-4.9-0.4-21.4-0.1-27.3q0.1-0.5 0.3-0.8 0.3-0.4 0.7-0.6l4-1.5q0.1 0 0.2-0.1 0.1 0 0.1-0.1 0.1-0.1 0.1-0.2 0-0.1 0-0.2-0.1-0.1-0.1-0.2-0.1 0-0.2-0.1-0.1 0-0.2 0-0.1 0-0.2 0-8.5 2.3-16 0.4c-7.9-2-15.2-10.9-10.4-18.9 5.4-8.9 17.5-3 23.9 1 3.7 2.4 6-0.1 6.8-3.7q2-9.1 5.1-16.9 0.1-0.3 0.4-0.5 1-0.6 0.5 0.5-0.7 1.8 0.1 3.8 0.2 0.5 0.6 0.8 0.4 0.3 0.9 0.4 0.5 0.1 1-0.1 0.5-0.2 0.8-0.6l8-9.3q0.3-0.4 0.4-0.9 0.1-0.5-0.1-0.9-0.2-0.5-0.6-0.8-0.4-0.3-0.9-0.3l-3.1-0.3q-0.4 0 0-0.3 5-3 10.6-4.8 0.6-0.1 0.4 0.4l-1 2.2q-0.2 0.4-0.1 0.7 0 0.4 0.2 0.6 0.2 0.3 0.5 0.5 0.3 0.1 0.7 0.1l6.6-0.3q0.3 0 0.6 0.2 0.3 0.2 0.4 0.5l1.7 4.6q0.3 0.7-0.4 0.9l-6 1.6q-0.5 0.1-0.8 0.5-0.4 0.4-0.5 0.9-0.1 0.5 0.1 1 0.2 0.5 0.6 0.8l6.6 4.8q0.7 0.4 0.2 1.1l-1.3 2.2q-0.1 0.1-0.1 0.3 0.1 0.1 0.2 0.2l0.3 0.3q0.2 0.3 0.4 0l1.7-3.1q0.5-0.8-0.3-1.5l-4.2-3.3q-0.8-0.6 0.2-0.8 3-0.6 3.5-3.7 0-0.2 0.1-0.3 0.2-0.1 0.4-0.2 0.1 0 0.3 0.1 0.2 0.1 0.2 0.3 3.6 8.3 6.8 11.1c6.9 5.7 14.1 10.6 10.9 19.7-6.1 17.5-24.5 16.5-39.2 14.5q-0.1-0.1-0.3 0-0.1 0-0.3 0.2-0.1 0.1-0.1 0.2-0.1 0.2-0.1 0.3zm-0.9-34.7q5.8 0.6 10.3-2.9 0.3-0.2 0.5-0.5 0.2-0.3 0.2-0.7 0.2-2.2-1.6-3.5-0.5-0.4-1.1 0l-8.6 6.4q-0.2 0.1-0.2 0.3-0.1 0.2-0.1 0.4 0.1 0.2 0.2 0.3 0.2 0.1 0.4 0.2zm24.5 8.1c-3.4 3.3-7.9 3.3-10.3-1q-0.1-0.1-0.2-0.2-0.2 0-0.3 0-0.1-0.1-0.3 0-0.1 0-0.2 0.2-0.6 0.6 0 1.5 4.3 6.7 11.2 1.9 1.2-0.8 1-2 0-0.2-0.1-0.3-0.1-0.1-0.2-0.2-0.2 0-0.3 0-0.2 0-0.3 0.1zm-45.3 10.9c-3.3-5.2-9.8-7.5-15.7-5.7q-0.1 0-0.2 0.2-0.1 0.2-0.1 0.5-0.3 0.6 0.4 0.4 9.1-2.2 14.5 5.3 0.1 0.1 0.2 0.2 0.1 0.1 0.2 0.1 0.1 0 0.3 0 0.1-0.1 0.2-0.1 0.5-0.4 0.2-0.9z"/>
	<path class="s1" d="m373.8 169.3q-0.8-0.5 0.8-0.4l0.1 55.3q0 1.1 0.4 2 0.4 1 1.1 1.8 0.8 0.7 1.8 1.1 1 0.4 2 0.4l20.8-0.3 30.8 0.3q-9.3 24.4-26.8 40.9c-26.3 24.8-68.3 20-95.9 0.1q-1.2-0.9-1.4-2.4-4.4-39.9-16.2-78.9c-7.5-24.8-18.7-49.5-36.9-68.4q-0.5-0.6 0.2-0.8 17-6.4 32.8-0.3c33.4 12.6 54.8 36.4 73.2 66q0.3 0.5 0.3 1.1 0 0.6-0.4 1.1-5.8 7.9-7.3 18.4-0.2 1 0.4 1.4 0 0.1 0.1 0.1 0.1 0 0.2 0 0.1-0.1 0.2-0.2 0 0 0.1-0.1 1.1-7.6 4.2-14.7 0.2-0.6 0.8-0.8 0.8-0.2 0.5 0.5-3.5 10.6-2.4 21.6 0 0.2 0.1 0.4l0.4 0.3q0 0.1 0.1 0.1 0.1 0 0.2 0 0.1-0.1 0.2-0.1 0-0.1 0-0.2-0.5-8.9 1.2-17.4c1.9-10 8.5-19.3 14.3-27.9z"/>
	<path class="s3" d="m398.5 228l33.1 0.1q0.3 1.3 0 1.4l-30.8-0.3q0.7-0.8-2.3-1.2z"/>
	<path class="s0" d="m437 203.9c9.1-0.1 16.4-0.4 16.4-0.8 0-0.4-7.3-0.7-16.4-0.7-9 0-16.4 0.4-16.4 0.8 0 0.4 7.4 0.7 16.4 0.7z"/>
	<path class="s3" d="m415.9 202.3l-9.3-0.1c-0.3 0-0.6 0.3-0.6 0.7v0.2c0 0.3 0.3 0.6 0.6 0.6h9.3c0.4 0 0.7-0.3 0.7-0.6v-0.2c0-0.4-0.3-0.6-0.7-0.6z"/>
	<path class="s0" d="m401.8 200q-0.9 0.9-0.7 0.1-3 1.9-4.3 5.1-0.2 0.3-0.5 0.6-0.3 0.2-0.7 0.3-0.4 0-0.8-0.1-0.4-0.2-0.7-0.5l-3.9-5q0.6 0 1.2 0.1l3 3.4q0.7 0.7 1.3 0l4.5-5.8q-0.6 0 0.2-1 1.3-1 2.1-1.1 0.9-0.1 0.6 0.8z"/>
	<path class="s3" d="m400.4 197.2q-0.8 1-0.2 1l-9.3 0.4q-0.7 0.1-0.8 0.8-0.1 1.2 1.3 1.2-0.6-0.1-1.2-0.1l0.1 7.4q0 0.6 0.6 0.6l9-0.1q0.4 0 0.6-0.2 0.2-0.3 0.3-0.6l0.3-7.5q-0.2 0.8 0.7-0.1l0.2 8.7q0.1 0.9-0.8 0.9h-11.8q-0.8 0-0.8-0.8v-10.9q0-0.8 0.7-0.8z"/>
	<path class="s1" d="m400.2 198.2l-4.5 5.8q-0.6 0.7-1.3 0l-3-3.4q-1.4 0-1.3-1.2 0.1-0.7 0.8-0.8z"/>
	<path class="s1" d="m401.1 200.1l-0.3 7.5q-0.1 0.3-0.3 0.6-0.2 0.2-0.6 0.2l-9 0.1q-0.6 0-0.6-0.6l-0.1-7.4 3.9 5q0.3 0.3 0.7 0.5 0.4 0.1 0.8 0.1 0.4-0.1 0.7-0.3 0.3-0.3 0.5-0.6 1.3-3.2 4.3-5.1z"/>
	<path class="s0" d="m406.6 183q3.3-0.5 6.7 0 0.2 0 0.3 0.2 0.1 0.1 0.1 0.3 0 0.1-0.2 0.3-0.1 0.1-0.2 0.1h-6.7q-0.1 0-0.3-0.1-0.1-0.2-0.1-0.3 0-0.2 0.1-0.3 0.1-0.2 0.3-0.2z"/>
	<path class="s0" d="m467.4 182.7l-48.9-0.1c-0.2 0-0.4 0.2-0.4 0.4v0.2c0 0.2 0.2 0.4 0.4 0.4l48.9 0.1c0.2 0 0.4-0.2 0.4-0.4v-0.2c0-0.2-0.2-0.4-0.4-0.4z"/>
	<path class="s0" d="m401.7 179.4q-2.2 0.4-0.9 0.3-0.4 0-0.7 0.1l-0.1-1.5q0.5 0.4 0.4-0.8 0.8-0.7 1.4-0.6 0.6 0.1 0.5 0.7z"/>
	<path class="s3" d="m400.4 177.5q0.1 1.2-0.4 0.8h-9.5q-0.2 0-0.3 0-0.2 0.1-0.3 0.2-0.1 0.1-0.1 0.3-0.1 0.1-0.1 0.3l0.5 8.1q0.1 0.8 0.9 0.8l8.5 0.1q0.9 0 0.9-0.9l0.3-7.5q-1.3 0.1 0.9-0.3l0.1 9.3q0 0.7-0.7 0.7l-11.7 0.1q-0.1 0-0.3-0.1-0.1 0-0.2-0.2-0.1-0.1-0.2-0.2 0-0.1 0-0.3v-10.7q0-0.7 0.7-0.7z"/>
	<path class="s1" d="m400 178.3l0.1 1.5q-2.5 1.1-3.9 3.9-0.1 0.3-0.4 0.4-0.3 0.2-0.6 0.2-0.3 0-0.6-0.1-0.3-0.2-0.5-0.5-1.2-2.2-3.3-3.8-0.1-0.1-0.2-0.1-0.1 0-0.1 0.1-0.1 0.1-0.1 0.1 0 0.1 0 0.2 1.8 3.1 4.3 5.6 0.6 0.6 1.1-0.1l4.3-5.9q0.3-0.1 0.7-0.1l-0.3 7.5q0 0.9-0.9 0.9l-8.5-0.1q-0.8 0-0.9-0.8l-0.5-8.1q0-0.2 0.1-0.3 0-0.2 0.1-0.3 0.2-0.1 0.3-0.2 0.1 0 0.3 0z"/>
	<path class="s0" d="m400.1 179.8l-4.3 5.9q-0.5 0.7-1.1 0.1-2.5-2.5-4.3-5.6 0-0.1 0-0.2 0 0 0-0.1 0.1-0.1 0.2-0.1 0.1 0 0.2 0.1 2 1.6 3.3 3.8 0.2 0.3 0.5 0.5 0.3 0.1 0.6 0.1 0.3 0 0.6-0.2 0.3-0.1 0.4-0.4 1.4-2.8 3.9-3.9z"/>
	<path class="s0" d="m430.1 167h-40.3c-0.2 0-0.4 0.2-0.4 0.4 0 0.2 0.2 0.4 0.4 0.4h40.3c0.2 0 0.4-0.2 0.4-0.4 0-0.2-0.2-0.4-0.4-0.4z"/>
	<path class="s3" d="m373.7 167q0.5-0.5 0.9 1.9-1.6-0.1-0.8 0.4-0.9-0.1-1.3-0.5 0.2-0.8 1.2-1.8z"/>
	<path class="s0" d="m411.3 155.3h-21.8c-0.2 0-0.4 0.2-0.4 0.4 0 0.2 0.2 0.3 0.4 0.3h21.8c0.2 0 0.4-0.1 0.4-0.3 0-0.2-0.2-0.4-0.4-0.4z"/>
	<path class="s0" d="m443.3 155.3h-26.6c-0.2 0-0.4 0.2-0.4 0.4 0 0.2 0.2 0.3 0.4 0.3h26.6c0.3 0 0.4-0.2 0.4-0.4 0-0.2-0.2-0.3-0.4-0.3z"/>
	<path class="s0" d="m424.3 142.9h-34.7c-0.3 0-0.5 0.2-0.5 0.5 0 0.3 0.2 0.5 0.5 0.5h34.7c0.3 0 0.5-0.2 0.5-0.5 0-0.3-0.2-0.5-0.5-0.5z"/>
	<path class="s0" d="m472.5 142.9l-42.5-0.1c-0.3 0-0.5 0.2-0.5 0.5v0.2c0 0.2 0.2 0.4 0.5 0.4l42.5 0.1c0.3 0 0.5-0.2 0.5-0.5v-0.2c0-0.2-0.2-0.4-0.5-0.4z"/>
	<path class="s1" d="m164.3 177.2l-30.9-10.6q-0.3-0.1-0.6 0-0.3 0-0.6 0.1-0.3 0.2-0.5 0.4-0.2 0.2-0.3 0.5l-15.3 44.2c-5.8-1.5-13.7-2.1-18.5-5.6q-8.2-6.2-18.4-8.3-0.4-0.1-0.4 0.4 0 0.1 0 0.4 0 0.1 0.1 0.1 9.9 2.3 18.1 8.3 0.1 0.1 0.2 0.2 0 0.2-0.1 0.4 0 0.1-0.2 0.2-0.1 0.1-0.3 0.1-15-1.5-30 1.6-0.5 0.1-0.4 0.7 0.2 0.5 0.7 0.4c22.9-4.4 43 0.2 65.8 7.4q0.7 0.2 0.5 0.9-10.2 33.8 0.4 67.4 0.3 1.1-0.8 1.2c-24.4 2.6-49.5 4.5-73.9 0.3-23.5-4.1-43.2-20.1-48-43.6-3.8-18.8 3.2-37.4 14.5-52.7q33.7-45.6 82.7-70.5c14.4-7.2 27.3-10.7 42.5-8.4 26.5 4.1 29.9 33.1 23.1 53.8q-0.3 0.8-1.1 0.5l-2.4-1q-0.3-0.1-0.7-0.1-0.4 0-0.7 0.1-0.4 0.2-0.6 0.5-0.3 0.2-0.4 0.6z"/>
	<path fill-rule="evenodd" class="s1" d="m227.3 155.6l4.6 9.6q0.2 0.3 0.5 0.5 0.3 0.2 0.6 0.2 5.8 0.3 11.1-2.1 0.7-0.4 0.8-1.1l0.8-11.1c7.4-0.2-0.9-25.1-2.3-29.3q-0.1-0.3-0.1-0.6 0.1-0.3 0.3-0.6 0.2-0.3 0.5-0.4 0.3-0.1 0.6-0.1l7.5 0.3q0.7 0 1.2 0.5 15.1 15.7 24.4 36.1c18.2 40 26.9 84.7 29.9 128.3q1.4 20.8 2.3 41.5 0.1 1.4-1.2 1.7-94.2 21.1-188.5 0.4c-0.4-0.1-0.7-0.3-0.9-0.6-0.3-0.3-0.4-0.7-0.4-1.1l-0.1-19.4q0.3-0.8 1.6-0.4 32.4 11.1 64.3 22.3 0.4 0.1 0.8-0.1c0.3-0.1 0.4-0.3 0.5-0.6l19.2-55.6q5.3-3.5 7.2-9.2 0.2-0.6-0.4-0.8-0.7-0.1-0.7 0.2c-3.6 13.8-35.3 17-46.7 18.8q-0.8 0.1-1.1-0.6-11-27.3-4.1-56 0.2-0.8 1.1-0.9 16.5-0.9 30.6-8.9c4.3-2.5 9.1-6.9 14.1-9.7q0.6-0.3 1.2-0.3 0.6 0.1 1.1 0.5 0.4 0.4 0.6 0.9 0.2 0.6 0 1.2l-5.1 17.3q-0.2 0.5-0.1 1.1 0.1 0.6 0.4 1.1 0.3 0.5 0.8 0.9 0.6 0.3 1.2 0.4 8.8 1.1 16.7-3 0.2-0.1 0.4-0.1 0.2-0.1 0.5 0 0.2 0.1 0.3 0.3 0.2 0.2 0.2 0.4c2.4 9.1-5 15.2-14.1 14.2q-0.9-0.1-0.5 0.7 0.2 0.5 0.8 0.6 5.4 0.2 10.3-2.3 1-0.5 0.9 0.5-1.2 13.5-14.9 11.7-0.5-0.1-0.4 0.4 0.2 0.8 0.8 0.8 5.1 0.6 10.2-1.8 1-0.5 0.8 0.6-2.7 11.6-15.1 10.6-0.4 0-0.4 0.3 0 0.2 0 0.5 0 0.2 0.3 0.2 14.8 1.5 16.2-13.1 0.1-0.8 0.7-1.5 3.4-4.3 2.6-9.9c-0.1-0.4 0-0.9 0.3-1.3q5.7-7.3 0.7-14.4l7.9-22.7c0.1-0.3 0.1-0.6-0.1-0.9-0.1-0.3-0.3-0.5-0.6-0.6l-31.5-10.9 3.4-10.2q0.6-1.7-1.1-2.3l-25.3-8.8q-0.2-0.2-0.4-0.4-0.1-0.3 0-0.5c5.1-17.4 4.2-35.2-8.1-48.6q-0.1-0.1-0.1-0.2 0-0.1 0-0.2 0.1-0.1 0.2-0.2 0 0 0.1 0l27.6 0.6q0.6 0 0.9 0.5c2.1 4.6 22.8 52.8 31.7 36.7zm5.5 115.5l23.4 18.1q0.6 0.4 1-0.1l16.8-22.5q0.5-0.5 0.4-1.3c-3.6-35.8-12.4-67.1-28.9-99q-0.4-0.7-1.1-0.5l-10.9 2.3q-0.3 0.1-0.5 0.3-0.2 0.3-0.2 0.6c5 32.7 2.7 67-1.1 99.5q-0.2 1.6 1.1 2.6z"/>
	<path class="s3" d="m164.4 177.2l-4.6 13.1q-0.3 0.9 0.5 1.2l31.5 10.9q0.3 0.1 0.7 0.1 0.4 0 0.8-0.2 0.3-0.2 0.6-0.4 0.2-0.3 0.4-0.7l4.1-12 31.5 10.9c0.3 0.1 0.5 0.3 0.6 0.6 0.2 0.3 0.2 0.6 0.1 0.9l-7.9 22.7c-3 4.1-10.6 4.9-15.4 5q-4.1 0.2-2.9-3.7c1.5-4.8 5.6-13.8 4.3-18.7q-0.2-0.8-0.9-0.9-3.5-0.5-5.5 1c-13.3 10.4-22.9 15.7-38.6 16.8q-4.6 0.3-10.1-1.3-18.7-5.6-37.5-10.7l15.3-44.2q0.1-0.3 0.3-0.5 0.2-0.2 0.5-0.4 0.3-0.1 0.6-0.1 0.3-0.1 0.6 0z"/>
	<path fill-rule="evenodd" class="s1" d="m157.9 225q0.3 0.1 0.4 0.3 0.2 0.3 0.1 0.6-7.1 28.9 3.9 56.4 0.1 0.2 0.1 0.4 0 0.3-0.1 0.5-0.1 0.2-0.3 0.3-0.2 0.1-0.4 0.2l-26 3.7q-0.3 0-0.5-0.1-0.1-0.1-0.2-0.3-10.5-33.8-0.5-67.7 0.1-0.4 0.4-0.5 0.4-0.2 0.7-0.1zm-9.6 50c0-0.9-0.3-1.7-0.9-2.3-0.6-0.6-1.4-1-2.3-1-0.9 0-1.7 0.4-2.3 1-0.6 0.6-0.9 1.4-0.9 2.3q0 0.6 0.2 1.2 0.3 0.6 0.7 1.1 0.5 0.4 1.1 0.7 0.6 0.2 1.2 0.2 0.6 0 1.2-0.2 0.6-0.3 1.1-0.7 0.4-0.5 0.7-1.1 0.2-0.6 0.2-1.2z"/>
	<path class="s0" d="m145 278.2c1.8 0 3.3-1.4 3.3-3.2 0-1.8-1.5-3.3-3.3-3.3-1.8 0-3.2 1.5-3.2 3.3 0 1.8 1.4 3.2 3.2 3.2z"/>
	<path class="s3" d="m205.3 273.9l-19.2 55.6q-0.1 0.4-0.5 0.6-0.4 0.2-0.8 0.1-31.9-11.2-64.3-22.3-1.3-0.4-1.6 0.4-0.7 0-1.4-0.4 0.2-0.4-0.3-0.9-0.2-0.3-0.7-0.5-14.2-5-28.6-9.9-0.9-0.3-0.6-1.2l1-3.7q12-0.7 24.1-1.5 39.6-2.5 78.3-11.3c5.1-1.1 9.8-3.1 14.6-5z"/>
	<path class="s1" d="m201.1 126.3c9.3 6 18.2 7.6 29.2 7.7q0.7 0 0.7 0.8-0.8 11.3-5.6 21.4-0.3 0.7-0.8 1.1-0.6 0.5-1.3 0.7-0.7 0.1-1.4 0-0.7-0.1-1.3-0.6c-8.5-6.3-15.5-21.3-19.8-30.8q-0.4-0.8 0.3-0.3z"/>
	<path class="s1" d="m245.4 150.1q-7.2-7-12.1-15.8-0.4-0.8 0.4-1.1 6-2.1 8.3-8 0-0.2 0.2-0.3 0.2-0.1 0.4-0.1 0.2 0 0.3 0.1 0.2 0.1 0.3 0.3 3.2 10.6 4.4 22 0.2 1.8-0.8 2.9-0.1 0.1-0.3 0.2-0.2 0.1-0.4 0.1-0.2 0-0.4-0.1-0.1 0-0.3-0.2z"/>
	<path class="s2" d="m245.7 151.6l-0.8 11.1q-0.1 0.7-0.8 1.1-5.2 2.4-11.1 2.1-0.3 0-0.6-0.2-0.3-0.2-0.5-0.5l-4.6-9.6q3.5-8.5 4.7-18.4 0-0.3 0.2-0.5 0.2-0.2 0.5-0.2 0.2-0.1 0.5 0.1 0.2 0.1 0.4 0.3 4.6 8.9 12.1 14.7z"/>
	<path class="s2" d="m232.8 271.1q-1.3-1-1.1-2.6c3.8-32.5 6.1-66.8 1.1-99.5q0-0.3 0.2-0.6 0.2-0.2 0.5-0.3l10.9-2.3q0.7-0.2 1.1 0.5c16.5 31.9 25.3 63.2 28.9 99q0.1 0.8-0.4 1.4l-16.8 22.4q-0.4 0.5-1 0.1z"/>
	<path class="s0" d="m182.8 74.8c5.9-1.8 12.4 0.5 15.7 5.7q0.3 0.5-0.2 0.9-0.1 0-0.2 0.1-0.2 0-0.3 0-0.1 0-0.2-0.1-0.1-0.1-0.2-0.2-5.4-7.5-14.5-5.3-0.7 0.2-0.4-0.4 0-0.3 0.1-0.5 0.1-0.2 0.2-0.2z"/>
	<path class="s0" d="m233.5 68.6c2.4 4.3 6.9 4.3 10.3 1q0.1-0.1 0.3-0.1 0.1 0 0.3 0 0.1 0.1 0.2 0.2 0.1 0.1 0.1 0.3 0.2 1.2-1 2-6.8 4.8-11.2-1.9-0.6-0.9 0-1.5 0.1-0.2 0.2-0.2 0.2-0.1 0.3-0.1 0.2 0.1 0.3 0.1 0.1 0.1 0.2 0.2z"/>
	<path class="s0" d="m219.3 61.5q-0.2-0.1-0.4-0.2-0.1-0.1-0.2-0.3 0-0.2 0.1-0.4 0-0.2 0.2-0.3l8.6-6.4q0.6-0.4 1.1 0 1.8 1.3 1.6 3.5 0 0.3-0.2 0.7-0.2 0.3-0.5 0.5-4.5 3.5-10.3 2.9z"/>
	<path class="s1" d="m215.9 14.3q0.3-0.7 1.1-0.6 0.7 0 0.4 0.7-2.5 4.2-2.6 9.1 0 0.2-0.1 0.4-0.2 0.1-0.4 0.1-0.2 0-0.3-0.1-0.2-0.1-0.2-0.4c-0.6-3.9 0.7-5.7 2.1-9.2z"/>
</svg>