<svg width="446" height="413" viewBox="0 0 446 413" fill="none" xmlns="http://www.w3.org/2000/svg">
<path d="M202.699 91.1165C202.34 91.086 202.014 91.2322 201.722 91.5551C199.462 94.0891 198.195 97.0556 197.921 100.455C197.914 100.525 197.926 100.596 197.955 100.661C197.984 100.726 198.029 100.783 198.087 100.825C198.144 100.868 198.212 100.896 198.283 100.906C198.355 100.917 198.428 100.909 198.496 100.884C198.752 100.781 198.904 100.528 198.953 100.126C199.361 96.7815 200.72 93.885 203.028 91.4363C203.969 91.4454 204.353 90.5682 205.084 90.2302C220.17 83.2494 233.053 102.465 218.927 112.854C218.525 113.146 218.382 113.536 218.497 114.023C219.679 119.067 221.047 123.925 222.6 128.597C224.903 135.541 227.881 139.379 232.55 144.87C238.736 152.134 239.824 161.747 230.449 167.138C223.968 170.866 216.807 172.699 208.967 172.638C208.596 172.638 208.425 172.824 208.456 173.196L209.379 183.594C209.08 183.801 208.803 183.914 208.547 183.932C208.37 183.512 208.09 183.265 207.706 183.192C199.995 181.766 194.22 177.161 193.251 168.938C193.226 168.734 193.257 168.527 193.342 168.339C193.427 168.152 193.562 167.992 193.732 167.876C193.902 167.761 194.101 167.695 194.307 167.685C194.512 167.676 194.716 167.724 194.896 167.823C202.072 171.715 209.613 172.757 217.52 170.948C224.108 169.44 233.336 166.672 236.013 159.636C237.393 156.009 235.465 150.334 233.464 147.84C228.119 141.179 222.975 135.176 221.047 126.587C221.03 126.498 220.982 126.419 220.913 126.362C220.844 126.305 220.756 126.274 220.666 126.274C220.575 126.274 220.486 126.305 220.414 126.362C220.342 126.419 220.291 126.498 220.27 126.587C219.667 129.127 218.068 130.492 215.473 130.68C215.396 130.686 215.323 130.716 215.264 130.766C215.205 130.816 215.164 130.883 215.146 130.957C215.129 131.032 215.136 131.109 215.167 131.178C215.198 131.246 215.251 131.303 215.318 131.338C218.132 132.928 222.006 135.45 217.812 138.785C217.709 138.864 217.614 138.898 217.529 138.886C217.438 138.873 217.349 138.834 217.264 138.767C217.221 138.732 217.187 138.689 217.162 138.639C217.138 138.59 217.125 138.536 217.125 138.481C217.124 138.426 217.135 138.372 217.157 138.322C217.18 138.272 217.213 138.227 217.255 138.191C219.475 136.281 218.863 134.6 216.524 133.193C214.715 132.109 213.326 130.668 212.357 128.871C212.251 128.674 212.193 128.455 212.189 128.231C212.184 128.008 212.233 127.786 212.332 127.585C212.43 127.384 212.575 127.209 212.754 127.075C212.933 126.942 213.142 126.852 213.362 126.815L219.841 125.755C220.34 125.676 220.523 125.393 220.389 124.906L219.027 119.908C218.993 119.781 218.918 119.67 218.814 119.591C218.71 119.511 218.583 119.469 218.452 119.469C217.27 119.469 215.363 119.472 212.732 119.478C209.379 119.487 210.74 116.39 212.239 115.083C212.616 114.748 212.558 114.629 212.065 114.727C208.483 115.415 205.005 116.451 201.63 117.834C200.71 118.211 200.747 118.388 201.74 118.364C203.257 118.327 204.338 118.921 204.984 120.145C205.111 120.392 205.155 120.673 205.107 120.946C205.059 121.219 204.923 121.467 204.719 121.653L195.125 130.425C194.925 130.606 194.681 130.731 194.418 130.788C194.155 130.844 193.881 130.83 193.625 130.747C193.368 130.663 193.139 130.513 192.959 130.312C192.78 130.111 192.657 129.866 192.603 129.602C192.195 127.574 192.463 125.649 193.407 123.828C193.51 123.627 193.453 123.556 193.233 123.617C193.111 123.654 193.002 123.742 192.904 123.882C189.371 129.084 186.788 134.719 185.156 140.786C184.215 144.277 182.333 146.652 178.678 143.938C174.456 140.804 167.211 135.066 161.308 136.099C154.382 137.323 150.078 145.967 154.062 152.308C158.722 159.727 169.495 163.465 177.618 160.422C177.849 160.337 177.977 160.419 178.002 160.669C178.032 161.004 177.886 161.214 177.563 161.299C176.113 161.683 174.91 162.048 173.954 162.396C173.796 162.455 173.654 162.551 173.541 162.677C173.428 162.803 173.347 162.954 173.305 163.117C170.838 173.071 167.399 182.674 162.989 191.927C162.867 192.189 162.889 192.442 163.053 192.685C172.583 206.245 188.948 217.474 206.062 217.694C206.372 217.7 206.65 217.611 206.893 217.429C209.452 215.571 211.145 213.037 211.974 209.827L213.372 210.283C213.262 210.314 213.167 210.338 213.088 210.357C212.887 210.405 212.759 210.53 212.705 210.731C211.882 213.771 209.945 216.287 206.893 218.278L204.17 233.099L199.501 243.095C199.373 243.369 199.383 243.64 199.529 243.908C206.552 256.95 212.869 270.409 218.479 284.285C222.579 294.909 226.599 307.128 230.54 320.944C232.666 328.381 234.18 334.966 235.081 340.698C232.889 333.114 230.772 325.637 228.731 318.266C218.169 280.174 201.594 244.676 178.312 212.367C173.269 205.377 167.43 199.474 162.24 193.325C161.747 193.41 161.515 193.237 161.546 192.804C166.23 183.387 169.827 173.546 172.337 163.282C172.416 162.953 172.288 162.77 171.953 162.734C163.41 161.765 153.249 157.964 151.833 148.242C150.782 141.115 156.456 134.719 163.766 135.24C163.887 135.247 164.008 135.228 164.12 135.184C164.233 135.14 164.334 135.072 164.417 134.985C164.5 134.898 164.562 134.793 164.6 134.679C164.637 134.566 164.649 134.445 164.634 134.326C163.921 128.57 162.051 123.237 159.024 118.327C155.67 112.899 153.898 109.08 156.456 103.424C160.056 95.4749 168.7 91.2718 176.859 95.2556C176.985 95.3182 177.129 95.336 177.265 95.3061C177.402 95.2761 177.523 95.2002 177.609 95.0911C177.773 94.8901 177.831 94.6556 177.782 94.3876C177.721 94.0586 177.746 93.7358 177.855 93.419C181.912 82.089 196.431 81.0473 202.699 91.1165ZM205.669 218.744C194.625 217.861 184.727 214.066 175.973 207.36C175.949 207.335 175.916 207.322 175.882 207.322C175.847 207.322 175.815 207.335 175.79 207.36C175.766 207.384 175.753 207.417 175.753 207.451C175.753 207.485 175.766 207.518 175.79 207.542C184.19 218.482 191.719 230.001 198.377 242.099C198.416 242.17 198.473 242.23 198.543 242.271C198.613 242.312 198.693 242.334 198.775 242.334C198.857 242.334 198.937 242.312 199.009 242.271C199.08 242.23 199.14 242.17 199.182 242.099C203.226 234.905 205.431 227.169 205.797 218.891C205.797 218.853 205.784 218.818 205.76 218.79C205.736 218.763 205.704 218.747 205.669 218.744Z" fill="#102348"/>
<path d="M202.698 91.1151C202.747 91.1151 202.857 91.2217 203.027 91.4349C200.719 93.8837 199.36 96.7802 198.952 100.124C198.904 100.526 198.751 100.779 198.495 100.883C198.427 100.908 198.354 100.915 198.283 100.905C198.211 100.895 198.143 100.867 198.086 100.824C198.028 100.781 197.983 100.725 197.954 100.66C197.925 100.595 197.913 100.524 197.92 100.453C198.194 97.0543 199.461 94.0878 201.721 91.5537C202.013 91.2309 202.339 91.0847 202.698 91.1151Z" fill="white"/>
<path d="M208.547 183.931C209.534 191.192 210.679 198.428 211.982 205.641C212.128 206.475 212.125 207.87 211.973 209.826C211.145 213.036 209.451 215.57 206.893 217.428C206.649 217.61 206.372 217.699 206.061 217.693C188.947 217.473 172.583 206.244 163.053 192.684C162.888 192.441 162.867 192.188 162.989 191.926C167.399 182.673 170.838 173.07 173.305 163.116C173.347 162.953 173.428 162.802 173.541 162.676C173.654 162.55 173.795 162.454 173.953 162.395C174.91 162.047 176.113 161.682 177.563 161.298C177.885 161.213 178.032 161.003 178.001 160.668C177.977 160.418 177.849 160.336 177.617 160.421C169.494 163.464 158.722 159.726 154.062 152.307C150.078 145.966 154.382 137.322 161.308 136.098C167.21 135.065 174.456 140.803 178.677 143.937C182.332 146.651 184.214 144.276 185.156 140.785C186.788 134.718 189.371 129.083 192.904 123.881C193.001 123.741 193.111 123.653 193.233 123.616C193.452 123.555 193.51 123.626 193.406 123.827C192.462 125.648 192.194 127.573 192.602 129.601C192.656 129.865 192.779 130.11 192.959 130.311C193.138 130.512 193.368 130.662 193.624 130.746C193.88 130.829 194.154 130.843 194.418 130.787C194.681 130.73 194.925 130.605 195.124 130.424L204.718 121.652C204.922 121.466 205.059 121.218 205.107 120.945C205.154 120.672 205.111 120.391 204.983 120.144C204.338 118.92 203.256 118.326 201.74 118.363C200.747 118.387 200.71 118.21 201.63 117.833C205.005 116.45 208.483 115.414 212.065 114.726C212.558 114.628 212.616 114.747 212.238 115.082C210.74 116.389 209.378 119.486 212.732 119.477C215.363 119.471 217.27 119.468 218.451 119.468C218.582 119.468 218.71 119.51 218.814 119.59C218.918 119.669 218.993 119.78 219.027 119.907L220.388 124.905C220.522 125.392 220.34 125.675 219.84 125.755L213.362 126.814C213.141 126.852 212.933 126.941 212.753 127.075C212.574 127.208 212.429 127.383 212.331 127.584C212.233 127.785 212.184 128.007 212.188 128.23C212.193 128.454 212.251 128.673 212.357 128.87C213.325 130.667 214.714 132.108 216.523 133.192C218.863 134.599 219.475 136.281 217.254 138.19C217.213 138.226 217.18 138.271 217.157 138.321C217.134 138.371 217.123 138.425 217.124 138.48C217.125 138.535 217.138 138.589 217.162 138.639C217.186 138.688 217.221 138.731 217.264 138.766C217.349 138.833 217.437 138.872 217.529 138.885C217.614 138.897 217.708 138.863 217.812 138.784C222.006 135.449 218.132 132.927 215.317 131.337C215.25 131.302 215.198 131.245 215.167 131.177C215.136 131.108 215.129 131.031 215.146 130.956C215.164 130.882 215.205 130.815 215.264 130.765C215.323 130.715 215.396 130.685 215.473 130.679C218.068 130.491 219.667 129.126 220.27 126.586C220.291 126.497 220.342 126.418 220.414 126.361C220.486 126.304 220.574 126.273 220.665 126.273C220.756 126.273 220.843 126.304 220.913 126.361C220.982 126.418 221.029 126.497 221.046 126.586C222.974 135.175 228.119 141.178 233.464 147.839C235.465 150.333 237.393 156.008 236.013 159.635C233.336 166.671 224.107 169.439 217.519 170.947C209.613 172.756 202.071 171.714 194.896 167.822C194.716 167.723 194.512 167.675 194.306 167.684C194.101 167.694 193.902 167.76 193.732 167.875C193.561 167.991 193.426 168.151 193.342 168.338C193.257 168.526 193.225 168.733 193.251 168.937C194.22 177.16 199.994 181.765 207.706 183.191C208.09 183.264 208.37 183.511 208.547 183.931ZM196.97 135.275C200.186 136.049 203.159 135.86 205.888 134.709C208.455 133.631 209.524 131.438 207.295 129.227C207.141 129.074 206.94 128.976 206.724 128.948C206.508 128.92 206.288 128.963 206.098 129.071L196.842 134.362C196.754 134.41 196.683 134.484 196.638 134.573C196.593 134.663 196.577 134.764 196.591 134.863C196.605 134.962 196.648 135.054 196.716 135.128C196.784 135.202 196.872 135.253 196.97 135.275ZM219.913 146.925C216.332 150.142 211.461 149.036 209.534 144.632C209.509 144.575 209.473 144.524 209.428 144.482C209.383 144.441 209.329 144.409 209.272 144.389C209.214 144.369 209.153 144.362 209.092 144.367C209.032 144.373 208.974 144.392 208.921 144.422C208.647 144.58 208.55 144.775 208.629 145.007C210.182 149.392 213.103 151.01 217.391 149.858C218.543 149.548 220.187 148.506 220.681 147.538C220.815 147.282 220.794 147.078 220.617 146.925C220.385 146.718 220.151 146.718 219.913 146.925ZM174.09 152.17C171.87 146.825 166.123 143.846 160.531 144.961C160.421 144.985 160.339 145.028 160.284 145.089C160.211 145.174 160.171 145.265 160.165 145.363C160.147 145.582 160.248 145.68 160.467 145.655C166.363 145.058 170.694 147.324 173.46 152.453C173.527 152.581 173.624 152.612 173.752 152.545L174.008 152.398C174.106 152.35 174.133 152.274 174.09 152.17Z" fill="white"/>
<path d="M196.97 135.277C196.872 135.254 196.784 135.203 196.716 135.129C196.648 135.056 196.605 134.963 196.591 134.864C196.577 134.765 196.593 134.664 196.638 134.574C196.683 134.485 196.754 134.411 196.842 134.363L206.098 129.072C206.288 128.965 206.508 128.921 206.724 128.949C206.94 128.978 207.141 129.075 207.295 129.228C209.524 131.439 208.455 133.632 205.888 134.71C203.159 135.861 200.186 136.05 196.97 135.277Z" fill="#102348"/>
<path d="M209.537 144.632C211.465 149.036 216.335 150.142 219.916 146.925C220.154 146.718 220.389 146.718 220.62 146.925C220.797 147.078 220.818 147.282 220.684 147.538C220.191 148.506 218.546 149.548 217.395 149.858C213.106 151.01 210.185 149.392 208.632 145.007C208.553 144.775 208.65 144.58 208.924 144.422C208.977 144.392 209.035 144.373 209.096 144.367C209.156 144.362 209.217 144.369 209.275 144.389C209.333 144.409 209.386 144.441 209.431 144.482C209.476 144.524 209.512 144.575 209.537 144.632Z" fill="#102348"/>
<path d="M160.528 144.962C166.12 143.847 171.867 146.826 174.087 152.171C174.13 152.275 174.103 152.351 174.005 152.4L173.749 152.546C173.621 152.613 173.524 152.582 173.457 152.454C170.691 147.325 166.36 145.059 160.464 145.656C160.244 145.681 160.144 145.583 160.162 145.364C160.168 145.266 160.208 145.175 160.281 145.09C160.336 145.029 160.418 144.986 160.528 144.962Z" fill="#102348"/>
<path d="M391.127 243.806V252.012C388.751 281.031 383.214 312.856 373.044 340.606C369.079 351.43 363.931 360.887 357.602 368.976C343.906 386.492 323.457 392.998 301.665 394.113C291.02 394.661 283.125 393.099 275.459 386.365C275.273 386.2 275.046 386.088 274.803 386.038C274.559 385.988 274.307 386.003 274.07 386.081C232.085 399.951 187.203 411.181 143.464 412.999H135.715C110.159 412.616 80.3625 404.904 65.944 381.933C58.15 369.516 55.153 354.046 54.8789 339.372V332.775C56.2495 285.865 76.735 243.423 110.798 212.146C122.476 201.419 141.728 188.234 157.517 199.738C157.766 199.914 157.958 199.869 158.092 199.601L161.546 192.803C161.516 193.235 161.747 193.409 162.241 193.324L158.732 200.277C158.586 200.557 158.595 200.834 158.759 201.108C162.865 207.858 165.335 214.909 166.17 222.261C167.991 238.312 167.513 254.856 164.735 271.894C164.467 272.016 164.153 272.077 163.794 272.077C167.303 251.363 168.344 228.401 161.564 208.281C159.512 202.177 155.546 198.456 149.668 197.115C136.556 194.118 125.171 201.209 115.678 209.314C76.799 242.527 54.7327 289.456 56.0211 340.989C56.3683 354.622 58.9358 367.734 65.6334 379.484C75.3096 396.461 95.4205 406.859 114.289 409.929C150.234 415.777 188.583 408.394 223.715 399.641C223.771 399.627 223.823 399.598 223.864 399.558C223.906 399.518 223.936 399.467 223.951 399.412C223.967 399.356 223.968 399.297 223.954 399.241C223.94 399.185 223.911 399.134 223.871 399.093C209.251 384.117 204.984 361.246 206.309 341.072C206.327 340.761 206.184 340.593 205.88 340.569L172.301 337.883C172.02 337.45 172.02 337.176 172.301 337.06C193.121 339.095 213.978 340.426 234.872 341.053L240.455 341.227C240.808 341.233 240.994 341.062 241.012 340.715C242.858 305.236 235.95 269.18 223.789 235.492L223.533 234.651L218.928 222.773L213.372 210.282L211.974 209.825C212.127 207.87 212.13 206.475 211.983 205.64C210.68 198.428 209.535 191.192 208.548 183.931C208.804 183.912 209.081 183.8 209.379 183.592L212.961 206.225C213.008 206.508 213.158 206.762 213.381 206.938L217.027 209.734C217.283 209.935 217.566 209.984 217.877 209.88C224.644 207.638 231.482 208.016 238.39 211.013C274.628 226.711 297.443 269.619 305.173 306.707C305.189 306.783 305.225 306.854 305.278 306.912C305.33 306.969 305.397 307.012 305.472 307.035C305.546 307.059 305.626 307.062 305.702 307.044C305.778 307.026 305.848 306.989 305.904 306.935C322.059 291.283 333.334 270.715 340.753 250.166C344.262 240.435 347.067 228.008 349.9 216.87C350.035 216.336 350.044 215.777 349.927 215.238C349.809 214.7 349.567 214.196 349.221 213.768C348.875 213.339 348.435 212.998 347.934 212.77C347.433 212.543 346.886 212.435 346.336 212.457C339.931 212.694 333.572 213.855 337.638 204.434C337.778 204.112 337.714 203.837 337.446 203.612C334.711 201.322 334.181 198.538 335.856 195.261C336.002 194.968 335.966 194.7 335.746 194.457C334.37 192.97 333.919 191.246 334.394 189.285C334.714 187.96 336.313 186.379 336.413 185.329C336.681 182.709 337.388 180.836 338.533 179.709C349.452 168.982 363.203 172.939 372.222 183.382C385.315 198.532 390.505 224.39 391.127 243.806ZM360.179 184.378C357.502 183.73 355.108 182.98 352.778 182.898C348.219 182.724 330.054 184.725 336.267 193.689C336.456 193.963 336.706 194.033 337.016 193.899C345.088 190.324 353.214 190.199 361.394 193.525C361.436 193.542 361.472 193.568 361.502 193.602C361.531 193.636 361.552 193.676 361.564 193.719C361.575 193.762 361.577 193.808 361.568 193.852C361.559 193.896 361.54 193.937 361.513 193.972C361.446 194.064 361.358 194.128 361.248 194.164C361.108 194.213 360.916 194.189 360.673 194.091C352.875 191.033 345.176 191.185 337.574 194.548C337.283 194.678 337.043 194.896 336.888 195.169C335.073 198.276 335.493 200.932 338.149 203.137C338.268 203.236 338.412 203.301 338.567 203.326C338.721 203.35 338.88 203.332 339.027 203.274C346.087 200.515 352.845 201.038 359.302 204.846C359.393 204.9 359.424 204.98 359.393 205.083C359.363 205.162 359.335 205.241 359.311 205.321C359.214 205.558 359.055 205.613 358.836 205.485C352.592 201.855 346.077 201.37 339.292 204.032C338.987 204.148 338.746 204.346 338.57 204.626C332.101 215.079 346.044 210.072 348.922 212.347C350.579 213.657 351.115 215.524 350.53 217.948C348.008 228.365 345.298 238.616 342.398 248.704C342.32 248.977 342.332 249.269 342.435 249.535C342.537 249.8 342.723 250.025 342.965 250.175C356.902 258.825 372.121 262.413 388.623 260.939C389.153 260.89 389.445 260.601 389.5 260.071C391.858 237.155 388.203 212.32 376.946 192.044C370.769 180.924 357.593 168.361 343.897 176.694C340.351 178.841 338.04 180.623 337.4 184.662C337.339 185.076 337.498 185.201 337.875 185.036C345.039 181.984 353.226 180.733 360.371 183.812C360.437 183.844 360.489 183.899 360.517 183.967C360.545 184.034 360.548 184.11 360.524 184.179C360.501 184.249 360.453 184.307 360.389 184.344C360.326 184.381 360.251 184.393 360.179 184.378ZM217.118 211.242C216.04 210.182 215.117 209.402 214.35 208.902C214.287 208.862 214.212 208.843 214.137 208.848C214.062 208.854 213.991 208.883 213.934 208.933C213.877 208.982 213.838 209.049 213.822 209.123C213.807 209.196 213.816 209.273 213.847 209.341C232.706 249.7 243.817 295.779 241.953 340.606C241.941 340.947 242.106 341.111 242.447 341.099L264.577 340.414C264.936 340.402 265.113 340.216 265.107 339.856C264.495 293.193 251.41 244.848 217.118 211.242ZM290.015 320.824C289.832 320.641 289.866 320.446 290.115 320.239C294.861 316.218 299.551 312.177 304.187 308.114C304.418 307.907 304.503 307.651 304.442 307.346C296.941 271.364 273.915 227.067 238.426 211.817C232.713 209.362 226.569 208.747 219.997 209.971C218.535 210.246 218.318 210.919 219.348 211.991C252.297 246.091 265.591 293.147 265.874 339.829C265.874 339.881 265.885 339.933 265.906 339.981C265.927 340.03 265.957 340.073 265.995 340.11C266.034 340.147 266.079 340.175 266.129 340.195C266.179 340.214 266.232 340.223 266.286 340.222C282.976 339.795 299.46 337.925 315.736 334.612C318.745 334.002 321.422 333.744 323.767 333.835C323.936 333.84 324.1 333.888 324.246 333.972C324.391 334.057 324.512 334.176 324.599 334.319C327.185 338.422 314.877 344.772 312.328 346.07C312.201 346.136 312.102 346.244 312.047 346.376C311.992 346.508 311.984 346.655 312.026 346.791C313.086 350.184 312.501 353.194 310.272 355.819C310.083 356.044 310.05 356.288 310.171 356.55C311.499 359.431 311.113 362.014 309.011 364.298C308.828 364.499 308.752 364.731 308.783 364.993C309.453 370.865 307.184 374.675 301.975 376.423C293.478 379.28 284.959 382.222 276.419 385.25C276.132 385.347 276.102 385.496 276.327 385.697C282.096 390.869 288.458 393.428 295.415 393.373C313.771 393.227 332.311 389.882 347.104 378.214C371.509 358.962 380.665 318.174 385.443 289.246C385.458 289.153 385.453 289.059 385.427 288.969C385.4 288.879 385.355 288.796 385.293 288.726C385.23 288.656 385.154 288.601 385.067 288.564C384.981 288.528 384.888 288.511 384.795 288.515C365.332 289.404 347.75 284.278 332.046 273.137C331.99 273.098 331.927 273.072 331.86 273.059C331.793 273.047 331.725 273.049 331.659 273.066C331.593 273.082 331.532 273.113 331.479 273.155C331.426 273.197 331.382 273.25 331.351 273.31C326.198 283.599 319.848 292.98 312.3 301.453C306.288 308.196 297.928 314.546 290.572 320.851C290.493 320.917 290.391 320.951 290.288 320.946C290.185 320.941 290.087 320.897 290.015 320.824ZM341.667 250.595C339.005 257.771 335.92 264.764 332.411 271.574C332.317 271.759 332.292 271.972 332.343 272.174C332.393 272.376 332.515 272.552 332.685 272.671C348.444 283.641 366.009 288.649 385.379 287.692C385.493 287.687 385.6 287.643 385.684 287.568C385.767 287.493 385.821 287.391 385.836 287.281L389.345 262.483C389.359 262.389 389.352 262.293 389.324 262.203C389.296 262.112 389.247 262.029 389.182 261.961C389.116 261.892 389.036 261.839 388.947 261.806C388.858 261.773 388.763 261.761 388.669 261.77C372.551 263.296 355.656 259.787 342.17 250.44C342.127 250.411 342.079 250.392 342.028 250.385C341.977 250.377 341.926 250.381 341.877 250.396C341.829 250.411 341.785 250.437 341.748 250.471C341.712 250.506 341.684 250.548 341.667 250.595ZM286.68 350.684C300.998 349.039 313.333 347.175 324.087 336.905C324.276 336.725 324.406 336.493 324.462 336.238C324.518 335.984 324.498 335.718 324.403 335.475C324.308 335.233 324.143 335.023 323.929 334.875C323.715 334.726 323.462 334.644 323.201 334.639C317.225 334.511 310.208 336.421 304.324 337.609C296.971 339.083 286.253 340.167 272.17 340.861C258.891 341.519 245.617 341.839 232.35 341.821C232.046 341.815 231.89 341.964 231.884 342.269C231.528 359.364 235.402 382.618 252.498 391.481C252.775 391.617 253.09 391.646 253.384 391.564C269.657 386.995 285.519 381.12 301.455 375.528C306.047 373.92 308.307 370.734 308.234 365.97C308.233 365.888 308.211 365.808 308.17 365.737C308.129 365.666 308.07 365.607 307.999 365.566C307.928 365.524 307.848 365.502 307.766 365.501C307.684 365.5 307.603 365.52 307.531 365.559C301.153 369.092 294.303 370.971 286.981 371.197C286.707 371.209 286.555 371.075 286.524 370.795C286.494 370.49 286.637 370.332 286.954 370.32C293.003 370.018 313.726 367.167 309.44 356.998C309.312 356.687 309.093 356.596 308.783 356.724C301.57 359.654 294.056 360.981 286.241 360.707C286.192 360.704 286.144 360.686 286.105 360.655C286.066 360.624 286.038 360.582 286.023 360.535C286.008 360.487 286.008 360.437 286.022 360.389C286.037 360.342 286.065 360.3 286.104 360.269L286.506 359.976C286.768 359.781 287.06 359.693 287.383 359.711C294.571 360.065 301.448 358.843 308.015 356.047C311.652 354.503 312.282 350.529 311.286 347.102C311.207 346.828 311.03 346.734 310.756 346.819C302.996 349.158 295.071 350.65 286.981 351.296C286.935 351.299 286.888 351.292 286.844 351.276C286.8 351.261 286.76 351.236 286.725 351.205C286.671 351.144 286.616 351.086 286.561 351.031C286.533 351.005 286.512 350.971 286.503 350.933C286.494 350.895 286.495 350.856 286.508 350.819C286.52 350.782 286.543 350.75 286.574 350.726C286.604 350.702 286.641 350.687 286.68 350.684ZM225.863 399.166L250.789 392.413C251.496 392.218 251.532 391.941 250.899 391.582C234.543 382.326 230.523 359.127 231.044 342.323C231.046 342.191 230.998 342.062 230.909 341.965C230.821 341.868 230.699 341.81 230.568 341.803L207.652 340.724C207.329 340.706 207.159 340.855 207.141 341.172C205.962 359.922 210.156 385.222 224.922 398.937C225.19 399.187 225.503 399.263 225.863 399.166Z" fill="#102348"/>
<path d="M360.373 183.812C353.228 180.733 345.041 181.984 337.877 185.036C337.5 185.201 337.341 185.076 337.402 184.662C338.042 180.623 340.354 178.841 343.899 176.694C357.596 168.361 370.771 180.924 376.948 192.044C388.205 212.32 391.86 237.155 389.502 260.071C389.448 260.601 389.155 260.89 388.625 260.939C372.124 262.413 356.904 258.825 342.967 250.175C342.725 250.025 342.539 249.8 342.437 249.535C342.335 249.269 342.322 248.977 342.4 248.704C345.3 238.617 348.011 228.365 350.532 217.948C351.117 215.524 350.581 213.657 348.924 212.347C346.046 210.072 332.103 215.079 338.572 204.626C338.749 204.346 338.989 204.148 339.294 204.032C346.08 201.37 352.594 201.855 358.838 205.485C359.057 205.613 359.216 205.558 359.313 205.321C359.338 205.242 359.365 205.162 359.396 205.083C359.426 204.98 359.396 204.9 359.304 204.846C352.847 201.038 346.089 200.515 339.029 203.274C338.882 203.332 338.723 203.35 338.569 203.326C338.414 203.302 338.27 203.236 338.152 203.137C335.496 200.932 335.075 198.276 336.891 195.169C337.045 194.896 337.285 194.678 337.576 194.548C345.178 191.186 352.878 191.033 360.675 194.091C360.918 194.189 361.11 194.213 361.25 194.164C361.36 194.128 361.448 194.064 361.515 193.972C361.543 193.937 361.561 193.896 361.57 193.852C361.579 193.808 361.578 193.763 361.566 193.719C361.555 193.676 361.533 193.636 361.504 193.602C361.475 193.568 361.438 193.542 361.397 193.525C353.216 190.199 345.09 190.324 337.019 193.899C336.708 194.033 336.458 193.963 336.269 193.689C330.056 184.726 348.221 182.724 352.78 182.898C355.11 182.98 357.504 183.73 360.181 184.378C360.253 184.393 360.328 184.381 360.391 184.344C360.455 184.307 360.503 184.249 360.526 184.179C360.55 184.11 360.547 184.034 360.519 183.967C360.491 183.899 360.439 183.844 360.373 183.812Z" fill="white"/>
<path d="M162.242 193.324C167.432 199.474 173.27 205.376 178.314 212.366C201.595 244.675 218.17 280.173 228.733 318.266C230.774 325.637 232.89 333.114 235.083 340.698C234.925 340.46 234.855 340.579 234.873 341.054C213.979 340.427 193.122 339.096 172.302 337.061C164.639 336.08 156.957 335.569 149.258 335.526C148.911 335.526 148.795 335.362 148.911 335.033C156.044 314.377 161.319 293.331 164.736 271.895C167.514 254.857 167.992 238.313 166.171 222.262C165.336 214.909 162.866 207.859 158.76 201.109C158.596 200.835 158.587 200.558 158.733 200.278L162.242 193.324Z" fill="white"/>
<path d="M163.791 272.078C160.374 293.55 155.044 314.596 147.801 335.215C147.698 335.508 147.49 335.672 147.18 335.709C139.84 336.568 132.786 338.471 126.018 341.42C125.787 341.517 125.653 341.605 125.616 341.685C125.581 341.752 125.567 341.829 125.578 341.904C125.588 341.98 125.622 342.05 125.674 342.106C125.726 342.161 125.795 342.199 125.87 342.213C125.944 342.228 126.022 342.219 126.091 342.187C141.725 335.298 155.668 336.248 172.298 337.883L205.877 340.57C206.182 340.594 206.325 340.762 206.306 341.072C204.982 361.247 209.249 384.118 223.868 399.093C223.908 399.135 223.937 399.186 223.951 399.242C223.965 399.298 223.964 399.357 223.949 399.412C223.933 399.468 223.903 399.518 223.861 399.559C223.82 399.599 223.769 399.627 223.713 399.642C188.58 408.395 150.232 415.778 114.286 409.93C95.4178 406.86 75.3068 396.462 65.6306 379.485C58.933 367.735 56.3655 354.623 56.0183 340.99C54.7299 289.457 76.7962 242.528 115.675 209.314C125.168 201.21 136.553 194.119 149.665 197.116C155.543 198.456 159.509 202.178 161.562 208.282C168.341 228.402 167.3 251.364 163.791 272.078Z" fill="white"/>
<path d="M205.67 218.744C205.705 218.746 205.738 218.763 205.762 218.79C205.785 218.817 205.798 218.853 205.798 218.89C205.433 227.168 203.228 234.904 199.183 242.098C199.141 242.17 199.082 242.229 199.01 242.27C198.939 242.312 198.858 242.333 198.776 242.333C198.694 242.333 198.614 242.312 198.545 242.27C198.475 242.229 198.418 242.17 198.379 242.098C191.721 230.001 184.192 218.482 175.792 207.542C175.768 207.517 175.754 207.485 175.754 207.45C175.754 207.416 175.768 207.383 175.792 207.359C175.816 207.335 175.849 207.321 175.883 207.321C175.917 207.321 175.95 207.335 175.974 207.359C184.728 214.066 194.627 217.861 205.67 218.744Z" fill="white"/>
<path d="M217.12 211.243C251.412 244.849 264.496 293.194 265.108 339.858C265.114 340.217 264.938 340.403 264.578 340.415L242.448 341.1C242.107 341.113 241.943 340.948 241.955 340.607C243.819 295.78 232.708 249.701 213.849 209.342C213.817 209.274 213.808 209.197 213.824 209.124C213.84 209.05 213.879 208.984 213.935 208.934C213.992 208.885 214.063 208.855 214.138 208.85C214.213 208.844 214.288 208.863 214.351 208.904C215.119 209.403 216.042 210.183 217.12 211.243Z" fill="white"/>
<path d="M290.012 320.824C290.084 320.898 290.182 320.942 290.285 320.947C290.389 320.952 290.49 320.918 290.569 320.852C297.925 314.547 306.285 308.197 312.298 301.453C319.845 292.98 326.195 283.599 331.348 273.311C331.379 273.25 331.423 273.197 331.476 273.155C331.529 273.113 331.59 273.083 331.656 273.066C331.722 273.05 331.791 273.048 331.857 273.06C331.924 273.072 331.987 273.099 332.043 273.137C347.747 284.279 365.33 289.404 384.792 288.515C384.885 288.511 384.978 288.528 385.065 288.565C385.151 288.601 385.228 288.657 385.29 288.727C385.352 288.797 385.398 288.879 385.424 288.969C385.45 289.059 385.456 289.154 385.441 289.246C380.662 318.174 371.506 358.963 347.101 378.215C332.308 389.883 313.769 393.227 295.412 393.373C288.456 393.428 282.093 390.87 276.324 385.698C276.099 385.497 276.13 385.348 276.416 385.25C284.956 382.223 293.475 379.281 301.972 376.424C307.181 374.676 309.45 370.865 308.78 364.993C308.749 364.731 308.825 364.5 309.008 364.299C311.11 362.014 311.496 359.432 310.169 356.55C310.047 356.289 310.08 356.045 310.269 355.819C312.499 353.194 313.083 350.185 312.023 346.792C311.982 346.655 311.989 346.508 312.044 346.377C312.099 346.245 312.198 346.136 312.325 346.07C314.874 344.773 327.182 338.422 324.596 334.32C324.509 334.177 324.388 334.057 324.243 333.973C324.098 333.888 323.933 333.841 323.765 333.835C321.419 333.744 318.742 334.003 315.733 334.612C299.457 337.926 282.973 339.796 266.283 340.222C266.229 340.224 266.176 340.214 266.126 340.195C266.076 340.176 266.031 340.147 265.992 340.111C265.954 340.074 265.924 340.03 265.903 339.982C265.882 339.934 265.872 339.882 265.872 339.829C265.588 293.148 252.294 246.091 219.345 211.991C218.316 210.919 218.532 210.246 219.994 209.972C226.567 208.748 232.71 209.363 238.424 211.818C273.912 227.068 296.938 271.365 304.44 307.347C304.5 307.651 304.415 307.907 304.184 308.114C299.548 312.177 294.858 316.219 290.112 320.239C289.863 320.446 289.829 320.641 290.012 320.824Z" fill="white"/>
<path d="M213.373 210.283L218.928 222.774C215.675 220.228 211.664 218.729 206.895 218.278C209.946 216.287 211.883 213.771 212.706 210.731C212.761 210.53 212.889 210.405 213.09 210.357C213.169 210.338 213.263 210.314 213.373 210.283Z" fill="white"/>
<path d="M206.895 218.278C211.664 218.729 215.676 220.228 218.928 222.774L223.534 234.652C220.071 236.626 209.828 240.911 206.484 237.768C205.418 236.763 204.647 235.207 204.172 233.099L206.895 218.278Z" fill="#D9C6F4"/>
<path d="M204.173 233.098C204.648 235.205 205.418 236.762 206.484 237.767C209.829 240.91 220.071 236.625 223.534 234.651L223.79 235.492C219.873 237.873 215.728 239.262 211.355 239.658C211.275 239.666 211.199 239.691 211.13 239.732C211.062 239.772 211.002 239.827 210.956 239.893C210.911 239.959 210.879 240.034 210.864 240.113C210.849 240.192 210.851 240.274 210.87 240.353C214.355 254.832 216.892 269.476 218.482 284.284C212.871 270.408 206.554 256.949 199.531 243.907C199.385 243.639 199.376 243.368 199.504 243.094L204.173 233.098Z" fill="white"/>
<path d="M223.791 235.493C235.953 269.182 242.861 305.237 241.015 340.716C240.997 341.064 240.811 341.234 240.457 341.228L234.875 341.055C234.856 340.579 234.926 340.461 235.085 340.698C234.183 334.966 232.67 328.381 230.544 320.944C226.602 307.128 222.582 294.909 218.483 284.285C216.893 269.477 214.356 254.833 210.871 240.354C210.852 240.275 210.85 240.193 210.865 240.114C210.88 240.035 210.912 239.96 210.957 239.894C211.003 239.828 211.063 239.773 211.131 239.733C211.2 239.692 211.276 239.667 211.356 239.659C215.729 239.263 219.874 237.875 223.791 235.493Z" fill="#D9C6F4"/>
<path d="M341.671 250.596C341.688 250.549 341.715 250.507 341.752 250.472C341.788 250.437 341.832 250.412 341.881 250.397C341.929 250.382 341.981 250.378 342.031 250.386C342.082 250.393 342.131 250.412 342.173 250.441C355.66 259.788 372.554 263.297 388.672 261.771C388.767 261.761 388.862 261.774 388.951 261.807C389.04 261.84 389.12 261.893 389.185 261.961C389.25 262.03 389.299 262.113 389.327 262.204C389.356 262.294 389.363 262.39 389.348 262.484L385.84 287.282C385.825 287.392 385.771 287.494 385.687 287.569C385.604 287.644 385.496 287.688 385.383 287.693C366.012 288.649 348.447 283.642 332.689 272.671C332.518 272.553 332.396 272.376 332.346 272.175C332.296 271.973 332.32 271.76 332.415 271.575C335.923 264.765 339.009 257.772 341.671 250.596ZM344.668 264.813C344.668 264.271 344.452 263.75 344.068 263.366C343.684 262.982 343.164 262.767 342.621 262.767C342.078 262.767 341.557 262.982 341.174 263.366C340.79 263.75 340.574 264.271 340.574 264.813C340.574 265.082 340.627 265.348 340.73 265.597C340.833 265.845 340.984 266.071 341.174 266.261C341.364 266.451 341.589 266.602 341.838 266.704C342.086 266.807 342.352 266.86 342.621 266.86C342.89 266.86 343.156 266.807 343.404 266.704C343.652 266.602 343.878 266.451 344.068 266.261C344.258 266.071 344.409 265.845 344.512 265.597C344.615 265.348 344.668 265.082 344.668 264.813Z" fill="white"/>
<path d="M342.621 266.86C343.751 266.86 344.668 265.944 344.668 264.814C344.668 263.683 343.751 262.767 342.621 262.767C341.491 262.767 340.574 263.683 340.574 264.814C340.574 265.944 341.491 266.86 342.621 266.86Z" fill="#102348"/>
<path d="M164.736 271.895C161.319 293.331 156.044 314.377 148.911 335.033C148.795 335.362 148.911 335.526 149.258 335.526C156.957 335.569 164.639 336.081 172.302 337.061C172.022 337.177 172.022 337.451 172.302 337.884C155.672 336.248 141.729 335.298 126.095 342.187C126.026 342.219 125.948 342.228 125.874 342.213C125.799 342.199 125.73 342.161 125.678 342.106C125.626 342.051 125.592 341.98 125.582 341.905C125.571 341.829 125.585 341.752 125.62 341.685C125.657 341.606 125.791 341.517 126.022 341.42C132.79 338.472 139.844 336.568 147.184 335.709C147.494 335.673 147.702 335.508 147.805 335.216C155.048 314.596 160.378 293.55 163.795 272.078C164.155 272.078 164.468 272.017 164.736 271.895Z" fill="#102348"/>
<path d="M286.562 351.031C286.617 351.086 286.672 351.144 286.726 351.205C286.761 351.236 286.801 351.261 286.845 351.276C286.889 351.292 286.936 351.299 286.982 351.296C295.072 350.65 302.997 349.158 310.757 346.819C311.031 346.734 311.208 346.828 311.287 347.102C312.283 350.528 311.653 354.503 308.016 356.047C301.449 358.843 294.572 360.065 287.384 359.711C287.061 359.693 286.769 359.781 286.507 359.976L286.105 360.269C286.066 360.3 286.038 360.342 286.023 360.389C286.009 360.437 286.009 360.487 286.024 360.535C286.039 360.582 286.067 360.624 286.106 360.655C286.145 360.685 286.193 360.704 286.242 360.707C294.058 360.981 301.571 359.653 308.784 356.723C309.094 356.596 309.314 356.687 309.441 356.998C313.727 367.167 293.004 370.018 286.955 370.32C286.638 370.332 286.495 370.49 286.525 370.795C286.556 371.075 286.708 371.209 286.982 371.197C294.304 370.971 301.154 369.092 307.532 365.559C307.604 365.52 307.685 365.5 307.767 365.501C307.849 365.502 307.929 365.524 308 365.565C308.071 365.607 308.13 365.666 308.171 365.737C308.212 365.808 308.234 365.888 308.235 365.97C308.308 370.734 306.049 373.92 301.456 375.528C285.52 381.12 269.658 386.995 253.385 391.563C253.091 391.646 252.776 391.616 252.499 391.481C235.403 382.618 231.529 359.364 231.885 342.268C231.891 341.964 232.047 341.815 232.351 341.821C245.618 341.839 258.892 341.519 272.171 340.861C286.254 340.167 296.972 339.083 304.325 337.609C310.209 336.421 317.226 334.511 323.202 334.639C323.463 334.644 323.716 334.726 323.93 334.874C324.144 335.023 324.309 335.232 324.404 335.475C324.499 335.718 324.52 335.983 324.463 336.238C324.407 336.493 324.277 336.725 324.088 336.905C313.334 347.175 300.999 349.039 286.681 350.684C286.642 350.687 286.605 350.702 286.575 350.726C286.544 350.75 286.521 350.782 286.509 350.819C286.496 350.856 286.495 350.895 286.504 350.933C286.513 350.97 286.534 351.005 286.562 351.031Z" fill="white"/>
<path d="M224.918 398.938C210.152 385.223 205.958 359.922 207.137 341.173C207.155 340.856 207.326 340.707 207.648 340.725L230.564 341.803C230.695 341.81 230.817 341.869 230.906 341.966C230.994 342.063 231.042 342.191 231.04 342.324C230.519 359.127 234.539 382.327 250.895 391.583C251.528 391.942 251.492 392.219 250.785 392.414L225.859 399.166C225.499 399.264 225.186 399.188 224.918 398.938ZM235.142 387.626C235.142 387.076 234.924 386.549 234.535 386.16C234.146 385.771 233.618 385.552 233.068 385.552C232.518 385.552 231.99 385.771 231.601 386.16C231.212 386.549 230.994 387.076 230.994 387.626C230.994 388.176 231.212 388.704 231.601 389.093C231.99 389.482 232.518 389.7 233.068 389.7C233.618 389.7 234.146 389.482 234.535 389.093C234.924 388.704 235.142 388.176 235.142 387.626Z" fill="white"/>
<path d="M233.074 389.701C234.22 389.701 235.148 388.773 235.148 387.627C235.148 386.481 234.22 385.553 233.074 385.553C231.929 385.553 231 386.481 231 387.627C231 388.773 231.929 389.701 233.074 389.701Z" fill="#102348"/>
<mask id="path-24-inside-1_1582_8216" fill="white">
<path fill-rule="evenodd" clip-rule="evenodd" d="M310.141 89.9702C324.136 89.9702 335.481 78.625 335.481 64.63C335.481 50.635 324.136 39.2898 310.141 39.2898C296.146 39.2898 284.801 50.635 284.801 64.63C284.801 67.4705 285.268 70.2019 286.13 72.7514C286.409 73.5756 286.412 74.4747 286.077 75.2775L282.514 83.811C282.065 84.8853 282.948 86.0424 284.102 85.8937L293.102 84.7349C293.987 84.621 294.874 84.8763 295.605 85.3886C299.72 88.2757 304.733 89.9702 310.141 89.9702Z"/>
</mask>
<path fill-rule="evenodd" clip-rule="evenodd" d="M310.141 89.9702C324.136 89.9702 335.481 78.625 335.481 64.63C335.481 50.635 324.136 39.2898 310.141 39.2898C296.146 39.2898 284.801 50.635 284.801 64.63C284.801 67.4705 285.268 70.2019 286.13 72.7514C286.409 73.5756 286.412 74.4747 286.077 75.2775L282.514 83.811C282.065 84.8853 282.948 86.0424 284.102 85.8937L293.102 84.7349C293.987 84.621 294.874 84.8763 295.605 85.3886C299.72 88.2757 304.733 89.9702 310.141 89.9702Z" fill="white"/>
<path d="M282.514 83.811L283.525 84.2335H283.525L282.514 83.811ZM284.102 85.8937L283.962 84.8062H283.962L284.102 85.8937ZM293.102 84.7349L292.962 83.6474L293.102 84.7349ZM286.077 75.2775L285.065 74.8551L286.077 75.2775ZM334.385 64.63C334.385 78.0194 323.531 88.8737 310.141 88.8737V91.0666C324.742 91.0666 336.578 79.2305 336.578 64.63H334.385ZM310.141 40.3863C323.531 40.3863 334.385 51.2405 334.385 64.63H336.578C336.578 50.0294 324.742 38.1933 310.141 38.1933V40.3863ZM285.898 64.63C285.898 51.2405 296.752 40.3863 310.141 40.3863V38.1933C295.541 38.1933 283.705 50.0294 283.705 64.63H285.898ZM287.169 72.4002C286.345 69.9623 285.898 67.3495 285.898 64.63H283.705C283.705 67.5915 284.192 70.4414 285.092 73.1026L287.169 72.4002ZM283.525 84.2335L287.088 75.7L285.065 74.8551L281.502 83.3885L283.525 84.2335ZM283.962 84.8062C283.645 84.8471 283.402 84.5289 283.525 84.2335L281.502 83.3885C280.728 85.2417 282.25 87.2377 284.242 86.9812L283.962 84.8062ZM292.962 83.6474L283.962 84.8062L284.242 86.9812L293.242 85.8224L292.962 83.6474ZM310.141 88.8737C304.965 88.8737 300.171 87.2529 296.234 84.4911L294.975 86.2862C299.269 89.2985 304.5 91.0666 310.141 91.0666V88.8737ZM293.242 85.8224C293.825 85.7473 294.442 85.9124 294.975 86.2862L296.234 84.4911C295.307 83.8403 294.149 83.4946 292.962 83.6474L293.242 85.8224ZM285.092 73.1026C285.295 73.7044 285.286 74.3261 285.065 74.8551L287.088 75.7C287.538 74.6232 287.523 73.4468 287.169 72.4002L285.092 73.1026Z" fill="#102348" mask="url(#path-24-inside-1_1582_8216)"/>
<path d="M302.544 71.885C302.233 71.7121 302.06 71.522 302.025 71.3145C302.008 71.1071 302.129 70.744 302.388 70.2254C302.647 69.7068 303.054 68.9029 303.607 67.8138C304.022 67.0359 304.333 66.4308 304.54 65.9986C304.765 65.5491 304.912 65.2293 304.981 65.0392C305.068 64.849 305.111 64.728 305.111 64.6761C305.076 64.5205 305.094 64.3995 305.163 64.3131C305.232 64.2094 305.344 64.1229 305.5 64.0538C305.586 63.9673 305.725 63.8118 305.915 63.587C306.122 63.3623 306.312 63.0943 306.485 62.7831C306.641 62.4201 306.822 62.0484 307.03 61.6681C307.237 61.2878 307.514 60.8124 307.86 60.2419C308.205 59.6541 308.655 58.8935 309.208 57.9599C309.554 57.3549 309.934 56.7412 310.349 56.1188C310.764 55.4792 311.205 54.8482 311.671 54.2258C311.862 53.9838 312.035 53.7937 312.19 53.6554C312.346 53.4998 312.501 53.4306 312.657 53.4479C312.864 53.4479 313.098 53.5171 313.357 53.6554C313.634 53.7937 313.884 53.9752 314.109 54.1999C314.334 54.4246 314.498 54.6667 314.602 54.926C314.688 55.0643 314.723 55.3582 314.705 55.8076C314.688 56.2571 314.654 56.8017 314.602 57.4413C314.55 58.081 314.489 58.7638 314.42 59.4899C314.368 60.1987 314.291 61.0371 314.187 62.0052C314.083 62.9733 313.979 63.9846 313.876 65.0392C313.789 66.0937 313.72 67.1137 313.668 68.0991C313.616 69.0672 313.616 69.9142 313.668 70.6403C313.685 70.7959 313.685 70.9428 313.668 71.0811C313.651 71.2194 313.642 71.3318 313.642 71.4183C313.539 71.522 313.366 71.5652 313.124 71.5479C312.899 71.5479 312.674 71.496 312.449 71.3923C312.242 71.2886 312.121 71.1589 312.086 71.0034C312.035 70.9515 312 70.8823 311.983 70.7959C311.983 70.6922 311.991 70.4847 312.009 70.1736C312.026 69.8624 312.043 69.3697 312.06 68.6955L312.19 64.4946L311.853 64.5205C311.697 64.5205 311.404 64.5378 310.971 64.5724C310.539 64.607 310.072 64.6588 309.571 64.728C309.07 64.7799 308.603 64.8404 308.171 64.9095C307.756 64.9614 307.471 65.0132 307.315 65.0651C307.159 65.0651 306.969 65.1688 306.745 65.3763C306.537 65.5837 306.338 65.8517 306.148 66.1801C306.079 66.4222 305.949 66.6815 305.759 66.9581C305.586 67.2174 305.5 67.3903 305.5 67.4767C305.379 67.5631 305.275 67.6669 305.189 67.7879C305.12 67.9089 305.085 67.9694 305.085 67.9694C305.085 68.0731 304.999 68.3324 304.826 68.7473C304.67 69.1449 304.471 69.5944 304.229 70.0958C303.987 70.5798 303.745 71.0034 303.503 71.3664L302.959 72.1962L302.544 71.885ZM307.911 63.5352C307.911 63.5352 307.998 63.5179 308.171 63.4833C308.361 63.4487 308.577 63.4141 308.819 63.3796C309.078 63.3277 309.312 63.3018 309.519 63.3018C310.245 63.1289 310.773 63.0165 311.101 62.9647C311.429 62.8955 311.654 62.8609 311.775 62.8609C311.914 62.8609 312.035 62.8869 312.138 62.9387C312.207 63.0252 312.268 63.077 312.32 63.0943C312.389 63.1116 312.423 63.1203 312.423 63.1203C312.441 63.0857 312.467 62.8869 312.501 62.5238C312.536 62.1608 312.579 61.7113 312.631 61.1754C312.7 60.6395 312.761 60.0863 312.812 59.5158C312.882 58.928 312.933 58.3921 312.968 57.9081C313.003 57.4067 313.029 57.0264 313.046 56.7671C313.063 56.4386 313.08 56.1448 313.098 55.8854C313.115 55.6088 313.124 55.4705 313.124 55.4705C313.02 55.4705 312.795 55.6607 312.449 56.041C312.121 56.4214 311.749 56.9227 311.334 57.545C310.919 58.1674 310.531 58.833 310.167 59.5417C309.995 59.8702 309.83 60.1641 309.675 60.4234C309.519 60.6827 309.398 60.8124 309.312 60.8124C309.277 60.847 309.173 61.0025 309.001 61.2791C308.845 61.5385 308.672 61.841 308.482 62.1867C308.292 62.5152 308.136 62.8177 308.015 63.0943C307.894 63.3536 307.86 63.5006 307.911 63.5352Z" fill="#102348"/>
<mask id="path-27-inside-2_1582_8216" fill="white">
<path d="M376.498 129.748C376.498 150.942 359.317 168.124 338.122 168.124C316.928 168.124 299.746 150.942 299.746 129.748C299.746 108.553 316.928 91.3716 338.122 91.3716C359.317 91.3716 376.498 108.553 376.498 129.748Z"/>
</mask>
<path d="M376.498 129.748C376.498 150.942 359.317 168.124 338.122 168.124C316.928 168.124 299.746 150.942 299.746 129.748C299.746 108.553 316.928 91.3716 338.122 91.3716C359.317 91.3716 376.498 108.553 376.498 129.748Z" fill="#BDE0FF"/>
<path d="M375.402 129.748C375.402 150.337 358.711 167.027 338.122 167.027V169.22C359.922 169.22 377.595 151.548 377.595 129.748H375.402ZM338.122 167.027C317.533 167.027 300.843 150.337 300.843 129.748H298.65C298.65 151.548 316.322 169.22 338.122 169.22V167.027ZM300.843 129.748C300.843 109.159 317.533 92.468 338.122 92.468V90.2751C316.322 90.2751 298.65 107.948 298.65 129.748H300.843ZM338.122 92.468C358.711 92.468 375.402 109.159 375.402 129.748H377.595C377.595 107.948 359.922 90.2751 338.122 90.2751V92.468Z" fill="#102348" mask="url(#path-27-inside-2_1582_8216)"/>
<path d="M338.126 112.387C334.693 112.387 331.336 113.405 328.481 115.313C325.626 117.22 323.401 119.932 322.087 123.104C320.773 126.276 320.429 129.767 321.099 133.135C321.769 136.502 323.423 139.596 325.85 142.024C328.278 144.451 331.372 146.105 334.739 146.775C338.107 147.445 341.598 147.101 344.77 145.787C347.942 144.473 350.654 142.248 352.561 139.393C354.469 136.538 355.487 133.181 355.487 129.748C355.487 125.143 353.658 120.728 350.402 117.472C347.146 114.216 342.731 112.387 338.126 112.387ZM350.828 139.034C349.677 138.359 348.459 137.804 347.194 137.378C347.798 135.152 348.129 132.861 348.179 130.555H353.832C353.682 133.614 352.637 136.562 350.828 139.034ZM322.401 130.555H328.073C328.122 132.862 328.452 135.155 329.054 137.382C327.79 137.808 326.572 138.363 325.421 139.038C323.605 136.567 322.554 133.618 322.401 130.555ZM325.425 120.462C326.576 121.137 327.794 121.691 329.058 122.117C328.455 124.343 328.124 126.634 328.073 128.94H322.421C322.571 125.881 323.615 122.933 325.425 120.462ZM338.934 123.538C341.19 123.486 343.433 123.169 345.616 122.594C346.19 124.662 346.508 126.794 346.564 128.94H338.934V123.538ZM338.934 121.923V114.079C341.477 114.555 343.734 117.232 345.123 121.055C343.1 121.582 341.023 121.874 338.934 121.923ZM337.319 114.079V121.923C335.229 121.874 333.152 121.582 331.13 121.055C332.518 117.232 334.775 114.555 337.319 114.079ZM337.319 123.538V128.94H329.688C329.744 126.794 330.063 124.662 330.637 122.594C332.82 123.169 335.062 123.486 337.319 123.538ZM329.688 130.555H337.319V135.957C335.062 136.01 332.82 136.327 330.637 136.902C330.063 134.833 329.744 132.702 329.688 130.555ZM337.319 137.572V145.417C334.775 144.94 332.518 142.264 331.13 138.44C333.152 137.913 335.229 137.622 337.319 137.572ZM338.934 145.417V137.572C341.023 137.622 343.1 137.913 345.123 138.44C343.734 142.264 341.477 144.94 338.934 145.417ZM338.934 135.957V130.555H346.564C346.508 132.702 346.19 134.833 345.616 136.902C343.433 136.327 341.19 136.01 338.934 135.957ZM348.179 128.94C348.13 126.633 347.801 124.341 347.198 122.113C348.463 121.687 349.681 121.133 350.832 120.458C352.655 122.926 353.712 125.876 353.872 128.94H348.179ZM349.794 119.19C348.812 119.748 347.779 120.212 346.71 120.575C346.02 118.484 344.904 116.559 343.431 114.923C345.872 115.8 348.059 117.266 349.798 119.19H349.794ZM332.817 114.927C331.345 116.563 330.229 118.488 329.539 120.579C328.469 120.216 327.436 119.752 326.454 119.194C328.192 117.27 330.378 115.804 332.817 114.927ZM326.454 140.305C327.436 139.747 328.469 139.283 329.539 138.921C330.229 141.011 331.345 142.936 332.817 144.573C330.378 143.695 328.192 142.229 326.454 140.305ZM343.435 144.569C344.908 142.932 346.024 141.007 346.714 138.917C347.783 139.279 348.816 139.743 349.798 140.301C348.06 142.225 345.875 143.691 343.435 144.569Z" fill="#102348"/>
<mask id="path-30-inside-3_1582_8216" fill="white">
<path fill-rule="evenodd" clip-rule="evenodd" d="M401.587 77.4686C401.444 76.7287 401.539 75.965 401.823 75.267C403.341 71.5347 404.178 67.4524 404.178 63.1748C404.178 45.4418 389.802 31.0664 372.069 31.0664C354.336 31.0664 339.961 45.4418 339.961 63.1748C339.961 80.9077 354.336 95.2831 372.069 95.2831C377.576 95.2831 382.759 93.8968 387.289 91.454C388.249 90.9362 389.379 90.8022 390.41 91.1583L400.737 94.7247C402.731 95.4135 404.724 93.6849 404.323 91.6131L401.587 77.4686Z"/>
</mask>
<path fill-rule="evenodd" clip-rule="evenodd" d="M401.587 77.4686C401.444 76.7287 401.539 75.965 401.823 75.267C403.341 71.5347 404.178 67.4524 404.178 63.1748C404.178 45.4418 389.802 31.0664 372.069 31.0664C354.336 31.0664 339.961 45.4418 339.961 63.1748C339.961 80.9077 354.336 95.2831 372.069 95.2831C377.576 95.2831 382.759 93.8968 387.289 91.454C388.249 90.9362 389.379 90.8022 390.41 91.1583L400.737 94.7247C402.731 95.4135 404.724 93.6849 404.323 91.6131L401.587 77.4686Z" fill="#FED9FF"/>
<path d="M400.737 94.7247L401.095 93.6883L400.737 94.7247ZM404.323 91.6131L405.399 91.4049L404.323 91.6131ZM387.289 91.454L386.768 90.4889L387.289 91.454ZM390.41 91.1583L390.052 92.1947L390.41 91.1583ZM401.823 75.267L402.838 75.6802L401.823 75.267ZM401.587 77.4686L400.51 77.6768L401.587 77.4686ZM403.081 63.1748C403.081 67.3084 402.273 71.2505 400.807 74.8538L402.838 75.6802C404.409 71.8189 405.274 67.5965 405.274 63.1748H403.081ZM372.069 32.1629C389.197 32.1629 403.081 46.0474 403.081 63.1748H405.274C405.274 44.8363 390.408 29.9699 372.069 29.9699V32.1629ZM341.057 63.1748C341.057 46.0474 354.942 32.1629 372.069 32.1629V29.9699C353.731 29.9699 338.864 44.8363 338.864 63.1748H341.057ZM372.069 94.1867C354.942 94.1867 341.057 80.3022 341.057 63.1748H338.864C338.864 81.5133 353.731 96.3796 372.069 96.3796V94.1867ZM386.768 90.4889C382.395 92.8476 377.39 94.1867 372.069 94.1867V96.3796C377.762 96.3796 383.124 94.9459 387.809 92.4191L386.768 90.4889ZM401.095 93.6883L390.768 90.1219L390.052 92.1947L400.379 95.7611L401.095 93.6883ZM403.246 91.8214C403.487 93.0644 402.291 94.1016 401.095 93.6883L400.379 95.7611C403.171 96.7254 405.96 94.3053 405.399 91.4049L403.246 91.8214ZM400.51 77.6768L403.246 91.8214L405.399 91.4049L402.663 77.2604L400.51 77.6768ZM387.809 92.4191C388.528 92.0316 389.34 91.9488 390.052 92.1947L390.768 90.1219C389.418 89.6557 387.97 89.8408 386.768 90.4889L387.809 92.4191ZM400.807 74.8538C400.451 75.7293 400.323 76.7086 400.51 77.6768L402.663 77.2604C402.565 76.7488 402.627 76.2008 402.838 75.6802L400.807 74.8538Z" fill="#102348" mask="url(#path-30-inside-3_1582_8216)"/>
<g clip-path="url(#clip0_1582_8216)">
<path d="M370.12 73.8071C369.82 73.8068 369.529 73.6999 369.3 73.5055C369.07 73.311 368.917 73.0416 368.868 72.7451C368.005 67.5687 367.832 62.3008 368.354 57.079L368.856 52.0575C368.89 51.7218 369.056 51.4133 369.317 51.1998C369.578 50.9863 369.913 50.8854 370.249 50.9191C370.584 50.9528 370.893 51.1185 371.106 51.3797C371.32 51.6409 371.421 51.9762 371.387 52.3118L370.885 57.3321C370.386 62.3296 370.551 67.3713 371.377 72.3254C371.408 72.5078 371.398 72.6947 371.349 72.873C371.3 73.0514 371.212 73.2168 371.093 73.3579C370.973 73.499 370.824 73.6123 370.656 73.6898C370.488 73.7674 370.305 73.8075 370.12 73.8071Z" fill="#102348"/>
<path d="M365.034 57.2723C364.697 57.2723 364.373 57.1383 364.135 56.8998C363.896 56.6612 363.762 56.3377 363.762 56.0004C363.762 55.6631 363.896 55.3395 364.135 55.101C364.373 54.8625 364.697 54.7285 365.034 54.7285C368.309 54.7284 371.572 54.3269 374.749 53.5329L374.904 53.4947C375.068 53.4472 375.241 53.4334 375.411 53.454C375.581 53.4747 375.745 53.5295 375.893 53.6151C376.041 53.7006 376.171 53.8152 376.274 53.952C376.376 54.0888 376.451 54.245 376.492 54.4112C376.533 54.5773 376.54 54.7501 376.513 54.9191C376.486 55.0881 376.425 55.2498 376.333 55.3947C376.242 55.5395 376.122 55.6644 375.982 55.7619C375.841 55.8595 375.682 55.9276 375.515 55.9622L375.362 56.0004C371.984 56.8447 368.516 57.2719 365.034 57.2723ZM373.937 68.427C373.706 68.427 373.478 68.3637 373.28 68.2439C373.081 68.124 372.919 67.9522 372.811 67.747C372.703 67.5418 372.654 67.311 372.667 67.0796C372.681 66.8481 372.758 66.6249 372.889 66.4339C373.591 65.5506 374.11 64.5366 374.416 63.451C374.722 62.3653 374.809 61.2296 374.673 60.1099C374.628 59.9456 374.618 59.774 374.641 59.6054C374.664 59.4368 374.721 59.2746 374.808 59.1283C374.895 58.9821 375.011 58.8549 375.148 58.7541C375.285 58.6534 375.441 58.5812 375.607 58.5419C375.772 58.5025 375.944 58.4968 376.112 58.5251C376.28 58.5534 376.44 58.6151 376.584 58.7065C376.728 58.7979 376.851 58.9172 376.948 59.0574C377.045 59.1975 377.112 59.3556 377.146 59.5223C377.376 60.9884 377.303 62.4861 376.932 63.9229C376.56 65.3597 375.898 66.7052 374.987 67.8762C374.87 68.0465 374.713 68.1856 374.53 68.2816C374.346 68.3775 374.144 68.4274 373.937 68.427Z" fill="#102348"/>
<path d="M375.26 76.351C374.984 76.3512 374.716 76.2617 374.495 76.0961C374.275 75.9304 374.114 75.6975 374.037 75.4325C373.961 75.1675 373.972 74.8848 374.07 74.6269C374.168 74.3691 374.348 74.1501 374.581 74.003C378.974 71.2341 381.495 67.1512 380.199 64.9038C379.837 64.4148 379.363 64.0191 378.818 63.7493C378.273 63.4795 377.671 63.3433 377.062 63.352C376.356 65.9965 374.943 68.3986 372.975 70.3005C370.947 72.4281 368.325 73.8945 365.451 74.508C364.703 74.6371 363.934 74.5405 363.241 74.2304C362.548 73.9203 361.963 73.4109 361.561 72.767C361.159 72.1231 360.957 71.3741 360.983 70.6154C361.008 69.8567 361.259 69.1227 361.703 68.5071C362.662 67.2121 363.796 66.056 365.072 65.0717L365.1 65.0488C365.886 64.4348 366.715 63.878 367.58 63.3826C370.121 61.8454 372.998 60.9529 375.962 60.7828C378.991 60.6785 381.279 61.6986 382.401 63.628C384.438 67.164 381.66 72.548 375.938 76.1551C375.735 76.2835 375.5 76.3515 375.26 76.351ZM366.708 67.0215L366.674 67.0482C365.572 67.8946 364.591 68.8889 363.761 70.0029C363.615 70.2082 363.533 70.4521 363.526 70.7039C363.518 70.9556 363.585 71.204 363.718 71.4179C363.851 71.6318 364.044 71.8016 364.273 71.906C364.502 72.0104 364.757 72.0448 365.006 72.0049C367.363 71.4721 369.51 70.2532 371.175 68.502C372.617 67.1036 373.715 65.39 374.384 63.4958C372.432 63.863 370.56 64.5699 368.852 65.5842C368.105 66.0122 367.388 66.4925 366.708 67.0215Z" fill="#102348"/>
</g>
<defs>
<clipPath id="clip0_1582_8216">
<rect width="32.8938" height="32.8938" fill="white" transform="translate(355.145 47.1849)"/>
</clipPath>
</defs>
</svg>
