<svg width="409" height="340" viewBox="0 0 409 340" fill="none" xmlns="http://www.w3.org/2000/svg">
<g clip-path="url(#clip0_1582_8353)">
<path d="M157.567 7.93335C154.041 10.3111 151.878 13.5185 151.078 17.5556C151.033 17.7482 151.096 17.8963 151.267 18L151.689 18.2445C152.059 18.4741 152.296 18.3741 152.4 17.9445C153.23 14.3371 155.133 11.4222 158.111 9.20002C175.967 -1.77776 191.189 24.5889 173.911 33.3889C173.585 33.5593 173.448 33.8259 173.5 34.1889C174.822 43.1111 176.756 55.6334 181.867 62.7889C185.633 68.0556 188.533 71.6 190.244 76.6C195.389 91.7222 176.111 97.9333 165.256 98.2778C163.707 98.3222 162.141 98.3852 160.556 98.4667C160.126 98.4889 159.915 98.7148 159.922 99.1445C160.152 107.767 161.174 116.3 162.989 124.744C163.011 124.86 163.069 124.965 163.156 125.044L173.233 134.689C173.313 134.769 173.414 134.823 173.522 134.844C202.622 139.856 221.133 169.467 231.689 194.267C232.267 195.622 232.789 195.604 233.256 194.211C234.156 191.511 236.822 187.689 239.667 186.867C241.637 186.296 243.056 187.156 243.922 189.444C245.685 194.141 245.722 198.53 244.033 202.611C243.381 204.189 243.781 204.53 245.233 203.633C247.937 201.959 250.756 200.322 253.689 198.722C259.022 195.822 263.689 200.167 262.744 205.678C262.678 206.033 262.759 206.352 262.989 206.633C266.578 211.044 266.167 211.867 265.4 217.356C265.356 217.704 265.411 218.033 265.567 218.344C268.056 223.156 265.867 225.611 264.111 229.911C263.97 230.252 263.959 230.596 264.078 230.944C265.578 235.411 260.522 241.767 257.578 244.7C257.518 244.759 257.475 244.833 257.453 244.914C257.431 244.995 257.431 245.08 257.452 245.161C257.474 245.242 257.516 245.316 257.575 245.376C257.634 245.435 257.708 245.478 257.789 245.5C264.715 247.367 271.574 249.47 278.367 251.811C311.767 263.3 343.756 275.878 373.167 292.278C385.981 299.419 397.889 306.97 408.889 314.933V317.667C407.459 319.6 405.33 320.552 402.5 320.522C374.537 320.263 346.574 320.096 318.611 320.022C286.522 319.944 254.3 322.067 222.244 320.622C220.611 320.556 219.278 320.867 217.789 321.344C211.485 323.352 205.089 325.007 198.6 326.311C171.156 331.837 143.448 334.056 115.478 332.967C113.856 332.9 111.722 333.078 110.489 333.444C82.2556 341.756 40.9444 345.533 18.4222 321.3C5.97778 307.9 0.955555 288.222 0 269.556V256.689C2.02222 221.9 15.3556 185.722 36.3333 156.856C50.3889 137.522 74.5889 117.756 100.356 126.167C100.696 126.278 100.989 126.207 101.233 125.956C105.233 121.941 107.8 118.57 108.933 115.844C113.178 105.711 116.696 95.3704 119.489 84.8222C119.502 84.7768 119.505 84.7289 119.498 84.6821C119.491 84.6353 119.473 84.5907 119.447 84.5514C119.42 84.5122 119.385 84.4792 119.345 84.455C119.304 84.4307 119.258 84.4158 119.211 84.4111C110.256 83.4556 97.7444 76.7222 98.0667 66.4C98.3 58.7889 104.656 52.2 112.522 53.5445C112.616 53.5609 112.712 53.5567 112.804 53.5323C112.895 53.5079 112.98 53.4639 113.052 53.4033C113.125 53.3428 113.182 53.2673 113.221 53.1822C113.26 53.0971 113.279 53.0045 113.278 52.9111C113.152 47.2741 111.789 41.9482 109.189 36.9334C106.589 31.9334 103.789 27.9667 105.667 21.6889C108.144 13.3889 116.5 7.36668 125.189 9.54446C125.893 9.72224 127.385 10.2852 129.667 11.2334C130.052 11.3963 130.293 11.2741 130.389 10.8667C131.315 6.87409 133.3 4.0815 136.344 2.48891C145.107 -2.08887 152.181 -0.274057 157.567 7.93335ZM143.4 91.3334C147.126 93.3037 149.618 94.5148 150.878 94.9667C161.378 98.7445 176.656 97.4334 185.633 89.8C196.678 80.4111 183 68.8 178.5 59.6C176.826 56.1778 175.715 52.6556 175.167 49.0334C175.078 48.4778 174.889 48.4371 174.6 48.9111C173.119 51.3185 171.163 52.6371 168.733 52.8667C168.37 52.9037 168.337 53.0222 168.633 53.2222C170.756 54.6889 174.344 57.0222 172.389 60.0889C171.493 61.4889 170.77 61.9185 170.222 61.3778C170.141 61.2989 170.093 61.1929 170.087 61.0814C170.08 60.9699 170.117 60.8614 170.189 60.7778L171.544 59.1222C171.686 58.9493 171.791 58.749 171.853 58.5336C171.914 58.3183 171.931 58.0924 171.901 57.8698C171.872 57.6472 171.798 57.4326 171.683 57.2391C171.568 57.0456 171.415 56.8773 171.233 56.7445C169.456 55.4556 165.144 51.8222 165.6 49.4C165.733 48.7037 166.152 48.3259 166.856 48.2667L174.044 47.5889C174.444 47.5519 174.604 47.3408 174.522 46.9556L173.3 41.3334C173.267 41.1923 173.192 41.0646 173.085 40.9673C172.978 40.87 172.844 40.8078 172.7 40.7889C170.5 40.4889 164.911 41.1334 164.333 38.5445C164.292 38.3611 164.293 38.1716 164.335 37.9905C164.377 37.8095 164.46 37.6417 164.578 37.5L166.033 35.7C166.285 35.3889 166.211 35.2593 165.811 35.3111C161.826 35.8296 157.933 36.7482 154.133 38.0667C153.563 38.2667 153.578 38.3963 154.178 38.4556L156.133 38.6667C156.584 38.7157 157.011 38.8976 157.358 39.1894C157.706 39.4812 157.958 39.8697 158.085 40.3054C158.211 40.7412 158.205 41.2047 158.067 41.637C157.929 42.0693 157.666 42.4509 157.311 42.7334C153.889 45.4445 150.489 47.7889 147.278 50.8778C147.018 51.1259 146.694 51.2976 146.342 51.3736C145.991 51.4496 145.625 51.4271 145.287 51.3085C144.948 51.1898 144.65 50.9798 144.424 50.7017C144.199 50.4237 144.056 50.0884 144.011 49.7334C143.789 47.9704 144.022 46.3297 144.711 44.8111C144.729 44.7635 144.73 44.7111 144.713 44.6629C144.697 44.6147 144.665 44.5735 144.622 44.5462C144.579 44.5189 144.528 44.5071 144.478 44.5129C144.427 44.5186 144.38 44.5415 144.344 44.5778C140.011 49.7111 137.944 55.1889 135.433 61.4445C133.967 65.1111 132.211 67.9334 128.067 64.7334C120.978 59.2889 109.689 48 101.656 59.7334C94.3111 70.4667 106.267 80.2556 115.667 82.4778C119.133 83.3 122.63 83.0482 126.156 81.7223C126.247 81.6887 126.347 81.6869 126.438 81.7173C126.529 81.7476 126.606 81.8083 126.656 81.8889L126.833 82.2C127.13 82.6889 127 83.0074 126.444 83.1556L121.489 84.4334C121.111 84.5296 120.87 84.7667 120.767 85.1445C118.004 95.8185 114.478 106.237 110.189 116.4C110.033 116.77 110.081 117.111 110.333 117.422C118.322 127.589 135.5 133.644 147.811 135.367C153.933 136.222 158.511 130.122 161.278 125.744C161.442 125.495 161.506 125.189 161.456 124.889L159.078 109.633C158.989 109.056 158.663 108.696 158.1 108.556C150.122 106.6 141.378 100.667 142.644 91.7223C142.711 91.2334 142.963 91.1037 143.4 91.3334ZM150.333 137.089C135.678 135.567 120.167 129.544 109.578 118.978C109.311 118.711 109.063 118.726 108.833 119.022L102.867 126.533C102.615 126.844 102.667 127.093 103.022 127.278C106.874 129.337 109.519 131.604 110.956 134.078C116.989 144.522 124.844 155.856 134.044 163.711C140.978 169.633 145.311 166.711 147.533 158.889C149.519 151.911 150.626 144.848 150.856 137.7C150.87 137.33 150.696 137.126 150.333 137.089ZM88.0889 255.333C87.7926 254.8 87.9444 254.467 88.5444 254.333L105.867 250.644C105.982 250.621 106.09 250.567 106.179 250.49C106.268 250.412 106.337 250.312 106.378 250.2C114.615 227.585 119.041 204.185 119.656 180C120.067 163.756 117.933 131.711 97.4889 126.733C69.6333 119.944 44.7111 144.944 31.4444 165.922C17.6444 187.744 7.27778 214.2 3.18889 239.7C-1.42222 268.5 0.888888 309.378 27.8444 327.422C69.2444 355.144 140.544 325.356 177.822 302.178C177.865 302.152 177.902 302.117 177.931 302.077C177.96 302.036 177.98 301.99 177.991 301.941C178.001 301.892 178.001 301.841 177.991 301.792C177.982 301.743 177.962 301.697 177.933 301.656C165.856 284.367 158.911 263.844 156.044 243.044C155.993 242.644 155.77 242.496 155.378 242.6C138.281 247.163 120.944 250.493 103.367 252.589C100.063 252.982 95.1889 254.085 88.7444 255.9C88.6629 255.922 88.5759 255.916 88.4974 255.881C88.4188 255.847 88.3532 255.787 88.3111 255.711L88.0889 255.333ZM170.767 155.356C172.47 156.437 173.667 156.022 174.356 154.111C174.444 153.876 174.489 153.624 174.489 153.367C174.437 148.796 174.052 144.393 173.333 140.156C172.356 134.356 167.133 130.422 162.811 126.789C162.764 126.751 162.71 126.724 162.651 126.708C162.593 126.693 162.532 126.689 162.472 126.699C162.413 126.708 162.356 126.73 162.305 126.763C162.254 126.796 162.211 126.838 162.178 126.889C159.852 130.474 156.963 133.511 153.511 136C153.215 136.215 153.193 136.456 153.444 136.722C157.444 141.041 161.263 145.493 164.9 150.078C166.567 152.182 168.522 153.941 170.767 155.356ZM231.211 196.433C220.167 171.744 203.889 143.1 175.689 136.6C174.622 136.356 174.411 136.674 175.056 137.556C192.3 161.2 203.2 189.378 210.422 217.711C210.519 218.081 210.737 218.182 211.078 218.011C220.174 213.544 226.881 206.719 231.2 197.533C231.37 197.163 231.374 196.796 231.211 196.433ZM148.4 160.944C147.296 163.352 146.459 164.9 145.889 165.589C137.311 175.856 121.256 152.2 117.433 146.367C117.404 146.323 117.361 146.292 117.31 146.277C117.26 146.263 117.206 146.266 117.159 146.288C117.111 146.309 117.072 146.346 117.049 146.393C117.026 146.44 117.021 146.494 117.033 146.544C125.844 179.744 119.322 218.278 107.844 250.133C107.827 250.179 107.822 250.229 107.829 250.278C107.837 250.326 107.856 250.372 107.886 250.411C107.916 250.45 107.956 250.481 108.001 250.5C108.046 250.52 108.096 250.527 108.144 250.522C125.433 248.382 142.467 244.889 159.244 240.044L181.256 232.333C190.833 228.622 200.026 224.319 208.833 219.422C209.174 219.237 209.296 218.956 209.2 218.578C202.378 191.089 191.667 163.267 175.178 140.044C174.83 139.556 174.685 139.607 174.744 140.2C175.2 145.011 176.078 149.111 175.722 154.433C175.467 158.4 171.111 157.567 168.889 155.867C167.467 154.778 166.004 153.407 164.5 151.756L153.011 138.189C152.485 137.567 152.207 137.663 152.178 138.478C151.926 146.056 150.667 153.544 148.4 160.944ZM221.1 252.311C213.737 252.859 207.456 255.704 202.256 260.844C202.222 260.878 202.181 260.902 202.136 260.917C202.091 260.931 202.043 260.934 201.997 260.927C201.95 260.919 201.906 260.901 201.868 260.873C201.83 260.845 201.799 260.809 201.778 260.767C196.6 251.389 192.174 241.667 188.5 231.6C188.359 231.207 188.096 231.089 187.711 231.244L176.4 235.822C176.255 235.881 176.135 235.99 176.062 236.13C175.988 236.271 175.967 236.433 176 236.589C179.978 254.774 186.637 271.904 195.978 287.978C196.474 288.837 197.144 289.004 197.989 288.478L207.522 282.544C207.562 282.517 207.593 282.478 207.612 282.434C207.63 282.389 207.636 282.34 207.628 282.292C207.619 282.244 207.598 282.2 207.566 282.164C207.533 282.128 207.491 282.102 207.444 282.089C202.504 280.807 199.733 277.607 199.133 272.489C198.311 265.367 204.478 258.733 210.522 256.078C216.53 253.441 222.089 252.844 227.2 254.289C231.363 255.459 234.174 258.026 235.633 261.989C235.652 262.04 235.682 262.086 235.722 262.123C235.761 262.16 235.809 262.187 235.861 262.202C235.913 262.217 235.967 262.22 236.02 262.21C236.074 262.2 236.124 262.177 236.167 262.144C242.833 257.078 263.167 241.133 263.011 232.444C262.996 231.926 262.819 231.859 262.478 232.244L259.011 236.056C258.951 236.123 258.877 236.175 258.794 236.208C258.71 236.242 258.62 236.255 258.53 236.248C258.441 236.24 258.354 236.212 258.278 236.165C258.201 236.118 258.136 236.054 258.089 235.978L257.889 235.667C257.807 235.533 257.822 235.411 257.933 235.3C261.111 232.044 265.911 226.011 265.189 221.189C264.967 219.685 264.474 219.589 263.711 220.9C262.356 223.226 260.615 225.211 258.489 226.856C258.449 226.885 258.404 226.907 258.356 226.92C258.309 226.933 258.259 226.936 258.211 226.93C258.162 226.924 258.116 226.908 258.074 226.884C258.032 226.86 257.996 226.827 257.967 226.789L257.744 226.489C257.693 226.423 257.656 226.348 257.634 226.268C257.612 226.188 257.606 226.104 257.616 226.021C257.626 225.939 257.653 225.859 257.694 225.787C257.735 225.715 257.79 225.651 257.856 225.6C261.989 222.389 267.678 213.378 262.778 208.444C262.43 208.096 262.133 208.137 261.889 208.567C260.319 211.307 258.307 213.663 255.856 215.633C255.552 215.878 255.244 215.882 254.933 215.644L254.678 215.444C254.637 215.415 254.603 215.376 254.58 215.331C254.556 215.286 254.543 215.236 254.542 215.185C254.541 215.133 254.552 215.082 254.574 215.035C254.595 214.987 254.627 214.945 254.667 214.911C256.785 213.185 258.644 211.167 260.244 208.856C263.522 204.1 259.911 196.056 253.778 200.111C250.207 202.467 246.893 204.337 243.833 205.722C241.826 206.633 241.274 206.085 242.178 204.078C243.822 200.411 245.256 191.644 241.356 188.556C241.03 188.3 240.63 188.159 240.217 188.153C239.803 188.147 239.399 188.276 239.067 188.522C237.793 189.456 236.781 190.641 236.033 192.078C232.144 199.544 227.633 207.533 221.3 212.856C217.396 216.144 213.111 218.911 208.444 221.156C208.251 221.25 208.099 221.411 208.017 221.61C207.936 221.809 207.929 222.03 208 222.233C211.526 232.463 216.019 242.252 221.478 251.6C221.73 252.037 221.604 252.274 221.1 252.311ZM195.289 289.456C185.544 273.544 178.822 255.356 174.622 237.189C174.533 236.819 174.307 236.693 173.944 236.811L157.756 241.989C157.639 242.027 157.54 242.104 157.475 242.208C157.41 242.311 157.384 242.434 157.4 242.556C160.067 263.211 167.111 283.933 179.167 300.989C179.205 301.044 179.253 301.092 179.309 301.129C179.366 301.165 179.429 301.191 179.495 301.203C179.561 301.215 179.628 301.215 179.694 301.201C179.76 301.187 179.822 301.16 179.878 301.122L195.067 290.511C195.474 290.222 195.548 289.87 195.289 289.456ZM221.467 281.067C221.364 281.107 221.278 281.182 221.221 281.278C221.165 281.375 221.142 281.488 221.156 281.6C222.415 293.941 222.496 306.282 221.4 318.622C221.392 318.705 221.402 318.789 221.428 318.868C221.454 318.947 221.495 319.02 221.551 319.083C221.606 319.145 221.673 319.196 221.748 319.231C221.824 319.267 221.906 319.286 221.989 319.289C247.6 320.2 273.178 319.311 298.811 318.833C299.204 318.826 299.396 318.626 299.389 318.233C298.867 299.089 303.4 282.522 315.689 267.8C315.933 267.511 315.881 267.293 315.533 267.144C298.481 260.226 281.189 254.007 263.656 248.489C262.181 248.03 259.874 247.43 256.733 246.689C256.333 246.593 255.989 246.689 255.7 246.978C249.811 252.822 243.563 258.256 236.956 263.278C236.667 263.5 236.507 263.793 236.478 264.156C235.733 273.289 229.244 277.844 221.467 281.067ZM234.416 262.959C233.899 261.666 232.963 260.556 231.663 259.691C230.362 258.826 228.721 258.224 226.834 257.918C224.947 257.613 222.851 257.61 220.666 257.911C218.48 258.211 216.248 258.809 214.097 259.669C211.945 260.53 209.917 261.636 208.127 262.926C206.337 264.215 204.821 265.663 203.666 267.185C202.51 268.708 201.737 270.275 201.391 271.799C201.046 273.322 201.134 274.771 201.651 276.064C202.168 277.356 203.103 278.466 204.404 279.331C205.705 280.196 207.346 280.798 209.232 281.104C211.119 281.409 213.215 281.412 215.401 281.112C217.586 280.811 219.818 280.214 221.97 279.353C224.121 278.493 226.15 277.386 227.94 276.096C229.729 274.807 231.245 273.359 232.401 271.837C233.557 270.315 234.33 268.747 234.675 267.224C235.021 265.7 234.933 264.251 234.416 262.959ZM331.311 273.633L318.222 268.178C317.983 268.082 317.721 268.065 317.472 268.129C317.224 268.193 317.004 268.335 316.844 268.533C305.015 282.904 299.663 299.493 300.789 318.3C300.811 318.648 301 318.822 301.356 318.822L317.811 318.611C317.872 318.61 317.933 318.596 317.989 318.571C318.045 318.547 318.096 318.511 318.138 318.467C318.18 318.422 318.213 318.37 318.235 318.313C318.258 318.256 318.268 318.195 318.267 318.133C317.978 303.222 323.711 286.756 331.467 274.111C331.493 274.071 331.51 274.025 331.516 273.977C331.523 273.929 331.518 273.881 331.503 273.835C331.488 273.789 331.463 273.747 331.43 273.712C331.397 273.677 331.356 273.65 331.311 273.633ZM357.122 306.189C357.152 305.982 357.27 305.893 357.478 305.922C364.333 306.911 380.022 310.3 384.167 316.267C384.367 316.553 384.454 316.901 384.411 317.244L384.3 318.233C384.241 318.722 384.459 318.97 384.956 318.978C391.267 319.052 397.578 319.022 403.889 318.889C404.896 318.867 405.874 318.548 406.822 317.933C406.996 317.821 407.146 317.675 407.263 317.504C407.379 317.333 407.461 317.141 407.502 316.938C407.544 316.735 407.544 316.526 407.504 316.323C407.463 316.12 407.383 315.927 407.267 315.756C406.274 314.282 404.996 313.074 403.433 312.133C380.644 298.356 358.222 284.644 333.5 274.556C333.342 274.491 333.166 274.484 333.005 274.537C332.843 274.59 332.708 274.699 332.622 274.844C324.681 287.963 320.244 302.204 319.311 317.567C319.302 317.704 319.321 317.842 319.367 317.972C319.413 318.101 319.485 318.22 319.579 318.321C319.672 318.422 319.786 318.503 319.912 318.558C320.038 318.614 320.173 318.643 320.311 318.644L381.633 318.989C381.943 318.991 382.245 318.89 382.491 318.7C382.737 318.511 382.912 318.245 382.989 317.944C384.267 312.944 360.989 307.811 357.622 307.222C357.222 307.156 357.044 306.919 357.089 306.511L357.122 306.189ZM191.478 294.767C180.804 302.367 169.633 309.085 157.967 314.922C144.959 321.448 131.6 326.941 117.889 331.4C117.853 331.413 117.823 331.438 117.804 331.471C117.785 331.503 117.777 331.541 117.782 331.579C117.787 331.616 117.805 331.651 117.833 331.677C117.86 331.703 117.896 331.719 117.933 331.722C143.393 332.382 168.044 330.578 191.889 326.311C201.156 324.659 210.326 322.348 219.4 319.378C219.567 319.326 219.715 319.224 219.826 319.086C219.937 318.947 220.005 318.778 220.022 318.6C221.089 306.474 221.037 294.348 219.867 282.222C219.822 281.778 219.589 281.619 219.167 281.744C216.374 282.53 213.537 282.844 210.656 282.689C210.278 282.667 209.93 282.759 209.611 282.967L191.478 294.767Z" fill="#102348"/>
<path d="M157.565 7.93335L158.11 9.20002C155.132 11.4222 153.228 14.3371 152.399 17.9445C152.295 18.3741 152.058 18.4741 151.687 18.2445L151.265 18C151.095 17.8963 151.032 17.7482 151.076 17.5556C151.876 13.5185 154.039 10.3111 157.565 7.93335Z" fill="white"/>
<path d="M142.646 91.7222C141.379 100.667 150.124 106.6 158.101 108.556C158.664 108.696 158.99 109.056 159.079 109.633L161.457 124.889C161.507 125.189 161.444 125.495 161.279 125.744C158.513 130.122 153.935 136.222 147.813 135.367C135.501 133.644 118.324 127.589 110.335 117.422C110.083 117.111 110.035 116.77 110.19 116.4C114.479 106.237 118.005 95.8185 120.768 85.1444C120.872 84.7666 121.113 84.5296 121.49 84.4333L126.446 83.1555C127.001 83.0074 127.131 82.6889 126.835 82.2L126.657 81.8889C126.607 81.8082 126.53 81.7476 126.439 81.7172C126.348 81.6869 126.248 81.6886 126.157 81.7222C122.631 83.0481 119.135 83.3 115.668 82.4778C106.268 80.2555 94.3126 70.4666 101.657 59.7333C109.69 48 120.979 59.2889 128.068 64.7333C132.213 67.9333 133.968 65.1111 135.435 61.4444C137.946 55.1889 140.013 49.7111 144.346 44.5778C144.382 44.5415 144.429 44.5186 144.479 44.5128C144.53 44.5071 144.581 44.5189 144.624 44.5462C144.666 44.5735 144.699 44.6147 144.715 44.6629C144.731 44.7111 144.73 44.7634 144.713 44.8111C144.024 46.3296 143.79 47.9704 144.013 49.7333C144.058 50.0884 144.201 50.4236 144.426 50.7017C144.651 50.9798 144.95 51.1898 145.288 51.3084C145.627 51.427 145.992 51.4496 146.344 51.3735C146.695 51.2975 147.019 51.1259 147.279 50.8778C150.49 47.7889 153.89 45.4444 157.313 42.7333C157.668 42.4509 157.931 42.0692 158.068 41.637C158.206 41.2047 158.212 40.7412 158.086 40.3054C157.96 39.8696 157.707 39.4812 157.36 39.1894C157.012 38.8976 156.586 38.7157 156.135 38.6667L154.179 38.4555C153.579 38.3963 153.564 38.2667 154.135 38.0667C157.935 36.7481 161.827 35.8296 165.813 35.3111C166.213 35.2592 166.287 35.3889 166.035 35.7L164.579 37.5C164.462 37.6416 164.379 37.8094 164.337 37.9905C164.294 38.1716 164.294 38.3611 164.335 38.5444C164.913 41.1333 170.501 40.4889 172.701 40.7889C172.845 40.8078 172.979 40.87 173.087 40.9673C173.194 41.0646 173.269 41.1923 173.301 41.3333L174.524 46.9555C174.605 47.3407 174.446 47.5518 174.046 47.5889L166.857 48.2667C166.153 48.3259 165.735 48.7037 165.601 49.4C165.146 51.8222 169.457 55.4555 171.235 56.7444C171.417 56.8773 171.57 57.0456 171.685 57.2391C171.8 57.4326 171.874 57.6472 171.903 57.8698C171.932 58.0923 171.915 58.3182 171.854 58.5336C171.793 58.7489 171.688 58.9492 171.546 59.1222L170.19 60.7778C170.118 60.8613 170.082 60.9699 170.088 61.0814C170.094 61.1928 170.143 61.2988 170.224 61.3778C170.772 61.9185 171.494 61.4889 172.39 60.0889C174.346 57.0222 170.757 54.6889 168.635 53.2222C168.339 53.0222 168.372 52.9037 168.735 52.8667C171.164 52.637 173.12 51.3185 174.601 48.9111C174.89 48.437 175.079 48.4778 175.168 49.0333C175.716 52.6555 176.827 56.1778 178.501 59.6C183.001 68.8 196.679 80.4111 185.635 89.8C176.657 97.4333 161.379 98.7444 150.879 94.9667C149.62 94.5148 147.127 93.3037 143.401 91.3333C142.964 91.1037 142.713 91.2333 142.646 91.7222ZM158.924 49.9222C155.735 51.7555 152.79 53.1889 149.413 54.5778C147.472 55.3778 147.501 56.0852 149.501 56.7C152.09 57.5 161.568 57.7333 161.279 52.9667C161.213 51.8852 160.735 50.9111 159.846 50.0444C159.728 49.9268 159.574 49.8512 159.407 49.8292C159.241 49.8071 159.071 49.8398 158.924 49.9222ZM107.846 64.3222C114.335 63.3889 119.735 67.1111 122.301 72.9111C122.343 72.9994 122.412 73.071 122.498 73.1135C122.583 73.1561 122.678 73.167 122.768 73.1444L123.157 73.0555C123.572 72.9667 123.694 72.7259 123.524 72.3333C120.561 65.6148 115.346 62.4444 107.879 62.8222C107.715 62.8308 107.561 62.9029 107.449 63.0231C107.337 63.1433 107.276 63.3024 107.279 63.4667V63.8444C107.28 63.9148 107.296 63.9842 107.326 64.0478C107.356 64.1115 107.399 64.168 107.453 64.2133C107.507 64.2587 107.57 64.2919 107.638 64.3107C107.705 64.3295 107.776 64.3334 107.846 64.3222ZM170.968 72.7444C166.872 74.1444 164.09 72.8444 162.624 68.8444C162.595 68.7669 162.543 68.7003 162.473 68.6544C162.403 68.6084 162.319 68.5855 162.235 68.5889C162.138 68.5963 162.039 68.6 161.935 68.6C161.631 68.6074 161.464 68.7629 161.435 69.0667C161.264 70.6592 161.557 71.8704 162.313 72.7C165.742 76.4704 169.379 76.7592 173.224 73.5667C173.483 73.3518 173.609 73.0741 173.601 72.7333C173.601 72.6074 173.576 72.4852 173.524 72.3666C173.398 72.0481 173.172 71.9481 172.846 72.0667C172.216 72.3037 171.59 72.5296 170.968 72.7444Z" fill="white"/>
<path d="M149.41 54.5778C152.788 53.1889 155.732 51.7555 158.921 49.9222C159.069 49.8398 159.239 49.8071 159.405 49.8292C159.572 49.8512 159.725 49.9268 159.844 50.0444C160.732 50.9111 161.21 51.8852 161.277 52.9666C161.566 57.7333 152.088 57.5 149.499 56.7C147.499 56.0852 147.469 55.3778 149.41 54.5778Z" fill="#102348"/>
<path d="M122.3 72.9111C119.733 67.1111 114.333 63.3889 107.844 64.3222C107.775 64.3334 107.704 64.3295 107.636 64.3107C107.568 64.2919 107.505 64.2587 107.451 64.2133C107.397 64.168 107.354 64.1115 107.324 64.0479C107.294 63.9842 107.278 63.9148 107.277 63.8444V63.4667C107.274 63.3024 107.335 63.1434 107.447 63.0231C107.559 62.9029 107.713 62.8308 107.877 62.8222C115.344 62.4444 120.559 65.6148 123.522 72.3333C123.692 72.7259 123.57 72.9667 123.155 73.0556L122.766 73.1444C122.676 73.167 122.581 73.1561 122.496 73.1135C122.411 73.071 122.341 72.9994 122.3 72.9111Z" fill="#102348"/>
<path d="M170.963 72.7444C171.585 72.5296 172.211 72.3037 172.841 72.0667C173.167 71.9481 173.393 72.0481 173.519 72.3667C173.571 72.4852 173.597 72.6074 173.597 72.7333C173.604 73.0741 173.478 73.3519 173.219 73.5667C169.374 76.7593 165.737 76.4704 162.308 72.7C161.552 71.8704 161.259 70.6593 161.43 69.0667C161.459 68.763 161.626 68.6074 161.93 68.6C162.034 68.6 162.134 68.5963 162.23 68.5889C162.315 68.5855 162.398 68.6084 162.468 68.6544C162.538 68.7003 162.591 68.7669 162.619 68.8444C164.085 72.8444 166.867 74.1444 170.963 72.7444Z" fill="#102348"/>
<path d="M109.575 118.978C120.164 129.544 135.675 135.567 150.33 137.089C150.693 137.126 150.867 137.33 150.853 137.7C150.623 144.848 149.516 151.911 147.53 158.889C145.308 166.711 140.975 169.633 134.041 163.711C124.841 155.856 116.986 144.522 110.953 134.078C109.516 131.604 106.871 129.337 103.019 127.278C102.664 127.093 102.612 126.844 102.864 126.533L108.83 119.022C109.06 118.726 109.308 118.711 109.575 118.978Z" fill="white"/>
<path d="M88.0883 255.333L88.3105 255.711C88.3527 255.787 88.4182 255.847 88.4968 255.881C88.5753 255.916 88.6623 255.922 88.7439 255.9C95.1883 254.085 100.062 252.982 103.366 252.589C120.944 250.493 138.281 247.163 155.377 242.6C155.77 242.496 155.992 242.644 156.044 243.044C158.911 263.844 165.855 284.367 177.933 301.656C177.961 301.697 177.981 301.743 177.991 301.792C178.001 301.841 178 301.892 177.99 301.941C177.98 301.99 177.959 302.036 177.93 302.077C177.901 302.117 177.864 302.152 177.822 302.178C140.544 325.356 69.2439 355.144 27.8439 327.422C0.888313 309.378 -1.4228 268.5 3.18831 239.7C7.2772 214.2 17.6439 187.744 31.4439 165.922C44.7105 144.944 69.6328 119.944 97.4883 126.733C117.933 131.711 120.066 163.756 119.655 180C119.04 204.185 114.614 227.585 106.377 250.2C106.336 250.312 106.268 250.412 106.178 250.49C106.089 250.568 105.981 250.621 105.866 250.644L88.5439 254.333C87.9439 254.467 87.792 254.8 88.0883 255.333Z" fill="white"/>
<path d="M170.769 155.356C168.525 153.941 166.569 152.181 164.903 150.078C161.266 145.493 157.447 141.041 153.447 136.722C153.195 136.456 153.217 136.215 153.514 136C156.966 133.511 159.854 130.474 162.18 126.889C162.213 126.838 162.257 126.795 162.308 126.763C162.358 126.73 162.415 126.708 162.475 126.699C162.535 126.689 162.595 126.693 162.654 126.708C162.712 126.724 162.767 126.751 162.814 126.789C167.136 130.422 172.358 134.356 173.336 140.156C174.054 144.393 174.44 148.796 174.491 153.367C174.491 153.624 174.446 153.876 174.358 154.111C173.669 156.022 172.473 156.437 170.769 155.356Z" fill="white"/>
<path d="M175.689 136.6C203.889 143.1 220.167 171.744 231.211 196.433C231.374 196.796 231.37 197.163 231.2 197.533C226.881 206.719 220.174 213.544 211.078 218.011C210.737 218.181 210.518 218.081 210.422 217.711C203.2 189.378 192.3 161.2 175.055 137.556C174.411 136.674 174.622 136.356 175.689 136.6Z" fill="white"/>
<path d="M164.498 151.756L162.998 162.644C162.947 163.022 162.776 163.333 162.487 163.578C160.539 165.222 158.335 166.015 155.876 165.956C152.71 165.889 150.598 163.022 148.398 160.944C150.665 153.544 151.924 146.056 152.176 138.478C152.206 137.663 152.484 137.567 153.01 138.189L164.498 151.756Z" fill="#D9C6F4"/>
<path d="M181.254 232.333C176.061 209.815 170.002 187.544 163.076 165.522C162.95 165.122 162.709 165.037 162.354 165.267C159.969 166.8 157.343 167.448 154.476 167.211C154.054 167.174 153.857 167.37 153.887 167.8C155.743 189.756 158.043 211.556 158.654 233.611C158.735 236.337 158.932 238.481 159.243 240.044C142.465 244.889 125.432 248.381 108.143 250.522C108.094 250.527 108.044 250.52 107.999 250.5C107.954 250.481 107.914 250.45 107.884 250.411C107.854 250.372 107.835 250.326 107.827 250.278C107.82 250.229 107.825 250.179 107.843 250.133C119.32 218.278 125.843 179.744 117.032 146.544C117.019 146.494 117.025 146.44 117.047 146.393C117.07 146.346 117.109 146.309 117.157 146.288C117.205 146.266 117.258 146.263 117.309 146.277C117.359 146.292 117.402 146.323 117.432 146.367C121.254 152.2 137.309 175.856 145.887 165.589C146.457 164.9 147.294 163.352 148.398 160.944C150.598 163.022 152.709 165.889 155.876 165.956C158.335 166.015 160.539 165.222 162.487 163.578C162.776 163.333 162.946 163.022 162.998 162.644L164.498 151.756C166.002 153.407 167.465 154.778 168.887 155.867C171.109 157.567 175.465 158.4 175.72 154.433C176.076 149.111 175.198 145.011 174.743 140.2C174.683 139.607 174.828 139.556 175.176 140.044C191.665 163.267 202.376 191.089 209.198 218.578C209.294 218.956 209.172 219.237 208.832 219.422C200.024 224.319 190.832 228.622 181.254 232.333Z" fill="white"/>
<path d="M181.252 232.333L159.241 240.044C158.93 238.481 158.734 236.337 158.652 233.611C158.041 211.556 155.741 189.756 153.886 167.8C153.856 167.37 154.052 167.174 154.475 167.211C157.341 167.448 159.967 166.8 162.352 165.267C162.708 165.037 162.949 165.122 163.075 165.522C170.001 187.544 176.06 209.815 181.252 232.333Z" fill="#D9C6F4"/>
<path d="M221.477 251.6C216.018 242.252 211.526 232.463 208 222.233C207.929 222.03 207.935 221.809 208.017 221.61C208.099 221.411 208.251 221.25 208.444 221.156C213.111 218.911 217.396 216.144 221.3 212.856C227.633 207.533 232.144 199.544 236.033 192.078C236.781 190.641 237.792 189.456 239.066 188.522C239.399 188.276 239.803 188.147 240.216 188.153C240.63 188.159 241.03 188.3 241.355 188.556C245.255 191.644 243.822 200.411 242.177 204.078C241.274 206.085 241.826 206.633 243.833 205.722C246.892 204.337 250.207 202.467 253.777 200.111C259.911 196.056 263.522 204.1 260.244 208.856C258.644 211.167 256.785 213.185 254.666 214.911C254.627 214.945 254.595 214.987 254.573 215.035C254.552 215.082 254.541 215.133 254.542 215.185C254.543 215.236 254.556 215.286 254.579 215.331C254.603 215.376 254.636 215.415 254.677 215.444L254.933 215.644C255.244 215.881 255.551 215.878 255.855 215.633C258.307 213.663 260.318 211.307 261.889 208.567C262.133 208.137 262.429 208.096 262.777 208.444C267.677 213.378 261.989 222.389 257.855 225.6C257.79 225.651 257.735 225.715 257.693 225.787C257.652 225.859 257.626 225.939 257.616 226.021C257.605 226.104 257.611 226.188 257.633 226.268C257.655 226.348 257.693 226.423 257.744 226.489L257.966 226.789C257.995 226.827 258.032 226.86 258.073 226.884C258.115 226.908 258.162 226.924 258.21 226.93C258.259 226.936 258.308 226.933 258.356 226.92C258.404 226.907 258.449 226.885 258.489 226.856C260.614 225.211 262.355 223.226 263.711 220.9C264.474 219.589 264.966 219.685 265.189 221.189C265.911 226.011 261.111 232.044 257.933 235.3C257.822 235.411 257.807 235.533 257.889 235.667L258.089 235.978C258.136 236.054 258.201 236.118 258.277 236.165C258.354 236.212 258.441 236.24 258.53 236.248C258.62 236.255 258.71 236.242 258.793 236.208C258.877 236.175 258.951 236.123 259.011 236.056L262.477 232.244C262.818 231.859 262.996 231.926 263.011 232.444C263.166 241.133 242.833 257.078 236.166 262.144C236.123 262.177 236.073 262.2 236.02 262.21C235.967 262.22 235.912 262.217 235.86 262.202C235.808 262.187 235.761 262.159 235.721 262.122C235.682 262.086 235.651 262.04 235.633 261.989C234.174 258.026 231.363 255.459 227.2 254.289C222.089 252.844 216.529 253.441 210.522 256.078C204.477 258.733 198.311 265.367 199.133 272.489C199.733 277.607 202.503 280.807 207.444 282.089C207.491 282.102 207.533 282.128 207.565 282.164C207.598 282.2 207.619 282.244 207.627 282.292C207.635 282.34 207.63 282.389 207.611 282.434C207.593 282.478 207.562 282.517 207.522 282.544L197.989 288.478C197.144 289.004 196.474 288.837 195.977 287.978C186.637 271.904 179.977 254.774 176 236.589C175.966 236.433 175.988 236.271 176.061 236.13C176.134 235.99 176.254 235.881 176.4 235.822L187.711 231.244C188.096 231.089 188.359 231.207 188.5 231.6C192.174 241.667 196.6 251.389 201.777 260.767C201.799 260.809 201.83 260.845 201.868 260.873C201.906 260.901 201.95 260.919 201.997 260.927C202.043 260.934 202.091 260.931 202.136 260.916C202.181 260.902 202.222 260.878 202.255 260.844C207.455 255.704 213.737 252.859 221.1 252.311C221.603 252.274 221.729 252.037 221.477 251.6Z" fill="white"/>
<path d="M174.621 237.189C178.821 255.356 185.544 273.544 195.288 289.456C195.547 289.87 195.473 290.222 195.066 290.511L179.877 301.122C179.822 301.16 179.759 301.187 179.693 301.201C179.628 301.215 179.56 301.215 179.494 301.203C179.428 301.191 179.365 301.165 179.309 301.129C179.252 301.092 179.204 301.044 179.166 300.989C167.11 283.933 160.066 263.211 157.399 242.556C157.383 242.434 157.409 242.311 157.474 242.208C157.539 242.104 157.639 242.027 157.755 241.989L173.944 236.811C174.307 236.693 174.533 236.819 174.621 237.189ZM184.755 286.444C184.755 285.858 184.522 285.296 184.107 284.881C183.693 284.466 183.13 284.233 182.544 284.233C181.957 284.233 181.395 284.466 180.98 284.881C180.566 285.296 180.333 285.858 180.333 286.444C180.333 287.031 180.566 287.593 180.98 288.008C181.395 288.423 181.957 288.656 182.544 288.656C183.13 288.656 183.693 288.423 184.107 288.008C184.522 287.593 184.755 287.031 184.755 286.444Z" fill="white"/>
<path d="M221.463 281.067C229.241 277.844 235.73 273.289 236.474 264.156C236.504 263.793 236.663 263.5 236.952 263.278C243.56 258.256 249.808 252.822 255.697 246.978C255.986 246.689 256.33 246.593 256.73 246.689C259.871 247.43 262.178 248.03 263.652 248.489C281.186 254.007 298.478 260.226 315.53 267.144C315.878 267.293 315.93 267.511 315.686 267.8C303.397 282.522 298.863 299.089 299.386 318.233C299.393 318.626 299.2 318.826 298.808 318.833C273.174 319.311 247.597 320.2 221.986 319.289C221.902 319.286 221.82 319.267 221.745 319.231C221.67 319.196 221.602 319.145 221.547 319.083C221.492 319.02 221.45 318.947 221.424 318.868C221.398 318.789 221.389 318.705 221.397 318.622C222.493 306.281 222.411 293.941 221.152 281.6C221.139 281.488 221.162 281.375 221.218 281.278C221.274 281.182 221.361 281.107 221.463 281.067Z" fill="white"/>
<path d="M234.415 262.959C234.932 264.251 235.02 265.7 234.675 267.224C234.329 268.747 233.556 270.315 232.4 271.837C231.245 273.36 229.729 274.807 227.939 276.096C226.149 277.386 224.12 278.493 221.969 279.353C219.818 280.214 217.585 280.811 215.4 281.112C213.215 281.412 211.119 281.409 209.232 281.104C207.345 280.798 205.704 280.196 204.403 279.331C203.102 278.466 202.167 277.356 201.65 276.064C201.133 274.771 201.045 273.322 201.391 271.799C201.736 270.275 202.509 268.708 203.665 267.185C204.821 265.663 206.337 264.215 208.126 262.926C209.916 261.636 211.945 260.53 214.096 259.669C216.248 258.809 218.48 258.211 220.665 257.911C222.851 257.61 224.947 257.613 226.833 257.918C228.72 258.224 230.361 258.826 231.662 259.691C232.963 260.556 233.898 261.666 234.415 262.959ZM219.333 269.489C219.291 269.509 219.246 269.521 219.2 269.524C219.154 269.527 219.107 269.52 219.064 269.505C219.02 269.489 218.98 269.465 218.946 269.434C218.912 269.402 218.885 269.364 218.866 269.322L216.299 263.589C216.28 263.547 216.253 263.509 216.219 263.478C216.185 263.446 216.145 263.422 216.101 263.407C216.058 263.391 216.011 263.384 215.965 263.387C215.919 263.39 215.874 263.402 215.833 263.422L215.021 263.833C214.942 263.872 214.88 263.94 214.849 264.022C214.818 264.105 214.82 264.196 214.855 264.278L218.033 271.422C218.051 271.465 218.077 271.504 218.111 271.537C218.144 271.569 218.184 271.595 218.228 271.611C218.271 271.628 218.318 271.635 218.365 271.634C218.411 271.632 218.457 271.62 218.499 271.6L229.166 266.589C229.211 266.568 229.251 266.538 229.283 266.501C229.315 266.463 229.339 266.419 229.352 266.372C229.366 266.324 229.369 266.275 229.362 266.226C229.355 266.177 229.337 266.13 229.31 266.089L228.821 265.289C228.777 265.215 228.707 265.161 228.625 265.136C228.543 265.112 228.454 265.118 228.377 265.156L219.333 269.489Z" fill="white"/>
<path d="M219.333 269.489L228.378 265.156C228.455 265.118 228.544 265.112 228.626 265.136C228.708 265.161 228.778 265.215 228.822 265.289L229.311 266.089C229.338 266.13 229.356 266.177 229.363 266.226C229.37 266.275 229.367 266.324 229.353 266.372C229.339 266.419 229.316 266.463 229.283 266.501C229.251 266.538 229.211 266.568 229.167 266.589L218.5 271.6C218.458 271.62 218.412 271.632 218.365 271.634C218.319 271.636 218.272 271.628 218.228 271.611C218.185 271.595 218.145 271.569 218.111 271.537C218.078 271.504 218.051 271.465 218.033 271.422L214.855 264.278C214.821 264.196 214.819 264.105 214.85 264.022C214.881 263.94 214.943 263.872 215.022 263.833L215.833 263.422C215.875 263.402 215.92 263.39 215.966 263.387C216.012 263.384 216.058 263.391 216.102 263.407C216.146 263.422 216.186 263.446 216.22 263.478C216.254 263.509 216.281 263.547 216.3 263.589L218.867 269.322C218.886 269.364 218.913 269.402 218.947 269.434C218.981 269.465 219.021 269.489 219.065 269.505C219.108 269.52 219.154 269.527 219.201 269.524C219.247 269.521 219.292 269.509 219.333 269.489Z" fill="#102348"/>
<path d="M318.221 268.178L331.31 273.633C331.355 273.65 331.395 273.677 331.429 273.712C331.462 273.747 331.487 273.789 331.502 273.835C331.517 273.881 331.521 273.929 331.515 273.977C331.509 274.025 331.492 274.071 331.465 274.111C323.71 286.756 317.976 303.222 318.265 318.133C318.267 318.195 318.256 318.256 318.234 318.313C318.212 318.37 318.179 318.422 318.136 318.467C318.094 318.511 318.043 318.547 317.987 318.571C317.931 318.596 317.871 318.61 317.81 318.611L301.354 318.822C300.999 318.822 300.81 318.648 300.787 318.3C299.661 299.493 305.013 282.904 316.843 268.533C317.003 268.334 317.223 268.193 317.471 268.129C317.719 268.065 317.982 268.082 318.221 268.178ZM310.943 312.789C310.943 312.202 310.71 311.64 310.295 311.225C309.881 310.811 309.318 310.578 308.732 310.578C308.145 310.578 307.583 310.811 307.168 311.225C306.754 311.64 306.521 312.202 306.521 312.789C306.521 313.375 306.754 313.938 307.168 314.352C307.583 314.767 308.145 315 308.732 315C309.318 315 309.881 314.767 310.295 314.352C310.71 313.938 310.943 313.375 310.943 312.789Z" fill="white"/>
<path d="M357.122 306.189L357.089 306.511C357.044 306.918 357.222 307.156 357.622 307.222C360.989 307.811 384.266 312.944 382.989 317.944C382.912 318.245 382.736 318.511 382.491 318.7C382.245 318.889 381.943 318.991 381.633 318.989L320.311 318.644C320.173 318.643 320.037 318.614 319.911 318.558C319.785 318.503 319.672 318.422 319.579 318.321C319.485 318.22 319.413 318.101 319.367 317.971C319.321 317.842 319.302 317.704 319.311 317.567C320.244 302.204 324.681 287.963 332.622 274.844C332.707 274.699 332.843 274.59 333.004 274.537C333.166 274.484 333.341 274.491 333.5 274.556C358.222 284.644 380.644 298.356 403.433 312.133C404.996 313.074 406.274 314.281 407.266 315.756C407.382 315.927 407.463 316.12 407.503 316.323C407.544 316.526 407.543 316.735 407.502 316.938C407.46 317.141 407.379 317.333 407.262 317.504C407.145 317.675 406.996 317.821 406.822 317.933C405.874 318.548 404.896 318.867 403.889 318.889C397.577 319.022 391.266 319.052 384.955 318.978C384.459 318.97 384.24 318.722 384.3 318.233L384.411 317.244C384.454 316.901 384.367 316.553 384.166 316.267C380.022 310.3 364.333 306.911 357.477 305.922C357.27 305.893 357.152 305.981 357.122 306.189Z" fill="white"/>
<path d="M157.967 314.922C161.112 318.256 173.678 328.4 178.378 324.844C184.171 320.459 189.008 315.348 192.89 309.511C193.191 309.052 193.317 308.496 193.245 307.944L191.479 294.767L209.612 282.967C209.93 282.759 210.278 282.667 210.656 282.689C213.538 282.844 216.375 282.53 219.167 281.744C219.59 281.619 219.823 281.778 219.867 282.222C221.038 294.348 221.09 306.474 220.023 318.6C220.006 318.778 219.938 318.947 219.827 319.086C219.716 319.224 219.568 319.326 219.401 319.378C210.327 322.348 201.156 324.659 191.89 326.311C168.045 330.578 143.393 332.381 117.934 331.722C117.896 331.719 117.861 331.703 117.833 331.677C117.806 331.651 117.788 331.616 117.783 331.579C117.778 331.541 117.785 331.503 117.805 331.471C117.824 331.438 117.854 331.413 117.89 331.4C131.601 326.941 144.96 321.448 157.967 314.922Z" fill="white"/>
<path d="M182.547 288.656C183.768 288.656 184.758 287.666 184.758 286.444C184.758 285.223 183.768 284.233 182.547 284.233C181.326 284.233 180.336 285.223 180.336 286.444C180.336 287.666 181.326 288.656 182.547 288.656Z" fill="#102348"/>
<path d="M191.48 294.767L193.247 307.944C193.318 308.496 193.192 309.052 192.891 309.511C189.01 315.348 184.172 320.459 178.38 324.844C173.68 328.4 161.113 318.256 157.969 314.922C169.635 309.085 180.806 302.367 191.48 294.767Z" fill="#D9C6F4"/>
<path d="M308.735 315C309.956 315 310.946 314.01 310.946 312.789C310.946 311.568 309.956 310.578 308.735 310.578C307.513 310.578 306.523 311.568 306.523 312.789C306.523 314.01 307.513 315 308.735 315Z" fill="#102348"/>
<path d="M255.672 140.468L256.621 144.031L257.602 140.476C259.525 133.506 261.844 126.652 264.547 119.946C266.914 114.305 269.725 108.859 272.951 103.66C275.641 99.5114 278.799 95.393 283.363 94.128C285.395 93.5799 287.525 93.4988 289.593 93.8907C291.652 94.281 293.597 95.1302 295.283 96.3751C296.881 97.7258 298.072 99.4957 298.72 101.486C299.371 103.486 299.449 105.628 298.944 107.67L298.933 107.714L298.926 107.759C297.395 117.764 291.815 127.207 286.651 135.947L286.615 136.007C285.778 137.42 284.956 138.834 284.136 140.246C281.773 144.314 279.421 148.361 276.737 152.292C273.1 157.619 269.377 162.945 265.364 168.003L265.363 168.004C265.009 168.451 264.582 169.039 264.095 169.71C263.052 171.144 261.733 172.959 260.261 174.593C259.197 175.775 258.13 176.767 257.142 177.367C256.138 177.977 255.418 178.066 254.896 177.848L254.89 177.846C253.618 177.325 252.305 176.079 251.043 174.58C250.426 173.847 249.846 173.085 249.309 172.369C249.219 172.249 249.13 172.129 249.041 172.011C248.612 171.436 248.205 170.892 247.847 170.454C246.21 168.452 244.648 166.327 243.183 164.175L243.169 164.155L243.154 164.136C238.38 157.819 234.272 151.025 230.896 143.863C229.396 140.169 229.199 135.25 230.551 131.202C231.895 127.175 234.691 124.18 239.114 123.883C243.677 123.576 247.221 125.586 249.944 128.757C252.689 131.953 254.56 136.294 255.672 140.468Z" fill="#FED9FF" stroke="#102348" stroke-width="2"/>
</g>
<defs>
<clipPath id="clip0_1582_8353">
<rect width="408.889" height="340" fill="white"/>
</clipPath>
</defs>
</svg>
