<svg version="1.2" xmlns="http://www.w3.org/2000/svg" viewBox="0 0 378 361" width="378" height="361">
	<title>adv_03-svg</title>
	<style>
		.s0 { fill: #a2d3ff } 
		.s1 { fill: #102348 } 
		.s2 { fill: #ffffff } 
		.s3 { fill: #d9c6f4 } 
	</style>
	<path class="s0" d="m52.7 98.4q0 1.4 0.5 2.4-1.3-0.2-1.5 0.8c-0.9 4.2-2.3 13.2-7.8 12.3v-2.7c0-4.2-1.8-20.1-8.9-13.7l-1.2 2.2q-0.4-0.3-1-0.4-0.7-0.1-1.2 0.5l-5.4 5.7q-0.6 0.2-0.6 1.3-0.9-0.6-1.5-0.3-0.4 0.1-0.9 0-0.4 0-0.8-0.3-0.3-0.3-0.5-0.8-0.1-0.4 0-0.9l3.8-12.2q1.7-3.7 0.8-7.4-1.8-8.9 3-15.5c4.5-6.1 10.2-0.6 14.2 2.1 6.3 4.2 17.7-3 18.1 8.9 0.3 6.9-5.8 12.6-9.1 18z"/>
	<path fill-rule="evenodd" class="s1" d="m242.7 122.9q0.2 0.4-0.7 1.2-1.4-2.4-2.9-3.2-0.7-0.4-1.3 0.3-60.3 68-75.9 158-0.1 0.7 0.6 1c11.2 5.2 22.4 8.9 35.1 8.5 23.9-0.8 48.3-5.6 70.3-8q0.8 0 0.5-0.7-19.6-37.7-29.4-75.6-8.8-33.9 0.3-70.3l6.7-9.5c38.7-9.7 80.4 37.3 96.2 67.3q19.2 36.5 27.1 74.6c7.5 36.4-3.4 83.2-47.9 87.6q-27.3 2.7-54.6 0.2-47-4.1-93.2-12.9-0.3-0.1-0.6 0-0.3 0.2-0.5 0.4-0.2 0.2-0.3 0.5 0 0.4 0.1 0.6c2.7 6.3 2.2 12-6.4 11.3 4.6-4.2 2.6-8.7 0.9-14.1q-0.3-0.7-1-0.9c-12.8-2.9-43.8-11.1-50.3-23.7q-0.1-0.3-0.1-0.7 0.1-0.4 0.4-0.7 2.4-1.9 5.6-1 0.1 0.1 0.3 0 0.1-0.1 0.2-0.2 0-0.2 0-0.3-0.1-0.2-0.2-0.2-7.5-3.8-13.3-10.1-0.2-0.2-0.3-0.6-0.1-0.4-0.1-0.8 0.1-0.4 0.3-0.7 0.2-0.3 0.6-0.5l2-1.2q0.2-0.1 0.3-0.4 0.1-0.3 0-0.5-0.4-0.7-1.2-1.2-0.5-0.4-0.8-1c-0.1-0.4-0.2-0.8-0.1-1.2 0.1-0.5 0.4-0.8 0.7-1.1q0.5-0.4 1.2-0.5 9.2-0.7 18.2 2.1 0.4 0 0.5-0.3 0.1-0.2-0.1-0.3l-8.2-5.1c-0.4-0.3-0.7-0.7-0.9-1.1-0.1-0.5-0.1-1 0-1.4 0.1-0.5 0.4-0.9 0.8-1.1 0.4-0.3 0.9-0.5 1.3-0.5q15.2 0.4 30 3.7 0.2 0.1 0.4 0 0.1 0 0.2-0.2 0.2-0.1 0.2-0.2 0-0.2 0-0.4-6.1-24.5-12.4-48.8-0.4-1.7-2.2-2.9-0.6-0.4 0.1-0.5l1.1-0.1q5-0.6 5.9 2.8 5 19.1 9.7 38.3 0 0.2 0.2 0.3 0.2 0.2 0.4 0.1 0.2 0 0.3-0.1 0.2-0.2 0.2-0.4 0.6-25.5 3.9-51 5.9-46.1 24.2-90.3 2.2-2.9 2.7-8.1 2.1-10.8 2-22.7 0-0.3-0.1-0.6-0.1-0.2-0.3-0.4-0.2-0.2-0.5-0.3-0.3 0-0.6 0c-8.4 1.4-24.9 0.6-30.3-7.5-5.3-7.8 1.9-17.7 5.4-24.7 3.9-8 4.5-18 5.1-26.8q0.1-0.8-0.6-1.1c-16.6-7.7-6.1-31.3 12.7-24.6q4.4 3.2 6.7 7.7 0 0.1 0.1 0.2 0.1 0 0.2 0.1 0.1 0 0.2 0 0.1 0 0.2 0 0.1-0.1 0.2-0.1 0-0.1 0.1-0.2 0-0.1 0-0.2 0-0.1 0-0.2-1.7-5.5-7.1-8.2c5.3-11 21.7-12.3 26-0.3q0.1 0.2 0.2 0.4 0.2 0.1 0.4 0.2 0.2 0 0.4 0 0.2 0 0.4-0.1c12.5-8.8 28.7 4.7 22.6 19.1q-3.5 8.5-4 17.9 0 0.3 0.1 0.6 0.1 0.3 0.4 0.6 0.2 0.2 0.5 0.3 0.3 0.1 0.7 0.1 12.2-0.7 14 9.4c2 10.6-7.7 18.2-17.1 20.4q-0.3 0.1-0.6 0.3-0.2 0.2-0.4 0.5-0.2 0.3-0.2 0.6-0.1 0.3 0 0.7 5.6 19 18.4 34.7zm-25.8-38q12 1.5 20.4-6.9c11.6-11.8-2.4-28.1-16.3-15.8-4.1 3.6-9.6 13.1-14.3 3.2q-3.3-7.2-8.8-13.9-0.1-0.1-0.2-0.2-0.2 0-0.3 0.1-0.2 0.1-0.3 0.2 0 0.2 0 0.3l0.6 2.9q0.1 0.5-0.1 1.1-0.3 0.5-0.7 0.9-0.5 0.3-1.1 0.3-0.6 0-1.1-0.3l-10.4-6.8q-0.4-0.2-0.6-0.6-0.2-0.5-0.2-1 0-0.4 0.2-0.9 0.2-0.4 0.6-0.7l1.6-1q0.1 0 0.1-0.2 0-0.1 0-0.2 0-0.1-0.1-0.1-0.1-0.1-0.2-0.1l-9.6-1.2q-0.1 0-0.2 0.1-0.1 0-0.2 0.1-0.1 0.1-0.1 0.2 0 0.1 0.1 0.2l1.6 2.3q0.8 1.2-0.6 1.5l-6.7 1.6q-0.4 0.1-0.6 0.4-0.3 0.3-0.4 0.7l-0.4 4.2q-0.2 1.2 1.1 1.2h5.8q0.5 0 1 0.3 0.4 0.3 0.7 0.8 0.2 0.5 0.2 1-0.1 0.5-0.4 1l-4.6 6q-0.2 0.3-0.2 0.6 0 0.4 0.2 0.7l1.9 2.3q0.1 0.2 0.1 0.4 0 0.2-0.2 0.3-0.1 0.1-0.3 0.2-0.1 0-0.3-0.1-2.1-1.2-2.8-3.4-0.1-0.4 0-0.7 0-0.4 0.3-0.7l2.7-3.5q0.1-0.1 0.1-0.3 0-0.2-0.1-0.4-0.1-0.1-0.2-0.2-0.2-0.1-0.4-0.1-2.3 0-3.5-1.8-0.1-0.2-0.4-0.3-0.2-0.1-0.5-0.1-0.3 0.1-0.5 0.3-0.1 0.2-0.2 0.4-1.3 9.3-6.2 17.4c-14.9 24.8 12.7 28.1 28.8 24.7q3.6-0.8 11.3-5.9 0.9-0.6 1 0.5c0.4 8.2-4.2 13.3-11.5 16.3q-0.4 0.2-0.6 0.4-0.2 0.3-0.2 0.7-0.8 8.5-2.4 16.9c-1.2 6.1 0 10.2 5 13.3 0.5 0.3 1 0.5 1.6 0.4q26.2-2.7 41.8-23.7c0.3-0.4 0.5-0.9 0.5-1.4 0-0.5-0.2-1-0.4-1.4q-9.5-13.8-14.1-29.9-0.2-0.5-0.7-0.7l-5.3-1.1q-0.1 0-0.2-0.2-0.1-0.1-0.1-0.3 0.1-0.1 0.2-0.2 0.1-0.1 0.3-0.1zm83.3 199.5q-5.9-2.4-13.2-2.6c-21.8-0.5-37.7 2.2-62.6 6.1q-0.9 0.1-0.3 0.8c14 15.9 13.8 41.4 5.7 59.7q0 0.1 0 0.2 0 0 0 0.1 0 0.1 0.1 0.1 0.1 0.1 0.2 0.1c30.1 4.3 63.6 8.1 93.8 3.3 46.4-7.2 51.3-57.3 42.1-93.6-12.6-49.8-32.9-94.1-77.4-123.2-9.1-6-40.3-19.5-46.6-3.2-18 46.5 6.6 106.5 27.6 147.9q0.3 0.7 1.1 0.6c6-0.4 25-1.4 29.9 3.1q0.1 0.1 0.1 0.2 0 0.1 0 0.3-0.1 0.1-0.2 0.1-0.1 0-0.3 0zm-98-116.8q10.2-17 22.6-32.6 0-0.1 0-0.3 0-0.1-0.1-0.2-0.1-0.2-0.3-0.2-0.1 0-0.2 0.1-13 9.3-28.9 10.6-0.8 0.1-0.8 0.9 0.5 11.7 6.4 21.6 0.1 0.2 0.3 0.3 0.2 0.1 0.4 0.1 0.2 0 0.3-0.1 0.2-0.1 0.3-0.2zm-30.8 9.8q-12.1 45.1-12.9 92.4c0 2.2-0.4 4.8-0.6 7.2q-0.1 0.7 0.6 1.3l0.9 0.7q0.2 0.2 0.4 0.2 0.2 0 0.4 0 0.2-0.1 0.4-0.3 0.1-0.2 0.2-0.4 6.7-40.1 23.3-77l16.3-31.3q0.3-0.6 0-1.3l-5.1-10.5-2.7-13.8q-4.2-2.9-5.7-6.9-0.1-0.2-0.2-0.4-0.2-0.1-0.4-0.1-0.2 0-0.4 0.1-0.1 0.1-0.2 0.3-8.7 18.8-14.3 39.8zm-20.1 124.4c-12.9-3.6-26-8-39.4-8.2q-0.5 0-0.8 0.2-0.4 0.3-0.6 0.8-0.1 0.4 0 0.9 0.2 0.4 0.5 0.7 18.2 13.1 39.4 17.6 0.5 0.1 0.7 0.6 0 0.2 0 0.3 0 0.1-0.1 0.2-0.1 0.1-0.2 0.2-0.1 0-0.3 0-19.1-4.1-35.6-14.6-2.7-1.7-5 0.3-0.7 0.5-0.1 1.1c8.6 10.2 28.9 18.5 40.9 21.9q0.5 0.1 0.4 0.6-0.1 0.2-0.3 0.3-0.2 0.2-0.6 0-9.9-2.6-19-7-6.6-3.2-13.4-3.2-0.3 0-0.6 0.2-0.3 0.2-0.4 0.5-0.1 0.3 0 0.6 0.1 0.4 0.3 0.6 12 10.6 26.9 15.5 27.4 9 56.3 12.5 0.8 0.1 1.1-0.6c7.4-14.9 9.1-39.7-3.1-53.1q-0.6-0.5-1.3-0.5c-12.8 1-27.9-5.2-39.9-10.9q-0.9-0.4-0.6 0.6l2.1 8.3q0.1 0.4 0.5 0.7 0.3 0.2 0.8 0.3l2.1 0.1q0.3 0 0.5 0.2 0.2 0.2 0.2 0.5 0 0.3-0.2 0.5-0.2 0.2-0.5 0.2c-9.3 0.2-20.6-2.6-29.9-3.9q-4.8-0.7-7.5-0.2-3.8 0.6-0.5 2.6 12.6 7.8 27 11.3 0.7 0.1 0.8 0.7 0.2 0.8-0.6 0.6zm51.2 43.2l23.5 3.5q1.9 0.3 2.7-1.5c7.5-16.9 8.2-43.9-6.6-58.1q-0.2-0.2-0.5-0.3-0.3-0.1-0.6-0.1l-20.4 1.6q-0.1 0-0.2 0.1-0.2 0.1-0.2 0.2-0.1 0.2-0.1 0.3 0.1 0.2 0.1 0.3c11 15.2 10.5 37.6 2.1 53.5q-0.1 0.1-0.1 0.2 0 0.1 0.1 0.2 0 0 0.1 0.1 0 0 0.1 0z"/>
	<path fill-rule="evenodd" class="s2" d="m216.7 85.7l5.3 1.1q0.5 0.2 0.7 0.7 4.6 16.1 14.1 29.9c0.2 0.4 0.4 0.9 0.4 1.4 0 0.5-0.2 1-0.5 1.4q-15.6 21-41.8 23.7c-0.6 0.1-1.1-0.1-1.6-0.3-5-3.2-6.2-7.3-5-13.4q1.6-8.4 2.4-16.9 0-0.4 0.2-0.7 0.2-0.2 0.6-0.4c7.3-3 11.9-8.1 11.5-16.3q-0.1-1.1-1-0.5-7.7 5.1-11.3 5.9c-16.1 3.4-43.7 0.1-28.8-24.7q4.9-8.1 6.2-17.3 0.1-0.3 0.2-0.5 0.2-0.2 0.5-0.3 0.3 0 0.5 0.1 0.3 0.1 0.4 0.3 1.2 1.8 3.5 1.8 0.2 0 0.4 0.1 0.1 0.1 0.2 0.2 0.1 0.2 0.1 0.4 0 0.2-0.1 0.3l-2.7 3.5q-0.3 0.3-0.3 0.7-0.1 0.4 0 0.7 0.7 2.2 2.8 3.4 0.2 0.1 0.3 0.1 0.2-0.1 0.3-0.2 0.2-0.1 0.2-0.3 0-0.2-0.1-0.4l-1.9-2.3q-0.2-0.3-0.2-0.7 0-0.3 0.2-0.6l4.6-6q0.3-0.5 0.4-1 0-0.5-0.2-1-0.3-0.5-0.7-0.8-0.5-0.3-1-0.3h-5.8q-1.3 0-1.1-1.2l0.4-4.2q0.1-0.4 0.4-0.7 0.2-0.3 0.6-0.4l6.7-1.6q1.4-0.3 0.6-1.5l-1.6-2.3q-0.1-0.1-0.1-0.2 0-0.1 0.1-0.2 0.1-0.1 0.2-0.1 0.1-0.1 0.2-0.1l9.6 1.2q0.1 0 0.2 0.1 0.1 0 0.1 0.1 0 0.1 0 0.3 0 0.1-0.1 0.1l-1.6 1q-0.4 0.3-0.6 0.7-0.2 0.5-0.2 0.9 0 0.5 0.2 1 0.2 0.4 0.6 0.6l10.4 6.8q0.5 0.3 1.1 0.3 0.6 0 1.1-0.3 0.4-0.4 0.7-0.9 0.2-0.6 0.1-1.1l-0.6-2.9q0-0.1 0-0.3 0.1-0.1 0.3-0.2 0.1-0.1 0.3 0 0.1 0 0.2 0.1 5.5 6.7 8.8 13.9c4.7 9.9 10.2 0.4 14.3-3.2 13.9-12.3 27.9 4 16.3 15.8q-8.4 8.4-20.4 6.9-0.2 0-0.3 0.1-0.1 0.1-0.2 0.2 0 0.2 0.1 0.3 0.1 0.2 0.2 0.2zm-23.7-25q-4.7-1.3-9.3-3.1-0.6-0.3-1 0.2-1.6 1.7-0.8 3.8 0.4 0.8 1.2 1.1 5.3 2 10.6-0.1 1.1-0.4 0.4-1.3-0.4-0.4-1.1-0.6zm40.5 4.3c-6.6-0.4-12.8 4.5-14.2 11q0 0.1 0 0.2 0.1 0.1 0.2 0.2 0.1 0 0.3 0 0.1 0 0.2-0.1c4.4-5.9 4.8-9.9 13.4-10.1q0.6 0 0.6-0.6 0-0.6-0.5-0.6zm-51.2 9.7c-1.5 5.7-4.8 4.8-9.4 4.2q-0.3 0-0.5 0.1-0.2 0.2-0.2 0.4-0.1 0.2 0 0.5 0.1 0.2 0.4 0.3 8 2.9 10.6-4.3 0.4-1-0.2-1.4-0.5-0.5-0.7 0.2z"/>
	<path fill-rule="evenodd" class="s1" d="m24.8 84.7q0.2 0.2-0.2 0.9-9.7 9.6-8 23.3 0 0.8 0.7 1.1 10.1 4.1 14 13.9 1.1 2.6-0.7 3.8c-2.2 1.6-5.4 0-7.5-1.1q-0.1-0.1-0.3-0.1-0.2 0-0.3 0.1-0.2 0.2-0.2 0.3 0 0.2 0 0.4c0.8 1.6 1.7 3.1 1.2 4.9-1.5 5.3-12-2.2-14.2-4.5q-0.1 0-0.1-0.1 0-0.1 0.1-0.1 0.1-0.2 0.3-0.3 0.3-0.3 0.6 0 4.2 4 9.9 5.6 0.5 0.1 1.1 0 0.5-0.2 0.8-0.6 0.4-0.4 0.5-0.9 0.1-0.5-0.1-1-3.6-9.1-12.9-12-0.3-0.1-0.7-0.1-0.4 0.1-0.7 0.3-4.7 2.9-3.4 8.4 7.9 31.3 11.4 49.9 0.1 0.7 0.8 0.8c16.6 2.5 40.5-1.8 51.7-15.8q1.1-1.4 0.5-3.1c-6.9-18.2-16.1-36.3-15.2-55.7q0.1-0.7-0.2-1.3l-0.5-0.9q-0.5-1-0.5-2.4 3 1.4 2.9 4-0.8 13 3 24.2c10.5 30.5 23.9 59.4 37.6 88.7q0 0.1 0.2 0.2 0.1 0.1 0.3 0.1 0.1 0 0.2-0.1 0.2-0.1 0.2-0.2c13-28.4 45-83.2 82.4-79.7l-1.4 1.2c-35-2.4-66.9 50.8-79.4 77.8q-0.5 1-1.2 2-0.3 0.6-0.1 1.2l2.8 6.3q0.3 0.6 1.1 0.7c9.3 0.4 10.1-0.3 12.2 10.4q-0.4 0.7-1.4-0.4l-2.1-7.5c-0.1-0.4-0.3-0.7-0.7-0.9-0.3-0.2-0.7-0.3-1.1-0.2-0.4 0.1-0.8 0.3-1 0.7-0.2 0.3-0.3 0.7-0.3 1.1l1.6 8.3 2.2 9.2q0.1 0.6 0 1.3-0.1 0.6-0.6 1.1-0.4 0.5-0.9 0.8-0.6 0.3-1.3 0.3h-29.8c-0.7 0-1.4-0.2-1.9-0.6-0.6-0.5-1-1.1-1.1-1.7l-3.3-12.6c-2-5.7-0.7-8.9 5.7-8.9q10.7 0 21.1 0 0.1 0 0.2-0.1 0.2-0.1 0.2-0.2 0.1-0.1 0.1-0.2 0-0.2 0-0.3l-16.3-34.9q-0.1-0.2-0.3-0.3-0.2-0.2-0.4-0.2-0.2 0-0.5 0.1-0.2 0.1-0.3 0.2c-13.3 15.7-41.6 20.8-60.7 18.3q-0.6-0.1-0.5 0.5 4.5 38.5 11.2 62.9c5.4 19.6 13.3 38.9 33 48.4l0.4 1.9c-25.1-11.4-33-39.3-37.9-63.8q-6.1-30.4-9.8-61.1c-3-24.9-7.2-44.7-13.3-68q-2-7.7 4.4-11.6 0.7-0.3 0.7-1.1 0.6-5.3 5.8-6.5 0.6-0.2 0.6-0.9-1.2-12.3 6.4-21.6 1.7-2.1 3.2-2zm5.5 39.8c-1.9-4.6-11.9-17.5-17.9-13.1q-2.2 1.6-2 4.9 0.1 0.8 0.8 1.2c5.3 3 9.9 7.2 15.6 9.4q3.6 1.3 3.6-1.8 0-0.3-0.1-0.6zm-5.6 54.9q-4-0.1-7.9-0.6-0.6-0.1-0.6 0.6l3.1 25c0.1 0.6 0.4 1.1 0.8 1.5 0.4 0.5 1 0.7 1.6 0.8q31.1 3.3 56.1-15.1 1.6-1.2 3.4-4 0.2-0.3 0.2-0.8 0-0.4-0.2-0.8l-10.4-23q-0.3-0.6-0.8-0.1-19.1 17.3-45.3 16.5zm47.2 50.5l4.2 16.7q0.1 0.4 0.4 0.7 0.3 0.2 0.7 0.2h31.1q0.3 0 0.6-0.1 0.2-0.1 0.4-0.4 0.2-0.2 0.3-0.5 0-0.2 0-0.5l-4.5-18.9q-0.1-0.4-0.5-0.6-0.3-0.3-0.7-0.3l-29.2 0.1q-0.7 0-1.3 0.3-0.5 0.3-0.9 0.8-0.4 0.5-0.6 1.2-0.1 0.6 0 1.3z"/>
	<path class="s2" d="m242 124.1q-19.6 24.6-25.9 55.9-0.1 0.8-0.9 0.9c-12.5 1.6-17.8 16.1-17.6 27.1q-1.8 20.4 7.9 37.8 0.4 0.7 1.1 1.2 0.8 0.5 1.1 1.5 0.2 0.7-0.6 0.9l-4.1 0.7q-3-2.7-6.5-1.7-0.6 0.2-0.9 0.7-0.4 0.4-0.5 1-0.1 0.6 0.2 1.1 0.3 0.6 0.8 0.9 3.6 2 6 0 3.8 0.6 7.2-1.2 0.6-0.4 1.3-0.1l5.3 2.7q2.6 3.9 6.5 1.9 0.5-0.3 0.8-0.8 0.4-0.6 0.3-1.2 0-0.7-0.4-1.2-0.4-0.5-1-0.7-3-1-5.7-0.3-2.3-0.4-3.5-1.4-0.2-0.1-0.2-0.3-0.1-0.1-0.1-0.3 0-0.1 0-0.3 0.1-0.2 0.2-0.3c9.2-9.8 13.3-24.3 15.9-37.1 3.4-9.7 2.5-25.5-8.4-30q-0.7-0.3-0.6-1 4.8-25.4 19.6-46.4-9.1 36.4-0.3 70.3 9.8 37.9 29.4 75.6 0.3 0.7-0.5 0.7c-22 2.4-46.4 7.2-70.3 8-12.7 0.4-23.9-3.2-35.1-8.5q-0.7-0.3-0.6-1 15.6-89.9 75.9-158 0.6-0.7 1.3-0.3 1.5 0.9 2.9 3.2z"/>
	<path fill-rule="evenodd" class="s0" d="m187.5 127.1q-0.5 5.2-2.7 8.1-17.8 24.7-26.7 53.7-0.2 0.7 0.3 1.2c9.6 11.7-11.9 20.8-10.8 6.5q0.4-5.3 6-7.7 0.6-0.2 0.9-0.9 7-19.5 16.8-39.4l3.9-6.9 2.9-4.9 1.4-1.2zm-34.2 72.5q0.5 0.1 1.1 0 0.5-0.1 1-0.4 0.5-0.3 0.8-0.8 0.3-0.6 0.5-1.2 0.2-0.6 0.1-1.2 0-0.6-0.2-1.1-0.3-0.6-0.7-0.9-0.4-0.4-0.9-0.5-0.5-0.2-1-0.1-0.6 0.1-1 0.5-0.5 0.3-0.9 0.8-0.3 0.5-0.5 1.1-0.1 0.7-0.1 1.3 0 0.6 0.3 1.1 0.2 0.5 0.6 0.9 0.4 0.4 0.9 0.5z"/>
	<path class="s2" d="m184.8 135.2q-18.3 44.2-24.2 90.3-3.3 25.6-3.9 51 0 0.2-0.1 0.4-0.2 0.1-0.4 0.1-0.2 0.1-0.4-0.1-0.2-0.1-0.2-0.3-4.6-19.2-9.7-38.3-0.9-3.4-5.9-2.8l-5-0.6c5.1-29.9 16.1-62.6 36.3-86.3q-9.8 19.9-16.8 39.4-0.3 0.7-0.9 0.9-5.6 2.4-6 7.7c-1.1 14.3 20.4 5.2 10.8-6.5q-0.5-0.6-0.3-1.2 8.9-29 26.7-53.7z"/>
	<path class="s2" d="m178.1 136.8l-2.9 4.9c-23.4 25.8-35.5 59.4-41.7 93.3l-20 0.2c-2.1-10.7-2.9-10-12.2-10.4q-0.8-0.1-1.1-0.7l-2.8-6.3q-0.2-0.6 0.1-1.1 0.7-1.1 1.2-2.1c12.5-27 44.4-80.2 79.4-77.8z"/>
	<path class="s0" d="m242.7 122.9q2.9-0.6 3.3 1.7l-6.7 9.5q-14.8 21-19.6 46.3-0.1 0.8 0.6 1.1c10.9 4.5 11.8 20.3 8.4 30q-0.9-0.6-2.1-0.5l-0.4-1.8q-0.1-0.7 0-1.4 1.6-8-0.8-15.6c-4.7-14.7-20.6-5.9-22.5 4.7q-1.1 6.3-3.2 11.8l-2.1-0.7c-0.2-11 5.1-25.5 17.6-27.1q0.8-0.1 0.9-0.9 6.3-31.3 25.9-55.9 0.9-0.8 0.7-1.2z"/>
	<path class="s2" d="m300.6 283.8c-4.9-4.5-23.9-3.5-29.9-3.1q-0.8 0.1-1.1-0.6c-21-41.4-45.6-101.4-27.6-147.9 6.3-16.3 37.5-2.8 46.6 3.2 44.5 29.1 64.8 73.4 77.4 123.2 9.2 36.3 4.3 86.4-42.1 93.6-30.2 4.8-63.7 1-93.8-3.3q-0.1 0-0.2-0.1-0.1 0-0.1-0.1 0-0.1 0-0.1 0-0.1 0-0.2c8.1-18.3 8.3-43.8-5.7-59.7q-0.6-0.7 0.3-0.8c24.9-3.9 40.8-6.6 62.6-6.1q7.3 0.2 13.2 2.6 0.2 0 0.3 0 0.1 0 0.2-0.1 0-0.2 0-0.3 0-0.1-0.1-0.2z"/>
	<path class="s2" d="m202.2 167.6q-0.1 0.1-0.3 0.2-0.1 0.1-0.3 0.1-0.2 0-0.4-0.1-0.2-0.1-0.3-0.3-5.9-9.9-6.4-21.6 0-0.8 0.8-0.9 15.9-1.3 28.9-10.6 0.1-0.1 0.2-0.1 0.2 0 0.3 0.2 0.1 0.1 0.1 0.2 0 0.2 0 0.3-12.4 15.6-22.6 32.6z"/>
	<path class="s2" d="m192.6 144.6q-11.7 4.2-14.8 15.3c-1.8 6.7 9.5 7.6 13.3 7.2q0.8-0.1 1.2-0.7 2.2-2.9 3-8l5.1 10.5q0.3 0.7 0 1.3l-16.3 31.3 6.6-32q0-0.2 0-0.4-0.1-0.1-0.2-0.3-0.1-0.1-0.3-0.2-0.2-0.1-0.4-0.1-6.5 0.1-11.9-3.5-0.2-0.1-0.3-0.1-0.2 0-0.4 0-0.1 0.1-0.3 0.2-0.1 0.1-0.2 0.3l-5.3 12q5.6-21 14.3-39.8 0.1-0.2 0.2-0.3 0.2-0.1 0.4-0.1 0.2 0 0.4 0.1 0.1 0.2 0.2 0.4 1.5 4 5.7 6.9z"/>
	<path class="s2" d="m226.6 211c-2.9 12.6-6.2 25.8-14.9 35.5q-0.3 0.3-0.7 0.5-0.5 0.2-0.9 0.1-0.4 0-0.8-0.2-0.4-0.2-0.6-0.6-7-10.3-8.5-21.9-1-8.2-0.5-15.7 2.1-5.5 3.2-11.8c1.9-10.6 17.8-19.4 22.5-4.7q2.4 7.6 0.8 15.6-0.1 0.7 0 1.4z"/>
	<path class="s1" d="m197.6 208l2.1 0.7q-0.5 7.5 0.5 15.7 1.5 11.6 8.5 21.9 0.2 0.4 0.6 0.6 0.4 0.2 0.8 0.2 0.4 0.1 0.9-0.1 0.4-0.2 0.7-0.5c8.7-9.7 12-22.9 14.9-35.5q1.2-0.1 2.1 0.5c-2.6 12.8-6.7 27.3-15.9 37.1q-0.1 0.1-0.2 0.3 0 0.2 0 0.3 0 0.2 0.1 0.3 0 0.2 0.2 0.3 1.2 1 3.5 1.4 0 1.4-0.4 2.3l-5.4-2.7q-0.7-0.3-1.3 0.1-3.4 1.8-7.2 1.2-0.1-1.1 0.9-2l4.2-0.7q0.7-0.2 0.5-0.9-0.3-1-1.1-1.5-0.7-0.5-1.1-1.2-9.7-17.4-7.9-37.8z"/>
	<path class="s0" d="m215.9 253.5q0.5-0.9 0.5-2.3 2.7-0.7 5.7 0.3 0.6 0.2 1 0.7 0.4 0.5 0.4 1.2 0.1 0.6-0.3 1.2-0.3 0.5-0.8 0.8-3.9 2-6.5-1.9z"/>
	<path class="s0" d="m203 250.1q-1 0.9-0.9 2-2.4 2-6 0-0.5-0.3-0.8-0.9-0.3-0.5-0.2-1.1 0.1-0.6 0.5-1 0.3-0.5 0.9-0.7 3.5-1 6.5 1.7z"/>
	<path class="s3" d="m192.6 144.6l2.7 13.8q-0.8 5.1-3 8-0.4 0.6-1.2 0.7c-3.8 0.4-15.1-0.5-13.3-7.2q3.1-11.1 14.8-15.3z"/>
	<path class="s1" d="m175.2 141.7l-3.9 6.9c-20.2 23.7-31.2 56.4-36.3 86.3q-1.2 0.8-1.5 0.1c6.2-33.9 18.3-67.5 41.7-93.3z"/>
	<path class="s2" d="m151.6 195.9c-0.5 1.7 0.3 3.4 1.7 3.8 1.4 0.4 2.9-0.7 3.4-2.4 0.4-1.7-0.3-3.4-1.8-3.8-1.4-0.4-2.9 0.7-3.3 2.4z"/>
	<path class="s3" d="m184.1 201.5q-16.6 36.9-23.3 77-0.1 0.2-0.2 0.4-0.2 0.2-0.4 0.3-0.2 0-0.4 0-0.2 0-0.4-0.2l-0.9-0.7q-0.7-0.5-0.6-1.3c0.2-2.4 0.6-5 0.6-7.2q0.8-47.3 12.9-92.4l5.3-12q0.1-0.2 0.2-0.3 0.2-0.1 0.3-0.2 0.2 0 0.4 0 0.1 0 0.3 0.1 5.4 3.6 11.9 3.5 0.2 0 0.4 0.1 0.2 0.1 0.3 0.2 0.1 0.2 0.2 0.3 0 0.2 0 0.4z"/>
	<path class="s1" d="m24.8 84.7c0.6-0.1 1.2-0.1 1.7 0.2q0.9 3.7-0.8 7.4 0.6-3.4 0-6.4 0-0.5-1.1-0.3 0.4-0.7 0.2-0.9z"/>
	<path class="s2" d="m24.6 85.6q1.1-0.2 1.1 0.3 0.6 3 0 6.4l-3.8 12.2q-0.1 0.5 0 0.9 0.2 0.5 0.5 0.8 0.4 0.3 0.8 0.3 0.5 0.1 0.9 0 0.6-0.3 1.5 0.3 0.5 4.8 3.4 8 0.2 0.2 0.3 0.2 0.2 0 0.4-0.1 0.1-0.1 0.2-0.3 0-0.1 0-0.3l-3.7-8.8 5.4-5.7q0.5-0.6 1.2-0.5 0.6 0.1 1 0.4 1.2 9.4 6.7 17 0.4 0.6 0.2 1.3-3.2 9.6-3.1 19.7 0.1 0.3 0.2 0.5 0.1 0.1 0.3 0.2 0.7 0.1 0.7-0.5 0-12.7 5.1-24c5.5 0.9 6.9-8.1 7.8-12.3q0.2-1 1.5-0.8l0.4 0.9q0.4 0.6 0.3 1.3c-0.9 19.4 8.3 37.5 15.2 55.7q0.6 1.7-0.5 3.1c-11.2 14-35.1 18.3-51.7 15.8q-0.7-0.1-0.8-0.8-3.6-18.6-11.4-49.9-1.3-5.5 3.4-8.4 0.3-0.2 0.7-0.3 0.4 0 0.7 0.1 9.3 2.9 12.9 12 0.2 0.5 0.1 1-0.1 0.5-0.5 0.9-0.3 0.4-0.8 0.6-0.6 0.1-1.1 0-5.7-1.6-9.9-5.6-0.3-0.3-0.6 0-0.2 0.1-0.3 0.3-0.1 0-0.1 0.1 0 0.1 0.1 0.2c2.2 2.2 12.7 9.7 14.2 4.4 0.5-1.8-0.4-3.3-1.2-4.9q0-0.2 0-0.4 0-0.1 0.2-0.3 0.1-0.1 0.3-0.1 0.1 0 0.3 0.1c2.1 1.1 5.3 2.7 7.5 1.2q1.8-1.3 0.7-3.9-3.9-9.8-14-13.9-0.7-0.3-0.7-1.1-1.7-13.7 8-23.3z"/>
	<path fill-rule="evenodd" class="s2" d="m24.7 179.4q26.2 0.8 45.3-16.5 0.5-0.5 0.8 0.1l10.4 23q0.2 0.4 0.2 0.8 0 0.5-0.2 0.8-1.8 2.8-3.4 4-25 18.4-56.1 15.1c-0.6-0.1-1.2-0.3-1.6-0.8-0.4-0.4-0.7-0.9-0.8-1.5l-3.1-25q0-0.7 0.6-0.6 3.9 0.5 7.9 0.6zm10.7 12.1c0-0.9-0.3-1.8-1-2.5-0.6-0.6-1.5-1-2.4-1-1 0-1.9 0.4-2.5 1-0.7 0.7-1 1.6-1 2.5 0 0.9 0.3 1.8 1 2.4 0.6 0.7 1.5 1.1 2.5 1.1 0.9 0 1.8-0.4 2.4-1.1 0.7-0.6 1-1.5 1-2.4z"/>
	<path fill-rule="evenodd" class="s1" d="m35.4 191.5c0 0.9-0.3 1.8-1 2.4-0.6 0.7-1.5 1.1-2.4 1.1-1 0-1.9-0.4-2.5-1.1-0.7-0.6-1-1.5-1-2.4 0-0.9 0.3-1.8 1-2.5 0.6-0.6 1.5-1 2.5-1 0.9 0 1.8 0.4 2.4 1 0.7 0.7 1 1.6 1 2.5zm-1.2 0c0-0.6-0.2-1.2-0.7-1.6-0.4-0.4-1-0.7-1.6-0.7-0.6 0-1.1 0.3-1.6 0.7-0.4 0.4-0.6 1-0.6 1.6 0 0.6 0.2 1.2 0.6 1.6 0.5 0.4 1 0.7 1.6 0.7 0.6 0 1.2-0.3 1.6-0.7 0.5-0.4 0.7-1 0.7-1.6z"/>
	<path class="s2" d="m31.9 193.8c1.3 0 2.3-1 2.3-2.3 0-1.3-1-2.3-2.3-2.3-1.2 0-2.2 1-2.2 2.3 0 1.3 1 2.3 2.2 2.3z"/>
	<path class="s2" d="m71.8 234.1l-23.3 1.6q-1 0.1-1.8 0.6-0.9 0.4-1.5 1.2-0.5 0.8-0.7 1.8-0.2 0.9 0 1.9l19.8 78.2c-19.7-9.5-27.5-28.8-33-48.4q-6.7-24.4-11.2-62.9-0.1-0.6 0.5-0.5c19.1 2.5 47.4-2.6 60.7-18.3q0.1-0.1 0.3-0.2 0.3-0.1 0.5-0.1 0.2 0 0.4 0.2 0.2 0.1 0.3 0.4l16.3 34.8q0 0.1 0 0.3 0 0.1-0.1 0.2 0 0.1-0.2 0.2-0.1 0.1-0.2 0.1-10.4 0-21.1 0c-6.4 0-7.7 3.2-5.7 8.9z"/>
	<path class="s2" d="m71.9 229.9q-0.1-0.7 0-1.3 0.2-0.7 0.6-1.2 0.4-0.5 0.9-0.8 0.6-0.3 1.3-0.3l29.2-0.1q0.4 0 0.7 0.3 0.4 0.2 0.5 0.6l4.5 18.9q0 0.3 0 0.5-0.1 0.3-0.3 0.5-0.1 0.3-0.4 0.4-0.3 0.1-0.6 0.1h-31.1q-0.4 0-0.7-0.2-0.3-0.3-0.4-0.7z"/>
	<path class="s2" d="m112.1 234.8l-3.6 1.5-1.6-8.3c0-0.4 0.1-0.8 0.3-1.1 0.2-0.4 0.6-0.6 1-0.7 0.4-0.1 0.8 0 1.1 0.2 0.4 0.2 0.6 0.5 0.7 0.9z"/>
	<path class="s0" d="m71.8 234.1l3.3 12.6c0.1 0.6 0.5 1.2 1.1 1.7 0.5 0.4 1.2 0.6 1.9 0.6h29.8q0.7 0 1.3-0.3 0.5-0.3 0.9-0.8 0.5-0.5 0.6-1.1 0.1-0.7 0-1.3l-2.2-9.2 3.6-1.5q1 1.1 1.4 0.4l20-0.2q0.3 0.7 1.5-0.1l5 0.6-1.1 0.1q-0.7 0.1-0.1 0.5 1.8 1.3 2.2 2.9 6.3 24.4 12.4 48.8 0.1 0.2 0 0.4 0 0.1-0.2 0.2-0.1 0.2-0.2 0.2-0.2 0.1-0.4 0-14.8-3.3-30-3.7c-0.4 0-0.9 0.2-1.3 0.5-0.4 0.2-0.7 0.6-0.8 1.1-0.1 0.4-0.1 0.9 0.1 1.4 0.1 0.4 0.4 0.8 0.8 1.1l8.2 5.1q0.2 0.1 0.1 0.3-0.1 0.3-0.5 0.3-9-2.8-18.2-2.1-0.7 0.1-1.2 0.5c-0.3 0.3-0.6 0.6-0.7 1.1-0.1 0.4 0 0.8 0.1 1.2q0.3 0.6 0.8 1 0.8 0.5 1.2 1.2 0.1 0.2 0 0.5-0.1 0.3-0.3 0.4l-2 1.2q-0.4 0.2-0.6 0.5-0.2 0.3-0.3 0.7 0 0.4 0.1 0.8 0.1 0.4 0.4 0.7 5.7 6.2 13.2 10 0.1 0 0.2 0.2 0 0.1 0 0.3-0.1 0.1-0.2 0.2-0.2 0.1-0.3 0-3.2-0.9-5.6 1-0.3 0.3-0.4 0.7 0 0.4 0.1 0.7c6.5 12.6 37.5 20.8 50.3 23.8q0.7 0.1 1 0.8c1.7 5.4 3.7 9.9-0.9 14.1l-88.7-0.1c-1.2 0-2.3-0.4-3.2-1.1-0.9-0.7-1.5-1.6-1.8-2.7l-7.5-29-0.4-1.9-19.8-78.2q-0.2-1 0-1.9 0.2-1 0.7-1.8 0.6-0.8 1.5-1.2 0.8-0.5 1.8-0.6z"/>
	<path class="s2" d="m151.9 301.2q-0.1-0.6-0.8-0.7-14.4-3.5-27-11.3-3.3-2 0.5-2.6 2.7-0.5 7.5 0.2c9.3 1.3 20.6 4.1 29.9 3.9q0.3 0 0.5-0.2 0.2-0.2 0.2-0.5 0-0.3-0.2-0.5-0.2-0.2-0.5-0.2l-2.1-0.1q-0.5-0.1-0.8-0.3-0.4-0.3-0.5-0.7l-2.1-8.3q-0.3-1 0.6-0.6c12 5.7 27.1 11.9 39.9 10.9q0.7 0 1.3 0.6c12.2 13.3 10.5 38.1 3.1 53q-0.3 0.7-1.1 0.6-28.9-3.5-56.3-12.5-14.9-4.9-26.9-15.5-0.2-0.2-0.3-0.6-0.1-0.3 0-0.6 0.1-0.3 0.4-0.5 0.3-0.2 0.6-0.2 6.8 0 13.4 3.2 9.1 4.4 19 7 0.4 0.2 0.6 0 0.2-0.1 0.3-0.3 0.1-0.5-0.4-0.6c-12-3.4-32.3-11.7-40.9-21.9q-0.6-0.6 0.1-1.1 2.3-1.9 5-0.3 16.5 10.5 35.6 14.6 0.2 0 0.3 0 0.1-0.1 0.2-0.2 0.1-0.1 0.1-0.2 0-0.1 0-0.3-0.2-0.5-0.7-0.6-21.2-4.5-39.4-17.6-0.3-0.3-0.5-0.7-0.1-0.5 0-0.9 0.2-0.5 0.6-0.7 0.3-0.3 0.8-0.3c13.4 0.2 26.5 4.6 39.4 8.2q0.8 0.2 0.6-0.6z"/>
	<path fill-rule="evenodd" class="s2" d="m202.5 345q-0.1 0-0.1 0-0.1-0.1-0.1-0.1-0.1-0.1-0.1-0.2 0-0.1 0.1-0.2c8.4-15.9 8.9-38.3-2.1-53.5q0-0.1-0.1-0.3 0-0.1 0.1-0.3 0-0.1 0.2-0.2 0.1-0.1 0.2-0.1l20.4-1.6q0.3 0 0.6 0.1 0.3 0.1 0.5 0.3c14.8 14.2 14.1 41.2 6.6 58.1q-0.8 1.8-2.7 1.5zm19.8-4.7c0-1-0.3-1.9-1-2.5-0.7-0.7-1.5-1.1-2.5-1.1-0.9 0-1.8 0.4-2.5 1.1-0.6 0.6-1 1.5-1 2.5 0 0.9 0.4 1.8 1 2.4 0.7 0.7 1.6 1.1 2.5 1.1 1 0 1.8-0.4 2.5-1.1 0.7-0.6 1-1.5 1-2.4z"/>
	<path fill-rule="evenodd" class="s1" d="m222.3 340.3c0 1-0.3 1.9-1 2.5-0.7 0.7-1.6 1-2.5 1-0.9 0-1.8-0.3-2.5-1-0.6-0.6-1-1.5-1-2.5 0-0.9 0.4-1.8 1-2.5 0.7-0.6 1.6-1 2.5-1 0.9 0 1.8 0.4 2.5 1 0.7 0.7 1 1.6 1 2.5zm-1.3 0.1c0-0.6-0.2-1.1-0.6-1.5-0.4-0.4-1-0.7-1.5-0.7-0.6 0-1.2 0.3-1.6 0.7-0.4 0.4-0.6 0.9-0.6 1.5 0 0.6 0.2 1.2 0.6 1.6 0.4 0.4 1 0.6 1.6 0.6 0.5 0 1.1-0.2 1.5-0.6 0.4-0.4 0.6-1 0.6-1.6z"/>
	<path class="s2" d="m218.9 342.6c1.2 0 2.1-1 2.1-2.2 0-1.2-0.9-2.2-2.1-2.2-1.3 0-2.2 1-2.2 2.2 0 1.2 0.9 2.2 2.2 2.2z"/>
	<path class="s1" d="m26.3 105.5l3.6 8.8q0 0.2 0 0.3-0.1 0.2-0.2 0.3-0.2 0.1-0.4 0.1-0.1 0-0.3-0.2-2.9-3.2-3.4-8 0-1.1 0.7-1.3z"/>
	<path class="s2" d="m12.4 111.4c6-4.4 15.9 8.5 17.9 13.1q0.1 0.3 0.1 0.6 0 3.1-3.6 1.8c-5.7-2.2-10.3-6.4-15.6-9.4q-0.7-0.4-0.8-1.2-0.2-3.3 2-4.9z"/>
	<path class="s1" d="m35 97.5q0.9 9.4 5.8 17.7 0.1 0.2 0.3 0.3 0.3 0.1 0.5 0 0.2 0 0.4-0.2 0.2-0.2 0.2-0.4 0.2-2 1.7-3.6v2.6q-5.1 11.3-5.1 24 0 0.6-0.7 0.5-0.2-0.1-0.3-0.2-0.1-0.2-0.2-0.5-0.1-10.1 3.1-19.7 0.2-0.7-0.2-1.3-5.5-7.6-6.7-17z"/>
	<path class="s1" d="m172.9 78.9c4.6 0.6 7.9 1.5 9.4-4.2q0.2-0.7 0.7-0.2 0.6 0.4 0.2 1.4-2.6 7.2-10.6 4.3-0.3-0.1-0.4-0.3-0.1-0.3 0-0.5 0-0.2 0.2-0.4 0.2-0.1 0.5-0.1z"/>
	<path class="s1" d="m219.3 76c1.4-6.5 7.6-11.4 14.2-11q0.5 0 0.5 0.6 0 0.6-0.6 0.6c-8.6 0.2-9 4.2-13.4 10.1q-0.1 0.1-0.2 0.1-0.2 0-0.3 0-0.1-0.1-0.2-0.2 0-0.1 0-0.2z"/>
	<path class="s1" d="m193 60.7q0.7 0.2 1.1 0.6 0.7 0.9-0.4 1.3-5.3 2.1-10.6 0.1-0.8-0.3-1.2-1.1-0.8-2.1 0.8-3.8 0.4-0.5 1-0.2 4.6 1.8 9.3 3.1z"/>
	<path class="s2" d="m180.9 17.5q5.4 2.7 7.1 8.2 0 0.1 0 0.2 0 0.1 0 0.2-0.1 0.1-0.1 0.2-0.1 0-0.2 0.1-0.1 0-0.2 0-0.1 0-0.2 0-0.1-0.1-0.2-0.1-0.1-0.1-0.1-0.2-2.3-4.5-6.7-7.7 0.7-0.7 0.6-0.9z"/>
</svg>