<svg width="313" height="248" viewBox="0 0 313 248" fill="none" xmlns="http://www.w3.org/2000/svg">
<g clip-path="url(#clip0_887_5453)">
<path d="M87.317 209.722C87.5561 209.77 87.7952 209.818 87.9865 209.818H88.1299C88.7037 209.818 89.3254 209.387 89.947 208.574C92.1945 205.562 95.2548 195.424 92.4814 184.57C89.3254 172.28 76.9883 164.677 76.8448 164.582L76.5101 164.39L76.3189 164.725C76.2232 164.869 69.0983 177.493 72.2543 189.782C75.1712 200.923 83.5872 208.67 87.317 209.722ZM76.7492 165.442C78.7098 166.733 88.9428 173.858 91.7163 184.761C93.2943 190.882 93.3421 202.74 89.2776 208.144C88.6559 208.957 88.2256 209.1 87.9865 209.148C87.8908 209.148 87.6517 209.1 87.4605 209.052C84.5436 208.24 75.9363 201.258 72.9238 189.638C70.1503 178.688 75.6972 167.499 76.7492 165.442ZM254.154 184.091C254.824 184.57 255.446 184.809 255.924 184.809C256.067 184.809 256.163 184.809 256.306 184.761C259.223 183.852 265.774 173.285 264.818 160.661C263.766 147.989 252.959 138.377 252.816 138.282L252.529 138.043L252.29 138.329C252.194 138.425 243.013 149.662 244.017 162.334C244.83 172.472 250.425 181.461 254.154 184.091ZM252.624 139.047C254.298 140.625 263.192 149.423 264.101 160.708C265.105 173.093 258.602 183.326 256.115 184.091C255.924 184.139 255.446 184.139 254.585 183.518C251.572 181.414 245.595 173.045 244.734 162.239C243.874 150.953 251.238 140.864 252.624 139.047ZM225.272 209.818H225.416C225.655 209.818 225.846 209.77 226.085 209.722C227.759 209.244 230.771 207.235 233.784 203.697C236.223 200.876 239.426 196.189 241.1 189.782C244.256 177.493 237.131 164.821 237.036 164.725L236.844 164.39L236.51 164.582C236.366 164.677 224.029 172.233 220.873 184.57C218.1 195.376 221.16 205.514 223.407 208.574C224.125 209.387 224.699 209.818 225.272 209.818ZM221.638 184.761C224.459 173.858 234.692 166.686 236.605 165.442C237.705 167.499 243.204 178.736 240.383 189.638C237.37 201.258 228.763 208.24 225.846 209.052C225.655 209.1 225.416 209.148 225.32 209.148H225.272C225.081 209.148 224.651 209.005 224.029 208.192C220.06 202.741 220.108 190.882 221.638 184.761ZM35.3387 150.523C35.4822 150.619 35.6256 150.714 35.7213 150.762L35.8647 150.81C36.0082 150.858 36.1994 150.858 36.4385 150.858C39.9771 150.858 49.8276 144.594 54.8485 133.93C60.252 122.454 55.6136 108.682 55.5658 108.539L55.4701 108.204L55.1354 108.348C54.992 108.395 41.4594 113.56 36.0082 124.988C30.6047 136.417 32.9478 148.563 35.3387 150.523ZM36.6776 125.275C41.5073 115.09 52.888 110.021 55.0398 109.113C55.7092 111.312 59.0087 123.41 54.2269 133.595C49.1103 144.402 38.7338 150.81 36.1038 150.093L36.0082 150.045C35.9604 149.997 35.8647 149.997 35.8647 149.997L35.8169 149.949C34.0954 148.61 31.0829 137.038 36.6776 125.275ZM51.4534 103.183C59.3912 93.237 58.148 78.7959 58.148 78.6525L58.1001 78.2699L57.7176 78.3177C57.5741 78.3177 43.1809 80.1348 35.1953 90.0332C27.2575 99.8837 26.6836 112.316 28.5964 114.707C28.7876 114.946 29.1224 115.138 29.5049 115.281C29.8396 115.377 30.2222 115.425 30.7004 115.425C35.0996 115.472 44.8545 111.408 51.4534 103.183ZM29.744 114.612C29.5049 114.564 29.3136 114.42 29.218 114.277C27.5922 112.269 28.0225 100.171 35.8169 90.4635C42.894 81.665 55.1832 79.4175 57.4785 79.0828C57.622 81.3781 58.0045 93.9064 50.9274 102.705C43.6113 111.79 32.6131 115.425 29.744 114.612ZM57.0481 184.761C57.1916 184.809 57.2872 184.809 57.4307 184.809C57.9567 184.809 58.5305 184.57 59.2478 184.091C62.9776 181.461 68.5723 172.472 69.3852 162.334C70.3894 149.662 61.2083 138.473 61.1127 138.329L60.8736 138.043L60.5867 138.282C60.491 138.377 49.6363 147.989 48.5843 160.661C47.5802 173.237 54.1312 183.852 57.0481 184.761ZM49.3016 160.708C50.2102 149.471 59.0565 140.673 60.778 139.047C62.2125 140.864 69.5765 150.953 68.668 162.239C67.9029 172.185 62.4516 180.935 58.8652 183.47C57.9567 184.091 57.4785 184.091 57.2872 184.044C55.1832 183.422 48.2974 173.667 49.3016 160.708ZM258.315 108.3L257.98 108.156L257.884 108.491C257.693 109.065 253.246 122.406 258.602 133.882C263.622 144.546 273.473 150.81 277.059 150.81C277.298 150.81 277.49 150.81 277.633 150.762L277.729 150.714C277.872 150.667 278.016 150.619 278.111 150.523C280.55 148.658 282.893 136.417 277.442 124.988C271.991 113.512 258.841 108.539 258.315 108.3ZM276.772 125.275C282.367 137.038 279.307 148.658 277.585 149.997C277.585 149.997 277.49 150.045 277.442 150.045L277.394 150.093C274.716 150.81 264.34 144.402 259.223 133.643C254.394 123.315 257.693 111.408 258.41 109.16C260.562 110.021 271.895 114.994 276.772 125.275ZM34.9562 77.0266C35.1474 77.3614 35.5778 77.6483 36.2473 77.8396C36.7733 77.983 37.4427 78.0786 38.2556 78.0786C42.9896 78.0786 52.0272 75.4965 59.2 68.8019C68.4767 60.1468 69.2896 45.658 69.2896 45.5145V45.132H68.907C68.7636 45.132 54.2747 44.845 44.998 53.5479C35.7213 62.1552 33.426 74.3488 34.9562 77.0266ZM68.5723 45.8492C68.381 48.1445 66.9943 60.5772 58.7218 68.2759C50.6405 75.7834 39.7858 78.0786 36.4385 77.1701C35.8169 76.9788 35.6256 76.7876 35.5778 76.6919C34.2867 74.4923 36.3907 62.5856 45.524 54.0739C53.7487 46.3274 66.2292 45.8492 68.5723 45.8492ZM291.787 88.4074C288.105 98.0188 289.253 108.587 291.5 112.508C292.026 113.416 292.552 113.894 293.174 113.99H293.461C293.748 113.99 294.13 113.942 294.609 113.799C298.004 112.842 306.946 107.009 311.201 95.867C315.792 84.0081 310.149 70.6668 310.102 70.5234L309.958 70.1887L309.623 70.3321C309.528 70.4277 296.378 76.5485 291.787 88.4074ZM309.623 71.1928C310.484 73.3446 314.644 85.1557 310.58 95.6757C306.659 105.909 298.147 112.125 294.417 113.129C293.844 113.321 293.461 113.273 293.27 113.273C293.078 113.225 292.648 113.034 292.122 112.173C290.305 109.017 288.488 98.8795 292.457 88.6943C296.521 78.1265 307.52 72.2448 309.623 71.1928ZM283.897 115.329C284.28 115.233 284.567 115.042 284.806 114.755C286.719 112.364 286.145 99.8837 278.207 90.081C270.221 80.1826 255.828 78.3655 255.685 78.3655L255.302 78.3177L255.254 78.7003C255.254 78.8437 253.963 93.2848 261.949 103.231C268.548 111.456 278.303 115.472 282.654 115.472C283.132 115.472 283.563 115.425 283.897 115.329ZM262.523 102.753C255.446 93.9543 255.828 81.4259 255.972 79.1306C258.267 79.4654 270.556 81.7606 277.633 90.5114C285.427 100.171 285.858 112.269 284.232 114.277C284.136 114.42 283.945 114.516 283.706 114.612C280.789 115.425 269.791 111.79 262.523 102.753ZM274.286 46.9969C274.477 46.9969 274.621 46.9969 274.764 46.949L274.812 46.9012C274.812 46.9012 274.86 46.9012 274.908 46.8534C274.955 46.8534 275.003 46.8056 275.051 46.8056C277.681 45.2754 281.793 33.5121 278.064 21.4142C274.382 9.26835 261.71 2.23909 261.566 2.19127L261.232 2L261.088 2.33473C261.04 2.47818 254.489 15.4369 258.219 27.5827C261.614 38.6765 270.747 46.9969 274.286 46.9969ZM261.566 3.00418C263.575 4.19963 274.142 10.8464 277.442 21.6532C281.267 34.086 276.629 45.132 274.764 46.1839C274.764 46.1839 274.716 46.1839 274.668 46.2318C274.621 46.2318 274.621 46.2796 274.573 46.2796C272.278 46.8534 262.523 39.1547 258.888 27.3914C255.589 16.5845 260.562 5.10818 261.566 3.00418ZM254.25 68.8019C261.423 75.4486 270.46 78.0786 275.194 78.0786C276.007 78.0786 276.677 77.983 277.203 77.8396C277.872 77.6483 278.303 77.3614 278.494 77.0266C280.024 74.3966 277.729 62.1552 268.452 53.5479C259.175 44.8929 244.686 45.132 244.543 45.132H244.16V45.5145C244.113 45.658 244.926 60.099 254.25 68.8019ZM267.926 54.0261C277.059 62.4899 279.163 74.3966 277.824 76.6441C277.777 76.7397 277.585 76.931 276.964 77.1223C273.664 78.0786 262.762 75.7834 254.68 68.2281C246.408 60.5294 245.021 48.0967 244.83 45.8014C247.173 45.8492 259.654 46.3274 267.926 54.0261ZM286.671 75.0183C286.862 75.0183 287.149 74.9705 287.388 74.9226C291.07 73.8706 299.343 65.9807 301.973 54.5999C304.842 42.215 297.334 29.7823 297.286 29.6389L297.095 29.3041L296.808 29.4954C296.665 29.5911 284.567 37.5289 281.698 49.8659C279.402 59.8599 282.08 70.1887 284.854 73.7272C285.475 74.5879 286.097 75.0183 286.671 75.0183ZM282.367 50.0572C284.902 39.059 294.943 31.6472 296.856 30.3083C298.004 32.3167 303.837 43.4105 301.303 54.4087C298.625 66.1719 290.018 73.4403 287.197 74.2054C287.005 74.2532 286.814 74.301 286.719 74.301C286.527 74.301 286.097 74.1576 285.428 73.3446C283.132 70.4756 279.881 60.6728 282.367 50.0572ZM216.091 225.072C211.788 225.215 207.341 226.267 203.228 228.036C197.251 230.571 192.66 234.444 193.186 236.5C193.999 239.369 203.659 245.92 215.613 245.92C216.043 245.92 216.474 245.92 216.904 245.872C220.108 245.777 223.407 244.964 226.994 243.482C234.501 240.278 239.666 234.874 239.713 234.826L239.952 234.54L239.666 234.3C239.618 234.253 228.763 224.593 216.091 225.072ZM226.755 242.86C223.264 244.294 220.06 245.06 216.904 245.203C204.567 245.681 194.621 238.795 193.904 236.309C193.569 235.018 197.155 231.431 203.515 228.706C207.532 226.936 211.883 225.932 216.091 225.789H217C227.854 225.789 237.179 233.201 238.9 234.635C237.801 235.735 233.162 240.086 226.755 242.86ZM209.205 213.165C215.135 201.928 211.07 187.965 211.07 187.821L210.975 187.487L210.64 187.582C210.592 187.582 209.779 187.869 208.44 188.443C204.663 190.069 195.482 194.707 190.843 203.458C186.061 212.543 186.014 223.159 187.783 227.367C188.165 228.323 188.691 228.897 189.265 229.04C189.457 229.088 189.648 229.088 189.887 229.088C190.795 229.088 192.134 228.754 193.617 228.084C198.399 225.98 205.093 220.959 209.205 213.165ZM189.361 228.323C189.026 228.228 188.691 227.797 188.357 227.08C186.922 223.685 186.301 213.404 191.369 203.792C195.864 195.281 204.902 190.69 208.584 189.112C209.397 188.778 210.018 188.539 210.401 188.395C210.975 190.643 213.748 202.836 208.488 212.83C204.471 220.481 197.92 225.406 193.139 227.462C191.226 228.323 189.935 228.467 189.361 228.323ZM250.616 199.776C250.568 199.776 250.52 199.776 250.52 199.824H250.425C240.574 202.645 232.875 209.865 231.106 213.978C230.724 214.886 230.676 215.604 230.915 216.13C231.967 218.138 238.661 221.103 246.982 221.103C249.899 221.103 252.959 220.768 256.115 219.859C256.163 219.859 256.211 219.859 256.211 219.812C268.356 216.321 275.673 203.936 275.72 203.792L275.912 203.458L275.577 203.266C275.577 203.219 262.857 196.381 250.616 199.776ZM256.115 219.094C256.067 219.094 256.019 219.094 256.019 219.142C243.491 222.633 232.588 217.66 231.584 215.795C231.489 215.604 231.393 215.221 231.776 214.265C234.358 208.144 244.543 202.262 250.568 200.493C250.616 200.493 250.664 200.493 250.664 200.445H250.712C261.566 197.433 272.851 202.693 274.955 203.745C273.76 205.705 266.874 216.034 256.115 219.094ZM105.105 188.443C103.766 187.869 102.906 187.582 102.858 187.582L102.523 187.487L102.428 187.821C102.38 187.965 98.363 201.88 104.292 213.165C108.405 220.959 115.099 226.028 119.977 228.084C121.459 228.754 122.75 229.088 123.707 229.088C123.946 229.088 124.137 229.088 124.328 229.04C124.902 228.897 125.38 228.323 125.811 227.367C127.628 223.207 127.532 212.591 122.75 203.458C118.112 194.755 108.883 190.069 105.105 188.443ZM125.093 227.08C124.663 228.036 124.28 228.275 124.089 228.323C123.515 228.467 122.224 228.323 120.216 227.415C115.434 225.358 108.931 220.433 104.914 212.782C99.6541 202.788 102.428 190.595 103.049 188.347C103.432 188.491 104.053 188.682 104.866 189.065C108.548 190.643 117.634 195.233 122.081 203.745C127.102 213.452 126.528 223.733 125.093 227.08ZM285.284 163.147C282.224 164.008 279.45 165.299 277.012 166.973C268.548 172.806 263.575 182.179 263.24 186.721C263.144 187.726 263.336 188.491 263.766 188.873C264.579 189.59 266.778 190.164 269.887 190.164C272.373 190.164 275.434 189.782 278.781 188.873C282.367 187.869 285.858 186.243 288.87 184.139C299.295 176.919 302.212 162.717 302.212 162.573L302.259 162.191L301.877 162.143C301.829 162.143 293.7 160.804 285.284 163.147ZM288.44 183.518C285.475 185.574 282.08 187.152 278.542 188.156C271.273 190.212 265.344 189.399 264.244 188.347C264.101 188.204 263.862 187.821 263.957 186.769C264.244 183.135 268.452 173.763 277.442 167.594C279.785 165.968 282.511 164.725 285.523 163.864C289.396 162.765 293.174 162.478 296.139 162.478C298.721 162.478 300.681 162.717 301.494 162.812C300.873 165.06 297.717 177.158 288.44 183.518ZM313.019 113.512L312.971 113.129L312.588 113.225C312.54 113.225 311.823 113.368 310.58 113.751C306.563 114.899 296.665 118.437 291.022 126.566C285.188 135.078 283.85 145.598 285.141 149.949C285.428 150.906 285.858 151.527 286.384 151.766C286.671 151.91 287.101 151.958 287.579 151.958C288.392 151.958 289.444 151.766 290.688 151.432C295.565 150.045 303.072 145.837 308.189 138.473C315.409 127.953 313.066 113.655 313.019 113.512ZM307.615 137.995C302.594 145.215 295.278 149.375 290.544 150.714C288.488 151.288 287.245 151.288 286.719 151.049C286.527 150.953 286.193 150.714 285.906 149.71C283.993 143.255 288.105 132.161 291.692 126.949C297.191 119.011 306.946 115.52 310.867 114.42C311.584 114.229 312.11 114.086 312.445 113.99C312.684 116.285 313.975 128.718 307.615 137.995ZM26.062 74.9226C26.3011 74.9705 26.5402 75.0183 26.7793 75.0183C27.3531 75.0183 27.9747 74.5879 28.5964 73.775C31.4176 70.1887 34.0954 59.9077 31.7524 49.9138C28.8833 37.5289 16.7853 29.5911 16.6418 29.5432L16.3549 29.352L16.1636 29.6867C16.1158 29.7823 8.60838 42.1672 11.4775 54.5999C14.1075 65.9807 22.38 73.8706 26.062 74.9226ZM16.594 30.3561C18.5067 31.6951 28.5485 39.1069 31.0829 50.105C33.5216 60.7207 30.3178 70.5234 28.0225 73.3925C27.3531 74.2054 26.9227 74.3488 26.7315 74.3488C26.6358 74.3488 26.4445 74.3488 26.2533 74.2532C23.432 73.4881 14.8726 66.1719 12.1469 54.4565C9.66038 43.4105 15.4464 32.3645 16.594 30.3561ZM18.7936 113.799C19.2718 113.942 19.6544 113.99 19.9413 113.99H20.2282C20.802 113.894 21.3758 113.416 21.854 112.508C24.1015 108.587 25.2969 98.0188 21.5671 88.4074C16.9766 76.5485 3.87439 70.4277 3.73093 70.3799L3.3962 70.2365L3.25275 70.5712C3.20493 70.7146 -2.43761 84.1037 2.15293 95.9148C6.45656 107.009 15.3986 112.842 18.7936 113.799ZM3.82657 71.1928C5.88275 72.2448 16.9287 78.1265 20.9455 88.6943C24.8665 98.8795 23.0973 109.017 21.2802 112.173C20.7542 113.082 20.3716 113.273 20.1804 113.273C19.9891 113.273 19.6066 113.321 19.0327 113.129C15.3029 112.077 6.79129 105.909 2.87021 95.6279C-1.19434 85.1557 2.96584 73.3446 3.82657 71.1928ZM25.7751 151.91C26.2533 151.91 26.6836 151.862 26.9705 151.719C27.4965 151.479 27.9269 150.906 28.2138 149.901C29.5049 145.55 28.166 134.982 22.3322 126.518C16.6896 118.389 6.79129 114.851 2.77457 113.703C1.57912 113.368 0.814026 113.225 0.766208 113.177L0.383663 113.082L0.335845 113.464C0.288027 113.608 -2.00724 127.905 5.16548 138.377C10.282 145.789 17.7895 149.997 22.6669 151.336C23.9102 151.719 24.9622 151.91 25.7751 151.91ZM5.83493 137.995C-0.572699 128.718 0.71839 116.285 1.05312 113.99C1.38784 114.086 1.91384 114.181 2.63111 114.42C6.5522 115.568 16.2593 119.011 21.8062 126.949C25.3925 132.161 29.5049 143.255 27.5922 149.71C27.3053 150.714 26.9705 150.953 26.7793 151.049C26.2533 151.24 25.01 151.288 22.9538 150.714C18.1242 149.375 10.808 145.263 5.83493 137.995ZM38.3034 46.8056C38.3513 46.8534 38.3991 46.8534 38.4469 46.8534C38.4947 46.8534 38.4947 46.8534 38.5425 46.9012L38.5903 46.949C38.7338 46.9969 38.9251 46.9969 39.0685 46.9969C42.6549 46.9969 51.7403 38.6765 55.1832 27.5827C58.9131 15.4369 52.362 2.47818 52.3142 2.33473L52.1707 2L51.836 2.19127C51.6925 2.23909 39.0207 9.26836 35.2909 21.462C31.6089 33.5121 35.6734 45.2754 38.3034 46.8056ZM36.0082 21.6532C39.3076 10.8942 49.8754 4.19963 51.8838 3.00418C52.888 5.10818 57.8611 16.5845 54.5616 27.3914C50.9274 39.1547 41.1725 46.8056 38.8773 46.2796C38.8294 46.2796 38.8294 46.2318 38.7816 46.2318C38.7338 46.2318 38.7338 46.2318 38.686 46.1839C36.8211 45.0841 32.1827 34.0381 36.0082 21.6532ZM82.4874 216.13C82.7743 215.604 82.6787 214.886 82.2961 213.978C80.5268 209.818 72.8759 202.597 62.9776 199.824H62.9298C62.882 199.824 62.882 199.824 62.7863 199.776C50.5449 196.381 37.8253 203.266 37.7296 203.314L37.3949 203.506L37.5862 203.84C37.6818 203.984 44.9502 216.369 57.096 219.859C57.1438 219.859 57.1438 219.907 57.1916 219.907C60.3476 220.768 63.408 221.15 66.3249 221.15C74.7409 221.103 81.3876 218.138 82.4874 216.13ZM81.8179 215.795C80.8138 217.708 69.9112 222.681 57.3829 219.142C57.3351 219.142 57.3351 219.094 57.2872 219.094C46.5282 215.986 39.6423 205.705 38.3991 203.745C40.4553 202.693 51.7403 197.433 62.6429 200.445H62.6907C62.7385 200.445 62.7385 200.445 62.8341 200.493C68.907 202.215 79.0445 208.096 81.6267 214.265C82.0092 215.173 81.9136 215.604 81.8179 215.795ZM110.174 227.988C106.014 226.219 101.567 225.167 97.311 225.024C84.6392 224.498 73.7845 234.157 73.6889 234.253L73.4019 234.492L73.641 234.779C73.6889 234.826 78.8532 240.23 86.3607 243.434C89.8036 244.916 93.1986 245.681 96.4503 245.825C96.8806 245.825 97.311 245.872 97.7414 245.872C109.744 245.872 119.403 239.274 120.168 236.452C120.742 234.396 116.151 230.571 110.174 227.988ZM119.546 236.213C118.973 238.269 109.505 245.586 96.5459 245.107C93.3899 245.012 90.0427 244.199 86.6954 242.764C80.2878 240.039 75.6016 235.639 74.5018 234.54C76.271 233.057 86.0737 225.311 97.311 225.741C101.471 225.932 105.823 226.936 109.887 228.658C116.247 231.384 119.881 234.97 119.546 236.213ZM49.6842 188.873C50.1145 188.491 50.3058 187.773 50.2102 186.721C49.8754 182.179 44.9023 172.806 36.4385 166.973C33.9998 165.299 31.2264 164.008 28.166 163.147C19.75 160.756 11.6209 162.143 11.5253 162.143L11.1427 162.191L11.1906 162.573C11.2384 162.717 14.1075 176.919 24.5318 184.139C27.5444 186.243 31.0351 187.869 34.6214 188.873C37.9209 189.83 40.9813 190.164 43.5156 190.164C46.6238 190.164 48.8712 189.59 49.6842 188.873ZM34.8605 188.156C31.322 187.152 27.9269 185.574 24.9622 183.518C15.6855 177.11 12.5295 165.06 11.9556 162.765C13.6293 162.525 20.6585 161.76 27.8791 163.817C30.8916 164.677 33.5694 165.921 35.9604 167.546C44.9502 173.715 49.1582 183.087 49.4451 186.721C49.5407 187.773 49.3016 188.156 49.1582 188.299C48.0583 189.351 42.1767 190.212 34.8605 188.156Z" fill="url(#paint0_linear_887_5453)" stroke="url(#paint1_linear_887_5453)" stroke-width="0.669454"/>
<path d="M93.6815 98.935L101.871 123.415C102.141 124.285 102.426 125.14 102.726 125.98C103.506 128.11 104.211 129.52 104.841 130.21C105.171 130.6 105.591 130.9 106.101 131.11C106.611 131.32 107.166 131.455 107.766 131.515V133H94.5365V131.515C95.4365 131.455 96.3515 131.395 97.2815 131.335C98.3615 131.095 98.9015 130.48 98.9015 129.49C98.9015 129.16 98.8115 128.725 98.6315 128.185C98.4815 127.615 98.3165 127.09 98.1365 126.61L96.2915 121.075H84.8165L84.2315 122.785C83.7815 124.105 83.3315 125.41 82.8815 126.7C82.5815 127.72 82.4315 128.455 82.4315 128.905C82.4315 129.925 82.8965 130.645 83.8265 131.065C84.4865 131.365 85.4315 131.515 86.6615 131.515V133H75.1415V131.515C76.8515 131.515 78.2165 130.765 79.2365 129.265C79.8665 128.365 80.5415 126.82 81.2615 124.63L89.4515 100.06L93.6815 98.935ZM90.6215 103.885L85.5365 119.005H95.6615L90.6215 103.885ZM118.936 133H117.496L110.386 107.8C109.756 105.55 109.171 104.065 108.631 103.345C107.701 102.145 106.216 101.545 104.176 101.545V100.06H117.046V101.545C116.026 101.545 115.321 101.605 114.931 101.725C114.121 101.965 113.716 102.46 113.716 103.21C113.716 103.63 113.776 104.065 113.896 104.515C114.016 104.965 114.196 105.55 114.436 106.27L119.566 124.585L125.146 105.55C124.846 104.32 124.396 103.375 123.796 102.715C123.076 101.935 122.146 101.545 121.006 101.545H120.601V100.06H133.516V101.545C132.196 101.545 131.356 101.59 130.996 101.68C130.036 101.92 129.556 102.49 129.556 103.39C129.556 103.69 129.571 103.93 129.601 104.11C129.751 104.68 129.841 105.085 129.871 105.325L135.271 124.585L139.906 108.745C140.266 107.515 140.536 106.48 140.716 105.64C140.896 104.8 140.986 104.17 140.986 103.75C140.986 102.76 140.506 102.115 139.546 101.815C139.486 101.785 138.676 101.695 137.116 101.545V100.06H148.816V101.545C146.596 101.545 144.961 102.325 143.911 103.885C143.401 104.635 142.726 106.375 141.886 109.105L134.596 133H133.156L126.136 108.61L118.936 133ZM164.172 98.935L172.362 123.415C172.632 124.285 172.917 125.14 173.217 125.98C173.997 128.11 174.702 129.52 175.332 130.21C175.662 130.6 176.082 130.9 176.592 131.11C177.102 131.32 177.657 131.455 178.257 131.515V133H165.027V131.515C165.927 131.455 166.842 131.395 167.772 131.335C168.852 131.095 169.392 130.48 169.392 129.49C169.392 129.16 169.302 128.725 169.122 128.185C168.972 127.615 168.807 127.09 168.627 126.61L166.782 121.075H155.307L154.722 122.785C154.272 124.105 153.822 125.41 153.372 126.7C153.072 127.72 152.922 128.455 152.922 128.905C152.922 129.925 153.387 130.645 154.317 131.065C154.977 131.365 155.922 131.515 157.152 131.515V133H145.632V131.515C147.342 131.515 148.707 130.765 149.727 129.265C150.357 128.365 151.032 126.82 151.752 124.63L159.942 100.06L164.172 98.935ZM161.112 103.885L156.027 119.005H166.152L161.112 103.885ZM185.781 116.935V125.35C185.781 127.93 186.036 129.61 186.546 130.39C187.056 131.14 188.196 131.515 189.966 131.515V133H177.141V131.515C178.911 131.515 180.051 131.125 180.561 130.345C181.071 129.565 181.326 127.9 181.326 125.35V107.8C181.326 105.4 181.191 103.9 180.921 103.3C180.411 102.13 179.151 101.545 177.141 101.545V100.06H190.371C193.611 100.06 196.266 100.615 198.336 101.725C201.036 103.165 202.386 105.355 202.386 108.295C202.386 110.485 201.516 112.36 199.776 113.92C198.156 115.36 196.206 116.23 193.926 116.53L199.956 127.285C200.826 128.785 201.351 129.655 201.531 129.895C202.371 130.975 203.751 131.515 205.671 131.515V133H198.201L188.976 116.935H185.781ZM185.781 115.45H188.121C190.701 115.45 192.861 114.91 194.601 113.83C196.641 112.54 197.661 110.695 197.661 108.295C197.661 106.195 196.836 104.515 195.186 103.255C193.686 102.115 191.841 101.545 189.651 101.545C187.911 101.545 186.801 101.935 186.321 102.715C185.961 103.285 185.781 104.53 185.781 106.45V115.45ZM204.628 133V131.515C206.428 131.515 207.583 131.125 208.093 130.345C208.603 129.565 208.858 127.9 208.858 125.35V107.71C208.858 105.19 208.588 103.54 208.048 102.76C207.538 101.95 206.398 101.545 204.628 101.545V100.06H216.958C219.418 100.06 221.338 100.21 222.718 100.51C224.878 100.96 226.948 101.905 228.928 103.345C230.938 104.755 232.438 106.57 233.428 108.79C234.418 110.98 234.913 113.395 234.913 116.035C234.913 121.405 233.248 125.605 229.918 128.635C226.708 131.545 222.388 133 216.958 133H204.628ZM213.313 125.395C213.313 127.885 213.583 129.535 214.123 130.345C214.663 131.125 215.848 131.515 217.678 131.515C221.908 131.515 225.058 129.97 227.128 126.88C228.868 124.27 229.738 120.715 229.738 116.215C229.738 111.715 228.883 108.25 227.173 105.82C225.163 102.97 221.998 101.545 217.678 101.545C215.788 101.545 214.588 101.89 214.078 102.58C213.568 103.27 213.313 104.83 213.313 107.26V125.395Z" fill="#127CE5"/>
<path d="M93.6815 98.935L101.871 123.415C102.141 124.285 102.426 125.14 102.726 125.98C103.506 128.11 104.211 129.52 104.841 130.21C105.171 130.6 105.591 130.9 106.101 131.11C106.611 131.32 107.166 131.455 107.766 131.515V133H94.5365V131.515C95.4365 131.455 96.3515 131.395 97.2815 131.335C98.3615 131.095 98.9015 130.48 98.9015 129.49C98.9015 129.16 98.8115 128.725 98.6315 128.185C98.4815 127.615 98.3165 127.09 98.1365 126.61L96.2915 121.075H84.8165L84.2315 122.785C83.7815 124.105 83.3315 125.41 82.8815 126.7C82.5815 127.72 82.4315 128.455 82.4315 128.905C82.4315 129.925 82.8965 130.645 83.8265 131.065C84.4865 131.365 85.4315 131.515 86.6615 131.515V133H75.1415V131.515C76.8515 131.515 78.2165 130.765 79.2365 129.265C79.8665 128.365 80.5415 126.82 81.2615 124.63L89.4515 100.06L93.6815 98.935ZM90.6215 103.885L85.5365 119.005H95.6615L90.6215 103.885ZM118.936 133H117.496L110.386 107.8C109.756 105.55 109.171 104.065 108.631 103.345C107.701 102.145 106.216 101.545 104.176 101.545V100.06H117.046V101.545C116.026 101.545 115.321 101.605 114.931 101.725C114.121 101.965 113.716 102.46 113.716 103.21C113.716 103.63 113.776 104.065 113.896 104.515C114.016 104.965 114.196 105.55 114.436 106.27L119.566 124.585L125.146 105.55C124.846 104.32 124.396 103.375 123.796 102.715C123.076 101.935 122.146 101.545 121.006 101.545H120.601V100.06H133.516V101.545C132.196 101.545 131.356 101.59 130.996 101.68C130.036 101.92 129.556 102.49 129.556 103.39C129.556 103.69 129.571 103.93 129.601 104.11C129.751 104.68 129.841 105.085 129.871 105.325L135.271 124.585L139.906 108.745C140.266 107.515 140.536 106.48 140.716 105.64C140.896 104.8 140.986 104.17 140.986 103.75C140.986 102.76 140.506 102.115 139.546 101.815C139.486 101.785 138.676 101.695 137.116 101.545V100.06H148.816V101.545C146.596 101.545 144.961 102.325 143.911 103.885C143.401 104.635 142.726 106.375 141.886 109.105L134.596 133H133.156L126.136 108.61L118.936 133ZM164.172 98.935L172.362 123.415C172.632 124.285 172.917 125.14 173.217 125.98C173.997 128.11 174.702 129.52 175.332 130.21C175.662 130.6 176.082 130.9 176.592 131.11C177.102 131.32 177.657 131.455 178.257 131.515V133H165.027V131.515C165.927 131.455 166.842 131.395 167.772 131.335C168.852 131.095 169.392 130.48 169.392 129.49C169.392 129.16 169.302 128.725 169.122 128.185C168.972 127.615 168.807 127.09 168.627 126.61L166.782 121.075H155.307L154.722 122.785C154.272 124.105 153.822 125.41 153.372 126.7C153.072 127.72 152.922 128.455 152.922 128.905C152.922 129.925 153.387 130.645 154.317 131.065C154.977 131.365 155.922 131.515 157.152 131.515V133H145.632V131.515C147.342 131.515 148.707 130.765 149.727 129.265C150.357 128.365 151.032 126.82 151.752 124.63L159.942 100.06L164.172 98.935ZM161.112 103.885L156.027 119.005H166.152L161.112 103.885ZM185.781 116.935V125.35C185.781 127.93 186.036 129.61 186.546 130.39C187.056 131.14 188.196 131.515 189.966 131.515V133H177.141V131.515C178.911 131.515 180.051 131.125 180.561 130.345C181.071 129.565 181.326 127.9 181.326 125.35V107.8C181.326 105.4 181.191 103.9 180.921 103.3C180.411 102.13 179.151 101.545 177.141 101.545V100.06H190.371C193.611 100.06 196.266 100.615 198.336 101.725C201.036 103.165 202.386 105.355 202.386 108.295C202.386 110.485 201.516 112.36 199.776 113.92C198.156 115.36 196.206 116.23 193.926 116.53L199.956 127.285C200.826 128.785 201.351 129.655 201.531 129.895C202.371 130.975 203.751 131.515 205.671 131.515V133H198.201L188.976 116.935H185.781ZM185.781 115.45H188.121C190.701 115.45 192.861 114.91 194.601 113.83C196.641 112.54 197.661 110.695 197.661 108.295C197.661 106.195 196.836 104.515 195.186 103.255C193.686 102.115 191.841 101.545 189.651 101.545C187.911 101.545 186.801 101.935 186.321 102.715C185.961 103.285 185.781 104.53 185.781 106.45V115.45ZM204.628 133V131.515C206.428 131.515 207.583 131.125 208.093 130.345C208.603 129.565 208.858 127.9 208.858 125.35V107.71C208.858 105.19 208.588 103.54 208.048 102.76C207.538 101.95 206.398 101.545 204.628 101.545V100.06H216.958C219.418 100.06 221.338 100.21 222.718 100.51C224.878 100.96 226.948 101.905 228.928 103.345C230.938 104.755 232.438 106.57 233.428 108.79C234.418 110.98 234.913 113.395 234.913 116.035C234.913 121.405 233.248 125.605 229.918 128.635C226.708 131.545 222.388 133 216.958 133H204.628ZM213.313 125.395C213.313 127.885 213.583 129.535 214.123 130.345C214.663 131.125 215.848 131.515 217.678 131.515C221.908 131.515 225.058 129.97 227.128 126.88C228.868 124.27 229.738 120.715 229.738 116.215C229.738 111.715 228.883 108.25 227.173 105.82C225.163 102.97 221.998 101.545 217.678 101.545C215.788 101.545 214.588 101.89 214.078 102.58C213.568 103.27 213.313 104.83 213.313 107.26V125.395Z" fill="url(#paint2_linear_887_5453)"/>
</g>
<defs>
<linearGradient id="paint0_linear_887_5453" x1="15673.4" y1="2" x2="15673.4" y2="24394" gradientUnits="userSpaceOnUse">
<stop stop-color="#6CB0FF"/>
<stop offset="1" stop-color="#FFCC9E"/>
</linearGradient>
<linearGradient id="paint1_linear_887_5453" x1="15673.4" y1="2" x2="15673.4" y2="24394" gradientUnits="userSpaceOnUse">
<stop stop-color="#6CB0FF"/>
<stop offset="1" stop-color="#FFCC9E"/>
</linearGradient>
<linearGradient id="paint2_linear_887_5453" x1="8176" y1="89" x2="8176" y2="5689" gradientUnits="userSpaceOnUse">
<stop stop-color="#6CB0FF"/>
<stop offset="1" stop-color="#FFCC9E"/>
</linearGradient>
<clipPath id="clip0_887_5453">
<rect width="313" height="248" fill="white"/>
</clipPath>
</defs>
</svg>
