<svg width="472" height="320" viewBox="0 0 472 320" fill="none" xmlns="http://www.w3.org/2000/svg">
<path fill-rule="evenodd" clip-rule="evenodd" d="M307.118 -113C290.337 -92.68 274.693 -71.6551 262.972 -51.8627C242.055 -16.5439 223.702 31.614 209.953 73.4362C193.812 122.534 224.944 172.926 275.61 183.131C313.244 190.71 359.581 199.515 409.019 207.7C439.097 212.679 474.878 209.734 509 203.681V612H124.268C151.896 588.18 183.297 560.478 218.175 528.763C276.509 475.718 322.262 376.008 346.596 314.445C359.382 282.096 349.834 246.17 319.411 229.307C276.021 205.256 199.508 173.751 78.5061 157.49C35.5409 151.717 -2.55866 148.52 -36 147.094V-113H307.118Z" fill="url(#paint0_linear_3866_2176)"/>
<defs>
<linearGradient id="paint0_linear_3866_2176" x1="-36" y1="-74.5" x2="575" y2="612" gradientUnits="userSpaceOnUse">
<stop stop-color="#5BCFFF"/>
<stop offset="1" stop-color="#AAE6FF"/>
</linearGradient>
</defs>
</svg>
