<svg width="378" height="5" viewBox="0 0 378 5" fill="none" xmlns="http://www.w3.org/2000/svg">
<path fill-rule="evenodd" clip-rule="evenodd" d="M377.219 2.96873C376.913 3.25806 377.059 3.55399 377.298 3.84487C378.401 5.18556 372.293 5.21199 363.453 4.667C361.98 4.57619 360.518 4.51533 358.938 4.50113C295.02 3.927 111.093 4.60583 12.4805 4.93077C5.5913 4.95347 1.88179 4.45679 0.543717 3.57509C0.0858235 3.27337 0.094366 2.66865 0.268771 2.14876V2.14876C0.372076 1.84082 0.527238 1.54221 0.808955 1.38053C2.25208 0.552328 6.40922 0.280827 12.5682 0.283928C110.396 0.797204 300.636 0.238281 365.44 0C373.455 0.0326005 379.125 1.17051 377.81 2.41097L377.219 2.96873Z" fill="#F8ED3A"/>
</svg>
