<svg width="140" height="3" viewBox="0 0 140 3" fill="none" xmlns="http://www.w3.org/2000/svg">
<path fill-rule="evenodd" clip-rule="evenodd" d="M139.711 1.86974C139.597 2.03073 139.651 2.1954 139.74 2.35725C140.149 3.10325 137.886 3.11796 134.612 2.81471C134.067 2.76418 133.525 2.73031 132.94 2.72241C109.267 2.40295 38.201 2.3553 1.67798 2.53611C1.43937 2.53729 1.24784 2.53804 1.09136 2.53452C0.254131 2.5157 0.282707 1.39609 0.718981 0.681267C1.32059 -0.371804 2.75313 0.22273 3.9659 0.231527C40.7652 0.498451 111.739 0.348269 135.348 0.217853C138.316 0.235993 140.417 0.86916 139.93 1.55939L139.711 1.86974Z" fill="#F8ED3A"/>
</svg>
