<svg width="52" height="38" viewBox="0 0 52 38" fill="none" xmlns="http://www.w3.org/2000/svg">
<path d="M0.333984 18.715H16.6514C15.6757 18.2779 14.8165 17.7241 14.0738 17.0538C13.3312 16.3835 12.7486 15.6258 12.3263 14.7806C11.904 13.9354 11.6929 13.0247 11.6929 12.0484C11.6929 10.9118 11.9477 9.89901 12.4574 9.01012C12.9671 8.12123 13.6588 7.42178 14.5326 6.91176C15.4209 6.40174 16.4257 6.14673 17.547 6.14673C18.5227 6.14673 19.4475 6.34345 20.3212 6.73689C21.2095 7.11576 22.0178 7.66221 22.7459 8.37624C23.474 9.09026 24.0857 9.94272 24.5808 10.9336V0.33252H27.4424V10.9336C27.9521 9.94272 28.571 9.09026 29.2991 8.37624C30.0272 7.66221 30.8282 7.11576 31.7019 6.73689C32.5903 6.34345 33.515 6.14673 34.4761 6.14673C35.5974 6.14673 36.595 6.40174 37.4687 6.91176C38.3571 7.42178 39.0561 8.12123 39.5658 9.01012C40.0755 9.89901 40.3303 10.9118 40.3303 12.0484C40.3303 13.0247 40.1191 13.9354 39.6968 14.7806C39.2891 15.6258 38.7139 16.3835 37.9712 17.0538C37.2285 17.7241 36.362 18.2779 35.3717 18.715H51.6673V21.3161H29.7141C30.0491 22.0156 30.5515 22.7733 31.2214 23.5894C31.8913 24.3908 32.6558 25.1631 33.515 25.9063C34.3742 26.6349 35.2552 27.2469 36.1581 27.7424C37.061 28.2378 37.9129 28.5293 38.7139 28.6167C39.3255 28.675 39.7915 28.8863 40.1119 29.2506C40.4468 29.6003 40.6143 30.0593 40.6143 30.6276C40.6143 31.1376 40.4177 31.5894 40.0245 31.9828C39.6459 32.3762 39.1216 32.5293 38.4517 32.4418C37.5488 32.3107 36.5513 31.9682 35.4591 31.4145C34.3815 30.8608 33.3111 30.154 32.248 29.2943C31.1995 28.42 30.2602 27.4436 29.4302 26.3653C28.6001 25.2724 27.9957 24.1285 27.6171 22.9336H27.4424V37.6659H24.5808V22.9336H24.4279C24.0493 24.1285 23.4449 25.2724 22.6148 26.3653C21.7848 27.4436 20.8382 28.42 19.7751 29.2943C18.7266 30.154 17.6563 30.8608 16.5641 31.4145C15.4719 31.9682 14.4816 32.3107 13.5933 32.4418C12.9234 32.5293 12.3919 32.3762 11.9987 31.9828C11.62 31.5894 11.4307 31.1376 11.4307 30.6276C11.4307 30.0593 11.5909 29.6003 11.9113 29.2506C12.2462 28.8863 12.7122 28.675 13.3093 28.6167C14.1248 28.5293 14.984 28.2378 15.8869 27.7424C16.7898 27.2323 17.6708 26.613 18.53 25.8844C19.3892 25.1413 20.1538 24.369 20.8236 23.5675C21.4935 22.766 21.9959 22.0156 22.3309 21.3161H0.333984V18.715ZM23.4668 18.3653H24.1658V17.7096C24.1658 16.6021 23.991 15.5602 23.6415 14.5839C23.3066 13.593 22.8406 12.7187 22.2435 11.9609C21.6464 11.1886 20.962 10.5839 20.1902 10.1467C19.4183 9.70957 18.5956 9.49099 17.7218 9.49099C16.8917 9.49099 16.2291 9.746 15.734 10.256C15.2389 10.7515 14.9913 11.4363 14.9913 12.3107C14.9913 13.0393 15.217 13.7606 15.6685 14.4746C16.1199 15.1886 16.7388 15.8444 17.5252 16.4418C18.3116 17.0247 19.2145 17.491 20.2338 17.8407C21.2532 18.1904 22.3309 18.3653 23.4668 18.3653ZM28.5564 18.3653C29.7069 18.3653 30.7918 18.1904 31.8112 17.8407C32.8305 17.491 33.7334 17.0247 34.5198 16.4418C35.3062 15.8444 35.9178 15.1886 36.3547 14.4746C36.8061 13.7606 37.0319 13.0393 37.0319 12.3107C37.0319 11.4363 36.7843 10.7515 36.2892 10.256C35.8086 9.746 35.146 9.49099 34.3014 9.49099C33.4422 9.49099 32.6267 9.70957 31.8548 10.1467C31.083 10.5839 30.3986 11.1886 29.8015 11.9609C29.2044 12.7187 28.7312 13.593 28.3817 14.5839C28.0321 15.5602 27.8574 16.6021 27.8574 17.7096V18.3653H28.5564ZM7.19299 37.6659H44.8083C47.0947 37.6659 48.8058 37.0976 49.9417 35.9609C51.0921 34.8389 51.6673 33.1558 51.6673 30.9118V7.10848C51.6673 4.8644 51.0921 3.17405 49.9417 2.03744C48.8058 0.900826 47.0947 0.33252 44.8083 0.33252H7.19299C4.90666 0.33252 3.18826 0.900826 2.03781 2.03744C0.901928 3.15948 0.333984 4.84983 0.333984 7.10848V30.9118C0.333984 33.1558 0.901928 34.8389 2.03781 35.9609C3.18826 37.0976 4.90666 37.6659 7.19299 37.6659Z" fill="#102348"/>
</svg>
