<svg width="24" height="24" viewBox="0 0 24 24" fill="none" xmlns="http://www.w3.org/2000/svg">
<path d="M21 8.75C21 8.94891 20.921 9.13968 20.7803 9.28033C20.6397 9.42098 20.4489 9.5 20.25 9.5H3.75C3.55109 9.5 3.36032 9.42098 3.21967 9.28033C3.07902 9.13968 3 8.94891 3 8.75C3 8.55109 3.07902 8.36032 3.21967 8.21967C3.36032 8.07902 3.55109 8 3.75 8H20.25C20.4489 8 20.6397 8.07902 20.7803 8.21967C20.921 8.36032 21 8.55109 21 8.75ZM20.25 14H3.75C3.55109 14 3.36032 14.079 3.21967 14.2197C3.07902 14.3603 3 14.5511 3 14.75C3 14.9489 3.07902 15.1397 3.21967 15.2803C3.36032 15.421 3.55109 15.5 3.75 15.5H20.25C20.4489 15.5 20.6397 15.421 20.7803 15.2803C20.921 15.1397 21 14.9489 21 14.75C21 14.5511 20.921 14.3603 20.7803 14.2197C20.6397 14.079 20.4489 14 20.25 14Z" fill="#102348"/>
</svg>
