<svg width="24" height="24" viewBox="0 0 24 24" fill="none" xmlns="http://www.w3.org/2000/svg">
<path fill-rule="evenodd" clip-rule="evenodd" d="M8.36967 4.16065H15.6302C16.5317 4.16063 17.2758 4.16062 17.882 4.21014C18.5115 4.26158 19.0902 4.37197 19.6338 4.64894C20.4768 5.07845 21.1621 5.7638 21.5916 6.60677C21.8686 7.15034 21.979 7.72905 22.0304 8.3586C22.0799 8.96473 22.0799 9.70881 22.0799 10.6104V15.6309C22.0799 16.5325 22.0799 17.2766 22.0304 17.8827C21.979 18.5122 21.8686 19.0909 21.5916 19.6345C21.1621 20.4775 20.4768 21.1628 19.6338 21.5924C19.0902 21.8693 18.5115 21.9797 17.882 22.0312C17.2758 22.0807 16.5317 22.0807 15.6302 22.0806H8.36969C7.46812 22.0807 6.72402 22.0807 6.11788 22.0312C5.48833 21.9797 4.90962 21.8693 4.36605 21.5924C3.52308 21.1628 2.83773 20.4775 2.40821 19.6345C2.13125 19.0909 2.02086 18.5122 1.96942 17.8827C1.9199 17.2766 1.91991 16.5325 1.91992 15.6309V10.6104C1.91991 9.70882 1.9199 8.96474 1.96942 8.3586C2.02086 7.72905 2.13125 7.15034 2.40821 6.60677C2.83773 5.7638 3.52308 5.07845 4.36605 4.64894C4.90962 4.37197 5.48833 4.26158 6.11788 4.21014C6.72402 4.16062 7.4681 4.16063 8.36967 4.16065ZM6.30029 6.4427C5.80926 6.48282 5.55815 6.55554 5.38298 6.64479C4.9615 6.85955 4.61882 7.20222 4.40407 7.62371C4.31482 7.79887 4.2421 8.04998 4.20198 8.54101C4.16079 9.04511 4.15992 9.69728 4.15992 10.6566V15.5846C4.15992 16.544 4.16079 17.1962 4.20198 17.7003C4.2421 18.1913 4.31482 18.4424 4.40407 18.6176C4.61882 19.0391 4.9615 19.3817 5.38298 19.5965C5.55815 19.6858 5.80926 19.7585 6.30029 19.7986C6.80439 19.8398 7.45655 19.8406 8.41592 19.8406H15.5839C16.5433 19.8406 17.1955 19.8398 17.6996 19.7986C18.1906 19.7585 18.4417 19.6858 18.6169 19.5965C19.0383 19.3817 19.381 19.0391 19.5958 18.6176C19.685 18.4424 19.7577 18.1913 19.7979 17.7003C19.8391 17.1962 19.8399 16.544 19.8399 15.5846V10.6566C19.8399 9.69728 19.8391 9.04511 19.7979 8.54101C19.7577 8.04998 19.685 7.79887 19.5958 7.62371C19.381 7.20222 19.0383 6.85955 18.6169 6.64479C18.4417 6.55554 18.1906 6.48282 17.6996 6.4427C17.1955 6.40152 16.5433 6.40065 15.5839 6.40065H8.41592C7.45655 6.40065 6.80439 6.40152 6.30029 6.4427Z" fill="#102348"/>
<path d="M8.63746 3.03797C8.63746 2.41941 8.13602 1.91797 7.51746 1.91797C6.8989 1.91797 6.39746 2.41941 6.39746 3.03797V5.27797C6.39746 5.89653 6.8989 6.39797 7.51746 6.39797C8.13602 6.39797 8.63746 5.89653 8.63746 5.27797V3.03797Z" fill="#102348"/>
<path d="M17.5975 3.03797C17.5975 2.41941 17.096 1.91797 16.4775 1.91797C15.8589 1.91797 15.3575 2.41941 15.3575 3.03797V5.27797C15.3575 5.89653 15.8589 6.39797 16.4775 6.39797C17.096 6.39797 17.5975 5.89653 17.5975 5.27797V3.03797Z" fill="#102348"/>
<path d="M9.75623 8.63818C9.13767 8.63818 8.63623 9.13962 8.63623 9.75818C8.63623 10.3767 9.13767 10.8782 9.75623 10.8782H10.8762V15.3582H9.75623C9.13767 15.3582 8.63623 15.8596 8.63623 16.4782C8.63623 17.0967 9.13767 17.5982 9.75623 17.5982H14.2362C14.8548 17.5982 15.3562 17.0967 15.3562 16.4782C15.3562 15.8596 14.8548 15.3582 14.2362 15.3582H13.1162V9.75818C13.1162 9.13962 12.6148 8.63818 11.9962 8.63818H9.75623Z" fill="#102348"/>
</svg>
