<svg width="264" height="111" viewBox="0 0 264 111" fill="none" xmlns="http://www.w3.org/2000/svg">
<path fill-rule="evenodd" clip-rule="evenodd" d="M72.085 14.3113C44.024 4.41351 17.7295 3.83398 4.05878 7.35385C2.54746 7.74298 0.955942 6.8782 0.581127 5.36327C0.251918 4.03267 0.982144 2.6658 2.30317 2.30006C16.8165 -1.71817 44.3793 -1.0833 73.383 9.14706C103.513 19.7748 135.594 40.8924 156.486 78.5085C169.436 69.9316 181.196 66.2056 191.933 65.7992C203.186 65.3733 213.176 68.5996 222.083 73.4718C230.905 78.2968 238.696 84.7542 245.61 90.8861C243.028 84.9212 241.134 77.7104 240.842 69.3027C240.798 68.0474 241.821 67.0279 243.077 67.0279C244.333 67.0279 245.346 68.047 245.395 69.3021C245.81 80.0484 249.129 88.5731 252.985 94.8076C255.005 98.074 257.152 100.678 259.072 102.623C260.58 103.721 261.709 104.937 262.731 105.991C263.46 106.744 263.685 107.881 263.23 108.825C262.656 110.015 261.181 110.55 260.033 109.897C259.258 109.456 258.415 108.892 257.531 108.082C256.756 107.459 255.973 106.81 255.181 106.138C252.596 104.338 249.603 102.453 246.385 100.737C240.659 97.6832 234.373 95.2446 228.481 94.6484C227.001 94.4985 225.792 93.3022 225.792 91.8143C225.792 90.3263 227.001 89.1105 228.483 89.243C231.891 89.5476 235.356 90.3996 238.73 91.5845C233.029 86.7344 226.89 82.0357 220.177 78.3639C211.762 73.7616 202.477 70.7912 192.078 71.1848C182.27 71.556 171.347 74.9239 159.11 82.9454C160.752 85.7279 161.839 88.2525 162.433 90.5368C163.206 93.5105 163.173 96.2164 162.284 98.4788C161.394 100.746 159.794 102.187 158.066 102.958C156.359 103.721 154.454 103.874 152.684 103.565C150.916 103.256 149.134 102.46 147.705 101.134C146.255 99.7865 145.118 97.8286 144.91 95.3274C144.705 92.8523 145.446 90.2812 147.004 87.749C148.266 85.6986 150.119 83.5766 152.641 81.3886C132.511 45.1991 101.522 24.6946 72.085 14.3113ZM155.247 85.8064C153.037 87.7347 151.583 89.455 150.68 90.9233C149.562 92.7393 149.372 94.0184 149.437 94.8007C149.5 95.557 149.834 96.2637 150.512 96.8932C151.212 97.5433 152.216 98.0366 153.347 98.2341C154.477 98.4314 155.586 98.3077 156.462 97.9165C157.318 97.5341 157.871 96.9428 158.16 96.206C158.452 95.4641 158.624 94.1932 158.086 92.1226C157.652 90.4518 156.775 88.3561 155.247 85.8064Z" fill="#05B4EA"/>
</svg>
