<svg width="14" height="15" viewBox="0 0 14 15" fill="none" xmlns="http://www.w3.org/2000/svg">
<g filter="url(#filter0_dd_3918_6985)">
<path d="M6.10791 10.813C5.83545 10.813 5.6084 10.7046 5.42676 10.4878L3.15918 7.74121C3.08008 7.65039 3.02441 7.5625 2.99219 7.47754C2.95996 7.39258 2.94385 7.30469 2.94385 7.21387C2.94385 7.00586 3.0127 6.83447 3.15039 6.69971C3.29102 6.56201 3.4668 6.49316 3.67773 6.49316C3.91211 6.49316 4.10693 6.58838 4.26221 6.77881L6.09033 9.04199L9.68066 3.36865C9.77148 3.23096 9.86523 3.13428 9.96191 3.07861C10.0615 3.02002 10.1831 2.99072 10.3267 2.99072C10.5376 2.99072 10.7119 3.05811 10.8496 3.19287C10.9873 3.32764 11.0562 3.49756 11.0562 3.70264C11.0562 3.77881 11.043 3.85791 11.0166 3.93994C10.9902 4.02197 10.9492 4.10693 10.8936 4.19482L6.80225 10.457C6.64111 10.6943 6.40967 10.813 6.10791 10.813Z" fill="white"/>
</g>
<defs>
<filter id="filter0_dd_3918_6985" x="-2.5" y="-1.5" width="19" height="19" filterUnits="userSpaceOnUse" color-interpolation-filters="sRGB">
<feFlood flood-opacity="0" result="BackgroundImageFix"/>
<feColorMatrix in="SourceAlpha" type="matrix" values="0 0 0 0 0 0 0 0 0 0 0 0 0 0 0 0 0 0 127 0" result="hardAlpha"/>
<feMorphology radius="0.5" operator="dilate" in="SourceAlpha" result="effect1_dropShadow_3918_6985"/>
<feOffset/>
<feComposite in2="hardAlpha" operator="out"/>
<feColorMatrix type="matrix" values="0 0 0 0 0 0 0 0 0 0.478431 0 0 0 0 1 0 0 0 0.12 0"/>
<feBlend mode="normal" in2="BackgroundImageFix" result="effect1_dropShadow_3918_6985"/>
<feColorMatrix in="SourceAlpha" type="matrix" values="0 0 0 0 0 0 0 0 0 0 0 0 0 0 0 0 0 0 127 0" result="hardAlpha"/>
<feOffset dy="1"/>
<feGaussianBlur stdDeviation="1.25"/>
<feComposite in2="hardAlpha" operator="out"/>
<feColorMatrix type="matrix" values="0 0 0 0 0 0 0 0 0 0.478431 0 0 0 0 1 0 0 0 0.24 0"/>
<feBlend mode="normal" in2="effect1_dropShadow_3918_6985" result="effect2_dropShadow_3918_6985"/>
<feBlend mode="normal" in="SourceGraphic" in2="effect2_dropShadow_3918_6985" result="shape"/>
</filter>
</defs>
</svg>
