<svg width="200" height="200" viewBox="0 0 200 200" fill="none" xmlns="http://www.w3.org/2000/svg">
<path fill-rule="evenodd" clip-rule="evenodd" d="M200 100C200 100.519 199.575 100.936 199.056 100.931L192.437 100.87C191.961 100.866 191.579 100.476 191.579 100V100V100C191.579 99.5239 191.961 99.1345 192.437 99.1301L199.056 99.0692C199.575 99.0644 200 99.4811 200 100V100V100ZM197.513 77.7378C197.628 78.2416 197.307 78.7406 196.802 78.8504L190.324 80.2591C189.862 80.3596 189.406 80.0658 189.301 79.6047V79.6047C189.197 79.1435 189.481 78.6827 189.941 78.5735L196.391 77.0431C196.894 76.9238 197.398 77.234 197.513 77.7378V77.7378ZM190.118 56.6015C190.342 57.0666 190.141 57.6243 189.674 57.8443L183.676 60.669C183.248 60.8704 182.738 60.6865 182.533 60.2607V60.2607C182.328 59.8349 182.501 59.322 182.925 59.1126L188.869 56.1757C189.332 55.947 189.893 56.1364 190.118 56.6015V56.6015ZM178.187 37.6493C178.509 38.0528 178.437 38.6408 178.031 38.9593L172.812 43.0476C172.439 43.3393 171.901 43.2736 171.606 42.9039V42.9039C171.311 42.5342 171.366 41.995 171.733 41.6964L176.875 37.5117C177.275 37.1857 177.864 37.2458 178.187 37.6493V37.6493ZM162.351 21.8134C162.754 22.1356 162.814 22.7248 162.488 23.1253L158.304 28.2671C158.005 28.634 157.466 28.6891 157.096 28.3939V28.3939C156.726 28.0987 156.661 27.5606 156.952 27.1882L161.041 21.9694C161.359 21.5629 161.947 21.4912 162.351 21.8134V21.8134ZM143.399 9.88247C143.864 10.1069 144.053 10.6679 143.824 11.1309L140.887 17.075C140.678 17.4988 140.165 17.6724 139.739 17.467V17.467C139.314 17.2615 139.13 16.7518 139.331 16.3241L142.156 10.3259C142.376 9.85873 142.933 9.65807 143.399 9.88247V9.88247ZM122.262 2.48705C122.766 2.60159 123.076 3.10613 122.957 3.60886L121.427 10.0591C121.317 10.5192 120.856 10.8034 120.395 10.6986V10.6986C119.934 10.5937 119.64 10.138 119.741 9.67587L121.15 3.19798C121.259 2.6931 121.758 2.3725 122.262 2.48705V2.48705ZM100 0C100.519 0 100.936 0.424934 100.931 0.943787L100.87 7.56305C100.866 8.0391 100.476 8.42105 100 8.42105V8.42105V8.42105C99.5239 8.42105 99.1345 8.03911 99.1301 7.56307L99.0692 0.943771C99.0644 0.424927 99.4811 0 100 0V0V0ZM77.7378 2.48704C78.2416 2.3725 78.7406 2.6931 78.8504 3.19798L80.2591 9.67586C80.3596 10.138 80.0658 10.5937 79.6046 10.6986V10.6986C79.1435 10.8034 78.6827 10.5192 78.5735 10.0591L77.0431 3.60885C76.9238 3.10613 77.234 2.60159 77.7378 2.48704V2.48704ZM56.6015 9.88247C57.0666 9.65806 57.6243 9.85873 57.8443 10.3259L60.669 16.3241C60.8704 16.7518 60.6865 17.2615 60.2607 17.467V17.467C59.8349 17.6724 59.322 17.4988 59.1126 17.075L56.1757 11.1309C55.947 10.6679 56.1364 10.1069 56.6015 9.88247V9.88247ZM37.6493 21.8134C38.0528 21.4912 38.6408 21.5629 38.9593 21.9694L43.0476 27.1882C43.3393 27.5606 43.2736 28.0987 42.9039 28.3939V28.3939C42.5342 28.6891 41.995 28.634 41.6964 28.2671L37.5117 23.1253C37.1857 22.7248 37.2458 22.1356 37.6493 21.8134V21.8134ZM21.8134 37.6493C22.1356 37.2458 22.7248 37.1857 23.1253 37.5117L28.2671 41.6964C28.634 41.995 28.6891 42.5342 28.3939 42.9039V42.9039C28.0987 43.2736 27.5606 43.3393 27.1882 43.0476L21.9694 38.9592C21.5629 38.6408 21.4912 38.0528 21.8134 37.6493V37.6493ZM9.88247 56.6015C10.1069 56.1364 10.6679 55.947 11.1309 56.1757L17.075 59.1126C17.4988 59.322 17.6724 59.8349 17.467 60.2607V60.2607C17.2615 60.6865 16.7518 60.8704 16.3241 60.669L10.3259 57.8443C9.85873 57.6242 9.65807 57.0666 9.88247 56.6015V56.6015ZM2.48705 77.7378C2.60159 77.234 3.10613 76.9238 3.60886 77.0431L10.0591 78.5735C10.5192 78.6827 10.8034 79.1435 10.6986 79.6046V79.6046C10.5937 80.0658 10.138 80.3596 9.67587 80.2591L3.19798 78.8504C2.6931 78.7406 2.3725 78.2416 2.48705 77.7378V77.7378ZM0.943787 99.0692C0.424934 99.0644 0 99.4811 0 100V100V100C0 100.519 0.424927 100.936 0.943771 100.931L7.56307 100.87C8.03911 100.866 8.42105 100.476 8.42105 100V100V100C8.42105 99.5239 8.0391 99.1345 7.56305 99.1301L0.943787 99.0692ZM2.48704 122.262C2.3725 121.758 2.6931 121.259 3.19798 121.15L9.67586 119.741C10.138 119.64 10.5937 119.934 10.6986 120.395V120.395C10.8034 120.856 10.5192 121.317 10.0591 121.426L3.60885 122.957C3.10613 123.076 2.60159 122.766 2.48704 122.262V122.262ZM9.88246 143.398C9.65806 142.933 9.85873 142.376 10.3259 142.156L16.3241 139.331C16.7518 139.13 17.2615 139.313 17.467 139.739V139.739C17.6724 140.165 17.4988 140.678 17.075 140.887L11.1309 143.824C10.6679 144.053 10.1069 143.864 9.88246 143.398V143.398ZM21.8134 162.351C21.4912 161.947 21.5629 161.359 21.9694 161.041L27.1882 156.952C27.5606 156.661 28.0987 156.726 28.3939 157.096V157.096C28.6891 157.466 28.634 158.005 28.2671 158.304L23.1253 162.488C22.7248 162.814 22.1356 162.754 21.8134 162.351V162.351ZM37.6493 178.187C37.2458 177.864 37.1857 177.275 37.5117 176.875L41.6964 171.733C41.995 171.366 42.5342 171.311 42.9039 171.606V171.606C43.2736 171.901 43.3393 172.439 43.0476 172.812L38.9592 178.031C38.6408 178.437 38.0528 178.509 37.6493 178.187V178.187ZM56.6015 190.118C56.1364 189.893 55.947 189.332 56.1757 188.869L59.1126 182.925C59.322 182.501 59.8349 182.328 60.2607 182.533V182.533C60.6865 182.738 60.8704 183.248 60.6689 183.676L57.8443 189.674C57.6242 190.141 57.0666 190.342 56.6015 190.118V190.118ZM77.7378 197.513C77.2339 197.398 76.9238 196.894 77.0431 196.391L78.5735 189.941C78.6827 189.481 79.1435 189.197 79.6046 189.301V189.301C80.0658 189.406 80.3596 189.862 80.2591 190.324L78.8504 196.802C78.7406 197.307 78.2416 197.628 77.7378 197.513V197.513ZM100 200C99.4811 200 99.0644 199.575 99.0692 199.056L99.1301 192.437C99.1345 191.961 99.5239 191.579 100 191.579V191.579V191.579C100.476 191.579 100.866 191.961 100.87 192.437L100.931 199.056C100.936 199.575 100.519 200 100 200V200V200ZM122.262 197.513C121.758 197.628 121.259 197.307 121.15 196.802L119.741 190.324C119.64 189.862 119.934 189.406 120.395 189.301V189.301C120.856 189.197 121.317 189.481 121.426 189.941L122.957 196.391C123.076 196.894 122.766 197.398 122.262 197.513V197.513ZM143.398 190.118C142.933 190.342 142.376 190.141 142.156 189.674L139.331 183.676C139.13 183.248 139.313 182.738 139.739 182.533V182.533C140.165 182.328 140.678 182.501 140.887 182.925L143.824 188.869C144.053 189.332 143.864 189.893 143.398 190.118V190.118ZM162.351 178.187C161.947 178.509 161.359 178.437 161.041 178.031L156.952 172.812C156.661 172.439 156.726 171.901 157.096 171.606V171.606C157.466 171.311 158.005 171.366 158.304 171.733L162.488 176.875C162.814 177.275 162.754 177.864 162.351 178.187V178.187ZM178.187 162.351C177.864 162.754 177.275 162.814 176.875 162.488L171.733 158.304C171.366 158.005 171.311 157.466 171.606 157.096V157.096C171.901 156.726 172.439 156.661 172.812 156.952L178.031 161.041C178.437 161.359 178.509 161.947 178.187 162.351V162.351ZM190.118 143.399C189.893 143.864 189.332 144.053 188.869 143.824L182.925 140.887C182.501 140.678 182.328 140.165 182.533 139.739V139.739C182.738 139.314 183.248 139.13 183.676 139.331L189.674 142.156C190.141 142.376 190.342 142.933 190.118 143.399V143.399ZM197.513 122.262C197.398 122.766 196.894 123.076 196.391 122.957L189.941 121.427C189.481 121.317 189.197 120.857 189.301 120.395V120.395C189.406 119.934 189.862 119.64 190.324 119.741L196.802 121.15C197.307 121.259 197.628 121.758 197.513 122.262V122.262Z" fill="#F8ED3A"/>
</svg>
