<svg width="32" height="32" viewBox="0 0 32 32" fill="none" xmlns="http://www.w3.org/2000/svg">
<path d="M19.8801 12.1985C20.0497 12.0165 20.142 11.7758 20.1376 11.5271C20.1333 11.2784 20.0325 11.0411 19.8566 10.8652C19.6807 10.6893 19.4434 10.5885 19.1947 10.5841C18.946 10.5797 18.7053 10.6721 18.5233 10.8417L14.7215 14.6434L13.4798 13.4018C13.3919 13.3075 13.2859 13.2318 13.1682 13.1793C13.0504 13.1269 12.9233 13.0986 12.7944 13.0964C12.6655 13.0941 12.5374 13.1178 12.4179 13.1661C12.2983 13.2144 12.1897 13.2862 12.0986 13.3774C12.0074 13.4686 11.9355 13.5772 11.8873 13.6967C11.839 13.8162 11.8153 13.9443 11.8175 14.0732C11.8198 14.2021 11.848 14.3292 11.9005 14.447C11.953 14.5648 12.0286 14.6707 12.1229 14.7586L14.043 16.6787C14.223 16.8585 14.4671 16.9595 14.7215 16.9595C14.9759 16.9595 15.2199 16.8585 15.3999 16.6787L19.8801 12.1985Z" fill="#05B4EA"/>
<path fill-rule="evenodd" clip-rule="evenodd" d="M13.9461 3.73513C14.5132 3.23407 15.2439 2.95752 16.0006 2.95752C16.7574 2.95752 17.488 3.23407 18.0551 3.73513C18.3329 3.9809 18.7105 4.08203 19.0741 4.00778C19.8159 3.85716 20.5872 3.98304 21.2427 4.3617C21.8982 4.74037 22.3925 5.34567 22.6326 6.06356C22.7504 6.4143 23.0269 6.69079 23.3776 6.80856C24.0955 7.04867 24.7008 7.54303 25.0795 8.1985C25.4581 8.85397 25.584 9.62529 25.4334 10.3671C25.3969 10.5465 25.4025 10.7319 25.4499 10.9087C25.4972 11.0855 25.5849 11.2489 25.7061 11.3861C26.7429 12.5599 26.7429 14.3225 25.7061 15.4951C25.5849 15.6322 25.4972 15.7956 25.4499 15.9725C25.4025 16.1493 25.3969 16.3346 25.4334 16.514C25.5733 17.2036 25.4746 17.9202 25.1537 18.5463C24.8327 19.1725 24.3084 19.6709 23.6669 19.9599C24.7638 21.5555 25.6312 23.2971 26.2437 25.1339L26.3486 25.4475C26.4181 25.6555 26.4325 25.8778 26.3907 26.093C26.3488 26.3082 26.2519 26.5089 26.1096 26.6756C25.9672 26.8423 25.7842 26.9693 25.5782 27.0444C25.3723 27.1194 25.1504 27.14 24.9342 27.104L23.3213 26.8351C23.0316 26.7798 22.7394 26.7383 22.4457 26.711C22.395 26.707 22.344 26.7078 22.2934 26.7135H22.2844L22.278 26.7161H22.2755L22.2704 26.7199C22.0595 26.9988 21.8646 27.2894 21.6867 27.5904L21.2399 28.3354C21.1542 28.48 21.0556 28.6426 20.9609 28.7706C20.8026 28.9976 20.5795 29.1715 20.3208 29.2698C19.9966 29.3848 19.6406 29.371 19.3262 29.2314C18.9934 29.0855 18.8142 28.8231 18.7272 28.6861C18.6414 28.5491 18.5569 28.3789 18.4814 28.2291L17.9655 27.1987L17.8631 26.9939C17.363 25.982 16.9248 24.9407 16.551 23.8756C16.1875 23.9396 15.8137 23.9396 15.4502 23.8756C15.0761 24.9407 14.6375 25.982 14.1369 26.9939L14.0344 27.1987L13.5199 28.2291C13.4443 28.3802 13.3599 28.5491 13.2741 28.6861C13.1338 28.9243 12.925 29.1147 12.675 29.2327C12.3606 29.3723 12.0046 29.3861 11.6804 29.2711C11.4217 29.1728 11.1987 28.9988 11.0404 28.7719C10.9407 28.6308 10.8475 28.4851 10.7613 28.3354L10.3133 27.5904C10.1674 27.3338 10.0094 27.0843 9.83968 26.8428C9.81012 26.8013 9.77669 26.7628 9.73984 26.7276L9.72704 26.7174L9.7232 26.7161L9.70784 26.7135C9.65683 26.7078 9.60539 26.7069 9.55423 26.711C9.36734 26.7212 9.11645 26.7622 8.67866 26.8351L7.06707 27.104C6.85083 27.14 6.62896 27.1194 6.423 27.0444C6.21705 26.9693 6.034 26.8423 5.89165 26.6756C5.74929 26.5089 5.65247 26.3082 5.61059 26.093C5.5687 25.8778 5.58317 25.6555 5.6526 25.4475L5.75756 25.1339C6.36963 23.2972 7.23659 21.5555 8.33305 19.9599C7.69151 19.6707 7.16735 19.1719 6.8466 18.5455C6.52585 17.9191 6.42755 17.2023 6.56784 16.5127C6.60433 16.3334 6.5987 16.148 6.55139 15.9712C6.50407 15.7944 6.41637 15.6309 6.29519 15.4938C5.79413 14.9267 5.51758 14.196 5.51758 13.4393C5.51758 12.6825 5.79413 11.9519 6.29519 11.3848C6.41637 11.2476 6.50407 11.0842 6.55139 10.9074C6.5987 10.7306 6.60433 10.5452 6.56784 10.3659C6.41744 9.62419 6.54326 8.85313 6.92163 8.19775C7.30001 7.54238 7.90485 7.04787 8.62234 6.80728C8.79588 6.74929 8.9536 6.65182 9.0831 6.52255C9.21259 6.39328 9.31033 6.23573 9.36862 6.06228C9.60896 5.34455 10.1034 4.73942 10.7588 4.36079C11.4142 3.98217 12.1854 3.85617 12.9272 4.0065C13.1065 4.04309 13.2919 4.03751 13.4688 3.99019C13.6456 3.94288 13.809 3.8564 13.9461 3.73513ZM19.0741 22.8721C19.7009 22.9996 20.3518 22.9303 20.9377 22.6737C21.5236 22.4171 22.0159 21.9856 22.3472 21.4384C23.0814 22.5664 23.6921 23.7702 24.1687 25.029L23.5952 24.9342C23.2502 24.8693 22.9019 24.8223 22.552 24.7934C22.1821 24.7616 21.8102 24.8232 21.4703 24.9726C21.1365 25.1343 20.8486 25.3773 20.6332 25.6792C20.4476 25.9237 20.2619 26.2348 20.0635 26.565L19.9176 26.8083L19.6846 26.3423L19.5848 26.1426C19.08 25.122 18.643 24.0692 18.2766 22.9911C18.5204 22.8596 18.8026 22.8166 19.0741 22.8721ZM12.9272 22.8721C13.1988 22.8171 13.481 22.8592 13.7247 22.9911C13.3583 24.0692 12.9213 25.122 12.4164 26.1426L12.3166 26.3423L12.0836 26.8083L11.9377 26.565C11.7406 26.2348 11.5537 25.925 11.3681 25.6792C11.1521 25.3776 10.8638 25.1351 10.5296 24.9739C10.1902 24.8247 9.81871 24.7631 9.44926 24.7947C9.14205 24.8101 8.78491 24.8715 8.40601 24.9342L7.83254 25.029C8.30873 23.7694 8.9206 22.5661 9.65407 21.4371C9.98487 21.9853 10.4771 22.4177 11.0634 22.675C11.6496 22.9324 12.3011 23.0021 12.9285 22.8746L12.9272 22.8721ZM16.784 5.17392C16.5679 4.98253 16.2893 4.87686 16.0006 4.87686C15.712 4.87686 15.4333 4.98253 15.2172 5.17392C14.4876 5.81907 13.4994 6.08276 12.5457 5.89076C12.2631 5.83327 11.9692 5.88103 11.7193 6.02507C11.4694 6.16911 11.2808 6.39949 11.1889 6.67287C11.0363 7.12796 10.7803 7.54146 10.4409 7.88085C10.1015 8.22025 9.68802 8.47628 9.23293 8.62881C8.95931 8.72048 8.72863 8.90902 8.58435 9.15893C8.44006 9.40884 8.39211 9.70287 8.44953 9.98568C8.5448 10.4561 8.52965 10.9422 8.40526 11.4057C8.28088 11.8693 8.05066 12.2976 7.7327 12.6572C7.54156 12.8734 7.43606 13.152 7.43606 13.4406C7.43606 13.7291 7.54156 14.0078 7.7327 14.224C8.37785 14.9536 8.6441 15.9418 8.44953 16.8955C8.39211 17.1783 8.44006 17.4723 8.58435 17.7222C8.72863 17.9721 8.95931 18.1606 9.23293 18.2523C10.1546 18.5608 10.8804 19.2853 11.1889 20.2083C11.2805 20.4819 11.4691 20.7126 11.719 20.8568C11.9689 21.0011 12.2629 21.0491 12.5457 20.9917C13.0161 20.8964 13.5022 20.9115 13.9658 21.0359C14.4293 21.1603 14.8577 21.3905 15.2172 21.7085C15.4334 21.8996 15.712 22.0051 16.0006 22.0051C16.2892 22.0051 16.5678 21.8996 16.784 21.7085C17.1435 21.3905 17.5719 21.1603 18.0355 21.0359C18.499 20.9115 18.9851 20.8964 19.4555 20.9917C19.7383 21.0491 20.0323 21.0011 20.2823 20.8568C20.5322 20.7126 20.7207 20.4819 20.8124 20.2083C20.9649 19.7532 21.2209 19.3397 21.5603 19.0003C21.8997 18.6609 22.3132 18.4049 22.7683 18.2523C23.0419 18.1606 23.2726 17.9721 23.4169 17.7222C23.5612 17.4723 23.6091 17.1783 23.5517 16.8955C23.4563 16.4251 23.4714 15.9389 23.5958 15.4754C23.7202 15.0118 23.9505 14.5834 24.2685 14.224C24.4597 14.0078 24.5652 13.7291 24.5652 13.4406C24.5652 13.152 24.4597 12.8734 24.2685 12.6572C23.9506 12.2976 23.7204 11.8693 23.596 11.4057C23.4716 10.9422 23.4564 10.4561 23.5517 9.98568C23.6094 9.70285 23.5616 9.40869 23.4173 9.15871C23.2729 8.90874 23.0421 8.72024 22.7683 8.62881C22.3132 8.47628 21.8997 8.22025 21.5603 7.88085C21.2209 7.54146 20.9649 7.12796 20.8124 6.67287C20.7207 6.39925 20.5322 6.16858 20.2823 6.02429C20.0323 5.88 19.7383 5.83205 19.4555 5.88947C18.9851 5.98474 18.499 5.96959 18.0355 5.8452C17.5719 5.72082 17.1435 5.4906 16.784 5.17264V5.17392Z" fill="#05B4EA"/>
</svg>
