<svg width="80" height="80" viewBox="0 0 80 80" fill="none" xmlns="http://www.w3.org/2000/svg">
<path d="M59.1989 5.64897C53.4053 3.62123 46.7727 4.81014 40.6513 8.94559C40.2568 9.21212 39.7388 9.21513 39.3419 8.95216C33.092 4.8114 26.5954 3.62016 20.7989 5.64897C7.14886 10.149 2.04886 29.949 8.79886 50.499C12.2489 60.549 17.9489 69.099 24.9989 74.499C26.3489 75.549 27.9989 75.549 29.4989 74.799C30.9989 74.049 31.7489 72.549 31.7489 70.899C31.7489 70.449 31.7489 70.149 31.7489 69.699C31.7489 60.099 36.0989 53.349 39.9989 53.349C43.8989 53.349 48.2489 60.099 48.2489 69.699C48.2489 70.149 48.2489 70.449 48.2489 70.899C48.2489 72.549 48.9989 74.049 50.4989 74.799C51.0989 75.099 51.8489 75.249 52.4489 75.249C53.3489 75.249 54.2489 74.949 54.9989 74.349C62.0489 68.949 67.8989 60.549 71.1989 50.349C78.0989 29.949 72.8489 10.299 59.1989 5.64897ZM49.7489 32.424C49.7489 33.0453 49.2452 33.549 48.6239 33.549H42.7739C42.1525 33.549 41.6489 34.0526 41.6489 34.674V40.524C41.6489 41.1453 41.1452 41.649 40.5239 41.649H39.3239C38.7025 41.649 38.1989 41.1453 38.1989 40.524V34.674C38.1989 34.0526 37.6952 33.549 37.0739 33.549H31.2239C30.6025 33.549 30.0989 33.0453 30.0989 32.424V31.224C30.0989 30.6026 30.6025 30.099 31.2239 30.099H37.0739C37.6952 30.099 38.1989 29.5953 38.1989 28.974V23.124C38.1989 22.5026 38.7025 21.999 39.3239 21.999H40.5239C41.1452 21.999 41.6489 22.5026 41.6489 23.124V28.974C41.6489 29.5953 42.1525 30.099 42.7739 30.099H48.6239C49.2452 30.099 49.7489 30.6026 49.7489 31.224V32.424Z" fill="#102348"/>
</svg>
