<svg width="80" height="80" viewBox="0 0 80 80" fill="none" xmlns="http://www.w3.org/2000/svg">
<path d="M66.0563 11.249C63.3311 6.77768 59.0728 4 54.9425 4C49.7818 4 47.3865 5.33235 45.296 6.52609C45.2926 6.52836 45.2895 6.53091 45.2859 6.53317C38.7245 10.6947 33.4609 10.9747 33.24 10.9845C32.9406 10.9966 32.6486 10.8896 32.4278 10.687C32.2071 10.4845 32.0754 10.2027 32.0617 9.90339C32.048 9.60406 32.1533 9.31147 32.3547 9.08956C32.556 8.86765 32.837 8.73446 33.1363 8.71909C33.1809 8.71668 34.8153 8.61505 37.3349 7.80614C36.4278 7.50877 35.6546 7.06867 34.7822 6.57017C32.6731 5.36552 30.2825 4 25.058 4C20.9278 4 16.6694 6.77768 13.9444 11.249C11.8046 14.7599 10.6919 19.0794 10.7264 23.7408C10.766 29.1177 12.2916 34.7635 15.2609 40.5217C15.3563 40.7067 15.5008 40.8619 15.6786 40.9702C15.8564 41.0785 16.0605 41.1358 16.2687 41.1358H63.732C63.9401 41.1358 64.1443 41.0785 64.322 40.9702C64.4998 40.8619 64.6443 40.7067 64.7397 40.5217C67.7092 34.7635 69.2347 29.1177 69.2743 23.7408C69.3087 19.0794 68.1962 14.7599 66.0563 11.249ZM53.3283 45.646C53.3093 45.4983 53.2614 45.3557 53.1873 45.2265C53.1132 45.0973 53.0143 44.984 52.8964 44.893C52.7785 44.8021 52.6437 44.7353 52.4999 44.6964C52.3561 44.6576 52.2061 44.6475 52.0584 44.6667L49.3036 45.0225L49.3642 43.4038H30.6361L30.7864 47.4145L27.6515 47.8194C27.5032 47.8377 27.36 47.8852 27.23 47.959C27.1001 48.0329 26.9861 48.1317 26.8945 48.2498C26.8028 48.3678 26.7355 48.5029 26.6962 48.6471C26.657 48.7913 26.6467 48.9418 26.6658 49.09C26.6849 49.2383 26.7332 49.3812 26.8078 49.5107C26.8823 49.6402 26.9818 49.7537 27.1004 49.8447C27.219 49.9356 27.3544 50.0022 27.4988 50.0406C27.6432 50.079 27.7938 50.0885 27.9419 50.0686L30.8716 49.6901L49.2175 47.3204L52.3488 46.9158C52.4965 46.8968 52.639 46.8488 52.7682 46.7747C52.8973 46.7005 53.0106 46.6017 53.1016 46.4838C53.1925 46.3659 53.2593 46.2312 53.2982 46.0874C53.3371 45.9437 53.3473 45.7937 53.3283 45.646ZM51.3725 50.5262L49.0864 50.8215L49.1315 49.6181L30.9567 51.9659L31.0014 53.1576L28.3374 53.5018C28.1891 53.5201 28.0458 53.5675 27.9159 53.6414C27.786 53.7152 27.6719 53.814 27.5803 53.9321C27.4887 54.0502 27.4214 54.1852 27.3821 54.3294C27.3429 54.4736 27.3325 54.6242 27.3517 54.7724C27.3708 54.9206 27.4191 55.0636 27.4936 55.1931C27.5682 55.3226 27.6677 55.4361 27.7863 55.527C27.9049 55.6179 28.0403 55.6845 28.1847 55.723C28.3291 55.7614 28.4797 55.7709 28.6278 55.7509L31.0866 55.4334L49.0004 53.1194L51.663 52.7754C51.8113 52.7571 51.9545 52.7096 52.0844 52.6358C52.2144 52.5619 52.3284 52.4631 52.42 52.345C52.5116 52.227 52.579 52.0919 52.6182 51.9477C52.6575 51.8035 52.6678 51.653 52.6487 51.5048C52.6295 51.3566 52.5813 51.2136 52.5067 51.0841C52.4321 50.9546 52.3327 50.8411 52.2141 50.7501C52.0955 50.6592 51.9601 50.5926 51.8157 50.5542C51.6712 50.5158 51.5206 50.5063 51.3725 50.5262ZM50.408 56.8121L48.8545 57.0127L48.9143 55.4171L31.1719 57.709L31.231 59.2892L29.3019 59.5385C29.1542 59.5575 29.0118 59.6055 28.8826 59.6797C28.7535 59.7538 28.6402 59.8526 28.5493 59.9706C28.4583 60.0885 28.3915 60.2232 28.3526 60.3669C28.3137 60.5107 28.3036 60.6606 28.3227 60.8083C28.3612 61.1066 28.5166 61.3773 28.7547 61.5609C28.9928 61.7446 29.2941 61.8261 29.5924 61.7876L33.6633 61.2618L48.7685 59.3106L50.6984 59.0611C50.8461 59.042 50.9886 58.9941 51.1177 58.9199C51.2468 58.8458 51.3601 58.747 51.451 58.6291C51.542 58.5112 51.6088 58.3765 51.6477 58.2328C51.6866 58.0891 51.6968 57.9391 51.6777 57.7914C51.6587 57.6437 51.6108 57.5012 51.5367 57.372C51.4626 57.2428 51.3638 57.1295 51.2459 57.0385C51.1279 56.9475 50.9932 56.8807 50.8495 56.8418C50.7057 56.803 50.5557 56.7928 50.408 56.812V56.8121ZM49.6344 62.8715L48.6303 63.0012L48.6824 61.6083L31.4015 63.8407L31.4531 65.22L30.0756 65.3979C29.9279 65.4169 29.7854 65.4649 29.6562 65.5391C29.5271 65.6132 29.4138 65.7121 29.3229 65.83C29.2319 65.948 29.1651 66.0826 29.1262 66.2264C29.0874 66.3702 29.0772 66.5202 29.0963 66.6679C29.1348 66.9661 29.2902 67.2368 29.5283 67.4204C29.7664 67.6041 30.0677 67.6856 30.366 67.6471L31.5383 67.4956L48.5443 65.2989L49.9248 65.1206C50.0725 65.1015 50.215 65.0536 50.3441 64.9794C50.4733 64.9053 50.5865 64.8064 50.6775 64.6885C50.7684 64.5705 50.8352 64.4358 50.8741 64.2921C50.913 64.1483 50.9232 63.9983 50.9041 63.8506C50.8851 63.7029 50.8372 63.5604 50.7631 63.4313C50.689 63.3021 50.5901 63.1888 50.4722 63.0979C50.3543 63.0069 50.2196 62.9401 50.0758 62.9013C49.9321 62.8624 49.782 62.8523 49.6344 62.8715ZM40.0003 76.0413C42.1893 76.0481 44.2951 75.2027 45.8717 73.684C47.4482 72.1654 48.3718 70.0927 48.4469 67.905L48.4584 67.5965L31.826 69.745C32.7765 73.3923 36.0703 76.0413 40.0003 76.0413Z" fill="#102348"/>
</svg>
