<svg width="80" height="80" viewBox="0 0 80 80" fill="none" xmlns="http://www.w3.org/2000/svg">
<path d="M65.9691 34.2707C74.83 27.0466 78.5443 20.6882 76.4039 16.3286C75.5225 14.5343 73.1932 12.3624 67.1652 12.2207C58.9339 12.0319 46.4373 15.6203 33.862 21.8056C27.4091 24.9849 21.4914 28.589 16.5651 32.2877C8.82166 26.1181 5.04436 20.5151 6.42937 17.7136C7.01171 16.5489 8.68001 15.7777 11.1825 15.4944C11.0093 16.0767 10.8677 16.6748 10.7575 17.2886C10.4428 19.0671 10.4113 20.5623 10.5687 21.9315C11.7491 23.5841 13.7636 25.7875 16.7068 28.3057C21.3497 25.0163 26.7009 21.8371 32.477 18.9884C44.5644 13.0392 56.7304 9.38776 65.4025 9.08872C62.1446 5.3429 57.1711 3.108 51.2848 3.01356C48.3889 2.93487 45.3198 3.40703 42.1406 4.41431C40.7713 4.855 39.2447 4.855 37.8439 4.41431C34.6804 3.42277 31.6114 2.95061 28.7154 3.0293C21.3182 3.17095 15.4005 6.64922 12.4731 12.268C6.74415 12.4726 4.47777 14.5815 3.5964 16.3443C1.25132 21.1131 6.06738 27.8178 14.0312 34.2865C12.7091 35.3724 11.45 36.4584 10.3168 37.5287C4.11577 43.4779 1.78644 48.5458 3.5964 52.2129C4.93419 54.92 8.36524 56.3207 13.4961 56.3207C15.2746 56.3207 17.2734 56.1476 19.4296 55.8171C20.7044 70.2495 23.7263 76.9857 28.92 76.9857C30.6828 76.9857 32.2881 76.3404 33.4213 75.16C34.4286 74.1213 34.9795 72.752 34.9323 71.4299C34.6017 63.7652 35.5618 56.3207 37.356 51.8194C35.7148 51.0964 34.0882 50.3408 32.477 49.5531C27.8183 47.2552 22.294 44.1232 17.1317 40.5348C17.9344 43.7612 18.6426 47.7116 19.162 52.6693C12.3629 53.7553 7.54682 53.0628 6.42937 50.8122C5.3434 48.593 7.60978 44.4852 12.5045 39.795C13.7322 38.6146 15.1172 37.4342 16.5966 36.2538C21.6802 40.0469 27.7082 43.6825 33.8778 46.7201C43.3682 51.3945 52.8744 54.6209 60.6651 55.8171C62.8528 56.1476 64.8359 56.3207 66.5986 56.3207C71.7137 56.3207 75.0661 54.9357 76.4039 52.1972C78.5286 47.9005 74.7356 41.4161 65.9691 34.2707ZM73.5709 50.8279C72.4849 53.0471 67.8262 53.7553 61.1215 52.7166C53.6456 51.5676 44.4542 48.4356 35.247 43.9029C28.9673 40.8181 23.5531 37.5129 19.162 34.2865C23.7892 30.9026 29.2663 27.5975 35.247 24.6544C47.1927 18.7681 59.469 15.1954 67.0865 15.3842C70.5648 15.4629 72.8627 16.2971 73.5709 17.7293C74.4837 19.5707 73.0987 23.5999 66.8505 29.3445C66.9134 29.2029 66.9764 29.0769 67.0393 28.9353C68.6447 25.4728 69.8251 22.8601 69.4316 18.7681C68.8493 18.6421 68.0781 18.5477 67.0236 18.532H66.5199C59.2958 18.532 47.838 21.963 36.6478 27.4873C32.5271 29.5066 28.5373 31.7827 24.7021 34.3022C28.0702 36.5214 32.0363 38.8192 36.6478 41.1014C45.4143 45.4138 54.1178 48.4041 61.216 49.5531C61.94 44.0445 62.9158 39.9367 63.9388 36.6945C72.1072 43.3205 74.7041 48.53 73.5709 50.8279Z" fill="#102348"/>
<path d="M43.4787 54.3381C44.7221 58.8393 45.3359 65.0561 45.0526 71.4303C44.9896 72.8626 45.5248 74.2633 46.4848 75.2706C47.2403 76.0575 48.641 76.9861 51.0333 76.9861C55.8651 76.9861 58.8083 71.21 60.2248 58.9495H60.1775C55.1411 58.1626 49.428 56.5887 43.4787 54.3381Z" fill="#102348"/>
</svg>
