<svg width="80" height="80" viewBox="0 0 80 80" fill="none" xmlns="http://www.w3.org/2000/svg">
<path d="M41.3833 23.4226L42.3049 24.3442L43.2265 25.2659L47.9881 30.0275L56.2826 38.3219C56.897 38.9363 57.2042 39.7043 57.2042 40.4723V46.6164C57.2042 48.4596 57.8186 50.1492 58.8938 51.2244L64.2698 56.6004C65.0378 54.7572 65.8058 52.7604 66.4202 50.7636C73.0251 29.7203 67.9562 9.75217 55.0538 4.99055C49.2169 2.84013 42.7657 4.22254 36.6217 8.83057C30.4776 4.22254 24.0264 2.99374 18.1896 4.99055C5.2871 9.59857 0.218271 29.7203 6.82311 50.7636C10.0487 61.0548 15.5784 69.8101 22.3368 75.3397C23.1048 75.9541 24.0264 76.2613 24.948 76.2613C25.5624 76.2613 26.1768 76.1077 26.7912 75.8005C28.3272 75.0325 29.2488 73.4965 29.0952 71.8069C29.0952 71.3461 29.0952 71.0389 29.0952 70.5781C29.0952 61.0549 33.0889 53.8356 36.6217 53.8356C40.1545 53.8356 44.1481 60.9013 44.1481 70.5781C44.1481 71.0389 44.1481 71.3461 44.1481 71.8069C44.1481 73.4965 45.0697 75.0325 46.4521 75.8005C47.9881 76.5685 49.6777 76.4149 50.9066 75.3397C54.9002 72.1141 58.433 67.6597 61.3514 62.4373L54.7466 55.3716C54.7466 55.3716 54.7466 55.3716 54.593 55.218C52.4426 53.0676 51.2138 49.842 51.2138 46.4628V41.7011L47.6809 45.234C47.0665 45.8484 46.2985 46.1556 45.5305 46.1556C44.7625 46.1556 43.9945 45.8484 43.3801 45.234C42.1513 44.0052 42.1513 42.1619 43.3801 40.9331L46.9129 37.4003L45.8377 36.3251L42.3049 39.8579C41.6905 40.4723 40.9225 40.7795 40.1545 40.7795C39.3865 40.7795 38.6185 40.4723 38.0041 39.8579C36.7753 38.6291 36.7753 36.7859 38.0041 35.5571L41.5369 32.0243L40.3081 30.7955L36.6217 34.4819C35.3929 35.7107 33.5497 35.7107 32.3208 34.4819C31.092 33.2531 31.092 31.4099 32.3208 30.1811L36.3145 26.1875C36.1609 25.2659 36.4681 24.1906 37.0825 23.5762C38.3113 22.3474 40.3081 22.3474 41.3833 23.4226ZM75.1755 67.5061L68.8778 61.2085L68.2635 62.2837L66.2666 67.1989L70.8747 71.8069C71.4891 72.4213 72.2571 72.7285 73.0251 72.7285C73.7931 72.7285 74.5611 72.4213 75.1755 71.8069C76.4043 70.5781 76.4043 68.5813 75.1755 67.5061Z" fill="#102348"/>
</svg>
