<svg width="80" height="80" viewBox="0 0 80 80" fill="none" xmlns="http://www.w3.org/2000/svg">
<g clip-path="url(#clip0_3817_1097)">
<path d="M40.8998 9.33764C39.787 8.13078 38.5271 7.06832 37.1498 6.17514C34.512 4.57662 31.4841 3.73745 28.3998 3.75014C19.6498 3.75014 12.2373 10.9001 11.5373 20.0001C11.1509 25.0487 11.3143 30.1244 12.0248 35.1376C12.0672 35.438 12.2175 35.7126 12.4474 35.9104C12.6774 36.1082 12.9715 36.2156 13.2748 36.2126H28.7498C29.0813 36.2126 29.3993 36.0809 29.6337 35.8465C29.8681 35.6121 29.9998 35.2942 29.9998 34.9626C29.9998 32.3105 31.0534 29.7669 32.9287 27.8916C34.8041 26.0162 37.3476 24.9626 39.9998 24.9626C42.652 24.9626 45.1955 26.0162 47.0709 27.8916C48.9462 29.7669 49.9998 32.3105 49.9998 34.9626C49.9998 35.2942 50.1315 35.6121 50.3659 35.8465C50.6003 36.0809 50.9183 36.2126 51.2498 36.2126H66.7373C67.0406 36.2156 67.3347 36.1082 67.5646 35.9104C67.7946 35.7126 67.9448 35.438 67.9873 35.1376C68.6936 30.1239 68.8529 25.0483 68.4623 20.0001C67.7623 10.9001 60.3498 3.75014 51.5998 3.75014C45.8248 3.75014 43.3998 6.25014 41.4373 6.80014L41.7873 6.70014C42.0998 7.00014 42.3998 7.28764 42.6748 7.57514C43.2748 8.17514 45.5373 9.12514 49.0748 9.07514V11.5751H48.8123C45.3498 11.5751 42.2623 10.7001 40.8998 9.33764ZM28.3998 11.2501C23.0498 11.2501 19.3623 16.1126 19.0123 20.6126L16.5123 20.4126C16.9498 14.8126 21.6123 8.75014 28.3998 8.75014V11.2501Z" fill="#102348"/>
<path d="M67.9748 41.425C68 41.2468 67.9865 41.0652 67.935 40.8928C67.8836 40.7203 67.7955 40.5609 67.6768 40.4256C67.5581 40.2903 67.4116 40.1823 67.2473 40.1088C67.083 40.0353 66.9048 39.9982 66.7248 40H47.4998V36.25C47.4998 34.2609 46.7096 32.3532 45.3031 30.9467C43.8966 29.5402 41.9889 28.75 39.9998 28.75C38.0107 28.75 36.103 29.5402 34.6965 30.9467C33.29 32.3532 32.4998 34.2609 32.4998 36.25V40H13.2623C13.0823 39.9982 12.9041 40.0353 12.7398 40.1088C12.5755 40.1823 12.429 40.2903 12.3103 40.4256C12.1916 40.5609 12.1035 40.7203 12.0521 40.8928C12.0007 41.0652 11.9871 41.2468 12.0123 41.425C12.6911 46.945 13.7097 52.4179 15.0623 57.8125C17.4998 66.3125 22.2748 76.25 27.8998 76.25C30.5248 76.25 31.3123 72.5 32.4998 66.9125C33.8623 60.5 35.5623 52.5 39.9998 52.5C44.4373 52.5 46.1373 60.4625 47.4998 66.875C48.7498 72.5 49.4748 76.25 52.0998 76.25C57.7248 76.25 62.5248 66.25 64.9248 57.8125C66.2774 52.4179 67.296 46.945 67.9748 41.425Z" fill="#102348"/>
</g>
<defs>
<clipPath id="clip0_3817_1097">
<rect width="80" height="80" fill="white"/>
</clipPath>
</defs>
</svg>
