<svg width="80" height="80" viewBox="0 0 80 80" fill="none" xmlns="http://www.w3.org/2000/svg">
<g clip-path="url(#clip0_3817_1713)">
<path d="M68.6663 24.1665C64.4997 22.6665 59.9997 23.4998 55.6663 26.4998C51.333 23.4998 46.833 22.8332 42.6663 24.1665C33.1663 27.4998 29.4997 41.4998 34.1663 56.1665C36.4997 63.3332 40.333 69.3332 45.1663 73.1665C45.833 73.6665 46.6663 73.9998 47.4997 73.9998C48.1663 73.9998 48.6663 73.8332 49.333 73.4998C50.6663 72.8332 51.4997 71.3332 51.4997 69.8332C51.4997 69.6665 51.4997 69.3332 51.4997 69.1665C51.4997 62.9998 53.9997 58.9998 55.6663 58.9998C57.333 58.9998 59.833 62.9998 59.833 69.1665C59.833 69.3332 59.833 69.6665 59.833 69.8332C59.833 71.3332 60.6663 72.8332 61.9997 73.4998C63.333 74.1665 64.9997 73.9998 66.1663 73.1665C70.9997 69.3332 74.833 63.3332 77.1663 56.1665C81.833 41.6665 78.1663 27.4998 68.6663 24.1665ZM28.4997 6.1665C28.4997 4.49984 27.1663 3.1665 25.4997 3.1665H11.333C9.66634 3.1665 8.33301 4.49984 8.33301 6.1665V12.3332H28.6663V6.1665H28.4997Z" fill="#102348"/>
<path d="M35.6663 20.8331C35.333 19.4998 34.1663 18.4998 32.6663 18.4998H3.83301C2.16634 18.4998 0.833008 19.8331 0.833008 21.4998V73.8331C0.833008 75.4998 2.16634 76.8331 3.83301 76.8331H32.6663C34.333 76.8331 35.6663 75.4998 35.6663 73.8331V72.6664C32.333 68.6664 29.833 63.6664 27.9997 58.1664C23.1663 42.4998 26.4997 27.4998 35.6663 20.8331Z" fill="#102348"/>
</g>
<defs>
<clipPath id="clip0_3817_1713">
<rect width="80" height="80" fill="white"/>
</clipPath>
</defs>
</svg>
