<svg width="72" height="88" viewBox="0 0 72 88" fill="none" xmlns="http://www.w3.org/2000/svg">
<path d="M66.1496 87.01C64.8748 86.5025 63.3677 86.0022 61.9515 85.3486C56.3696 82.7519 50.7876 80.1553 45.2451 77.5096C44.0434 76.9314 42.9171 76.1387 41.919 75.2872C40.577 74.1592 40.2987 72.9158 40.8158 71.7297C41.333 70.5436 42.4924 69.9874 44.2343 70.3367C45.4251 70.5663 46.6866 70.869 47.7565 71.3898C54.7619 74.8724 61.7554 78.4102 68.7152 81.9695C69.494 82.3694 70.2645 82.9406 70.7786 83.6292C72.0836 85.3263 71.1271 87.3403 68.9745 87.4212C68.1335 87.4407 67.2422 87.1606 66.1496 87.01Z" fill="#F8ED3A"/>
<path d="M35.7274 46.7889C36.3451 45.5381 36.7713 44.5053 37.3568 43.536C43.2356 33.7327 51.0401 25.5592 59.5419 18.0276C60.5407 17.148 61.7204 16.3654 62.9386 15.9374C63.595 15.7048 64.7403 16.0111 65.3239 16.5128C65.76 16.896 65.885 18.0484 65.6432 18.6307C65.1991 19.7461 64.5285 20.8412 63.7226 21.7627C58.4188 27.8534 53.0935 33.9106 47.719 39.9282C45.7023 42.1738 43.609 44.3738 41.5433 46.5799C40.8619 47.3264 40.1314 48.0334 39.3852 48.6793C38.5601 49.4235 37.482 49.7377 36.6432 48.9497C36.0932 48.4264 35.4642 48.0013 35.7274 46.7889Z" fill="#F8ED3A"/>
<path d="M0.0985811 6.56785C-0.0414156 5.24524 -0.0152909 3.89061 0.071541 2.55301C0.157361 1.35917 0.777875 0.406873 2.00244 0.0560529C3.03853 -0.229736 4.37641 0.603627 4.80928 1.95595C5.38821 3.76828 5.9448 5.61363 6.21918 7.48465C7.04767 13.1254 7.77074 18.8151 8.46079 24.4825C8.6798 26.3642 8.78806 28.2672 8.84095 30.1809C8.8529 30.8391 8.75945 31.5462 8.49555 32.114C7.7986 33.7127 6.00531 33.9434 5.01972 32.554C4.46672 31.7704 4.09788 30.7503 3.91649 29.809C3.18054 26.7347 0.624259 11.2332 0.0985811 6.56785Z" fill="#F8ED3A"/>
</svg>
