<svg width="20" height="20" viewBox="0 0 20 20" fill="none" xmlns="http://www.w3.org/2000/svg">
<path d="M7.55441 6.761C5.78683 8.58981 6.17255 11.6248 8.19728 12.9692C8.264 13.0136 8.35275 13.0048 8.41006 12.9488C8.83631 12.5323 9.19691 12.1289 9.51266 11.6158C9.56097 11.5373 9.53092 11.4354 9.44987 11.3915C9.14104 11.2242 8.83373 10.9105 8.66073 10.5791L8.66053 10.5792C8.45329 10.1665 8.38274 9.70396 8.49245 9.22623C8.49257 9.22626 8.49269 9.22629 8.49281 9.22629C8.61905 8.61467 9.27567 8.04572 9.77717 7.51954C9.77612 7.51919 9.77509 7.51881 9.77404 7.51846L11.653 5.60069C12.4018 4.83643 13.6335 4.83013 14.3901 5.5867C15.1543 6.33548 15.167 7.57339 14.4182 8.33761L13.2801 9.50798C13.2274 9.56215 13.2103 9.64118 13.2349 9.71261C13.497 10.4725 13.5614 11.544 13.3858 12.3536C13.3809 12.3762 13.4089 12.3911 13.4251 12.3745L15.8474 9.9022C17.3948 8.32287 17.3817 5.7515 15.8182 4.18805C14.2227 2.59251 11.6252 2.60578 10.046 4.21751L7.56411 6.75063C7.56083 6.75409 7.55772 6.7576 7.55441 6.761Z" fill="#102348"/>
<path d="M12.0845 13.3193C12.0844 13.3193 12.0844 13.3194 12.0843 13.3195C12.0859 13.3189 12.0873 13.3183 12.0889 13.3176C12.5832 12.4136 12.6805 11.3769 12.4489 10.3662L12.4478 10.3673L12.4467 10.3668C12.2267 9.46669 11.6231 8.57284 10.8033 8.02251C10.7327 7.97517 10.6201 7.98065 10.554 8.03406C10.1388 8.36983 9.73231 8.80039 9.4641 9.34985C9.42198 9.43611 9.45352 9.53973 9.53653 9.58792C9.8478 9.76863 10.1289 10.0332 10.3171 10.3844L10.3174 10.3842C10.4641 10.6324 10.6086 11.1032 10.515 11.609C10.5149 11.609 10.5148 11.609 10.5148 11.609C10.4274 12.2797 9.75016 12.8949 9.21175 13.4493L9.21202 13.4496C8.80218 13.8687 7.76034 14.9307 7.34317 15.3569C6.59439 16.1212 5.35648 16.1338 4.59226 15.385C3.82804 14.6362 3.8154 13.3983 4.56418 12.6341L5.70568 11.4602C5.75741 11.407 5.775 11.3297 5.75199 11.2591C5.49853 10.4815 5.42909 9.43412 5.58907 8.62549C5.59353 8.60295 5.5658 8.58855 5.54971 8.60497L3.16385 11.0401C1.60058 12.6356 1.61383 15.2334 3.19334 16.8128C4.7888 18.3761 7.37315 18.3496 8.93637 16.7542C9.47943 16.1467 11.8041 13.9944 12.0845 13.3193Z" fill="#102348"/>
</svg>
