<svg width="72" height="14" viewBox="0 0 72 14" fill="none" xmlns="http://www.w3.org/2000/svg">
<path d="M9.07994 7.4662C9.07994 3.2002 6.52394 2.64219 3.91394 2.64219H2.49194V12.3082H3.91394C6.52394 12.3082 9.07994 11.7682 9.07994 7.4662ZM0.439941 0.950195H4.00394C8.14394 0.950195 11.2039 2.4442 11.2039 7.4662C11.2039 12.5062 8.14394 14.0002 4.00394 14.0002H0.439941V0.950195Z" fill="#102348"/>
<path d="M11.2083 14.0002L16.0503 0.950195H18.3183L23.2323 14.0002H21.0003L19.9743 11.1382H14.3043L13.2963 14.0002H11.2083ZM17.1123 3.1822L14.9163 9.4102H19.3443L17.1123 3.1822Z" fill="#102348"/>
<path d="M24.3117 14.0002V0.950195H33.0957V2.6962H26.3637V6.42219H32.6997V8.1502H26.3637V14.0002H24.3117Z" fill="#102348"/>
<path d="M41.8314 14.0002H39.7074L36.2334 3.0202V14.0002H34.2174V0.950195H37.5114L40.7694 11.6062L44.0274 0.950195H47.3214V14.0002H45.3054V3.0202L41.8314 14.0002Z" fill="#102348"/>
<path d="M49.8183 14.0002V0.950195H58.8543V2.6962H51.8703V6.42219H58.4583V8.1502H51.8703V12.2542H58.8543V14.0002H49.8183Z" fill="#102348"/>
<path d="M69.1549 7.4662C69.1549 3.2002 66.5989 2.64219 63.9889 2.64219H62.5669V12.3082H63.9889C66.5989 12.3082 69.1549 11.7682 69.1549 7.4662ZM60.5149 0.950195H64.0789C68.2189 0.950195 71.2789 2.4442 71.2789 7.4662C71.2789 12.5062 68.2189 14.0002 64.0789 14.0002H60.5149V0.950195Z" fill="#102348"/>
</svg>
