<svg width="231" height="72" viewBox="0 0 231 72" fill="none" xmlns="http://www.w3.org/2000/svg">
<g clip-path="url(#clip0_3836_800)">
<path d="M14.0387 30.347H5.365V45.0357H1.3125V26.5861H18.0912V45.0357H14.0387V30.347Z" fill="#F52A14"/>
<path d="M22.0342 26.5813H26.0867V28.6036C26.9162 27.8231 27.8048 27.2199 28.7528 26.7942C29.7007 26.3684 30.7672 26.1555 31.9521 26.1555C33.2793 26.1555 34.4998 26.4039 35.6137 26.9006C36.7512 27.3737 37.7228 28.0478 38.5285 28.923C39.3343 29.7745 39.9624 30.7916 40.4126 31.9742C40.8629 33.1333 41.088 34.3987 41.088 35.7706C41.088 37.1898 40.8392 38.4908 40.3415 39.6734C39.8676 40.8324 39.2158 41.8377 38.3863 42.6893C37.557 43.5171 36.5616 44.1676 35.4004 44.6407C34.2628 45.1137 33.0423 45.3502 31.7388 45.3502C30.5776 45.3502 29.5348 45.1729 28.6106 44.818C27.6863 44.4632 26.8451 43.9665 26.0867 43.3279V52.1269H22.0342V26.5813ZM31.1346 41.5894C31.9403 41.5894 32.6868 41.4593 33.3741 41.199C34.085 40.9389 34.7012 40.5605 35.2226 40.0638C35.744 39.5434 36.1468 38.9284 36.4312 38.2187C36.7393 37.4854 36.8934 36.6576 36.8934 35.7352C36.8934 34.8836 36.763 34.1031 36.5023 33.3934C36.2416 32.6602 35.8625 32.0452 35.3648 31.5485C34.8908 31.0281 34.322 30.626 33.6584 30.3422C32.9949 30.0584 32.2602 29.9164 31.4544 29.9164C30.2221 29.9164 29.132 30.212 28.184 30.8034C27.2597 31.3947 26.5607 32.1044 26.0867 32.9322V38.538C26.5607 39.5316 27.236 40.2884 28.1129 40.8088C28.9898 41.3292 29.997 41.5894 31.1346 41.5894Z" fill="#F52A14"/>
<path d="M43.1943 35.7706C43.1943 34.375 43.4313 33.0978 43.9053 31.9388C44.3793 30.7561 45.0548 29.739 45.9316 28.8875C46.8085 28.036 47.8512 27.3737 49.0599 26.9006C50.2685 26.4039 51.6075 26.1555 53.0768 26.1555C54.5224 26.1555 55.8496 26.4039 57.0582 26.9006C58.2906 27.3737 59.3451 28.036 60.222 28.8875C61.0988 29.739 61.7743 30.7561 62.2483 31.9388C62.746 33.0978 62.9947 34.375 62.9947 35.7706C62.9947 37.1662 62.746 38.4553 62.2483 39.6379C61.7743 40.797 61.0988 41.8022 60.222 42.6538C59.3451 43.5053 58.2906 44.1676 57.0582 44.6407C55.8496 45.1137 54.5224 45.3502 53.0768 45.3502C51.6312 45.3502 50.304 45.1137 49.0954 44.6407C47.8867 44.1676 46.844 43.5053 45.9671 42.6538C45.0903 41.8022 44.403 40.797 43.9053 39.6379C43.4313 38.4553 43.1943 37.1662 43.1943 35.7706ZM47.389 35.7706C47.389 36.5985 47.5194 37.3673 47.7801 38.0768C48.0645 38.7864 48.4555 39.4014 48.9532 39.9218C49.4509 40.4422 50.0433 40.8561 50.7306 41.1636C51.4416 41.4474 52.2236 41.5894 53.0768 41.5894C53.93 41.5894 54.7001 41.4593 55.3874 41.199C56.0984 40.9152 56.7027 40.525 57.2004 40.0283C57.6981 39.5079 58.0891 38.8929 58.3734 38.1833C58.6578 37.4736 58.8 36.6694 58.8 35.7706C58.8 34.8717 58.646 34.0676 58.338 33.3579C58.0536 32.6247 57.6507 32.0097 57.1293 31.513C56.6079 30.9926 56.0036 30.6024 55.3163 30.3422C54.629 30.0584 53.8826 29.9164 53.0768 29.9164C52.271 29.9164 51.5127 30.0584 50.8017 30.3422C50.1144 30.6024 49.5102 30.9926 48.9888 31.513C48.4911 32.0097 48.1 32.6247 47.8156 33.3579C47.5312 34.0676 47.389 34.8717 47.389 35.7706Z" fill="#F52A14"/>
<path d="M64.0771 41.2748H66.2172C67.0495 40.2104 67.6083 38.9922 67.8936 37.6204C68.179 36.2485 68.3216 34.6992 68.3216 32.9725V26.5861H83.2309V41.2748H85.8346V49.2579H82.0538V45.0357H67.8579V49.2579H64.0771V41.2748ZM79.1647 41.2748V30.347H72.1737V35.0658C72.1737 36.2012 72.0192 37.3366 71.71 38.4718C71.401 39.5836 70.973 40.518 70.4261 41.2748H79.1647Z" fill="#3981F1"/>
<path d="M86.6602 35.7706C86.6602 34.375 86.8979 33.0978 87.3735 31.9388C87.849 30.7561 88.5267 29.739 89.4065 28.8875C90.2863 28.036 91.3326 27.3737 92.5453 26.9006C93.758 26.4039 95.1015 26.1555 96.5758 26.1555C98.0262 26.1555 99.3579 26.4039 100.571 26.9006C101.807 27.3737 102.865 28.036 103.745 28.8875C104.625 29.739 105.303 30.7561 105.778 31.9388C106.277 33.0978 106.527 34.375 106.527 35.7706C106.527 37.1662 106.277 38.4553 105.778 39.6379C105.303 40.797 104.625 41.8022 103.745 42.6538C102.865 43.5053 101.807 44.1676 100.571 44.6407C99.3579 45.1137 98.0262 45.3502 96.5758 45.3502C95.1253 45.3502 93.7936 45.1137 92.581 44.6407C91.3682 44.1676 90.322 43.5053 89.4422 42.6538C88.5623 41.8022 87.8728 40.797 87.3735 39.6379C86.8979 38.4553 86.6602 37.1662 86.6602 35.7706ZM90.8689 35.7706C90.8689 36.5985 90.9997 37.3673 91.2612 38.0768C91.5466 38.7864 91.939 39.4014 92.4383 39.9218C92.9377 40.4422 93.5321 40.8561 94.2217 41.1636C94.9351 41.4474 95.7198 41.5894 96.5758 41.5894C97.4318 41.5894 98.2046 41.4593 98.8942 41.199C99.6076 40.9152 100.214 40.525 100.713 40.0283C101.213 39.5079 101.605 38.8929 101.89 38.1833C102.176 37.4736 102.318 36.6694 102.318 35.7706C102.318 34.8717 102.164 34.0676 101.855 33.3579C101.569 32.6247 101.165 32.0097 100.642 31.513C100.119 30.9926 99.5124 30.6024 98.8229 30.3422C98.1333 30.0584 97.3843 29.9164 96.5758 29.9164C95.7674 29.9164 95.0064 30.0584 94.293 30.3422C93.6035 30.6024 92.9971 30.9926 92.474 31.513C91.9747 32.0097 91.5823 32.6247 91.2969 33.3579C91.0116 34.0676 90.8689 34.8717 90.8689 35.7706Z" fill="#3981F1"/>
<path d="M109.043 26.5861H113.109V34.0724L121.134 26.5861H126.449L117.425 34.9239L126.77 45.0357H121.563L114.465 37.4429L113.109 38.7557V45.0357H109.043V26.5861Z" fill="#3981F1"/>
<path d="M128.053 26.5861H145.53V30.347H138.824V45.0357H134.759V30.347H128.053V26.5861Z" fill="#3981F1"/>
<path d="M146.42 35.7706C146.42 34.375 146.658 33.0978 147.134 31.9388C147.609 30.7561 148.287 29.739 149.166 28.8875C150.046 28.036 151.093 27.3737 152.306 26.9006C153.518 26.4039 154.862 26.1555 156.336 26.1555C157.787 26.1555 159.118 26.4039 160.331 26.9006C161.568 27.3737 162.625 28.036 163.505 28.8875C164.385 29.739 165.063 30.7561 165.538 31.9388C166.038 33.0978 166.287 34.375 166.287 35.7706C166.287 37.1662 166.038 38.4553 165.538 39.6379C165.063 40.797 164.385 41.8022 163.505 42.6538C162.625 43.5053 161.568 44.1676 160.331 44.6407C159.118 45.1137 157.787 45.3502 156.336 45.3502C154.886 45.3502 153.553 45.1137 152.341 44.6407C151.128 44.1676 150.082 43.5053 149.202 42.6538C148.322 41.8022 147.633 40.797 147.134 39.6379C146.658 38.4553 146.42 37.1662 146.42 35.7706ZM150.629 35.7706C150.629 36.5985 150.76 37.3673 151.021 38.0768C151.307 38.7864 151.699 39.4014 152.199 39.9218C152.697 40.4422 153.293 40.8561 153.982 41.1636C154.695 41.4474 155.48 41.5894 156.336 41.5894C157.192 41.5894 157.965 41.4593 158.655 41.199C159.368 40.9152 159.974 40.525 160.474 40.0283C160.973 39.5079 161.365 38.8929 161.65 38.1833C161.936 37.4736 162.079 36.6694 162.079 35.7706C162.079 34.8717 161.924 34.0676 161.614 33.3579C161.33 32.6247 160.925 32.0097 160.402 31.513C159.879 30.9926 159.273 30.6024 158.583 30.3422C157.894 30.0584 157.144 29.9164 156.336 29.9164C155.527 29.9164 154.766 30.0584 154.053 30.3422C153.364 30.6024 152.757 30.9926 152.234 31.513C151.734 32.0097 151.343 32.6247 151.057 33.3579C150.772 34.0676 150.629 34.8717 150.629 35.7706Z" fill="#3981F1"/>
<path d="M168.771 26.5813H172.837V28.6036C173.669 27.8231 174.561 27.2199 175.512 26.7942C176.463 26.3684 177.534 26.1555 178.723 26.1555C180.054 26.1555 181.279 26.4039 182.397 26.9006C183.537 27.3737 184.512 28.0478 185.321 28.923C186.129 29.7745 186.76 30.7916 187.211 31.9742C187.664 33.1333 187.889 34.3987 187.889 35.7706C187.889 37.1898 187.64 38.4908 187.14 39.6734C186.665 40.8324 186.011 41.8377 185.178 42.6893C184.346 43.5171 183.347 44.1676 182.182 44.6407C181.041 45.1137 179.816 45.3502 178.509 45.3502C177.343 45.3502 176.297 45.1729 175.369 44.818C174.442 44.4632 173.598 43.9665 172.837 43.3279V52.1269H168.771V26.5813ZM177.903 41.5894C178.711 41.5894 179.46 41.4593 180.149 41.199C180.862 40.9389 181.481 40.5605 182.004 40.0638C182.527 39.5434 182.931 38.9284 183.217 38.2187C183.525 37.4854 183.68 36.6576 183.68 35.7352C183.68 34.8836 183.549 34.1031 183.288 33.3934C183.027 32.6602 182.646 32.0452 182.147 31.5485C181.671 31.0281 181.1 30.626 180.435 30.3422C179.768 30.0584 179.031 29.9164 178.223 29.9164C176.987 29.9164 175.893 30.212 174.942 30.8034C174.014 31.3947 173.313 32.1044 172.837 32.9322V38.538C173.313 39.5316 173.991 40.2884 174.87 40.8088C175.75 41.3292 176.761 41.5894 177.903 41.5894Z" fill="#3981F1"/>
<path d="M189.904 35.7706C189.904 34.375 190.142 33.0978 190.617 31.9388C191.094 30.7561 191.771 29.739 192.651 28.8875C193.531 28.036 194.577 27.3737 195.789 26.9006C197.002 26.4039 198.346 26.1555 199.82 26.1555C201.27 26.1555 202.602 26.4039 203.815 26.9006C205.051 27.3737 206.109 28.036 206.989 28.8875C207.869 29.739 208.546 30.7561 209.023 31.9388C209.521 33.0978 209.771 34.375 209.771 35.7706C209.771 37.1662 209.521 38.4553 209.023 39.6379C208.546 40.797 207.869 41.8022 206.989 42.6538C206.109 43.5053 205.051 44.1676 203.815 44.6407C202.602 45.1137 201.27 45.3502 199.82 45.3502C198.37 45.3502 197.038 45.1137 195.825 44.6407C194.613 44.1676 193.566 43.5053 192.687 42.6538C191.807 41.8022 191.117 40.797 190.617 39.6379C190.142 38.4553 189.904 37.1662 189.904 35.7706ZM194.113 35.7706C194.113 36.5985 194.244 37.3673 194.506 38.0768C194.791 38.7864 195.183 39.4014 195.683 39.9218C196.182 40.4422 196.776 40.8561 197.466 41.1636C198.179 41.4474 198.964 41.5894 199.82 41.5894C200.676 41.5894 201.449 41.4593 202.138 41.199C202.852 40.9152 203.458 40.525 203.957 40.0283C204.457 39.5079 204.849 38.8929 205.134 38.1833C205.42 37.4736 205.563 36.6694 205.563 35.7706C205.563 34.8717 205.408 34.0676 205.099 33.3579C204.813 32.6247 204.409 32.0097 203.886 31.513C203.363 30.9926 202.757 30.6024 202.067 30.3422C201.377 30.0584 200.628 29.9164 199.82 29.9164C199.012 29.9164 198.251 30.0584 197.538 30.3422C196.847 30.6024 196.241 30.9926 195.719 31.513C195.219 32.0097 194.827 32.6247 194.541 33.3579C194.256 34.0676 194.113 34.8717 194.113 35.7706Z" fill="#3981F1"/>
<path d="M212.298 26.5861H220.216C222.808 26.5861 224.758 26.9527 226.066 27.6859C227.373 28.4192 228.028 29.6847 228.028 31.4823C228.028 32.3338 227.837 33.0553 227.457 33.6466C227.077 34.238 226.577 34.7702 225.959 35.2432C226.839 35.5744 227.492 36.1302 227.921 36.9107C228.348 37.6677 228.562 38.5428 228.562 39.5363C228.562 41.3813 227.909 42.765 226.601 43.6874C225.293 44.5863 223.45 45.0357 221.072 45.0357H212.298V26.5861ZM216.365 37.4074V41.3813H220.68C221.892 41.3813 222.808 41.2275 223.427 40.92C224.045 40.6125 224.354 40.1158 224.354 39.4299C224.354 38.6966 224.056 38.1762 223.462 37.8688C222.891 37.5612 221.999 37.4074 220.787 37.4074H216.365ZM216.365 30.2405V33.8949H221.143C221.975 33.8949 222.63 33.7413 223.105 33.4337C223.581 33.1263 223.818 32.6532 223.818 32.0145C223.818 31.2576 223.498 30.7727 222.855 30.5599C222.237 30.347 221.322 30.2405 220.109 30.2405H216.365Z" fill="#3981F1"/>
</g>
<defs>
<clipPath id="clip0_3836_800">
<rect width="227.25" height="34.6286" fill="white" transform="translate(1.3125 19.125)"/>
</clipPath>
</defs>
</svg>
