<svg width="368" height="339" viewBox="0 0 368 339" fill="none" xmlns="http://www.w3.org/2000/svg">
<path d="M234.979 131.37C234.966 131.75 234.692 132.03 234.159 132.21L231.789 129.12C231.761 129.084 231.725 129.055 231.685 129.034C231.644 129.013 231.6 129.001 231.555 128.999C231.51 128.997 231.466 129.005 231.425 129.023C231.384 129.04 231.348 129.067 231.319 129.1C196.789 168.06 173.199 215.52 165.019 267.07C164.959 267.47 165.112 267.747 165.479 267.9C171.779 270.54 178.216 272.677 184.789 274.31C187.562 275.003 190.926 275.26 194.879 275.08C216.549 274.11 236.169 270.24 256.979 268.08C257.306 268.047 257.389 267.883 257.229 267.59C248.049 250.72 240.779 231.44 234.879 213.52C228.652 194.633 226.689 175.293 228.989 155.5C229.316 152.673 230.489 147.46 232.509 139.86L237.669 133.07C252.219 127.81 272.319 137.47 283.639 146.32C315.799 171.42 331.199 205.94 341.989 243.86C348.989 268.47 349.939 299.81 330.419 319.41C321.509 328.35 310.259 331.18 297.999 332.24C281.789 333.65 265.109 332.99 248.939 331.35C223.966 328.81 199.146 325.19 174.479 320.49C174.433 320.48 174.385 320.482 174.34 320.496C174.294 320.51 174.253 320.535 174.22 320.569C174.187 320.603 174.164 320.645 174.151 320.69C174.139 320.736 174.138 320.784 174.149 320.83C175.749 327.83 177.519 331.64 167.899 331.62C173.379 329.06 170.499 323.72 169.339 319.56C169.294 319.394 169.204 319.242 169.08 319.121C168.955 318.999 168.799 318.913 168.629 318.87C162.949 317.443 157.279 315.87 151.619 314.15C144.229 311.9 129.039 305.62 125.119 298.59C124.997 298.371 124.927 298.127 124.913 297.877C124.9 297.627 124.944 297.376 125.043 297.145C125.141 296.914 125.291 296.707 125.481 296.542C125.671 296.376 125.896 296.256 126.139 296.19C127.546 295.817 128.929 295.857 130.289 296.31C130.356 296.33 130.422 296.327 130.489 296.3C130.582 296.26 130.676 296.217 130.769 296.17C130.787 296.162 130.802 296.15 130.814 296.134C130.825 296.119 130.832 296.1 130.834 296.081C130.836 296.062 130.833 296.042 130.825 296.024C130.817 296.007 130.805 295.991 130.789 295.98C127.949 294.17 119.439 289.45 118.719 286.11C118.506 285.123 118.986 284.423 120.159 284.01C120.632 283.843 120.922 283.743 121.029 283.71C121.642 283.53 121.726 283.213 121.279 282.76C120.072 281.54 119.542 280.493 119.689 279.62C119.829 278.82 120.576 278.347 121.929 278.2C126.869 277.65 132.329 279.06 137.209 279.97C137.276 279.983 137.332 279.967 137.379 279.92C137.446 279.847 137.512 279.773 137.579 279.7C137.594 279.685 137.605 279.667 137.611 279.647C137.617 279.626 137.618 279.605 137.614 279.585C137.61 279.564 137.601 279.544 137.588 279.528C137.575 279.512 137.558 279.499 137.539 279.49C134.719 278.41 132.199 276.827 129.979 274.74C129.756 274.53 129.598 274.26 129.523 273.963C129.448 273.665 129.46 273.353 129.556 273.062C129.653 272.771 129.831 272.514 130.069 272.32C130.306 272.127 130.595 272.005 130.899 271.97C139.209 270.99 149.189 273.28 157.399 274.84C157.465 274.852 157.533 274.847 157.596 274.826C157.66 274.806 157.717 274.769 157.763 274.72C157.808 274.672 157.841 274.612 157.858 274.547C157.875 274.483 157.875 274.415 157.859 274.35C154.266 260.19 150.652 245.987 147.019 231.74C146.579 230.02 145.299 228.973 143.179 228.6C147.149 228.68 150.399 227.84 151.669 232.76C154.382 243.333 157.012 253.683 159.559 263.81C160.019 265.623 160.289 265.597 160.369 263.73C160.789 254.377 161.419 244.557 162.259 234.27C164.519 206.66 170.219 179.79 180.289 153.98C181.836 150.02 183.296 145.92 184.669 141.68C186.029 140.753 186.832 138.487 187.079 134.88C188.399 128.36 188.989 121.67 188.849 114.81C188.848 114.727 188.83 114.645 188.795 114.569C188.76 114.493 188.71 114.425 188.647 114.37C188.584 114.314 188.509 114.272 188.429 114.246C188.348 114.221 188.263 114.212 188.179 114.22C180.339 115.05 170.159 114.75 163.679 110.06C154.499 103.43 163.129 92.53 166.449 85.72C169.509 79.42 169.999 70.01 170.309 63.24C170.329 62.7534 170.129 62.3967 169.709 62.17C155.689 54.6 165.149 35.18 179.329 40.23C179.936 40.4434 180.452 40.58 180.879 40.64C183.432 42.2534 185.316 44.4534 186.529 47.24C186.649 47.5134 186.846 47.5967 187.119 47.49L187.379 47.38C187.449 47.3536 187.505 47.3005 187.537 47.2316C187.569 47.1627 187.573 47.0833 187.549 47.01C186.396 43.85 184.372 41.45 181.479 39.81C185.959 29.61 200.059 29.74 204.089 39.84C204.216 40.1467 204.422 40.22 204.709 40.06C211.879 35.92 219.529 37.52 224.029 44.26C227.699 49.74 225.979 53.89 223.719 59.49C222.039 63.6567 221.306 68.1134 221.519 72.86C221.524 72.9716 221.551 73.081 221.601 73.1812C221.65 73.2814 221.72 73.3701 221.806 73.4417C221.891 73.5133 221.991 73.5662 222.099 73.5969C222.206 73.6276 222.319 73.6355 222.429 73.62C229.929 72.58 235.569 77.44 235.199 84.8C234.819 92.53 226.379 98.22 219.569 99.54C219.439 99.5653 219.316 99.6174 219.208 99.6929C219.099 99.7685 219.008 99.8658 218.939 99.9788C218.87 100.092 218.826 100.218 218.809 100.349C218.792 100.48 218.802 100.613 218.839 100.74C222.139 112.153 227.519 122.363 234.979 131.37ZM175.709 84.76C175.772 84.8692 175.796 84.9968 175.776 85.1214C175.757 85.246 175.695 85.36 175.601 85.4444C175.507 85.5288 175.387 85.5784 175.261 85.5849C175.135 85.5914 175.011 85.5543 174.909 85.48C170.629 82.28 173.519 80.7 175.449 77.99C175.662 77.6967 175.589 77.5567 175.229 77.57C173.182 77.63 171.732 76.7333 170.879 74.88C170.586 74.24 170.402 74.27 170.329 74.97C169.809 79.93 168.949 83.53 167.749 85.77C164.899 91.09 157.569 101.37 162.369 107.37C166.969 113.12 178.459 113.73 185.039 113.29C190.699 112.91 195.379 110.7 199.769 107.32C199.824 107.277 199.888 107.248 199.956 107.237C200.025 107.225 200.095 107.231 200.162 107.254C200.228 107.277 200.288 107.316 200.336 107.367C200.385 107.419 200.42 107.482 200.439 107.55C202.219 114.02 196.399 119.75 190.739 122.23C190.119 122.503 189.789 122.977 189.749 123.65C189.436 128.417 188.739 133.323 187.659 138.37C186.609 143.27 188.229 146.65 192.219 149.31C192.486 149.483 192.779 149.557 193.099 149.53C208.646 148.07 220.952 141.057 230.019 128.49C230.183 128.262 230.273 127.989 230.276 127.708C230.28 127.427 230.197 127.152 230.039 126.92C224.969 119.56 219.379 109.57 217.829 100.56C217.776 100.213 217.572 100.01 217.219 99.95L212.509 99.17C212.417 99.1549 212.335 99.1059 212.279 99.0332C212.223 98.9605 212.198 98.8697 212.209 98.78L212.259 98.32C212.263 98.2838 212.274 98.2487 212.292 98.217C212.309 98.1854 212.334 98.1578 212.363 98.1361C212.392 98.1144 212.426 98.0991 212.461 98.0912C212.497 98.0833 212.533 98.0829 212.569 98.09C221.089 99.95 232.859 94.59 234.029 85.26C234.709 79.86 230.949 75.31 225.679 74.59C220.169 73.83 215.129 79.05 211.929 82.94C209.579 85.8 206.299 86.63 204.339 82.7C201.759 77.54 199.889 72.69 195.389 69C194.776 68.4934 194.666 68.5867 195.059 69.28C195.666 70.3467 195.979 71.5134 195.999 72.78C196.002 73.0737 195.925 73.3628 195.777 73.6161C195.628 73.8695 195.413 74.0777 195.155 74.2184C194.898 74.3592 194.606 74.4271 194.313 74.4151C194.019 74.403 193.735 74.3114 193.489 74.15L184.229 68.07C183.986 67.9107 183.79 67.6896 183.66 67.4295C183.531 67.1693 183.473 66.8795 183.492 66.5896C183.512 66.2996 183.608 66.02 183.77 65.7794C183.933 65.5388 184.157 65.3457 184.419 65.22L185.809 64.55C186.422 64.2567 186.392 64.0634 185.719 63.97L177.069 62.85C176.429 62.7634 176.319 62.9634 176.739 63.45C177.249 64.03 177.869 64.31 178.119 64.99C178.579 66.22 177.649 66.9 176.509 67.11C174.929 67.3967 173.332 67.7267 171.719 68.1C171.346 68.1867 171.139 68.42 171.099 68.8L170.659 73.2C170.619 73.5933 170.796 73.79 171.189 73.79L177.019 73.77C177.256 73.7696 177.489 73.8301 177.695 73.9456C177.902 74.0612 178.075 74.2279 178.198 74.4297C178.322 74.6315 178.392 74.8618 178.4 75.0982C178.409 75.3347 178.357 75.5695 178.249 75.78C177.182 77.8467 175.782 79.6934 174.049 81.32C173.894 81.466 173.776 81.6469 173.704 81.8477C173.633 82.0485 173.611 82.2634 173.639 82.4746C173.667 82.6857 173.746 82.8871 173.867 83.062C173.989 83.2369 174.151 83.3802 174.339 83.48C174.926 83.7867 175.382 84.2134 175.709 84.76ZM285.349 271.25C285.282 271.41 285.169 271.457 285.009 271.39C281.449 269.937 278.112 269.123 274.999 268.95C256.769 267.94 237.199 271.42 218.819 274.36C218.526 274.407 218.479 274.543 218.679 274.77C230.339 287.55 231.569 311.91 223.509 326.59C223.329 326.917 223.422 327.107 223.789 327.16C241.542 329.827 259.862 331.377 278.749 331.81C287.796 332.017 296.609 331.43 305.189 330.05C316.349 328.25 324.249 324.74 331.349 316.58C347.039 298.53 347.779 273.43 342.429 251.27C336.249 225.65 326.249 197.61 311.149 176.6C296.869 156.72 268.509 129.32 241.499 133.16C236.349 133.9 234.729 137.6 233.319 142.04C226.729 162.77 228.219 186.49 234.139 207.09C238.372 221.823 244.386 237.817 252.179 255.07C254.139 259.397 256.262 263.527 258.549 267.46C258.736 267.78 259.016 267.93 259.389 267.91C267.759 267.42 277.309 266.95 285.169 270.32C285.293 270.374 285.391 270.475 285.443 270.602C285.495 270.728 285.498 270.871 285.449 271L285.349 271.25ZM220.139 140.42C212.359 146.4 203.549 149.63 193.769 150.55C193.376 150.59 193.189 150.807 193.209 151.2C193.456 158.133 195.392 164.53 199.019 170.39C199.047 170.433 199.086 170.469 199.131 170.494C199.177 170.518 199.227 170.531 199.279 170.531C199.331 170.531 199.382 170.518 199.427 170.494C199.472 170.469 199.511 170.433 199.539 170.39C205.332 160.883 211.652 151.67 218.499 142.75C219.066 142.01 219.682 141.317 220.349 140.67C220.422 140.597 220.426 140.523 220.359 140.45C220.292 140.37 220.219 140.36 220.139 140.42ZM172.809 180.03C172.442 180.737 172.266 181.483 172.279 182.27C171.019 186.11 170.509 189.89 169.619 193.79C166.249 208.47 164.059 222.35 162.989 237.98C162.369 247 161.489 256.23 161.629 265.27C161.632 265.501 161.699 265.727 161.823 265.921C161.947 266.116 162.122 266.271 162.329 266.37L163.219 266.79C163.692 267.01 163.969 266.863 164.049 266.35C167.736 242.943 174.492 220.463 184.319 198.91L198.389 172.22C198.549 171.913 198.536 171.613 198.349 171.32C196.316 168.187 194.772 164.79 193.719 161.13C192.886 158.197 192.312 155.173 191.999 152.06C191.899 151.08 191.419 150.86 190.639 150.43C190.919 150.597 191.136 150.633 191.289 150.54C191.562 150.373 191.569 150.197 191.309 150.01C188.869 148.31 187.186 146.053 186.259 143.24C186.166 142.967 186.059 142.96 185.939 143.22C180.439 155.08 176.062 167.35 172.809 180.03ZM156.679 285.83C156.683 285.909 156.669 285.988 156.637 286.06C156.605 286.133 156.556 286.196 156.494 286.246C156.433 286.296 156.361 286.33 156.283 286.347C156.206 286.363 156.126 286.361 156.049 286.34C145.909 283.6 137.759 280.72 125.999 279.34C124.332 279.147 122.756 279.193 121.269 279.48C121.123 279.507 120.988 279.574 120.878 279.674C120.769 279.774 120.69 279.903 120.65 280.046C120.61 280.189 120.612 280.34 120.654 280.482C120.696 280.625 120.778 280.752 120.889 280.85C129.899 288.99 143.999 294.35 155.719 296.83C155.763 296.839 155.804 296.858 155.84 296.883C155.876 296.909 155.907 296.942 155.929 296.98C155.952 297.017 155.966 297.059 155.972 297.102C155.977 297.145 155.972 297.189 155.959 297.23L155.879 297.48C155.779 297.813 155.559 297.943 155.219 297.87C144.119 295.457 133.786 291.197 124.219 285.09C123.728 284.773 123.158 284.597 122.573 284.581C121.988 284.566 121.409 284.71 120.899 285L120.419 285.27C120.269 285.355 120.142 285.476 120.048 285.621C119.955 285.766 119.897 285.931 119.882 286.103C119.866 286.275 119.892 286.448 119.958 286.608C120.024 286.768 120.127 286.909 120.259 287.02C130.646 295.7 142.392 301.757 155.499 305.19C155.946 305.303 156.056 305.563 155.829 305.97L155.699 306.2C155.639 306.313 155.546 306.353 155.419 306.32C148.859 304.613 144.469 303.16 142.249 301.96C137.479 299.38 132.399 297.26 126.899 297C126.779 296.995 126.659 297.018 126.55 297.069C126.441 297.119 126.346 297.195 126.273 297.291C126.199 297.386 126.149 297.497 126.128 297.615C126.107 297.733 126.114 297.855 126.149 297.97C126.839 300.12 130.569 302.62 132.399 303.81C139.486 308.397 147.089 311.86 155.209 314.2C168.936 318.167 182.972 321.197 197.319 323.29C197.617 323.332 197.922 323.288 198.196 323.162C198.471 323.036 198.704 322.834 198.869 322.58C206.979 310 205.829 289.2 197.069 277.25C196.84 276.935 196.539 276.679 196.191 276.503C195.844 276.327 195.459 276.237 195.069 276.24C191.829 276.28 188.539 276.49 185.329 275.71C176.856 273.657 168.699 270.73 160.859 266.93C160.81 266.905 160.754 266.896 160.699 266.902C160.644 266.908 160.592 266.929 160.549 266.964C160.506 266.999 160.473 267.045 160.456 267.097C160.438 267.15 160.436 267.206 160.449 267.26L162.279 274.39C162.392 274.837 162.679 275.08 163.139 275.12L165.269 275.34C165.43 275.354 165.58 275.426 165.692 275.541C165.804 275.657 165.87 275.809 165.879 275.97L165.899 276.3C165.919 276.667 165.746 276.833 165.379 276.8C154.029 275.62 142.159 272.46 131.199 273.04C131.111 273.043 131.025 273.069 130.949 273.116C130.874 273.162 130.812 273.228 130.77 273.305C130.728 273.383 130.706 273.47 130.708 273.559C130.709 273.647 130.734 273.734 130.779 273.81C131.052 274.29 131.496 274.73 132.109 275.13C139.562 279.95 147.652 283.307 156.379 285.2C156.457 285.218 156.527 285.261 156.577 285.322C156.628 285.384 156.657 285.46 156.659 285.54L156.679 285.83ZM222.079 326.59C230.619 313.84 229.069 285.93 217.319 275.17C216.986 274.863 216.592 274.727 216.139 274.76L198.249 276.2C198.029 276.213 197.979 276.313 198.099 276.5C206.989 290.02 208.209 309.06 199.939 323.13C199.904 323.189 199.884 323.256 199.881 323.325C199.878 323.394 199.891 323.463 199.921 323.525C199.951 323.587 199.995 323.641 200.051 323.682C200.106 323.723 200.171 323.75 200.239 323.76L221.269 326.95C221.616 326.997 221.886 326.877 222.079 326.59Z" fill="#102348"/>
<path d="M181.481 39.8101C184.374 41.4501 186.398 43.8501 187.551 47.0101C187.575 47.0834 187.57 47.1627 187.539 47.2316C187.507 47.3005 187.451 47.3537 187.381 47.3801L187.121 47.4901C186.848 47.5967 186.651 47.5134 186.531 47.2401C185.318 44.4534 183.434 42.2534 180.881 40.6401L181.481 39.8101Z" fill="white"/>
<path d="M175.709 84.7602C175.383 84.2136 174.926 83.7869 174.339 83.4802C174.151 83.3804 173.989 83.2371 173.868 83.0622C173.746 82.8873 173.667 82.6859 173.639 82.4748C173.611 82.2636 173.633 82.0487 173.704 81.8479C173.776 81.6471 173.894 81.4662 174.049 81.3202C175.783 79.6936 177.183 77.8469 178.249 75.7802C178.357 75.5697 178.409 75.3349 178.4 75.0984C178.392 74.862 178.322 74.6318 178.199 74.4299C178.075 74.2281 177.902 74.0614 177.695 73.9458C177.489 73.8303 177.256 73.7698 177.019 73.7702L171.189 73.7902C170.796 73.7902 170.619 73.5935 170.659 73.2002L171.099 68.8002C171.139 68.4202 171.346 68.1869 171.719 68.1002C173.333 67.7269 174.929 67.3969 176.509 67.1102C177.649 66.9002 178.579 66.2202 178.119 64.9902C177.869 64.3102 177.249 64.0302 176.739 63.4502C176.319 62.9636 176.429 62.7636 177.069 62.8502L185.719 63.9702C186.393 64.0636 186.423 64.2569 185.809 64.5502L184.419 65.2202C184.157 65.3459 183.933 65.539 183.771 65.7796C183.608 66.0202 183.512 66.2998 183.492 66.5898C183.473 66.8797 183.531 67.1695 183.661 67.4297C183.79 67.6898 183.986 67.9109 184.229 68.0702L193.489 74.1502C193.735 74.3116 194.019 74.4032 194.313 74.4153C194.606 74.4273 194.898 74.3594 195.155 74.2186C195.413 74.0779 195.628 73.8697 195.777 73.6163C195.925 73.363 196.002 73.0739 195.999 72.7802C195.979 71.5136 195.666 70.3469 195.059 69.2802C194.666 68.5869 194.776 68.4936 195.389 69.0002C199.889 72.6902 201.759 77.5402 204.339 82.7002C206.299 86.6302 209.579 85.8002 211.929 82.9402C215.129 79.0502 220.169 73.8302 225.679 74.5902C230.949 75.3102 234.709 79.8602 234.029 85.2602C232.859 94.5902 221.089 99.9502 212.569 98.0902C212.534 98.083 212.497 98.0835 212.461 98.0914C212.426 98.0993 212.392 98.1146 212.363 98.1363C212.334 98.158 212.31 98.1856 212.292 98.2172C212.274 98.2489 212.263 98.284 212.259 98.3202L212.209 98.7802C212.198 98.8699 212.223 98.9607 212.279 99.0334C212.335 99.1061 212.417 99.1551 212.509 99.1702L217.219 99.9502C217.573 100.01 217.776 100.214 217.829 100.56C219.379 109.57 224.969 119.56 230.039 126.92C230.197 127.152 230.28 127.428 230.276 127.708C230.273 127.989 230.183 128.262 230.019 128.49C220.953 141.057 208.646 148.07 193.099 149.53C192.779 149.557 192.486 149.484 192.219 149.31C188.229 146.65 186.609 143.27 187.659 138.37C188.739 133.324 189.436 128.417 189.749 123.65C189.789 122.977 190.119 122.504 190.739 122.23C196.399 119.75 202.219 114.02 200.439 107.55C200.42 107.482 200.385 107.419 200.337 107.367C200.288 107.316 200.228 107.277 200.162 107.254C200.095 107.231 200.025 107.225 199.956 107.237C199.888 107.248 199.824 107.277 199.769 107.32C195.379 110.7 190.699 112.91 185.039 113.29C178.459 113.73 166.969 113.12 162.369 107.37C157.569 101.37 164.899 91.0902 167.749 85.7702C168.949 83.5302 169.809 79.9302 170.329 74.9702C170.403 74.2702 170.586 74.2402 170.879 74.8802C171.733 76.7336 173.183 77.6302 175.229 77.5702C175.589 77.5569 175.663 77.6969 175.449 77.9902C173.519 80.7002 170.629 82.2802 174.909 85.4802C175.011 85.5545 175.136 85.5916 175.262 85.5851C175.388 85.5786 175.507 85.529 175.601 85.4446C175.695 85.3602 175.757 85.2462 175.777 85.1216C175.796 84.997 175.772 84.8694 175.709 84.7602ZM184.429 74.9202C183.309 74.5269 182.573 74.8935 182.219 76.0202L182.079 76.4702C181.613 77.9836 182.139 78.9536 183.659 79.3802C187.279 80.4135 190.193 80.3402 192.399 79.1602C193.479 78.5869 193.443 78.0969 192.289 77.6902L184.429 74.9202ZM214.989 90.8502L215.269 90.9802C215.321 91.0035 215.377 91.0152 215.434 91.0145C215.492 91.0138 215.548 91.0007 215.6 90.9761C215.652 90.9515 215.698 90.9159 215.736 90.8718C215.774 90.8277 215.802 90.776 215.819 90.7202C217.406 85.1336 221.146 82.2836 227.039 82.1702C227.353 82.1636 227.489 82.0002 227.449 81.6802L227.409 81.3502C227.376 81.1036 227.233 80.9836 226.979 80.9902C220.613 81.1769 216.539 84.2969 214.759 90.3502C214.731 90.4473 214.739 90.5513 214.781 90.6431C214.823 90.735 214.897 90.8085 214.989 90.8502ZM181.719 91.6102C179.926 94.0169 177.503 94.4769 174.449 92.9902C174.076 92.8102 173.886 92.9269 173.879 93.3402V93.6802C173.879 93.7869 173.926 93.8702 174.019 93.9302C177.929 96.2402 184.339 94.4202 183.359 89.1302C183.348 89.0617 183.314 88.9993 183.264 88.9524C183.213 88.9054 183.148 88.8764 183.079 88.8696C183.009 88.8629 182.938 88.8788 182.877 88.9149C182.816 88.9511 182.768 89.0055 182.739 89.0702C182.309 90.1002 182.339 90.7802 181.719 91.6102Z" fill="white"/>
<path d="M180.261 142.29L179.311 143.22C147.481 141.09 120.771 188.63 109.201 212.78C109.126 212.933 109.086 213.1 109.085 213.27C109.083 213.439 109.119 213.607 109.191 213.76L111.671 219C111.837 219.353 112.114 219.54 112.501 219.56C114.991 219.69 120.551 218.51 121.451 221.8C122.064 224.067 122.668 226.303 123.261 228.51C122.954 228.797 122.631 228.85 122.291 228.67C122.037 228.543 121.897 228.26 121.871 227.82L120.461 222.39C120.214 221.43 119.597 220.933 118.611 220.9L118.161 220.88C118.021 220.875 117.881 220.902 117.753 220.959C117.625 221.017 117.512 221.103 117.423 221.212C117.334 221.32 117.271 221.448 117.239 221.585C117.208 221.721 117.208 221.863 117.241 222L118.731 228.31L120.821 237.36C120.902 237.711 120.904 238.075 120.825 238.427C120.746 238.778 120.59 239.107 120.366 239.389C120.143 239.67 119.86 239.898 119.537 240.054C119.214 240.21 118.859 240.291 118.501 240.29L91.7608 240.36C91.2662 240.363 90.7846 240.2 90.3918 239.897C89.999 239.595 89.7172 239.17 89.5908 238.69L86.9208 228.26C86.0208 224.78 85.0408 219.53 90.5108 219.57C96.9908 219.617 103.517 219.603 110.091 219.53C110.444 219.53 110.544 219.367 110.391 219.04L96.2108 188.57C96.1898 188.524 96.1576 188.485 96.1173 188.455C96.077 188.425 96.0297 188.405 95.9799 188.398C95.9302 188.391 95.8794 188.397 95.8324 188.415C95.7854 188.433 95.7436 188.462 95.7108 188.5C84.4908 201.41 58.3708 208.41 42.1608 204.44C42.1277 204.432 42.0929 204.431 42.0597 204.439C42.0264 204.447 41.9956 204.464 41.97 204.486C41.9444 204.509 41.9247 204.538 41.9126 204.57C41.9006 204.602 41.8965 204.636 41.9008 204.67C43.3942 216.45 45.2142 228.193 47.3608 239.9C51.3208 261.49 57.4508 290.83 79.6408 301.34C80.3008 301.613 80.7042 302.213 80.8508 303.14C65.8708 296.69 58.0608 283.62 53.4208 268.7C49.1542 254.973 45.9475 240.997 43.8008 226.77C40.4008 204.26 38.4908 181.65 33.6808 159.25C32.7408 154.843 30.7675 146.89 27.7608 135.39C26.9908 132.43 27.8108 127.21 31.9608 126.25C32.1194 126.215 32.2601 126.123 32.3573 125.993C32.4546 125.863 32.5019 125.702 32.4908 125.54C32.2975 122.747 33.4775 120.813 36.0308 119.74C36.3975 119.58 36.7775 119.543 37.1708 119.63C37.7042 119.75 37.9342 119.5 37.8608 118.88C36.9808 111.95 39.3308 103.34 44.8108 98.42C45.0575 98.1933 45.3508 98.0633 45.6908 98.03L46.5108 97.94C46.9442 97.8933 47.2175 97.6633 47.3308 97.25L51.0408 83.75C51.0807 83.606 51.0832 83.4543 51.0482 83.3091C51.0132 83.1639 50.9419 83.03 50.8408 82.92L50.5308 82.58C50.2642 82.2867 50.1842 81.95 50.2908 81.57L52.1208 74.97C52.3208 74.2433 52.7875 73.98 53.5208 74.18L77.4608 80.75C77.6117 80.7905 77.7531 80.8605 77.8767 80.956C78.0003 81.0516 78.1037 81.1707 78.181 81.3065C78.2582 81.4423 78.3076 81.5921 78.3265 81.7472C78.3454 81.9023 78.3332 82.0596 78.2908 82.21L76.5708 88.51C76.5207 88.6988 76.4315 88.8748 76.3092 89.0264C76.1868 89.178 76.0341 89.3019 75.8608 89.39C75.1608 89.7433 74.7375 90.2 74.5908 90.76C72.8442 97.28 71.1008 103.617 69.3608 109.77C69.0408 110.89 69.2708 111.017 70.0508 110.15C70.1508 110.037 70.4308 110.04 70.8908 110.16C73.8508 110.97 72.9608 118.89 72.9608 121.17C72.9608 125.65 74.1808 129.06 75.4708 133.19C79.2375 145.263 83.6508 157.09 88.7108 168.67C94.9175 182.877 101.367 197.08 108.061 211.28C108.281 211.753 108.504 211.753 108.731 211.28C119.811 187.57 148.471 138 180.261 142.29ZM54.4753 76.3079C54.5196 76.1495 54.4991 75.9801 54.4183 75.8368C54.3376 75.6935 54.2033 75.5882 54.0449 75.544L53.8523 75.4902C53.694 75.446 53.5245 75.4665 53.3812 75.5472C53.238 75.6279 53.1327 75.7622 53.0884 75.9206L51.5663 81.3721C51.5221 81.5305 51.5426 81.6999 51.6233 81.8432C51.704 81.9864 51.8384 82.0918 51.9967 82.136L52.1893 82.1898C52.3477 82.234 52.5172 82.2135 52.6604 82.1328C52.8037 82.0521 52.909 81.9178 52.9532 81.7594L54.4753 76.3079ZM60.1508 77.7044C60.1679 77.641 60.1724 77.5748 60.1639 77.5097C60.1555 77.4446 60.1343 77.3818 60.1015 77.3249C60.0688 77.2679 60.0252 77.218 59.9732 77.178C59.9211 77.1379 59.8617 77.1085 59.7983 77.0914L56.226 76.1275C56.1626 76.1104 56.0965 76.1059 56.0314 76.1144C55.9663 76.1228 55.9034 76.144 55.8465 76.1768C55.7896 76.2095 55.7397 76.2531 55.6996 76.3052C55.6596 76.3572 55.6301 76.4166 55.613 76.48L54.0708 82.1956C54.0537 82.259 54.0493 82.3251 54.0577 82.3902C54.0662 82.4554 54.0874 82.5182 54.1201 82.5751C54.1529 82.632 54.1965 82.6819 54.2485 82.722C54.3005 82.7621 54.3599 82.7915 54.4233 82.8086L57.9956 83.7725C58.059 83.7896 58.1252 83.794 58.1903 83.7856C58.2554 83.7771 58.3182 83.7559 58.3751 83.7232C58.4321 83.6905 58.482 83.6468 58.522 83.5948C58.5621 83.5428 58.5915 83.4834 58.6086 83.42L60.1508 77.7044ZM67.6261 79.7696C67.6599 79.6469 67.6436 79.5157 67.5807 79.405C67.5178 79.2944 67.4136 79.2132 67.2908 79.1794L61.8725 77.6869C61.7498 77.6531 61.6187 77.6694 61.508 77.7323C61.3973 77.7952 61.3161 77.8995 61.2823 78.0222L59.7155 83.7104C59.6817 83.8331 59.6981 83.9642 59.761 84.0749C59.8238 84.1856 59.9281 84.2668 60.0508 84.3006L65.4691 85.7931C65.5919 85.8269 65.723 85.8105 65.8337 85.7477C65.9444 85.6848 66.0255 85.5805 66.0593 85.4578L67.6261 79.7696ZM73.5385 81.4677C73.557 81.4006 73.5621 81.3305 73.5535 81.2614C73.5449 81.1923 73.5228 81.1256 73.4884 81.0651C73.4541 81.0046 73.4081 80.9514 73.3532 80.9087C73.2982 80.8659 73.2354 80.8344 73.1683 80.8159L69.3697 79.7696C69.3026 79.7511 69.2325 79.746 69.1635 79.7546C69.0944 79.7632 69.0277 79.7854 68.9672 79.8198C68.9067 79.8541 68.8535 79.9001 68.8108 79.955C68.768 80.01 68.7365 80.0728 68.718 80.1399L67.1831 85.7123C67.1646 85.7794 67.1595 85.8495 67.1681 85.9186C67.1767 85.9876 67.1988 86.0543 67.2332 86.1149C67.2676 86.1754 67.3136 86.2286 67.3685 86.2713C67.4234 86.3141 67.4862 86.3456 67.5533 86.3641L71.3519 87.4104C71.419 87.4289 71.4891 87.4339 71.5582 87.4253C71.6273 87.4167 71.694 87.3946 71.7545 87.3602C71.815 87.3258 71.8681 87.2799 71.9109 87.2249C71.9536 87.17 71.9852 87.1072 72.0036 87.0401L73.5385 81.4677ZM76.9619 82.6388C77.0165 82.442 76.9906 82.2316 76.8901 82.0539C76.7895 81.8762 76.6225 81.7457 76.4257 81.6911L75.5199 81.4399C75.4225 81.4129 75.3207 81.4053 75.2203 81.4176C75.1199 81.4299 75.023 81.4619 74.935 81.5117C74.847 81.5615 74.7696 81.6281 74.7074 81.7078C74.6451 81.7875 74.5992 81.8786 74.5721 81.9761L73.1397 87.1412C73.0852 87.338 73.111 87.5483 73.2116 87.7261C73.3121 87.9038 73.4792 88.0343 73.6759 88.0889L74.5817 88.3401C74.6792 88.3671 74.781 88.3747 74.8813 88.3624C74.9817 88.35 75.0787 88.3181 75.1667 88.2683C75.2547 88.2185 75.332 88.1519 75.3943 88.0722C75.4566 87.9925 75.5025 87.9013 75.5295 87.8039L76.9619 82.6388ZM73.7108 89.62C73.7229 89.5766 73.7263 89.5313 73.7208 89.4867C73.7152 89.442 73.7009 89.3989 73.6786 89.3599C73.6562 89.3208 73.6264 89.2865 73.5907 89.2591C73.5551 89.2316 73.5143 89.2116 73.4708 89.2L53.1108 83.63C52.6042 83.49 52.2808 83.6733 52.1408 84.18L44.0208 113.73C43.9965 113.814 43.9892 113.902 43.9992 113.989C44.0092 114.076 44.0364 114.16 44.0792 114.236C44.122 114.313 44.1796 114.38 44.2485 114.433C44.3175 114.487 44.3964 114.527 44.4808 114.55L63.0008 119.64C63.0925 119.664 63.1895 119.654 63.2728 119.611C63.356 119.568 63.4195 119.497 63.4508 119.41C64.7808 115.71 67.3008 112.9 68.3008 109.26C70.0208 103 71.8242 96.4533 73.7108 89.62ZM32.8908 135.05C32.986 134.951 33.1172 134.894 33.2559 134.892C33.3945 134.891 33.5293 134.944 33.6308 135.04C35.8108 137.11 40.0108 140.14 43.1908 139.71C43.3794 139.684 43.5599 139.617 43.7188 139.512C43.8778 139.407 44.0111 139.268 44.1091 139.105C44.207 138.942 44.267 138.759 44.2846 138.569C44.3022 138.38 44.277 138.188 44.2108 138.01C42.2108 132.69 38.6575 129.227 33.5508 127.62C24.5508 124.78 31.5908 146.16 32.3308 149.04C34.7508 158.527 36.7708 168.057 38.3908 177.63C38.4344 177.892 38.5604 178.134 38.7508 178.321C38.9412 178.507 39.1862 178.63 39.4508 178.67C54.0042 180.87 67.3675 177.817 79.5408 169.51C81.4808 168.19 83.2242 166.433 84.7708 164.24C84.9708 163.96 85.0108 163.663 84.8908 163.35C80.6308 151.86 75.6408 140.49 72.6208 128.59C71.2808 123.33 71.4108 118.35 71.4908 112.92C71.4946 112.708 71.441 112.5 71.3357 112.316C71.2304 112.133 71.0772 111.981 70.8922 111.877C70.7072 111.773 70.4972 111.72 70.2841 111.724C70.071 111.728 69.8626 111.789 69.6808 111.9C68.4742 112.647 67.4475 113.867 66.6008 115.56C61.9008 124.99 58.5608 132.49 58.4808 144.24C58.4808 144.587 58.3075 144.733 57.9608 144.68L57.6208 144.63C57.4636 144.608 57.3203 144.528 57.2186 144.406C57.117 144.284 57.0643 144.129 57.0708 143.97C57.2708 138.23 58.2108 132.623 59.8908 127.15C59.9775 126.877 59.9542 126.617 59.8208 126.37L56.0308 119.47C55.9112 119.246 55.7462 119.05 55.5465 118.893C55.3468 118.736 55.1167 118.623 54.8708 118.56L48.3308 116.83C47.5242 116.617 47.2908 116.89 47.6308 117.65L50.5508 124.09C50.5908 124.177 50.5742 124.253 50.5008 124.32L50.2208 124.57C50.1602 124.624 50.0876 124.664 50.0089 124.685C49.9302 124.706 49.8477 124.709 49.7679 124.692C49.6881 124.676 49.6133 124.641 49.5495 124.59C49.4858 124.539 49.4348 124.474 49.4008 124.4L46.0308 116.66C45.8775 116.293 45.6075 116.06 45.2208 115.96L44.3308 115.74C44.0788 115.675 43.8423 115.561 43.635 115.403C43.4277 115.246 43.2538 115.049 43.1235 114.823C42.9932 114.598 42.909 114.349 42.8759 114.091C42.8428 113.833 42.8615 113.571 42.9308 113.32L46.7308 99.49C46.7487 99.432 46.7502 99.3702 46.7352 99.3115C46.7202 99.2527 46.6893 99.1992 46.6459 99.1568C46.6025 99.1145 46.5483 99.0849 46.4892 99.0713C46.4301 99.0578 46.3684 99.0608 46.3108 99.08C45.3442 99.4 44.5308 100.003 43.8708 100.89C39.8842 106.25 38.2575 112.283 38.9908 118.99C39.0094 119.147 39.0609 119.299 39.1419 119.435C39.2228 119.571 39.3315 119.689 39.4608 119.78C40.4608 120.47 41.9808 120.94 42.7208 121.39C45.6708 123.16 53.7408 130.68 52.0908 134.56C50.8208 137.57 46.2508 135.44 44.4308 134.5C44.0975 134.327 44.0075 134.41 44.1608 134.75C44.9608 136.54 46.2008 138.76 44.4508 140.43C41.8808 142.87 34.5508 137.47 32.7008 135.62C32.5808 135.493 32.5808 135.367 32.7008 135.24L32.8908 135.05ZM57.4608 119.67L60.1408 124.74C60.3875 125.207 60.6208 125.203 60.8408 124.73L62.3908 121.37C62.5708 120.99 62.4575 120.74 62.0508 120.62L57.7008 119.38C57.6621 119.366 57.62 119.364 57.5803 119.375C57.5405 119.386 57.5051 119.409 57.4789 119.441C57.4526 119.472 57.4368 119.511 57.4336 119.552C57.4303 119.593 57.4399 119.635 57.4608 119.67ZM36.2008 127.33C39.0908 128.34 41.8508 131.91 44.9708 133.46C46.2308 134.08 47.5708 134.603 48.9908 135.03C49.3925 135.153 49.8254 135.125 50.2095 134.952C50.5936 134.779 50.9031 134.473 51.0808 134.09C51.2608 133.703 51.1808 133.137 50.8408 132.39C48.6608 127.51 44.3408 122.5 38.9908 121.02C34.5308 119.8 30.7708 125.42 36.2008 127.33ZM85.3608 165.57C74.2908 177.98 55.0808 182.21 39.2408 179.8C38.8675 179.74 38.7042 179.9 38.7508 180.28L41.5608 202.48C41.6142 202.913 41.8475 203.183 42.2608 203.29C58.1008 207.48 82.0408 200.38 93.7208 189C94.2675 188.467 94.7175 187.853 95.0708 187.16C95.1521 187.004 95.197 186.832 95.2022 186.657C95.2074 186.482 95.1727 186.309 95.1008 186.15L85.8508 165.65C85.8298 165.604 85.7979 165.565 85.7581 165.534C85.7184 165.503 85.6719 165.483 85.6232 165.475C85.5744 165.467 85.5248 165.472 85.4789 165.488C85.4331 165.505 85.3925 165.533 85.3608 165.57ZM87.3608 222.76C87.0903 223.308 87.0264 223.933 87.1808 224.52L90.6308 238.06C90.7086 238.364 90.8845 238.632 91.1308 238.824C91.377 239.016 91.6797 239.12 91.9908 239.12L118.611 239.19C118.786 239.191 118.959 239.151 119.117 239.075C119.275 238.999 119.413 238.887 119.521 238.749C119.629 238.611 119.704 238.45 119.74 238.279C119.777 238.107 119.774 237.93 119.731 237.76C118.421 232.6 116.361 226.6 115.991 221.26C115.971 220.927 115.794 220.757 115.461 220.75C107.227 220.73 99.0008 220.737 90.7808 220.77C89.1308 220.78 88.0708 221.34 87.3608 222.76Z" fill="#102348"/>
<path d="M184.43 74.9198L192.29 77.6898C193.444 78.0964 193.48 78.5864 192.4 79.1598C190.194 80.3398 187.28 80.4131 183.66 79.3798C182.14 78.9531 181.614 77.9831 182.08 76.4698L182.22 76.0198C182.574 74.8931 183.31 74.5264 184.43 74.9198Z" fill="#102348"/>
<path d="M54.0437 75.5438L53.8511 75.49C53.5213 75.3979 53.1793 75.5906 53.0872 75.9204L51.5651 81.3719C51.473 81.7017 51.6657 82.0437 51.9955 82.1358L52.1882 82.1896C52.518 82.2817 52.86 82.089 52.952 81.7591L54.4741 76.3076C54.5662 75.9778 54.3735 75.6358 54.0437 75.5438Z" fill="white"/>
<path d="M59.7972 77.0912L56.2249 76.1273C55.9583 76.0554 55.6839 76.2132 55.6119 76.4798L54.0697 82.1954C53.9978 82.462 54.1556 82.7365 54.4222 82.8084L57.9945 83.7723C58.2611 83.8442 58.5355 83.6864 58.6075 83.4198L60.1497 77.7042C60.2216 77.4376 60.0638 77.1631 59.7972 77.0912Z" fill="white"/>
<path d="M67.2892 79.1795L61.871 77.687C61.6154 77.6166 61.3511 77.7668 61.2807 78.0223L59.714 83.7105C59.6436 83.9661 59.7937 84.2303 60.0493 84.3007L65.4675 85.7932C65.723 85.8636 65.9873 85.7134 66.0577 85.4579L67.6245 79.7697C67.6949 79.5141 67.5448 79.2499 67.2892 79.1795Z" fill="white"/>
<path d="M73.1669 80.8159L69.3684 79.7697C69.0862 79.6919 68.7944 79.8577 68.7167 80.1399L67.1818 85.7123C67.104 85.9945 67.2698 86.2863 67.552 86.3641L71.3505 87.4104C71.6327 87.4881 71.9245 87.3223 72.0022 87.0401L73.5372 81.4677C73.6149 81.1855 73.4491 80.8937 73.1669 80.8159Z" fill="white"/>
<path d="M214.761 90.35C216.541 84.2967 220.614 81.1767 226.981 80.99C227.234 80.9833 227.378 81.1033 227.411 81.35L227.451 81.68C227.491 82 227.354 82.1633 227.041 82.17C221.148 82.2833 217.408 85.1333 215.821 90.72C215.804 90.7758 215.776 90.8275 215.738 90.8716C215.7 90.9157 215.654 90.9513 215.602 90.9759C215.55 91.0005 215.493 91.0136 215.436 91.0143C215.379 91.015 215.323 91.0033 215.271 90.98L214.991 90.85C214.899 90.8083 214.825 90.7348 214.783 90.6429C214.74 90.5511 214.733 90.4471 214.761 90.35Z" fill="#102348"/>
<path d="M76.4252 81.6909L75.5193 81.4397C75.1095 81.326 74.6852 81.5661 74.5716 81.9759L73.1392 87.1409C73.0255 87.5507 73.2656 87.9751 73.6754 88.0887L74.5812 88.3399C74.991 88.4536 75.4153 88.2135 75.529 87.8037L76.9614 82.6386C77.075 82.2288 76.8349 81.8045 76.4252 81.6909Z" fill="white"/>
<path d="M73.7101 89.6199C71.8235 96.4533 70.0201 103 68.3001 109.26C67.3001 112.9 64.7801 115.71 63.4501 119.41C63.4188 119.497 63.3553 119.568 63.272 119.611C63.1888 119.654 63.0918 119.664 63.0001 119.64L44.4801 114.55C44.3957 114.527 44.3168 114.487 44.2478 114.433C44.1789 114.38 44.1213 114.312 44.0785 114.236C44.0357 114.16 44.0085 114.076 43.9985 113.989C43.9885 113.902 43.9958 113.814 44.0201 113.73L52.1401 84.1799C52.2801 83.6733 52.6035 83.4899 53.1101 83.6299L73.4701 89.1999C73.5136 89.2115 73.5544 89.2316 73.59 89.259C73.6257 89.2865 73.6555 89.3207 73.6779 89.3598C73.7002 89.3989 73.7145 89.442 73.7201 89.4866C73.7256 89.5313 73.7222 89.5766 73.7101 89.6199ZM69.2249 95.8406C69.2641 95.6974 69.2448 95.5445 69.1712 95.4155C69.0977 95.2864 68.9759 95.1919 68.8326 95.1527L53.6118 90.9888C53.4686 90.9497 53.3156 90.969 53.1866 91.0426C53.0576 91.1162 52.9631 91.238 52.9239 91.3812L49.3353 104.499C49.2961 104.642 49.3154 104.795 49.389 104.924C49.4626 105.053 49.5844 105.148 49.7276 105.187L64.9484 109.351C65.0917 109.39 65.2446 109.371 65.3736 109.297C65.5026 109.224 65.5971 109.102 65.6363 108.959L69.2249 95.8406Z" fill="white"/>
<path d="M181.721 91.6098C182.341 90.7798 182.311 90.0998 182.741 89.0698C182.769 89.0051 182.818 88.9506 182.879 88.9145C182.94 88.8783 183.011 88.8624 183.08 88.8692C183.15 88.8759 183.215 88.9049 183.266 88.9519C183.316 88.9988 183.35 89.0612 183.361 89.1298C184.341 94.4198 177.931 96.2398 174.021 93.9298C173.928 93.8698 173.881 93.7864 173.881 93.6798V93.3398C173.888 92.9264 174.078 92.8098 174.451 92.9898C177.504 94.4764 179.928 94.0164 181.721 91.6098Z" fill="#102348"/>
<path d="M65.6353 108.959C65.5961 109.102 65.5016 109.224 65.3726 109.298C65.2436 109.371 65.0907 109.39 64.9474 109.351L49.7266 105.187C49.5834 105.148 49.4616 105.054 49.388 104.925C49.3144 104.796 49.2951 104.643 49.3343 104.499L52.9229 91.3815C52.9621 91.2382 53.0566 91.1164 53.1856 91.0428C53.3146 90.9692 53.4675 90.9499 53.6108 90.9891L68.8316 95.153C68.9748 95.1922 69.0966 95.2867 69.1702 95.4157C69.2438 95.5447 69.2631 95.6976 69.2239 95.8409L65.6353 108.959ZM57.0891 101.07C57.1605 101.092 57.2268 101.127 57.2842 101.175C57.3416 101.223 57.389 101.281 57.4234 101.347C57.4579 101.413 57.4788 101.486 57.4849 101.56C57.4911 101.634 57.4823 101.709 57.4591 101.78L56.7191 103.97C56.6944 104.042 56.6844 104.117 56.6897 104.193C56.6951 104.268 56.7157 104.342 56.7502 104.409C56.7848 104.477 56.8327 104.536 56.8909 104.584C56.9492 104.633 57.0166 104.669 57.0891 104.69L58.7891 105.21C58.8626 105.233 58.94 105.24 59.0165 105.231C59.0929 105.223 59.1667 105.198 59.2334 105.16C59.3 105.121 59.358 105.069 59.4037 105.008C59.4494 104.946 59.4819 104.875 59.4991 104.8L60.0091 102.49C60.0255 102.418 60.0563 102.349 60.0995 102.288C60.1428 102.228 60.1977 102.177 60.261 102.138C60.3243 102.098 60.3948 102.072 60.4683 102.061C60.5418 102.049 60.6168 102.052 60.6891 102.07L63.1491 102.68C63.2909 102.717 63.4416 102.697 63.5687 102.624C63.6959 102.551 63.7893 102.431 63.8291 102.29L64.2791 100.67C64.2985 100.598 64.3033 100.523 64.2931 100.448C64.2829 100.374 64.258 100.303 64.2198 100.239C64.1815 100.174 64.1308 100.118 64.0706 100.074C64.0104 100.03 63.9418 99.9977 63.8691 99.9802L61.4591 99.3802C61.3839 99.362 61.3132 99.3284 61.2517 99.2815C61.1901 99.2346 61.1389 99.1755 61.1013 99.1079C61.0637 99.0402 61.0406 98.9655 61.0333 98.8884C61.026 98.8114 61.0348 98.7337 61.0591 98.6602L61.8291 96.3702C61.8535 96.2974 61.8627 96.2203 61.8561 96.1438C61.8494 96.0673 61.8271 95.993 61.7906 95.9254C61.754 95.8579 61.7039 95.7986 61.6434 95.7513C61.583 95.7039 61.5134 95.6695 61.4391 95.6502L59.7491 95.2102C59.6059 95.1736 59.4541 95.1952 59.3267 95.2701C59.1993 95.345 59.1067 95.4673 59.0691 95.6102L58.4291 97.9702C58.4096 98.0434 58.3755 98.1118 58.3289 98.1714C58.2822 98.2311 58.2239 98.2806 58.1575 98.3171C58.0912 98.3535 58.0181 98.3761 57.9427 98.3835C57.8674 98.391 57.7913 98.383 57.7191 98.3602L55.4591 97.6302C55.3869 97.6074 55.3108 97.5994 55.2355 97.6068C55.1601 97.6142 55.087 97.6368 55.0207 97.6733C54.9543 97.7098 54.896 97.7593 54.8493 97.8189C54.8027 97.8785 54.7686 97.947 54.7491 98.0202L54.2891 99.6702C54.2522 99.812 54.2724 99.9627 54.3453 100.09C54.4182 100.217 54.538 100.31 54.6791 100.35L57.0891 101.07Z" fill="#D9C6F4"/>
<path d="M57.0895 101.07L54.6795 100.35C54.5385 100.31 54.4186 100.217 54.3457 100.089C54.2728 99.9623 54.2526 99.8116 54.2895 99.6698L54.7495 98.0198C54.769 97.9466 54.8031 97.8781 54.8498 97.8185C54.8965 97.7589 54.9547 97.7093 55.0211 97.6729C55.0875 97.6364 55.1605 97.6138 55.2359 97.6064C55.3113 97.599 55.3873 97.6069 55.4595 97.6298L57.7195 98.3598C57.7917 98.3826 57.8678 98.3905 57.9432 98.3831C58.0185 98.3757 58.0916 98.3531 58.158 98.3167C58.2243 98.2802 58.2826 98.2307 58.3293 98.171C58.376 98.1114 58.4101 98.043 58.4295 97.9698L59.0695 95.6098C59.1072 95.4669 59.1998 95.3446 59.3271 95.2697C59.4545 95.1948 59.6063 95.1732 59.7495 95.2098L61.4395 95.6498C61.5139 95.6691 61.5834 95.7035 61.6439 95.7509C61.7043 95.7982 61.7544 95.8575 61.791 95.925C61.8276 95.9926 61.8499 96.0669 61.8565 96.1434C61.8631 96.2199 61.8539 96.297 61.8295 96.3698L61.0595 98.6598C61.0352 98.7333 61.0265 98.811 61.0337 98.888C61.041 98.9651 61.0641 99.0398 61.1017 99.1074C61.1393 99.1751 61.1905 99.2342 61.2521 99.2811C61.3137 99.328 61.3843 99.3616 61.4595 99.3798L63.8695 99.9798C63.9423 99.9972 64.0108 100.029 64.071 100.074C64.1312 100.118 64.182 100.174 64.2202 100.238C64.2584 100.303 64.2833 100.374 64.2935 100.448C64.3037 100.522 64.299 100.598 64.2795 100.67L63.8295 102.29C63.7898 102.431 63.6963 102.551 63.5691 102.624C63.442 102.697 63.2914 102.717 63.1495 102.68L60.6895 102.07C60.6173 102.052 60.5422 102.049 60.4687 102.06C60.3952 102.072 60.3247 102.098 60.2614 102.137C60.1981 102.176 60.1432 102.228 60.1 102.288C60.0567 102.349 60.026 102.417 60.0095 102.49L59.4995 104.8C59.4823 104.875 59.4498 104.945 59.4041 105.007C59.3584 105.069 59.3004 105.121 59.2338 105.159C59.1672 105.198 59.0933 105.222 59.0169 105.231C58.9405 105.239 58.8631 105.232 58.7895 105.21L57.0895 104.69C57.017 104.668 56.9496 104.632 56.8913 104.584C56.8331 104.536 56.7852 104.476 56.7507 104.409C56.7161 104.342 56.6955 104.268 56.6901 104.192C56.6848 104.117 56.6948 104.041 56.7195 103.97L57.4595 101.78C57.4827 101.709 57.4915 101.634 57.4854 101.56C57.4792 101.485 57.4583 101.413 57.4239 101.347C57.3894 101.281 57.3421 101.222 57.2847 101.175C57.2272 101.127 57.1609 101.091 57.0895 101.07Z" fill="white"/>
<path d="M32.8892 135.05L32.6992 135.24C32.5792 135.367 32.5792 135.493 32.6992 135.62C34.5492 137.47 41.8792 142.87 44.4492 140.43C46.1992 138.76 44.9592 136.54 44.1592 134.75C44.0058 134.41 44.0958 134.327 44.4292 134.5C46.2492 135.44 50.8192 137.57 52.0892 134.56C53.7392 130.68 45.6692 123.16 42.7192 121.39C41.9792 120.94 40.4592 120.47 39.4592 119.78C39.3298 119.689 39.2212 119.571 39.1402 119.435C39.0592 119.299 39.0078 119.147 38.9892 118.99C38.2558 112.283 39.8825 106.25 43.8692 100.89C44.5292 100.003 45.3425 99.4 46.3092 99.08C46.3667 99.0608 46.4284 99.0578 46.4875 99.0713C46.5466 99.0849 46.6009 99.1145 46.6443 99.1568C46.6877 99.1992 46.7185 99.2527 46.7335 99.3115C46.7485 99.3703 46.747 99.432 46.7292 99.49L42.9292 113.32C42.8598 113.571 42.8412 113.833 42.8743 114.091C42.9073 114.349 42.9915 114.598 43.1218 114.824C43.2521 115.049 43.426 115.246 43.6333 115.403C43.8406 115.561 44.0771 115.675 44.3292 115.74L45.2192 115.96C45.6058 116.06 45.8758 116.293 46.0292 116.66L49.3992 124.4C49.4332 124.474 49.4841 124.539 49.5478 124.59C49.6116 124.641 49.6864 124.676 49.7662 124.692C49.846 124.709 49.9286 124.706 50.0072 124.685C50.0859 124.664 50.1585 124.624 50.2192 124.57L50.4992 124.32C50.5725 124.253 50.5892 124.177 50.5492 124.09L47.6292 117.65C47.2892 116.89 47.5225 116.617 48.3292 116.83L54.8692 118.56C55.115 118.623 55.3452 118.736 55.5449 118.893C55.7446 119.05 55.9095 119.246 56.0292 119.47L59.8192 126.37C59.9525 126.617 59.9758 126.877 59.8892 127.15C58.2092 132.623 57.2692 138.23 57.0692 143.97C57.0626 144.129 57.1153 144.284 57.217 144.406C57.3186 144.528 57.4619 144.608 57.6192 144.63L57.9592 144.68C58.3058 144.733 58.4792 144.587 58.4792 144.24C58.5592 132.49 61.8992 124.99 66.5992 115.56C67.4458 113.867 68.4725 112.647 69.6792 111.9C69.8609 111.789 70.0693 111.728 70.2824 111.724C70.4955 111.72 70.7055 111.773 70.8905 111.877C71.0755 111.981 71.2287 112.133 71.334 112.316C71.4393 112.5 71.4929 112.708 71.4892 112.92C71.4092 118.35 71.2792 123.33 72.6192 128.59C75.6392 140.49 80.6292 151.86 84.8892 163.35C85.0092 163.663 84.9692 163.96 84.7692 164.24C83.2225 166.433 81.4792 168.19 79.5392 169.51C67.3658 177.817 54.0025 180.87 39.4492 178.67C39.1845 178.63 38.9395 178.507 38.7491 178.321C38.5588 178.134 38.4328 177.892 38.3892 177.63C36.7692 168.057 34.7492 158.527 32.3292 149.04C31.5892 146.16 24.5492 124.78 33.5492 127.62C38.6558 129.227 42.2092 132.69 44.2092 138.01C44.2753 138.188 44.3005 138.38 44.2829 138.569C44.2653 138.759 44.2053 138.942 44.1074 139.105C44.0095 139.268 43.8761 139.407 43.7172 139.512C43.5582 139.617 43.3778 139.684 43.1892 139.71C40.0092 140.14 35.8092 137.11 33.6292 135.04C33.5276 134.944 33.3928 134.891 33.2542 134.892C33.1155 134.894 32.9843 134.951 32.8892 135.05Z" fill="white"/>
<path d="M36.2001 127.33C30.7701 125.42 34.5301 119.8 38.9901 121.02C44.3401 122.5 48.6601 127.51 50.8401 132.39C51.1801 133.137 51.2601 133.704 51.0801 134.09C50.9024 134.473 50.5929 134.78 50.2088 134.952C49.8246 135.125 49.3918 135.153 48.9901 135.03C47.5701 134.604 46.2301 134.08 44.9701 133.46C41.8501 131.91 39.0901 128.34 36.2001 127.33Z" fill="white"/>
<path d="M234.16 132.21C222.934 146.677 215.494 162.927 211.84 180.96C211.774 181.28 211.577 181.457 211.25 181.49C200.35 182.43 196.69 194.64 195.58 203.51C195.494 204.183 195.7 204.757 196.2 205.23L195.98 205.48C195.867 205.607 195.804 205.753 195.79 205.92C194.91 217.36 197.11 231.16 204.72 240.17C204.974 240.47 204.917 240.69 204.55 240.83C203.144 241.383 201.7 241.577 200.22 241.41C199.127 240.317 197.717 239.737 195.99 239.67C193.13 239.55 192.34 243.04 195.5 243.79C197.407 244.243 198.924 244.137 200.05 243.47C202.15 243.483 204.19 243.06 206.17 242.2C206.477 242.067 206.78 242.077 207.08 242.23L211.54 244.51C212.927 246.397 214.85 247.027 217.31 246.4C217.63 246.32 217.88 246.137 218.06 245.85C218.514 245.137 218.597 244.437 218.31 243.75C217.51 241.82 213.62 242.2 212.08 242.59C210.88 242.29 209.81 241.783 208.87 241.07C208.584 240.85 208.57 240.617 208.83 240.37C214.82 234.58 218.18 226.19 220.34 218.29C221.287 214.81 222.184 211.307 223.03 207.78C225.17 201.073 224.887 194.52 222.18 188.12C220.96 185.227 218.727 183.207 215.48 182.06C215.16 181.94 215.01 181.71 215.03 181.37C215.11 180.103 215.297 178.863 215.59 177.65C218.857 164.05 224.497 151.453 232.51 139.86C230.49 147.46 229.317 152.673 228.99 155.5C226.69 175.293 228.654 194.633 234.88 213.52C240.78 231.44 248.05 250.72 257.23 267.59C257.39 267.883 257.307 268.047 256.98 268.08C236.17 270.24 216.55 274.11 194.88 275.08C190.927 275.26 187.564 275.003 184.79 274.31C178.217 272.677 171.78 270.54 165.48 267.9C165.114 267.747 164.96 267.47 165.02 267.07C173.2 215.52 196.79 168.06 231.32 129.1C231.349 129.067 231.386 129.04 231.426 129.023C231.467 129.005 231.512 128.997 231.557 128.999C231.601 129.001 231.646 129.013 231.686 129.034C231.727 129.055 231.762 129.084 231.79 129.12L234.16 132.21Z" fill="white"/>
<path d="M237.67 133.07L232.51 139.86C224.496 151.453 218.856 164.05 215.59 177.65C215.296 178.863 215.11 180.103 215.03 181.37C215.01 181.71 215.16 181.94 215.48 182.06C218.726 183.206 220.96 185.226 222.18 188.12C224.886 194.52 225.17 201.073 223.03 207.78L220.83 207.79C221.163 201.996 221.28 198.32 221.18 196.76C220.96 193.27 219.29 186.51 215.49 185.27C210.616 183.683 206.796 184.78 204.03 188.56C200.963 192.753 198.96 198.473 198.02 205.72C197.4 205.306 196.793 205.143 196.2 205.23C195.7 204.756 195.493 204.183 195.58 203.51C196.69 194.64 200.35 182.43 211.25 181.49C211.576 181.456 211.773 181.28 211.84 180.96C215.493 162.926 222.933 146.676 234.16 132.21C234.693 132.03 234.966 131.75 234.98 131.37C235.42 131.176 235.846 131.073 236.26 131.06C236.733 131.046 237.09 131.223 237.33 131.59C237.583 131.983 237.696 132.476 237.67 133.07Z" fill="#D9C6F4"/>
<path d="M285.35 271.25L285.45 271C285.499 270.871 285.497 270.728 285.444 270.602C285.392 270.475 285.294 270.374 285.17 270.32C277.31 266.95 267.76 267.42 259.39 267.91C259.017 267.93 258.737 267.78 258.55 267.46C256.264 263.527 254.14 259.397 252.18 255.07C244.387 237.817 238.374 221.823 234.14 207.09C228.22 186.49 226.73 162.77 233.32 142.04C234.73 137.6 236.35 133.9 241.5 133.16C268.51 129.32 296.87 156.72 311.15 176.6C326.25 197.61 336.25 225.65 342.43 251.27C347.78 273.43 347.04 298.53 331.35 316.58C324.25 324.74 316.35 328.25 305.19 330.05C296.61 331.43 287.797 332.017 278.75 331.81C259.864 331.377 241.544 329.827 223.79 327.16C223.424 327.107 223.33 326.917 223.51 326.59C231.57 311.91 230.34 287.55 218.68 274.77C218.48 274.543 218.527 274.407 218.82 274.36C237.2 271.42 256.77 267.94 275 268.95C278.114 269.123 281.45 269.937 285.01 271.39C285.17 271.457 285.284 271.41 285.35 271.25Z" fill="white"/>
<path d="M187.079 134.88C186.832 138.487 186.029 140.753 184.669 141.68C174.602 156.233 166.906 171.887 161.579 188.64C161.486 188.933 161.542 189.193 161.749 189.42C164.856 192.847 164.879 196.313 161.819 199.82C160.419 201.42 158.786 202.043 156.919 201.69C149.879 200.37 151.829 190.52 157.869 188.61C158.021 188.563 158.16 188.481 158.275 188.37C158.39 188.258 158.477 188.121 158.529 187.97C162.149 177.18 166.669 165.2 172.619 155.49C173.279 154.41 173.486 153.49 173.239 152.73C174.879 151.01 176.073 149.173 176.819 147.22C177.966 145.867 178.796 144.533 179.309 143.22L180.259 142.29C182.046 139.59 184.319 137.12 187.079 134.88ZM157.249 197.868C157.545 197.975 157.864 198.011 158.187 197.974C158.51 197.937 158.831 197.828 159.132 197.652C159.432 197.477 159.707 197.238 159.939 196.951C160.171 196.663 160.357 196.332 160.486 195.977C160.746 195.259 160.757 194.484 160.518 193.823C160.279 193.162 159.808 192.669 159.209 192.452C158.913 192.345 158.594 192.308 158.271 192.345C157.948 192.382 157.627 192.492 157.327 192.667C157.026 192.843 156.752 193.081 156.519 193.369C156.287 193.656 156.101 193.987 155.972 194.343C155.712 195.061 155.701 195.836 155.94 196.497C156.18 197.158 156.65 197.651 157.249 197.868Z" fill="#D9C6F4"/>
<path d="M193.77 150.55C203.55 149.63 212.36 146.4 220.14 140.42C220.22 140.36 220.294 140.37 220.36 140.45C220.427 140.523 220.424 140.597 220.35 140.67C219.684 141.317 219.067 142.01 218.5 142.75C211.654 151.67 205.334 160.883 199.54 170.39C199.512 170.433 199.474 170.469 199.428 170.494C199.383 170.518 199.332 170.531 199.28 170.531C199.229 170.531 199.178 170.518 199.132 170.494C199.087 170.469 199.049 170.433 199.02 170.39C195.394 164.53 193.457 158.133 193.21 151.2C193.19 150.807 193.377 150.59 193.77 150.55Z" fill="white"/>
<path d="M184.671 141.68C183.298 145.92 181.838 150.02 180.291 153.98C170.221 179.79 164.521 206.66 162.261 234.27C161.421 244.557 160.791 254.377 160.371 263.73C160.291 265.597 160.021 265.624 159.561 263.81C157.014 253.684 154.384 243.334 151.671 232.76C150.401 227.84 147.151 228.68 143.181 228.6C142.774 228.327 142.311 228.284 141.791 228.47C141.684 228.304 141.641 228.154 141.661 228.02C146.211 201.25 156.191 173.65 173.241 152.73C173.488 153.49 173.281 154.41 172.621 155.49C166.671 165.2 162.151 177.18 158.531 187.97C158.479 188.122 158.392 188.259 158.277 188.37C158.162 188.481 158.023 188.563 157.871 188.61C151.831 190.52 149.881 200.37 156.921 201.69C158.788 202.044 160.421 201.42 161.821 199.82C164.881 196.314 164.858 192.847 161.751 189.42C161.544 189.194 161.488 188.934 161.581 188.64C166.908 171.887 174.604 156.234 184.671 141.68Z" fill="white"/>
<path d="M190.641 150.43C184.341 152.71 180.377 157.17 178.751 163.81C177.531 168.75 186.041 170.11 189.361 169.78C193.061 169.41 193.551 163.94 193.721 161.13C194.774 164.79 196.317 168.187 198.351 171.32C198.537 171.613 198.551 171.913 198.391 172.22L184.321 198.91L189.961 171.46C190.034 171.093 189.887 170.89 189.521 170.85C185.151 170.36 182.131 170.48 178.571 167.5C178.537 167.472 178.497 167.453 178.454 167.443C178.412 167.433 178.368 167.433 178.326 167.443C178.285 167.452 178.246 167.472 178.214 167.499C178.182 167.526 178.156 167.561 178.141 167.6L173.141 180.01C173.081 180.13 172.971 180.137 172.811 180.03C176.064 167.35 180.441 155.08 185.941 143.22C186.061 142.96 186.167 142.967 186.261 143.24C187.187 146.053 188.871 148.31 191.311 150.01C191.571 150.197 191.564 150.373 191.291 150.54C191.137 150.633 190.921 150.597 190.641 150.43Z" fill="white"/>
<path d="M179.31 143.22C178.797 144.533 177.967 145.867 176.82 147.22C155.91 169.08 145.93 199.26 140.33 228.34L123.26 228.51C122.667 226.303 122.064 224.067 121.45 221.8C120.55 218.51 114.99 219.69 112.5 219.56C112.114 219.54 111.837 219.353 111.67 219L109.19 213.76C109.119 213.607 109.082 213.44 109.084 213.27C109.086 213.1 109.125 212.933 109.2 212.78C120.77 188.63 147.48 141.09 179.31 143.22Z" fill="white"/>
<path d="M176.82 147.22C176.073 149.174 174.88 151.01 173.24 152.73C156.19 173.65 146.21 201.25 141.66 228.02C141.64 228.154 141.683 228.304 141.79 228.47C141.077 228.584 140.59 228.54 140.33 228.34C145.93 199.26 155.91 169.08 176.82 147.22Z" fill="#102348"/>
<path d="M190.64 150.43C191.42 150.86 191.9 151.08 192 152.06C192.313 155.174 192.886 158.197 193.72 161.13C193.55 163.94 193.06 169.41 189.36 169.78C186.04 170.11 177.53 168.75 178.75 163.81C180.376 157.17 184.34 152.71 190.64 150.43Z" fill="#A2D3FF"/>
<path d="M39.24 179.8C55.08 182.21 74.29 177.98 85.36 165.57C85.3916 165.533 85.4322 165.505 85.4781 165.489C85.5239 165.472 85.5735 165.468 85.6223 165.476C85.6711 165.483 85.7175 165.504 85.7573 165.534C85.7971 165.565 85.8289 165.605 85.85 165.65L95.1 186.15C95.1718 186.309 95.2065 186.483 95.2013 186.658C95.1961 186.833 95.1512 187.004 95.07 187.16C94.7166 187.853 94.2666 188.467 93.72 189C82.04 200.38 58.1 207.48 42.26 203.29C41.8466 203.183 41.6133 202.913 41.56 202.48L38.75 180.28C38.7033 179.9 38.8666 179.74 39.24 179.8ZM55.49 190.72C55.49 189.895 55.1623 189.104 54.5791 188.521C53.9958 187.938 53.2048 187.61 52.38 187.61C51.5551 187.61 50.7641 187.938 50.1809 188.521C49.5976 189.104 49.27 189.895 49.27 190.72C49.27 191.545 49.5976 192.336 50.1809 192.919C50.7641 193.502 51.5551 193.83 52.38 193.83C53.2048 193.83 53.9958 193.502 54.5791 192.919C55.1623 192.336 55.49 191.545 55.49 190.72Z" fill="white"/>
<path d="M184.32 198.91C174.493 220.463 167.737 242.943 164.05 266.35C163.97 266.863 163.693 267.01 163.22 266.79L162.33 266.37C162.123 266.271 161.948 266.115 161.824 265.921C161.7 265.727 161.633 265.501 161.63 265.27C161.49 256.23 162.37 247 162.99 237.98C164.06 222.35 166.25 208.47 169.62 193.79C170.51 189.89 171.02 186.11 172.28 182.27C172.773 181.677 173.06 180.923 173.14 180.01L178.14 167.6C178.156 167.561 178.181 167.526 178.213 167.499C178.246 167.472 178.284 167.452 178.326 167.443C178.368 167.433 178.412 167.433 178.454 167.443C178.496 167.453 178.536 167.472 178.57 167.5C182.13 170.48 185.15 170.36 189.52 170.85C189.887 170.89 190.033 171.093 189.96 171.46L184.32 198.91Z" fill="#A2D3FF"/>
<path d="M172.81 180.03C172.97 180.136 173.08 180.13 173.14 180.01C173.06 180.923 172.773 181.676 172.28 182.27C172.267 181.483 172.443 180.736 172.81 180.03Z" fill="#D9C6F4"/>
<path d="M220.83 207.79C219.05 218.05 215.29 231.68 207.27 239.21C207.209 239.267 207.137 239.312 207.058 239.341C206.979 239.37 206.896 239.383 206.812 239.379C206.728 239.376 206.646 239.355 206.57 239.319C206.494 239.283 206.426 239.233 206.37 239.17C203.21 235.543 200.937 230.983 199.55 225.49C197.67 218.037 197.16 211.447 198.02 205.72C198.96 198.473 200.963 192.753 204.03 188.56C206.797 184.78 210.617 183.683 215.49 185.27C219.29 186.51 220.96 193.27 221.18 196.76C221.28 198.32 221.163 201.997 220.83 207.79Z" fill="white"/>
<path d="M55.4895 190.72C55.4895 191.545 55.1619 192.336 54.5786 192.919C53.9954 193.502 53.2044 193.83 52.3795 193.83C51.5547 193.83 50.7637 193.502 50.1804 192.919C49.5972 192.336 49.2695 191.545 49.2695 190.72C49.2695 189.895 49.5972 189.104 50.1804 188.521C50.7637 187.938 51.5547 187.61 52.3795 187.61C53.2044 187.61 53.9954 187.938 54.5786 188.521C55.1619 189.104 55.4895 189.895 55.4895 190.72ZM54.3595 190.74C54.3595 190.212 54.1499 189.706 53.7767 189.333C53.4035 188.96 52.8973 188.75 52.3695 188.75C51.8417 188.75 51.3356 188.96 50.9624 189.333C50.5892 189.706 50.3795 190.212 50.3795 190.74C50.3795 191.268 50.5892 191.774 50.9624 192.147C51.3356 192.52 51.8417 192.73 52.3695 192.73C52.8973 192.73 53.4035 192.52 53.7767 192.147C54.1499 191.774 54.3595 191.268 54.3595 190.74Z" fill="#102348"/>
<path d="M86.9201 228.26C82.1334 228.42 77.3668 228.417 72.6201 228.25C71.1701 228.19 69.7101 228.69 68.1601 228.74C64.9301 228.83 62.4001 230.38 63.3201 234C68.9601 256.16 74.5968 278.323 80.2301 300.49C80.2901 300.717 80.0934 301 79.6401 301.34C57.4501 290.83 51.3201 261.49 47.3601 239.9C45.2134 228.193 43.3934 216.45 41.9001 204.67C41.8958 204.636 41.8998 204.602 41.9119 204.57C41.924 204.538 41.9437 204.509 41.9693 204.486C41.9949 204.464 42.0257 204.447 42.059 204.439C42.0922 204.431 42.1269 204.432 42.1601 204.44C58.3701 208.41 84.4901 201.41 95.7101 188.5C95.7429 188.462 95.7847 188.433 95.8317 188.415C95.8787 188.397 95.9295 188.391 95.9792 188.398C96.029 188.405 96.0762 188.425 96.1166 188.455C96.1569 188.485 96.1891 188.524 96.2101 188.57L110.39 219.04C110.543 219.367 110.443 219.53 110.09 219.53C103.517 219.603 96.9901 219.617 90.5101 219.57C85.0401 219.53 86.0201 224.78 86.9201 228.26Z" fill="white"/>
<path d="M52.3709 192.73C53.4699 192.73 54.3609 191.839 54.3609 190.74C54.3609 189.641 53.4699 188.75 52.3709 188.75C51.2718 188.75 50.3809 189.641 50.3809 190.74C50.3809 191.839 51.2718 192.73 52.3709 192.73Z" fill="white"/>
<path d="M155.973 194.343C155.432 195.839 156.003 197.417 157.25 197.868C158.496 198.319 159.945 197.473 160.487 195.977C161.028 194.481 160.456 192.903 159.21 192.452C157.964 192.001 156.515 192.848 155.973 194.343Z" fill="white"/>
<path d="M196.2 205.23C196.793 205.143 197.4 205.307 198.02 205.72C197.16 211.447 197.67 218.037 199.55 225.49C200.936 230.983 203.21 235.543 206.37 239.17C206.426 239.233 206.494 239.283 206.569 239.319C206.645 239.355 206.727 239.376 206.811 239.379C206.895 239.383 206.979 239.37 207.058 239.341C207.136 239.312 207.208 239.267 207.27 239.21C215.29 231.68 219.05 218.05 220.83 207.79L223.03 207.78C222.183 211.307 221.286 214.81 220.34 218.29C218.18 226.19 214.82 234.58 208.83 240.37C208.57 240.617 208.583 240.85 208.87 241.07C209.81 241.783 210.88 242.29 212.08 242.59C212.466 243.183 212.286 243.823 211.54 244.51L207.08 242.23C206.78 242.077 206.476 242.067 206.17 242.2C204.19 243.06 202.15 243.483 200.05 243.47C199.73 242.503 199.786 241.817 200.22 241.41C201.7 241.577 203.143 241.383 204.55 240.83C204.916 240.69 204.973 240.47 204.72 240.17C197.11 231.16 194.91 217.36 195.79 205.92C195.803 205.753 195.866 205.607 195.98 205.48L196.2 205.23Z" fill="#102348"/>
<path d="M87.3601 222.76C88.0701 221.34 89.1301 220.78 90.7801 220.77C99.0001 220.737 107.227 220.73 115.46 220.75C115.793 220.757 115.97 220.927 115.99 221.26C116.36 226.6 118.42 232.6 119.73 237.76C119.773 237.93 119.776 238.107 119.74 238.279C119.703 238.45 119.628 238.611 119.52 238.749C119.412 238.887 119.274 238.999 119.116 239.075C118.958 239.151 118.785 239.191 118.61 239.19L91.9901 239.12C91.6789 239.12 91.3763 239.016 91.13 238.824C90.8838 238.633 90.7079 238.364 90.6301 238.06L87.1801 224.52C87.0257 223.933 87.0896 223.308 87.3601 222.76Z" fill="white"/>
<path d="M121.87 227.82C121.01 228.38 119.963 228.543 118.73 228.31L117.24 222C117.207 221.864 117.207 221.721 117.238 221.585C117.27 221.448 117.333 221.32 117.422 221.212C117.511 221.103 117.624 221.017 117.752 220.959C117.88 220.902 118.019 220.875 118.16 220.88L118.61 220.9C119.596 220.933 120.213 221.43 120.46 222.39L121.87 227.82Z" fill="white"/>
<path d="M121.87 227.82C121.897 228.26 122.037 228.543 122.29 228.67C122.63 228.85 122.953 228.796 123.26 228.51L140.33 228.34C140.59 228.54 141.077 228.583 141.79 228.47C142.31 228.283 142.773 228.326 143.18 228.6C145.3 228.973 146.58 230.02 147.02 231.74C150.653 245.986 154.267 260.19 157.86 274.35C157.876 274.415 157.876 274.483 157.859 274.547C157.842 274.612 157.809 274.671 157.763 274.72C157.718 274.769 157.66 274.805 157.597 274.826C157.533 274.847 157.466 274.852 157.4 274.84C149.19 273.28 139.21 270.99 130.9 271.97C130.595 272.005 130.307 272.127 130.069 272.32C129.832 272.513 129.654 272.771 129.557 273.062C129.461 273.353 129.449 273.665 129.524 273.962C129.599 274.26 129.757 274.529 129.98 274.74C132.2 276.826 134.72 278.41 137.54 279.49C137.559 279.498 137.576 279.511 137.589 279.528C137.602 279.544 137.611 279.564 137.615 279.584C137.619 279.605 137.618 279.626 137.612 279.646C137.606 279.667 137.595 279.685 137.58 279.7C137.513 279.773 137.447 279.846 137.38 279.92C137.333 279.966 137.277 279.983 137.21 279.97C132.33 279.06 126.87 277.65 121.93 278.2C120.577 278.346 119.83 278.82 119.69 279.62C119.543 280.493 120.073 281.54 121.28 282.76C121.727 283.213 121.643 283.53 121.03 283.71C120.923 283.743 120.633 283.843 120.16 284.01C118.987 284.423 118.507 285.123 118.72 286.11C119.44 289.45 127.95 294.17 130.79 295.98C130.806 295.991 130.818 296.006 130.826 296.024C130.834 296.042 130.837 296.061 130.835 296.081C130.833 296.1 130.826 296.118 130.815 296.134C130.803 296.15 130.788 296.162 130.77 296.17C130.677 296.216 130.583 296.26 130.49 296.3C130.423 296.326 130.357 296.33 130.29 296.31C128.93 295.856 127.547 295.816 126.14 296.19C125.897 296.256 125.672 296.376 125.482 296.542C125.292 296.707 125.142 296.913 125.043 297.145C124.945 297.376 124.901 297.626 124.914 297.877C124.927 298.127 124.998 298.371 125.12 298.59C129.04 305.62 144.23 311.9 151.62 314.15C157.28 315.87 162.95 317.443 168.63 318.87C168.8 318.913 168.956 318.999 169.08 319.12C169.205 319.242 169.295 319.393 169.34 319.56C170.5 323.72 173.38 329.06 167.9 331.62C143.567 331.713 119.183 331.656 94.75 331.45C91.63 331.42 88.28 332 87.29 328C85.1833 319.553 83.0367 311.266 80.85 303.14C80.7033 302.213 80.3 301.613 79.64 301.34C80.0933 301 80.29 300.716 80.23 300.49C74.5967 278.323 68.96 256.16 63.32 234C62.4 230.38 64.93 228.83 68.16 228.74C69.71 228.69 71.17 228.19 72.62 228.25C77.3667 228.416 82.1333 228.42 86.92 228.26L89.59 238.69C89.7164 239.17 89.9982 239.595 90.391 239.897C90.7838 240.2 91.2654 240.362 91.76 240.36L118.5 240.29C118.859 240.29 119.213 240.21 119.536 240.054C119.859 239.898 120.143 239.67 120.366 239.388C120.589 239.107 120.745 238.778 120.824 238.427C120.903 238.075 120.901 237.711 120.82 237.36L118.73 228.31C119.963 228.543 121.01 228.38 121.87 227.82Z" fill="#D9C6F4"/>
<path d="M200.221 241.41C199.787 241.817 199.731 242.503 200.051 243.47C198.924 244.137 197.407 244.243 195.501 243.79C192.341 243.04 193.131 239.55 195.991 239.67C197.717 239.737 199.127 240.317 200.221 241.41Z" fill="#D9C6F4"/>
<path d="M211.539 244.51C212.286 243.823 212.466 243.183 212.079 242.59C213.619 242.2 217.509 241.82 218.309 243.75C218.596 244.437 218.512 245.137 218.059 245.85C217.879 246.137 217.629 246.32 217.309 246.4C214.849 247.027 212.926 246.397 211.539 244.51Z" fill="#D9C6F4"/>
<path d="M156.681 285.83L156.661 285.54C156.658 285.46 156.63 285.384 156.579 285.322C156.528 285.261 156.459 285.218 156.381 285.2C147.654 283.307 139.564 279.95 132.111 275.13C131.497 274.73 131.054 274.29 130.781 273.81C130.736 273.734 130.711 273.647 130.709 273.559C130.708 273.47 130.729 273.383 130.772 273.305C130.814 273.228 130.876 273.162 130.951 273.116C131.026 273.069 131.112 273.043 131.201 273.04C142.161 272.46 154.031 275.62 165.381 276.8C165.747 276.833 165.921 276.667 165.901 276.3L165.881 275.97C165.872 275.809 165.805 275.657 165.693 275.541C165.581 275.426 165.431 275.354 165.271 275.34L163.141 275.12C162.681 275.08 162.394 274.837 162.281 274.39L160.451 267.26C160.437 267.206 160.44 267.15 160.457 267.097C160.475 267.045 160.507 266.999 160.55 266.964C160.593 266.929 160.646 266.908 160.701 266.902C160.756 266.896 160.811 266.905 160.861 266.93C168.701 270.73 176.857 273.657 185.331 275.71C188.541 276.49 191.831 276.28 195.071 276.24C195.46 276.237 195.845 276.327 196.193 276.503C196.541 276.679 196.842 276.935 197.071 277.25C205.831 289.2 206.981 310 198.871 322.58C198.706 322.834 198.473 323.036 198.198 323.162C197.923 323.288 197.619 323.332 197.321 323.29C182.974 321.197 168.937 318.167 155.211 314.2C147.091 311.86 139.487 308.397 132.401 303.81C130.571 302.62 126.841 300.12 126.151 297.97C126.115 297.855 126.108 297.733 126.13 297.615C126.151 297.497 126.201 297.386 126.274 297.29C126.348 297.195 126.443 297.119 126.552 297.069C126.661 297.018 126.781 296.995 126.901 297C132.401 297.26 137.481 299.38 142.251 301.96C144.471 303.16 148.861 304.613 155.421 306.32C155.547 306.353 155.641 306.313 155.701 306.2L155.831 305.97C156.057 305.563 155.947 305.303 155.501 305.19C142.394 301.757 130.647 295.7 120.261 287.02C120.129 286.909 120.025 286.768 119.959 286.608C119.894 286.448 119.868 286.275 119.883 286.103C119.899 285.931 119.956 285.766 120.05 285.621C120.143 285.475 120.271 285.355 120.421 285.27L120.901 285C121.411 284.71 121.99 284.566 122.575 284.581C123.16 284.597 123.729 284.773 124.221 285.09C133.787 291.197 144.121 295.457 155.221 297.87C155.561 297.943 155.781 297.813 155.881 297.48L155.961 297.23C155.974 297.189 155.978 297.145 155.973 297.102C155.968 297.059 155.954 297.017 155.931 296.98C155.909 296.942 155.878 296.909 155.842 296.883C155.806 296.858 155.764 296.839 155.721 296.83C144.001 294.35 129.901 288.99 120.891 280.85C120.779 280.752 120.698 280.625 120.656 280.482C120.613 280.34 120.612 280.189 120.652 280.046C120.691 279.903 120.77 279.774 120.88 279.674C120.989 279.574 121.125 279.507 121.271 279.48C122.757 279.193 124.334 279.147 126.001 279.34C137.761 280.72 145.911 283.6 156.051 286.34C156.127 286.361 156.207 286.363 156.285 286.347C156.362 286.33 156.435 286.296 156.496 286.246C156.558 286.196 156.606 286.133 156.639 286.06C156.671 285.988 156.685 285.909 156.681 285.83Z" fill="white"/>
<path d="M217.321 275.17C229.071 285.93 230.621 313.84 222.081 326.59C221.887 326.876 221.617 326.996 221.271 326.95L200.241 323.76C200.172 323.75 200.108 323.723 200.052 323.682C199.997 323.641 199.952 323.587 199.923 323.525C199.893 323.463 199.879 323.394 199.882 323.325C199.885 323.256 199.905 323.189 199.941 323.13C208.211 309.06 206.991 290.02 198.101 276.5C197.981 276.313 198.031 276.213 198.251 276.2L216.141 274.76C216.594 274.726 216.987 274.863 217.321 275.17ZM217.391 319.71C217.391 318.882 217.062 318.089 216.477 317.504C215.892 316.918 215.098 316.59 214.271 316.59C213.443 316.59 212.65 316.918 212.064 317.504C211.479 318.089 211.151 318.882 211.151 319.71C211.151 320.537 211.479 321.331 212.064 321.916C212.65 322.501 213.443 322.83 214.271 322.83C215.098 322.83 215.892 322.501 216.477 321.916C217.062 321.331 217.391 320.537 217.391 319.71Z" fill="white"/>
<path d="M217.39 319.71C217.39 320.537 217.062 321.331 216.477 321.916C215.891 322.501 215.098 322.83 214.27 322.83C213.443 322.83 212.649 322.501 212.064 321.916C211.479 321.331 211.15 320.537 211.15 319.71C211.15 318.882 211.479 318.089 212.064 317.504C212.649 316.919 213.443 316.59 214.27 316.59C215.098 316.59 215.891 316.919 216.477 317.504C217.062 318.089 217.39 318.882 217.39 319.71ZM216.27 319.71C216.27 319.185 216.062 318.681 215.69 318.31C215.319 317.938 214.816 317.73 214.29 317.73C213.765 317.73 213.262 317.938 212.89 318.31C212.519 318.681 212.31 319.185 212.31 319.71C212.31 320.235 212.519 320.739 212.89 321.11C213.262 321.481 213.765 321.69 214.29 321.69C214.816 321.69 215.319 321.481 215.69 321.11C216.062 320.739 216.27 320.235 216.27 319.71Z" fill="#102348"/>
<path d="M214.291 321.69C215.384 321.69 216.271 320.803 216.271 319.71C216.271 318.616 215.384 317.73 214.291 317.73C213.197 317.73 212.311 318.616 212.311 319.71C212.311 320.803 213.197 321.69 214.291 321.69Z" fill="white"/>
</svg>
