<svg width="368" height="272" viewBox="0 0 368 272" fill="none" xmlns="http://www.w3.org/2000/svg">
<path d="M177.62 0H180.75C191.96 2.92 193.86 13.53 187.61 22.3C187.41 22.5867 187.373 22.8933 187.5 23.22C188.127 24.86 189.443 28.13 191.45 33.03C193.983 39.2167 197.76 44.12 202.78 47.74C206.28 50.2667 207.76 53.5167 207.22 57.49C205.92 67.06 196.58 72.6 187.27 73.82C187.195 73.8298 187.122 73.8545 187.057 73.8926C186.991 73.9308 186.934 73.9816 186.889 74.0421C186.843 74.1026 186.81 74.1716 186.791 74.2451C186.773 74.3186 186.769 74.395 186.78 74.47C187.687 79.9367 189.057 85.28 190.89 90.5C190.997 90.8 191.21 90.9567 191.53 90.97C193.477 91.0433 195.417 91.0533 197.35 91C198.857 90.96 200.627 90.5767 202.66 89.85C219.46 83.84 237.45 92.86 250.98 102.27C266.11 112.78 278.71 128.63 288.05 144.47C288.077 144.517 288.116 144.556 288.162 144.583C288.209 144.611 288.263 144.626 288.318 144.627C288.372 144.628 288.427 144.615 288.477 144.589C288.526 144.564 288.568 144.526 288.6 144.48C299.59 127.87 310.71 111.06 318.07 92.07C322.857 79.7033 322.69 67.6 317.57 55.76C316.59 53.5 317.44 51.76 320.04 52.02C325.82 52.61 328.65 57.09 331.27 61.71C331.308 61.7744 331.366 61.8247 331.436 61.8536C331.505 61.8825 331.581 61.8884 331.654 61.8705C331.727 61.8526 331.792 61.8118 331.84 61.7541C331.888 61.6964 331.916 61.6248 331.92 61.55C332.18 56.83 333.32 52.24 333.79 47.45C334.22 43.08 339.61 40.85 342.8 44.55C343.04 44.83 343.297 44.85 343.57 44.61C346.11 42.4433 348.57 42.4867 350.95 44.74C351.21 44.9867 351.487 45.0133 351.78 44.82C354.327 43.1733 356.58 43.44 358.54 45.62C358.787 45.8867 359.013 46.0433 359.22 46.09C359.547 46.15 359.89 46.0767 360.25 45.87C360.523 45.71 360.817 45.6333 361.13 45.64C364.083 45.7067 365.683 47.3267 365.93 50.5C366.857 62.3333 366.943 74.17 366.19 86.01C364.837 107.363 361.72 128.447 356.84 149.26C348.9 183.15 331.57 227.61 290.18 229.06C273.49 229.64 258.73 225.51 245.12 215.78C244.793 215.547 244.64 215.627 244.66 216.02L247.34 261.87C247.354 262.131 247.276 262.388 247.119 262.598C246.962 262.808 246.736 262.957 246.48 263.02C228.9 267.087 211.073 269.727 193 270.94C187.633 271.3 182.267 271.653 176.9 272H155.25C149.75 271.627 144.253 271.237 138.76 270.83C122.3 269.61 105.9 267.04 89.56 263.12C89.22 263.04 89.0467 262.823 89.04 262.47L88.97 244.15C89.71 244.25 90.05 244.443 89.99 244.73L90.11 261.55C90.1132 261.725 90.1736 261.894 90.282 262.031C90.3903 262.168 90.5407 262.266 90.71 262.31C141.16 274.28 194.82 273.54 245.25 262.23C245.481 262.179 245.688 262.048 245.834 261.86C245.979 261.673 246.056 261.439 246.05 261.2C245.523 244.113 244.433 227.047 242.78 210C240.753 189.033 235.853 166.717 228.08 143.05C222.24 125.24 213.43 104.96 199.11 92.22C198.863 92 198.573 91.8933 198.24 91.9L192.01 91.98C191.942 91.982 191.875 91.9994 191.815 92.0308C191.755 92.0623 191.703 92.1069 191.663 92.1612C191.624 92.2154 191.597 92.2779 191.586 92.3436C191.575 92.4093 191.58 92.4766 191.6 92.54C193.76 99.44 196.31 107.45 196.24 114.74C196.22 116.347 195.503 117.21 194.09 117.33C192.983 116.97 192.31 116.667 192.07 116.42C188.597 112.893 185.687 109.087 183.34 105C182.847 104.14 182.557 104.203 182.47 105.19C181.997 110.603 180.673 115.82 178.5 120.84C174.07 128.58 167.3 117.92 164.91 113.87C160.47 106.363 156.387 98.64 152.66 90.7C152.527 90.4133 152.3 90.2667 151.98 90.26L129.73 89.73C129.337 89.7233 129.27 89.87 129.53 90.17C139.53 101.85 140.39 115.44 135.86 129.95C135.753 130.283 135.867 130.507 136.2 130.62L157.06 137.85C157.428 137.978 157.731 138.245 157.904 138.593C158.076 138.942 158.103 139.343 157.98 139.71L155.17 148.1L151.47 158.26C151.365 158.551 151.151 158.788 150.874 158.921C150.596 159.054 150.279 159.072 149.99 158.97L124.25 150.05C123.477 149.777 123.223 149.253 123.49 148.48L126.99 138.3L129.88 129.98C130.004 129.628 130.259 129.338 130.591 129.172C130.924 129.005 131.307 128.976 131.66 129.09L134.13 129.9C134.503 130.02 134.753 129.897 134.88 129.53C139.06 117.38 138.61 103.5 130.51 93.02C128.977 91.04 127.477 89.67 126.01 88.91C109.36 80.33 90.34 87.02 75.24 95.48C50.5267 109.327 29.7933 127.83 13.04 150.99C5.35 161.62 -0.49 175.77 1.39 188.76C3.04 200.28 7.3 209.58 16.43 217.29C28.22 227.23 41.04 229.82 55.51 230.37C70.9367 230.957 86.3267 230.26 101.68 228.28C102.033 228.24 102.157 228.047 102.05 227.7C96.56 209.9 95.82 190.04 101.99 172.3C102.117 171.94 101.997 171.707 101.63 171.6C94.1567 169.367 86.5933 167.427 78.94 165.78C68.73 163.59 59.29 163.35 47.47 165.66C47.15 165.72 46.96 165.593 46.9 165.28L46.84 165.01C46.8133 164.87 46.8733 164.783 47.02 164.75C55.3533 163.01 63.7633 162.543 72.25 163.35C72.6767 163.39 72.73 163.27 72.41 162.99C68.24 159.32 62.94 157.57 57.69 155.98C57.5767 155.947 57.5233 155.87 57.53 155.75L57.54 155.37C57.5467 155.17 57.65 155.09 57.85 155.13C64.2167 156.403 69.77 159.17 74.51 163.43C75.35 164.19 77.51 164.09 78.55 164.33C81.8033 165.07 84.9167 165.74 87.89 166.34C88.5167 166.66 89.07 166.883 89.55 167.01C99.99 169.883 110.407 172.847 120.8 175.9C123.54 176.7 125.5 176.59 128.24 176.26C138.82 174.993 148.03 171.01 155.87 164.31C157.61 162.82 159.2 161.87 161.2 161.34C161.484 161.264 161.78 161.252 162.069 161.303C162.358 161.355 162.632 161.469 162.873 161.637C163.113 161.806 163.313 162.025 163.46 162.28C163.606 162.534 163.695 162.818 163.72 163.11C164.12 167.72 161.35 173.4 159.85 177.86C159.714 178.266 159.7 178.704 159.81 179.118C159.921 179.532 160.15 179.905 160.47 180.19C160.79 180.47 161.293 180.603 161.98 180.59C167.1 180.45 170.68 180.17 174.88 176.99C178.27 180.56 177 184.94 174.29 188.73C174.103 188.99 174.033 189.277 174.08 189.59C174.573 192.81 173.75 195.63 171.61 198.05C171.37 198.323 171.257 198.64 171.27 199C171.403 202.72 169.947 205.637 166.9 207.75C166.769 207.844 166.66 207.966 166.583 208.108C166.505 208.25 166.459 208.408 166.45 208.57C166.303 211.517 165.307 213.647 163.46 214.96C161.92 216.053 160.973 216.96 160.62 217.68C154.713 219.8 150.09 221.25 146.75 222.03C143.017 222.897 135.1 224.393 123 226.52C105.53 229.59 85.42 231.05 65.23 231.68C46.95 231.85 30.34 230.2 15.74 217.99C8.44667 211.897 3.69667 204.22 1.49 194.96C0.97 192.773 0.473333 190.573 0 188.36V181.45C0.906667 172.243 3.51 164.103 7.81 157.03C25.12 128.53 54.87 103.3 85.19 89.43C98.77 83.22 113.61 81.57 127.21 88.28C127.77 88.5533 128.367 88.6967 129 88.71C136.907 88.8833 144.773 89.0467 152.6 89.2C152.724 89.2028 152.844 89.1575 152.936 89.0737C153.027 88.9898 153.082 88.8738 153.09 88.75L154.16 69.82C154.165 69.7158 154.147 69.6118 154.108 69.5152C154.069 69.4185 154.009 69.3315 153.933 69.2602C153.857 69.1889 153.767 69.1349 153.668 69.1021C153.569 69.0692 153.464 69.0583 153.36 69.07C146.47 69.91 137.77 66.97 135.62 59.66C133.63 52.85 137.45 47.15 144.91 46.96C145.257 46.9533 145.373 46.7867 145.26 46.46C143.41 40.87 139.68 36.46 135.61 32.38C133.883 30.6533 133.15 28.1133 133.41 24.76C134.05 16.56 140.9 10.64 149.19 12.58C149.51 12.6533 149.683 12.5233 149.71 12.19C150.223 5.55 153.657 1.72667 160.01 0.72C163.81 0.12 167.107 1.34333 169.9 4.39C168.04 6.89 167.273 9.72333 167.6 12.89C167.62 13.09 167.73 13.1833 167.93 13.17L168.2 13.15C168.327 13.1433 168.39 13.0767 168.39 12.95C168.41 10.0367 169.153 7.36 170.62 4.92C172.67 2.49 174.46 0.64 177.62 0ZM190.33 33.36L188.45 28.89C188.31 28.57 188.067 28.4267 187.72 28.46L183.07 28.93C182.78 28.9577 182.488 28.9042 182.226 28.7753C181.965 28.6464 181.745 28.4473 181.59 28.2002C181.435 27.9532 181.352 27.668 181.351 27.3765C181.349 27.0851 181.428 26.7989 181.58 26.55L182.25 25.46C182.517 25.0267 182.407 24.8833 181.92 25.03C178.73 26.01 176.17 27.5 173.27 29.06C173.07 29.1667 173.083 29.2267 173.31 29.24C174.62 29.32 176.42 29.02 177.02 30.48C177.105 30.6949 177.13 30.9282 177.093 31.1553C177.056 31.3825 176.958 31.5949 176.81 31.77L169.96 39.81C169.794 40.0066 169.577 40.1542 169.333 40.237C169.089 40.3199 168.828 40.3349 168.576 40.2805C168.324 40.226 168.092 40.1042 167.904 39.9279C167.717 39.7517 167.58 39.5277 167.51 39.28C167.143 38.0067 167.123 36.75 167.45 35.51C167.477 35.4033 167.437 35.33 167.33 35.29L167.32 35.28C167.213 35.24 167.137 35.2733 167.09 35.38C164.937 39.94 163.477 44.7233 162.71 49.73C162.04 54.15 159.16 54.07 155.94 52.16C151.42 49.49 144.3 45.84 139.24 49.7C135.7 52.4 135.37 57.74 137.57 61.45C141.81 68.58 151.56 69.37 158.77 67C158.829 66.9816 158.89 66.9754 158.951 66.9819C159.012 66.9883 159.071 67.0072 159.124 67.0374C159.177 67.0675 159.222 67.1083 159.258 67.1569C159.293 67.2056 159.318 67.2612 159.33 67.32L159.4 67.64C159.427 67.7333 159.397 67.8 159.31 67.84C158.17 68.42 156.967 68.8033 155.7 68.99C155.528 69.0157 155.371 69.1009 155.256 69.2307C155.141 69.3605 155.075 69.5266 155.07 69.7C154.95 75.7267 154.64 81.7967 154.14 87.91C153.3 98.26 170.86 101.81 177.97 101.97C183.85 102.09 188.84 100.11 189.9 93.98C190.48 90.65 188.27 86.29 187.41 82.82C187.365 82.6471 187.263 82.4946 187.121 82.3874C186.98 82.2802 186.806 82.2247 186.63 82.23C180.03 82.45 174.26 78.88 172.56 72.26C172.529 72.1379 172.53 72.0098 172.563 71.8882C172.596 71.7666 172.66 71.6556 172.748 71.566C172.837 71.4764 172.947 71.4113 173.068 71.3769C173.19 71.3426 173.318 71.3402 173.44 71.37C178.45 72.54 184.26 73.49 189.19 72.46C196.49 70.94 203.01 67.19 205.52 59.72C207.06 55.1267 205.973 51.3867 202.26 48.5C195.63 43.33 193.38 39.74 190.33 33.36ZM338.97 43.64C333.03 45.2 334.48 51.28 337.55 54.58C337.71 54.754 337.904 54.8944 338.119 54.9928C338.334 55.0912 338.567 55.1457 338.803 55.1532C339.04 55.1606 339.275 55.1209 339.496 55.0362C339.717 54.9515 339.919 54.8236 340.09 54.66C341.92 52.9 342.96 46.46 341.32 44.5C340.647 43.6933 339.863 43.4067 338.97 43.64ZM347.92 53.43C349.187 51.4033 349.883 49.16 350.01 46.7C350.029 46.3422 349.971 45.9846 349.838 45.6516C349.706 45.3186 349.503 45.0182 349.244 44.7711C348.984 44.5241 348.675 44.3361 348.336 44.2203C347.997 44.1044 347.636 44.0634 347.28 44.1L346.64 44.17C344.687 44.37 343.6 45.45 343.38 47.41C343.1 49.91 343.62 53.71 346.41 54.13C346.702 54.1715 347.001 54.1275 347.269 54.0033C347.536 53.8791 347.763 53.68 347.92 53.43ZM352.88 45.34C349.98 46.85 351.12 50.36 352.42 52.45C352.7 52.904 353.138 53.2386 353.651 53.3898C354.164 53.5411 354.715 53.4984 355.2 53.27C357.3 52.27 357.81 49.1 357.65 46.63C357.63 46.31 357.507 46.0433 357.28 45.83C356.013 44.6367 354.547 44.4733 352.88 45.34ZM359.91 52.33C360.011 52.6519 360.197 52.9408 360.448 53.1666C360.698 53.3925 361.005 53.5472 361.336 53.6145C361.666 53.6819 362.009 53.6595 362.328 53.5497C362.647 53.4398 362.931 53.2466 363.15 52.99L364.47 51.44C364.719 51.1499 364.875 50.791 364.916 50.4107C364.957 50.0304 364.882 49.6466 364.7 49.31L363.79 47.63C363.613 47.3042 363.344 47.0376 363.017 46.8634C362.69 46.6891 362.319 46.6149 361.95 46.65L360.56 46.78C360.279 46.8058 360.007 46.8942 359.765 47.0387C359.522 47.1832 359.315 47.3802 359.159 47.6152C359.003 47.8502 358.901 48.1172 358.861 48.3966C358.822 48.676 358.845 48.9608 358.93 49.23L359.91 52.33ZM358.55 60.69C358.443 60.6633 358.387 60.5967 358.38 60.49L357.96 53.5C357.955 53.4015 357.917 53.3075 357.852 53.2332C357.788 53.1588 357.7 53.1083 357.603 53.0899C357.506 53.0714 357.406 53.086 357.318 53.1314C357.231 53.1768 357.161 53.2502 357.12 53.34C355.78 56.08 353.23 55.12 351.55 53.33C351.217 52.9767 351.053 53.0433 351.06 53.53L351.17 61.29C351.177 61.6167 351.02 61.7467 350.7 61.68L350.43 61.63C350.237 61.59 350.14 61.4733 350.14 61.28L349.98 53.99C349.96 53.0433 349.707 52.9767 349.22 53.79C348.12 55.61 346.683 56.07 344.91 55.17C344.563 54.99 344.267 54.7467 344.02 54.44L343.51 53.8C343.243 53.46 343.103 53.5067 343.09 53.94L342.93 61.14C342.928 61.1986 342.913 61.2561 342.887 61.3085C342.861 61.361 342.824 61.4073 342.779 61.4443C342.733 61.4812 342.68 61.508 342.624 61.5228C342.567 61.5376 342.508 61.54 342.45 61.53L342.07 61.46C341.963 61.44 341.91 61.3767 341.91 61.27L342.02 55.52C342.027 55.0067 341.84 54.9233 341.46 55.27C338.23 58.22 335.7 55.38 334.59 52.23C334.571 52.1836 334.537 52.1446 334.494 52.119C334.451 52.0934 334.401 52.0827 334.351 52.0883C334.301 52.094 334.255 52.1158 334.218 52.1504C334.182 52.185 334.158 52.2305 334.15 52.28L332.61 63.33C332.557 63.7233 332.653 64.0767 332.9 64.39C337.8 70.4233 340.193 77.3833 340.08 85.27C340.08 85.2967 340.075 85.3232 340.064 85.3476C340.053 85.3721 340.037 85.394 340.017 85.4119C339.998 85.4299 339.974 85.4434 339.949 85.4517C339.923 85.46 339.897 85.4628 339.87 85.46L339.37 85.43C339.23 85.4167 339.16 85.3433 339.16 85.21C338.97 78.69 337.32 71.69 333.11 66.46C331.983 65.0667 331.007 63.62 330.18 62.12C327.75 57.69 325.07 53.21 319.28 53.18C319.091 53.1777 318.904 53.2234 318.738 53.3128C318.571 53.4021 318.429 53.5322 318.327 53.691C318.224 53.8497 318.163 54.032 318.149 54.2206C318.136 54.4093 318.171 54.5983 318.25 54.77C323.79 67.0167 324.103 79.4133 319.19 91.96C319.119 92.1415 319.107 92.3401 319.153 92.5282C319.2 92.7163 319.303 92.8847 319.45 93.01C332.89 104.26 345.88 105.38 362.75 102.34C362.972 102.3 363.175 102.19 363.329 102.026C363.482 101.861 363.577 101.652 363.6 101.43C365.213 86.9367 365.823 72.46 365.43 58C365.39 56.3333 365.277 54.9433 365.09 53.83C365.076 53.7578 365.042 53.6909 364.992 53.6371C364.942 53.5833 364.878 53.5447 364.807 53.5259C364.736 53.5071 364.661 53.5087 364.59 53.5307C364.52 53.5527 364.458 53.594 364.41 53.65C363.057 55.2967 361.487 55.55 359.7 54.41C359.327 54.1767 359.147 54.28 359.16 54.72L359.34 60.5C359.347 60.7333 359.233 60.8267 359 60.78L358.55 60.69ZM284.81 168.64C283.95 162.32 284.62 156.183 286.82 150.23C286.827 150.21 286.82 150.197 286.8 150.19L286.56 150.08C286.493 150.053 286.443 150.07 286.41 150.13C284.05 154.103 282.673 158.39 282.28 162.99C282.267 163.157 282.177 163.23 282.01 163.21L281.73 163.18C281.39 163.147 281.24 162.96 281.28 162.62C282.07 155.16 284.69 151.89 287.42 146.13C287.567 145.823 287.55 145.523 287.37 145.23C273.1 121.95 256.36 103.07 230.77 92.42C220.75 88.25 210.5 87.59 201.02 91.62C200.962 91.6445 200.91 91.6829 200.87 91.7318C200.83 91.7807 200.802 91.8387 200.789 91.9008C200.776 91.9628 200.779 92.027 200.796 92.0879C200.814 92.1487 200.846 92.2044 200.89 92.25C214.29 106.1 223.02 123.91 228.93 141.79C236.363 164.29 241.407 187.803 244.06 212.33C244.153 213.243 244.56 213.96 245.28 214.48C261.85 226.54 284.14 231.83 303.97 225.74C334.99 216.2 349.83 176.81 355.76 148.24C358.127 136.833 359.68 129.21 360.42 125.37C360.507 124.93 360.333 124.77 359.9 124.89C342.6 129.54 323.53 123.16 311.67 110.06C311.47 109.84 311.297 109.86 311.15 110.12C305.23 120.513 299.013 130.717 292.5 140.73C290.1 144.43 288.48 147.62 287.64 150.3C285.787 156.207 285.143 162.33 285.71 168.67C285.73 168.823 285.66 168.91 285.5 168.93L285.22 168.96C284.98 168.987 284.843 168.88 284.81 168.64ZM318.57 94.6L312.2 108.32C312.149 108.427 312.131 108.546 312.147 108.663C312.163 108.781 312.213 108.891 312.29 108.98C323.18 122.06 343.88 128.99 360.27 123.55C360.408 123.505 360.53 123.422 360.622 123.311C360.714 123.199 360.772 123.064 360.79 122.92L363.33 103.84C363.377 103.493 363.227 103.347 362.88 103.4C359.927 103.86 356.96 104.257 353.98 104.59C341.013 106.03 329.547 102.623 319.58 94.37C319.504 94.3062 319.414 94.261 319.317 94.2379C319.221 94.2147 319.12 94.2142 319.022 94.2364C318.925 94.2586 318.833 94.3029 318.755 94.366C318.677 94.429 318.613 94.509 318.57 94.6ZM191.13 95.06C189.217 99.0067 186.713 101.483 183.62 102.49C183.247 102.61 183.16 102.837 183.36 103.17C185.18 106.21 190.58 114.99 193.91 116.07C194.06 116.119 194.219 116.132 194.374 116.108C194.53 116.083 194.677 116.022 194.804 115.929C194.931 115.836 195.034 115.714 195.105 115.574C195.176 115.433 195.212 115.277 195.21 115.12C195.15 108.19 193.23 101.58 191.27 95.07C191.237 94.9433 191.19 94.94 191.13 95.06ZM179.88 102.94C171.79 103 162.58 101.46 156.56 95.69C156.193 95.3433 156.117 95.3967 156.33 95.85C159.09 101.73 168.17 121.15 174.55 122.66C174.877 122.74 175.19 122.703 175.49 122.55C179.35 120.62 181.29 107.89 181.63 103.54C181.657 103.253 181.527 103.09 181.24 103.05C180.773 102.977 180.32 102.94 179.88 102.94ZM157.75 208.76C157.763 208.633 157.837 208.58 157.97 208.6C163.33 209.58 170.46 206.3 170.33 199.99C170.317 199.49 170.097 199.37 169.67 199.63C166.93 201.277 164.003 201.687 160.89 200.86C160.808 200.838 160.738 200.787 160.693 200.718C160.648 200.649 160.633 200.568 160.65 200.49L160.71 200.17C160.737 200.017 160.827 199.953 160.98 199.98C167.767 201.193 171.877 198.557 173.31 192.07C173.677 190.403 173.1 189.95 171.58 190.71C168.907 192.05 166.127 192.41 163.24 191.79C163.1 191.763 163.043 191.68 163.07 191.54L163.11 191.27C163.17 190.943 163.363 190.807 163.69 190.86C166.81 191.4 169.69 190.807 172.33 189.08C173.338 188.423 174.176 187.538 174.779 186.498C175.382 185.457 175.732 184.29 175.8 183.09L175.89 181.5C176.037 178.887 174.973 178.23 172.7 179.53C169.64 181.283 165.71 181.883 160.91 181.33C159.023 181.11 158.35 180.033 158.89 178.1C160.15 173.59 162.8 168.11 162.76 163.51C162.757 163.298 162.701 163.091 162.598 162.906C162.495 162.721 162.348 162.565 162.169 162.451C161.991 162.337 161.787 162.269 161.576 162.253C161.365 162.237 161.153 162.274 160.96 162.36C157.78 163.78 155.34 166.19 152.97 167.9C143.93 174.42 135.02 176.61 124.03 177.64C123.65 177.68 123.417 177.883 123.33 178.25C119.443 193.983 120.583 209.31 126.75 224.23C126.802 224.356 126.895 224.46 127.015 224.527C127.134 224.594 127.273 224.62 127.41 224.6C133.817 223.627 140.19 222.477 146.53 221.15C152.21 219.97 164.62 216.46 165.48 209.3C165.527 208.9 165.363 208.773 164.99 208.92C162.757 209.78 160.447 209.997 158.06 209.57C157.787 209.523 157.667 209.36 157.7 209.08L157.75 208.76ZM121.22 177.09L103.52 172.04C103.28 171.973 103.12 172.053 103.04 172.28C96.88 190.27 97.5 209.97 103.2 227.97C103.227 228.058 103.285 228.133 103.364 228.182C103.443 228.231 103.537 228.252 103.63 228.24L125.23 225.14C125.717 225.073 125.867 224.81 125.68 224.35C119.633 209.543 118.467 194.337 122.18 178.73C122.261 178.384 122.206 178.021 122.028 177.715C121.849 177.41 121.559 177.186 121.22 177.09Z" fill="#102348"/>
<path d="M169.9 4.39014C170.033 4.5768 170.273 4.75347 170.62 4.92014C169.153 7.36014 168.41 10.0368 168.39 12.9501C168.39 13.0768 168.326 13.1435 168.2 13.1501L167.93 13.1701C167.73 13.1835 167.62 13.0901 167.6 12.8901C167.273 9.72347 168.04 6.89014 169.9 4.39014Z" fill="white"/>
<path d="M190.33 33.3602L184.75 34.9202C184.534 34.9806 184.337 35.0955 184.178 35.2538C184.019 35.4121 183.904 35.6085 183.842 35.8243C183.781 36.0401 183.776 36.268 183.828 36.4861C183.88 36.7043 183.988 36.9054 184.14 37.0702C185.693 38.7502 187.53 40.0869 189.65 41.0802C189.73 41.1176 189.803 41.1709 189.862 41.2368C189.922 41.3028 189.968 41.3802 189.997 41.4642C190.025 41.5483 190.037 41.6373 190.031 41.726C190.025 41.8146 190 41.9011 189.96 41.9802L188.76 44.3202C188.693 44.4536 188.713 44.5769 188.82 44.6902L189 44.8902C189.053 44.9436 189.11 44.9436 189.17 44.8902C190.09 44.0569 190.62 43.0202 190.76 41.7802C190.779 41.6121 190.76 41.4421 190.704 41.2829C190.649 41.1236 190.558 40.9792 190.44 40.8602C189.666 40.0736 188.766 39.4469 187.74 38.9802C186.38 38.3602 186.34 37.9236 187.62 37.6702C189.493 37.2969 190.396 35.8602 190.33 33.3602C193.38 39.7402 195.63 43.3302 202.26 48.5002C205.973 51.3869 207.06 55.1269 205.52 59.7202C203.01 67.1902 196.49 70.9402 189.19 72.4602C184.26 73.4902 178.45 72.5402 173.44 71.3702C173.317 71.3404 173.189 71.3428 173.068 71.3772C172.947 71.4115 172.837 71.4767 172.748 71.5662C172.659 71.6558 172.595 71.7669 172.563 71.8885C172.53 72.0101 172.529 72.1382 172.56 72.2602C174.26 78.8802 180.03 82.4502 186.63 82.2302C186.806 82.225 186.979 82.2805 187.121 82.3876C187.263 82.4948 187.365 82.6473 187.41 82.8202C188.27 86.2902 190.48 90.6502 189.9 93.9802C188.84 100.11 183.85 102.09 177.97 101.97C170.86 101.81 153.3 98.2602 154.14 87.9102C154.64 81.7969 154.95 75.7269 155.07 69.7002C155.075 69.5268 155.141 69.3607 155.256 69.2309C155.371 69.1011 155.528 69.016 155.7 68.9902C156.966 68.8036 158.17 68.4202 159.31 67.8402C159.396 67.8002 159.426 67.7336 159.4 67.6402L159.33 67.3202C159.318 67.2614 159.293 67.2058 159.258 67.1572C159.222 67.1085 159.176 67.0678 159.124 67.0376C159.071 67.0075 159.012 66.9886 158.951 66.9821C158.89 66.9757 158.828 66.9819 158.77 67.0002C151.56 69.3702 141.81 68.5802 137.57 61.4502C135.37 57.7402 135.7 52.4002 139.24 49.7002C144.3 45.8402 151.42 49.4902 155.94 52.1602C159.16 54.0702 162.04 54.1502 162.71 49.7302C163.476 44.7236 164.936 39.9402 167.09 35.3802C167.136 35.2736 167.213 35.2402 167.32 35.2802L167.33 35.2902C167.436 35.3302 167.476 35.4036 167.45 35.5102C167.123 36.7502 167.143 38.0069 167.51 39.2802C167.58 39.528 167.716 39.752 167.904 39.9282C168.092 40.1044 168.324 40.2263 168.576 40.2807C168.827 40.3352 169.089 40.3202 169.333 40.2373C169.577 40.1544 169.793 40.0068 169.96 39.8102L176.81 31.7702C176.958 31.5951 177.055 31.3827 177.092 31.1556C177.129 30.9285 177.104 30.6951 177.02 30.4802C176.42 29.0202 174.62 29.3202 173.31 29.2402C173.083 29.2269 173.07 29.1669 173.27 29.0602C176.17 27.5002 178.73 26.0102 181.92 25.0302C182.406 24.8836 182.516 25.0269 182.25 25.4602L181.58 26.5502C181.428 26.7991 181.349 27.0853 181.35 27.3768C181.352 27.6682 181.435 27.9534 181.59 28.2005C181.744 28.4475 181.965 28.6466 182.226 28.7755C182.488 28.9044 182.78 28.958 183.07 28.9302L187.72 28.4602C188.066 28.4269 188.31 28.5702 188.45 28.8902L190.33 33.3602ZM172.54 43.8702C174.96 44.1802 179.1 43.2102 180.76 41.1702C181.028 40.8426 181.181 40.4362 181.198 40.0123C181.214 39.5884 181.092 39.17 180.85 38.8202L180.27 37.9902C179.696 37.1702 179.046 37.1036 178.32 37.7902C176.46 39.5369 174.43 41.0436 172.23 42.3102C170.803 43.1369 170.906 43.6569 172.54 43.8702ZM192.28 50.5202C189.04 52.7102 185.8 53.6002 183.43 49.4802C183.39 49.4069 183.33 49.3636 183.25 49.3502C183.156 49.3302 183.063 49.3069 182.97 49.2802C182.929 49.2719 182.887 49.2734 182.847 49.2846C182.807 49.2959 182.77 49.3166 182.74 49.345C182.709 49.3734 182.686 49.4087 182.672 49.4479C182.658 49.4871 182.654 49.529 182.66 49.5702C183.43 54.8302 189.94 55.2502 192.73 51.2302C192.836 51.0769 192.873 50.9136 192.84 50.7402C192.76 50.3869 192.573 50.3136 192.28 50.5202ZM155.34 59.6002C152.59 55.0902 146.91 52.7402 141.88 54.8202C141.773 54.8669 141.74 54.9436 141.78 55.0502L141.86 55.3002C141.946 55.5602 142.123 55.6569 142.39 55.5902C147.456 54.3836 151.456 55.8702 154.39 60.0502C154.563 60.2902 154.773 60.3269 155.02 60.1602L155.25 60.0002C155.41 59.9002 155.44 59.7669 155.34 59.6002Z" fill="white"/>
<path d="M190.33 33.3599C190.397 35.8599 189.494 37.2965 187.62 37.6699C186.34 37.9232 186.38 38.3599 187.74 38.9799C188.767 39.4465 189.667 40.0732 190.44 40.8599C190.559 40.9788 190.649 41.1233 190.705 41.2825C190.76 41.4418 190.779 41.6117 190.76 41.7799C190.62 43.0199 190.09 44.0565 189.17 44.8899C189.11 44.9432 189.054 44.9432 189 44.8899L188.82 44.6899C188.714 44.5765 188.694 44.4532 188.76 44.3199L189.96 41.9799C190.001 41.9008 190.025 41.8143 190.031 41.7256C190.038 41.6369 190.026 41.5479 189.997 41.4638C189.968 41.3798 189.922 41.3024 189.863 41.2365C189.803 41.1705 189.731 41.1172 189.65 41.0799C187.53 40.0865 185.694 38.7499 184.14 37.0699C183.988 36.905 183.881 36.7039 183.829 36.4857C183.777 36.2676 183.781 36.0397 183.843 35.8239C183.904 35.6081 184.02 35.4117 184.178 35.2534C184.337 35.0951 184.534 34.9803 184.75 34.9199L190.33 33.3599Z" fill="#102348"/>
<path d="M180.76 41.1702C179.1 43.2102 174.96 44.1802 172.54 43.8702C170.907 43.6569 170.803 43.1369 172.23 42.3102C174.43 41.0436 176.46 39.5369 178.32 37.7902C179.047 37.1036 179.697 37.1702 180.27 37.9902L180.85 38.8202C181.092 39.17 181.214 39.5884 181.198 40.0123C181.182 40.4362 181.028 40.8426 180.76 41.1702Z" fill="#102348"/>
<path d="M337.55 54.5801C334.48 51.2801 333.03 45.2 338.97 43.64C339.863 43.4067 340.646 43.6934 341.32 44.5C342.96 46.46 341.92 52.9 340.09 54.66C339.919 54.8237 339.717 54.9515 339.496 55.0362C339.275 55.1209 339.039 55.1607 338.803 55.1532C338.566 55.1458 338.334 55.0913 338.119 54.9928C337.903 54.8944 337.71 54.7541 337.55 54.5801Z" fill="white"/>
<path d="M347.92 53.4299C347.762 53.6799 347.536 53.879 347.268 54.0032C347 54.1274 346.702 54.1714 346.41 54.1299C343.62 53.7099 343.1 49.9099 343.38 47.4099C343.6 45.4499 344.686 44.3699 346.64 44.1699L347.28 44.0999C347.636 44.0633 347.996 44.1043 348.335 44.2202C348.674 44.336 348.984 44.524 349.243 44.7711C349.503 45.0181 349.706 45.3185 349.838 45.6515C349.97 45.9845 350.029 46.3421 350.01 46.6999C349.883 49.1599 349.186 51.4032 347.92 53.4299Z" fill="white"/>
<path d="M352.88 45.3399C354.546 44.4732 356.013 44.6366 357.28 45.8299C357.506 46.0432 357.63 46.3099 357.65 46.6299C357.81 49.0999 357.3 52.2699 355.2 53.2699C354.715 53.4983 354.163 53.541 353.651 53.3897C353.138 53.2385 352.7 52.9039 352.42 52.4499C351.12 50.3599 349.98 46.8499 352.88 45.3399Z" fill="white"/>
<path d="M359.91 52.3301L358.93 49.2301C358.845 48.9609 358.822 48.6761 358.862 48.3967C358.901 48.1173 359.003 47.8503 359.159 47.6153C359.316 47.3803 359.523 47.1833 359.765 47.0388C360.007 46.8943 360.279 46.8059 360.56 46.7801L361.95 46.6501C362.319 46.615 362.69 46.6892 363.017 46.8635C363.345 47.0377 363.613 47.3043 363.79 47.6301L364.7 49.3101C364.882 49.6467 364.957 50.0305 364.916 50.4108C364.875 50.7911 364.72 51.15 364.47 51.4401L363.15 52.9901C362.931 53.2467 362.647 53.4399 362.328 53.5498C362.009 53.6596 361.666 53.682 361.336 53.6146C361.005 53.5473 360.698 53.3926 360.448 53.1667C360.197 52.9408 360.011 52.652 359.91 52.3301Z" fill="white"/>
<path d="M183.43 49.4802C185.8 53.6002 189.04 52.7102 192.28 50.5202C192.573 50.3136 192.76 50.3869 192.84 50.7402C192.873 50.9136 192.836 51.0769 192.73 51.2302C189.94 55.2502 183.43 54.8302 182.66 49.5702C182.654 49.529 182.658 49.4871 182.672 49.4479C182.686 49.4087 182.709 49.3734 182.74 49.345C182.77 49.3166 182.807 49.2959 182.847 49.2846C182.887 49.2734 182.929 49.2719 182.97 49.2802C183.063 49.3069 183.156 49.3302 183.25 49.3502C183.33 49.3636 183.39 49.4069 183.43 49.4802Z" fill="#102348"/>
<path d="M359.34 60.5001L359.16 54.7201C359.147 54.2801 359.327 54.1767 359.7 54.4101C361.487 55.5501 363.057 55.2967 364.41 53.6501C364.458 53.5941 364.52 53.5527 364.59 53.5308C364.661 53.5088 364.735 53.5071 364.807 53.526C364.878 53.5448 364.942 53.5833 364.992 53.6371C365.042 53.6909 365.076 53.7578 365.09 53.8301C365.277 54.9434 365.39 56.3334 365.43 58.0001C365.823 72.4601 365.213 86.9367 363.6 101.43C363.577 101.652 363.482 101.862 363.328 102.026C363.175 102.19 362.972 102.3 362.75 102.34C345.88 105.38 332.89 104.26 319.45 93.0101C319.303 92.8847 319.2 92.7164 319.153 92.5283C319.107 92.3402 319.119 92.1416 319.19 91.9601C324.103 79.4134 323.79 67.0167 318.25 54.7701C318.171 54.5984 318.136 54.4094 318.149 54.2207C318.163 54.032 318.224 53.8498 318.326 53.6911C318.429 53.5323 318.571 53.4022 318.737 53.3128C318.904 53.2235 319.091 53.1778 319.28 53.1801C325.07 53.2101 327.75 57.6901 330.18 62.1201C331.007 63.6201 331.983 65.0667 333.11 66.4601C337.32 71.6901 338.97 78.6901 339.16 85.2101C339.16 85.3434 339.23 85.4167 339.37 85.4301L339.87 85.4601C339.896 85.4629 339.923 85.4601 339.949 85.4518C339.974 85.4435 339.998 85.4299 340.017 85.412C340.037 85.3941 340.053 85.3722 340.064 85.3477C340.075 85.3232 340.08 85.2968 340.08 85.2701C340.193 77.3834 337.8 70.4234 332.9 64.3901C332.653 64.0767 332.557 63.7234 332.61 63.3301L334.15 52.2801C334.158 52.2306 334.182 52.185 334.218 52.1504C334.255 52.1158 334.301 52.094 334.351 52.0884C334.401 52.0827 334.451 52.0935 334.494 52.1191C334.537 52.1447 334.571 52.1836 334.59 52.2301C335.7 55.3801 338.23 58.2201 341.46 55.2701C341.84 54.9234 342.027 55.0067 342.02 55.5201L341.91 61.2701C341.91 61.3767 341.963 61.4401 342.07 61.4601L342.45 61.5301C342.508 61.5401 342.567 61.5376 342.624 61.5229C342.68 61.5081 342.733 61.4813 342.779 61.4443C342.824 61.4074 342.861 61.3611 342.887 61.3086C342.913 61.2561 342.928 61.1986 342.93 61.1401L343.09 53.9401C343.103 53.5067 343.243 53.4601 343.51 53.8001L344.02 54.4401C344.267 54.7467 344.563 54.9901 344.91 55.1701C346.683 56.0701 348.12 55.6101 349.22 53.7901C349.707 52.9767 349.96 53.0434 349.98 53.9901L350.14 61.2801C350.14 61.4734 350.237 61.5901 350.43 61.6301L350.7 61.6801C351.02 61.7467 351.177 61.6167 351.17 61.2901L351.06 53.5301C351.053 53.0434 351.217 52.9767 351.55 53.3301C353.23 55.1201 355.78 56.0801 357.12 53.3401C357.161 53.2503 357.231 53.1768 357.318 53.1315C357.406 53.0861 357.506 53.0715 357.603 53.0899C357.7 53.1084 357.788 53.1588 357.852 53.2332C357.917 53.3076 357.955 53.4016 357.96 53.5001L358.38 60.4901C358.387 60.5967 358.443 60.6634 358.55 60.6901L359 60.7801C359.233 60.8267 359.347 60.7334 359.34 60.5001Z" fill="white"/>
<path d="M141.88 54.82C146.91 52.74 152.59 55.09 155.34 59.6C155.44 59.7667 155.41 59.9 155.25 60L155.02 60.16C154.773 60.3267 154.563 60.29 154.39 60.05C151.457 55.87 147.457 54.3834 142.39 55.59C142.123 55.6567 141.947 55.56 141.86 55.3L141.78 55.05C141.74 54.9434 141.773 54.8667 141.88 54.82Z" fill="#102348"/>
<path d="M126.99 138.3L101.6 129.52C101.486 129.481 101.365 129.464 101.244 129.471C101.123 129.479 101.005 129.51 100.897 129.563C100.788 129.616 100.691 129.689 100.611 129.78C100.531 129.87 100.469 129.976 100.43 130.09L87.8899 166.34C84.9166 165.74 81.8033 165.07 78.5499 164.33C77.5099 164.09 75.3499 164.19 74.5099 163.43C69.7699 159.17 64.2166 156.403 57.8499 155.13C57.6499 155.09 57.5466 155.17 57.5399 155.37L57.5299 155.75C57.5233 155.87 57.5766 155.947 57.6899 155.98C62.9399 157.57 68.2399 159.32 72.4099 162.99C72.7299 163.27 72.6766 163.39 72.2499 163.35C63.7633 162.543 55.3533 163.01 47.0199 164.75C46.8733 164.783 46.8133 164.87 46.8399 165.01L46.8999 165.28C46.9599 165.593 47.1499 165.72 47.4699 165.66C59.2899 163.35 68.7299 163.59 78.9399 165.78C86.5933 167.427 94.1566 169.367 101.63 171.6C101.997 171.707 102.117 171.94 101.99 172.3C95.8199 190.04 96.5599 209.9 102.05 227.7C102.157 228.047 102.033 228.24 101.68 228.28C86.3266 230.26 70.9366 230.957 55.5099 230.37C41.0399 229.82 28.2199 227.23 16.4299 217.29C7.29993 209.58 3.03993 200.28 1.38993 188.76C-0.490067 175.77 5.34993 161.62 13.0399 150.99C29.7933 127.83 50.5266 109.327 75.2399 95.4801C90.3399 87.0201 109.36 80.3301 126.01 88.9101C127.477 89.6701 128.977 91.0401 130.51 93.0201C138.61 103.5 139.06 117.38 134.88 129.53C134.753 129.897 134.503 130.02 134.13 129.9L131.66 129.09C131.307 128.976 130.924 129.005 130.591 129.172C130.259 129.338 130.004 129.628 129.88 129.98L126.99 138.3Z" fill="white"/>
<path d="M284.81 168.64C284.844 168.88 284.98 168.987 285.22 168.96L285.5 168.93C285.66 168.91 285.73 168.824 285.71 168.67C285.144 162.33 285.787 156.207 287.64 150.3C288.48 147.62 290.1 144.43 292.5 140.73C299.014 130.717 305.23 120.514 311.15 110.12C311.297 109.86 311.47 109.84 311.67 110.06C323.53 123.16 342.6 129.54 359.9 124.89C360.334 124.77 360.507 124.93 360.42 125.37C359.68 129.21 358.127 136.834 355.76 148.24C349.83 176.81 334.99 216.2 303.97 225.74C284.14 231.83 261.85 226.54 245.28 214.48C244.56 213.96 244.154 213.243 244.06 212.33C241.407 187.804 236.364 164.29 228.93 141.79C223.02 123.91 214.29 106.1 200.89 92.2502C200.846 92.2045 200.814 92.1489 200.797 92.088C200.779 92.0272 200.776 91.963 200.789 91.9009C200.802 91.8389 200.83 91.7809 200.87 91.732C200.91 91.6831 200.962 91.6447 201.02 91.6202C210.5 87.5902 220.75 88.2502 230.77 92.4202C256.36 103.07 273.1 121.95 287.37 145.23C287.55 145.523 287.567 145.824 287.42 146.13C284.69 151.89 282.07 155.16 281.28 162.62C281.24 162.96 281.39 163.147 281.73 163.18L282.01 163.21C282.177 163.23 282.267 163.157 282.28 162.99C282.674 158.39 284.05 154.104 286.41 150.13C286.444 150.07 286.494 150.053 286.56 150.08L286.8 150.19C286.82 150.197 286.827 150.21 286.82 150.23C284.62 156.183 283.95 162.32 284.81 168.64Z" fill="white"/>
<path d="M178.5 120.84L182.27 128.55C182.457 128.937 182.764 129.14 183.19 129.16C186.45 129.347 189.55 128.727 192.49 127.3C192.634 127.233 192.758 127.13 192.851 127C192.943 126.871 193.002 126.719 193.02 126.56L194.09 117.33C195.504 117.21 196.22 116.347 196.24 114.74C196.31 107.45 193.76 99.4402 191.6 92.5402C191.58 92.4768 191.575 92.4095 191.586 92.3438C191.597 92.2781 191.624 92.2156 191.664 92.1614C191.703 92.1071 191.755 92.0625 191.815 92.031C191.876 91.9996 191.942 91.9822 192.01 91.9802L198.24 91.9002C198.574 91.8935 198.864 92.0002 199.11 92.2202C213.43 104.96 222.24 125.24 228.08 143.05C235.854 166.717 240.754 189.034 242.78 210C244.434 227.047 245.524 244.114 246.05 261.2C246.056 261.439 245.98 261.673 245.834 261.861C245.688 262.049 245.482 262.179 245.25 262.23C194.82 273.54 141.16 274.28 90.7102 262.31C90.5409 262.267 90.3906 262.169 90.2822 262.031C90.1738 261.894 90.1134 261.725 90.1102 261.55L89.9902 244.73C90.2769 244.544 90.4669 244.527 90.5602 244.68C108.38 250.854 126.15 257.02 143.87 263.18C143.987 263.221 144.111 263.239 144.235 263.232C144.358 263.225 144.479 263.194 144.591 263.14C144.702 263.086 144.802 263.01 144.884 262.918C144.967 262.825 145.03 262.717 145.07 262.6L160.62 217.68C160.974 216.96 161.92 216.054 163.46 214.96C165.307 213.647 166.304 211.517 166.45 208.57C166.46 208.408 166.505 208.25 166.583 208.108C166.661 207.966 166.769 207.844 166.9 207.75C169.947 205.637 171.404 202.72 171.27 199C171.257 198.64 171.37 198.324 171.61 198.05C173.75 195.63 174.574 192.81 174.08 189.59C174.034 189.277 174.104 188.99 174.29 188.73C177 184.94 178.27 180.56 174.88 176.99L181.3 158.31C181.392 158.041 181.373 157.747 181.248 157.49C181.122 157.234 180.9 157.036 180.63 156.94L155.17 148.1L157.98 139.71C158.104 139.343 158.076 138.942 157.904 138.594C157.732 138.245 157.428 137.978 157.06 137.85L136.2 130.62C135.867 130.507 135.754 130.284 135.86 129.95C140.39 115.44 139.53 101.85 129.53 90.1702C129.27 89.8702 129.337 89.7235 129.73 89.7302L151.98 90.2602C152.3 90.2669 152.527 90.4135 152.66 90.7002C156.387 98.6402 160.47 106.364 164.91 113.87C167.3 117.92 174.07 128.58 178.5 120.84ZM208.57 165.54C205.01 153.09 199.06 141.07 193.38 128.87C193.2 128.484 192.917 128.377 192.53 128.55C189.697 129.83 186.727 130.417 183.62 130.31C183.194 130.297 183.014 130.504 183.08 130.93C184.847 141.717 185.634 152.574 185.44 163.5C185.147 180.214 184.05 196.874 182.15 213.48C182.126 213.69 182.156 213.903 182.239 214.097C182.321 214.292 182.452 214.462 182.62 214.59L202.33 229.84C202.373 229.874 202.423 229.898 202.475 229.912C202.528 229.926 202.583 229.929 202.637 229.922C202.691 229.915 202.743 229.896 202.79 229.869C202.837 229.841 202.878 229.804 202.91 229.76L216.83 211.25C217.049 210.962 217.149 210.597 217.11 210.23C215.61 195.097 212.764 180.2 208.57 165.54Z" fill="white"/>
<path d="M312.2 108.32L318.57 94.6001C318.614 94.5091 318.677 94.4291 318.755 94.366C318.834 94.303 318.925 94.2587 319.023 94.2365C319.12 94.2143 319.221 94.2148 319.318 94.238C319.414 94.2611 319.504 94.3063 319.58 94.3701C329.547 102.623 341.014 106.03 353.98 104.59C356.96 104.257 359.927 103.86 362.88 103.4C363.227 103.347 363.377 103.493 363.33 103.84L360.79 122.92C360.773 123.064 360.714 123.199 360.622 123.311C360.53 123.423 360.408 123.505 360.27 123.55C343.88 128.99 323.18 122.06 312.29 108.98C312.213 108.891 312.163 108.781 312.147 108.663C312.131 108.546 312.15 108.427 312.2 108.32ZM356.67 115.33C356.67 114.606 356.383 113.912 355.871 113.4C355.359 112.888 354.664 112.6 353.94 112.6C353.216 112.6 352.522 112.888 352.01 113.4C351.498 113.912 351.21 114.606 351.21 115.33C351.21 116.054 351.498 116.749 352.01 117.26C352.522 117.772 353.216 118.06 353.94 118.06C354.664 118.06 355.359 117.772 355.871 117.26C356.383 116.749 356.67 116.054 356.67 115.33Z" fill="white"/>
<path d="M191.13 95.0602C191.19 94.9402 191.236 94.9436 191.27 95.0702C193.23 101.58 195.15 108.19 195.21 115.12C195.211 115.278 195.175 115.433 195.105 115.574C195.034 115.715 194.931 115.836 194.804 115.929C194.677 116.022 194.529 116.083 194.374 116.108C194.218 116.132 194.059 116.12 193.91 116.07C190.58 114.99 185.18 106.21 183.36 103.17C183.16 102.837 183.246 102.61 183.62 102.49C186.713 101.484 189.216 99.0069 191.13 95.0602Z" fill="white"/>
<path d="M179.88 102.94C180.32 102.94 180.773 102.977 181.24 103.05C181.526 103.09 181.656 103.254 181.63 103.54C181.29 107.89 179.35 120.62 175.49 122.55C175.19 122.704 174.876 122.74 174.55 122.66C168.17 121.15 159.09 101.73 156.33 95.8502C156.116 95.3968 156.193 95.3435 156.56 95.6902C162.58 101.46 171.79 103 179.88 102.94Z" fill="white"/>
<path d="M194.09 117.33L193.02 126.56C193.002 126.719 192.943 126.871 192.85 127C192.758 127.13 192.634 127.233 192.49 127.3C189.55 128.727 186.45 129.347 183.19 129.16C182.763 129.14 182.457 128.937 182.27 128.55L178.5 120.84C180.673 115.82 181.997 110.604 182.47 105.19C182.557 104.204 182.847 104.14 183.34 105C185.687 109.087 188.597 112.894 192.07 116.42C192.31 116.667 192.983 116.97 194.09 117.33Z" fill="#D9C6F4"/>
<path d="M353.94 118.06C355.448 118.06 356.67 116.838 356.67 115.33C356.67 113.822 355.448 112.6 353.94 112.6C352.432 112.6 351.21 113.822 351.21 115.33C351.21 116.838 352.432 118.06 353.94 118.06Z" fill="#102348"/>
<path d="M193.38 128.87C199.06 141.07 205.01 153.09 208.57 165.54C212.763 180.2 215.61 195.097 217.11 210.23C217.148 210.597 217.048 210.962 216.83 211.25L202.91 229.76C202.877 229.804 202.836 229.841 202.79 229.869C202.743 229.896 202.691 229.915 202.637 229.922C202.583 229.929 202.528 229.926 202.475 229.912C202.422 229.898 202.373 229.874 202.33 229.84L182.62 214.59C182.452 214.462 182.321 214.292 182.238 214.097C182.156 213.903 182.125 213.69 182.15 213.48C184.05 196.874 185.146 180.214 185.44 163.5C185.633 152.574 184.846 141.717 183.08 130.93C183.013 130.504 183.193 130.297 183.62 130.31C186.726 130.417 189.696 129.83 192.53 128.55C192.916 128.377 193.2 128.484 193.38 128.87Z" fill="#D9C6F4"/>
<path d="M126.99 138.3L123.49 148.48C123.223 149.253 123.476 149.777 124.25 150.05L149.99 158.97C150.278 159.072 150.596 159.054 150.873 158.921C151.151 158.788 151.365 158.551 151.47 158.26L155.17 148.1L180.63 156.94C180.9 157.036 181.122 157.234 181.247 157.49C181.373 157.747 181.391 158.041 181.3 158.31L174.88 176.99C170.68 180.17 167.1 180.45 161.98 180.59C161.293 180.603 160.79 180.47 160.47 180.19C160.15 179.905 159.92 179.532 159.81 179.118C159.7 178.704 159.714 178.266 159.85 177.86C161.35 173.4 164.12 167.72 163.72 163.11C163.694 162.818 163.606 162.534 163.459 162.28C163.313 162.025 163.113 161.806 162.872 161.638C162.632 161.469 162.358 161.355 162.069 161.303C161.78 161.252 161.483 161.265 161.2 161.34C159.2 161.87 157.61 162.82 155.87 164.31C148.03 171.01 138.82 174.993 128.24 176.26C125.5 176.59 123.54 176.7 120.8 175.9C110.406 172.847 99.9897 169.883 89.5497 167.01C89.0697 166.883 88.5163 166.66 87.8896 166.34L100.43 130.09C100.469 129.976 100.531 129.87 100.611 129.78C100.691 129.689 100.788 129.616 100.897 129.563C101.005 129.51 101.123 129.479 101.244 129.471C101.364 129.464 101.485 129.481 101.6 129.52L126.99 138.3Z" fill="#A2D3FF"/>
<path d="M157.75 208.76L157.7 209.08C157.667 209.36 157.787 209.523 158.06 209.57C160.447 209.997 162.757 209.78 164.99 208.92C165.363 208.773 165.527 208.9 165.48 209.3C164.62 216.46 152.21 219.97 146.53 221.15C140.19 222.477 133.817 223.627 127.41 224.6C127.273 224.62 127.134 224.594 127.015 224.527C126.895 224.46 126.802 224.356 126.75 224.23C120.583 209.31 119.443 193.983 123.33 178.25C123.417 177.883 123.65 177.68 124.03 177.64C135.02 176.61 143.93 174.42 152.97 167.9C155.34 166.19 157.78 163.78 160.96 162.36C161.153 162.274 161.365 162.237 161.576 162.253C161.787 162.269 161.991 162.337 162.169 162.451C162.348 162.565 162.495 162.721 162.598 162.906C162.701 163.091 162.757 163.298 162.76 163.51C162.8 168.11 160.15 173.59 158.89 178.1C158.35 180.033 159.023 181.11 160.91 181.33C165.71 181.883 169.64 181.283 172.7 179.53C174.973 178.23 176.037 178.887 175.89 181.5L175.8 183.09C175.732 184.29 175.382 185.457 174.779 186.497C174.177 187.538 173.338 188.423 172.33 189.08C169.69 190.807 166.81 191.4 163.69 190.86C163.363 190.807 163.17 190.943 163.11 191.27L163.07 191.54C163.043 191.68 163.1 191.763 163.24 191.79C166.127 192.41 168.907 192.05 171.58 190.71C173.1 189.95 173.677 190.403 173.31 192.07C171.877 198.557 167.767 201.193 160.98 199.98C160.827 199.953 160.737 200.017 160.71 200.17L160.65 200.49C160.633 200.568 160.649 200.649 160.693 200.718C160.738 200.787 160.808 200.838 160.89 200.86C164.003 201.687 166.93 201.277 169.67 199.63C170.097 199.37 170.317 199.49 170.33 199.99C170.46 206.3 163.33 209.58 157.97 208.6C157.837 208.58 157.763 208.633 157.75 208.76Z" fill="white"/>
<path d="M121.22 177.09C121.56 177.186 121.849 177.409 122.028 177.715C122.207 178.02 122.261 178.384 122.18 178.73C118.467 194.336 119.634 209.543 125.68 224.35C125.867 224.81 125.717 225.073 125.23 225.14L103.63 228.24C103.537 228.252 103.443 228.231 103.364 228.182C103.286 228.132 103.228 228.057 103.2 227.97C97.5003 209.97 96.8803 190.27 103.04 172.28C103.12 172.053 103.28 171.973 103.52 172.04L121.22 177.09ZM114.21 218.09C114.21 217.366 113.923 216.671 113.411 216.159C112.899 215.647 112.204 215.36 111.48 215.36C110.756 215.36 110.062 215.647 109.55 216.159C109.038 216.671 108.75 217.366 108.75 218.09C108.75 218.814 109.038 219.508 109.55 220.02C110.062 220.532 110.756 220.82 111.48 220.82C112.204 220.82 112.899 220.532 113.411 220.02C113.923 219.508 114.21 218.814 114.21 218.09Z" fill="white"/>
<path d="M111.48 220.82C112.988 220.82 114.21 219.598 114.21 218.09C114.21 216.582 112.988 215.36 111.48 215.36C109.972 215.36 108.75 216.582 108.75 218.09C108.75 219.598 109.972 220.82 111.48 220.82Z" fill="#102348"/>
<path d="M160.62 217.68L145.07 262.6C145.03 262.717 144.966 262.825 144.884 262.918C144.802 263.01 144.702 263.086 144.591 263.14C144.479 263.194 144.358 263.225 144.234 263.232C144.111 263.239 143.987 263.221 143.87 263.18C126.15 257.02 108.38 250.854 90.56 244.68C90.4666 244.527 90.2766 244.544 89.99 244.73C90.05 244.444 89.71 244.25 88.97 244.15L64.86 235.76C64.732 235.716 64.614 235.648 64.5128 235.558C64.4116 235.468 64.3293 235.359 64.2707 235.237C64.2121 235.115 64.1783 234.983 64.1713 234.848C64.1643 234.713 64.1843 234.577 64.23 234.45L65.23 231.68C85.42 231.05 105.53 229.59 123 226.52C135.1 224.394 143.017 222.897 146.75 222.03C150.09 221.25 154.713 219.8 160.62 217.68Z" fill="#A2D3FF"/>
</svg>
