<svg width="367" height="81" viewBox="0 0 367 81" fill="none" xmlns="http://www.w3.org/2000/svg">
<path fill-rule="evenodd" clip-rule="evenodd" d="M366.344 58.9526C366.095 63.4313 364.73 63.813 364.428 66.9704C364.287 68.4348 364.295 69.9479 363.715 71.2998C361.995 75.3092 358.421 75.5336 350.97 66.8012C349.537 65.121 339.601 67.0638 338.064 66.8012C275.512 63.0805 147.145 76.8005 51.6274 73.8886C43.4724 74.3995 0.413781 92.4469 0 68.9963L0.413769 45.5471C0.775237 37.5404 1.69236 31.7585 3.10112 27.7194C5.61443 20.5135 16.1387 15.8385 23.4936 13.8019C68.0089 1.47563 234.291 -7.50819 346.13 8.98446C353.93 9.5876 368.199 25.6842 366.919 48.6337L366.344 58.9526Z" fill="#F8ED3A"/>
</svg>
