<svg width="245" height="81" viewBox="0 0 245 81" fill="none" xmlns="http://www.w3.org/2000/svg">
<path fill-rule="evenodd" clip-rule="evenodd" d="M244.562 58.9526C244.384 63.7533 243.35 63.8467 243.251 67.6973C243.225 68.6865 243.2 69.6859 242.975 70.6496C241.898 75.2622 239.529 75.9842 234.299 66.8012C233.543 65.4743 229.248 66.407 226.969 66.7285C226.116 66.849 225.278 66.763 224.418 66.6949C182.215 63.3529 97.5933 76.7714 34.4651 73.8886C29.0211 74.3995 0.27623 92.4469 0 68.9963L0.276222 45.5471C0.460754 39.4242 0.86221 34.6024 1.46148 30.8661C2.73934 22.8989 11.9743 14.8962 19.6283 12.3416C54.2148 0.798306 159.391 -6.84913 231.068 8.98446C236.275 9.5876 245.8 25.6842 244.946 48.6337L244.562 58.9526Z" fill="#F8ED3A"/>
</svg>
