<svg width="161" height="81" viewBox="0 0 161 81" fill="none" xmlns="http://www.w3.org/2000/svg">
<path fill-rule="evenodd" clip-rule="evenodd" d="M160.712 58.9526C160.581 64.3054 159.752 63.8059 159.854 69.1875C159.249 75.0256 157.742 76.8839 153.968 66.8012C153.57 65.7368 151.674 66.1264 150.167 66.4882C148.939 66.7829 147.69 66.7083 146.434 66.5787C118.752 63.7215 65.1082 76.3828 24.332 73.9963C23.2064 73.9304 22.0871 73.9948 21.0984 74.5371C15.388 77.6691 0.162878 90.0383 0 68.9963L0.181517 45.5471C0.280791 40.5346 0.475603 36.394 0.759063 33.0071C1.45999 24.6321 8.76566 13.877 16.5404 10.6855C42.0889 0.197961 105.953 -5.97416 150.714 8.61009C151.473 8.85771 152.285 9.03033 152.881 9.56224C156.387 12.6878 161.473 27.8507 160.965 48.6337L160.712 58.9526Z" fill="#F8ED3A"/>
</svg>
