<svg width="353" height="458" viewBox="0 0 353 458" fill="none" xmlns="http://www.w3.org/2000/svg">
<path fill-rule="evenodd" clip-rule="evenodd" d="M247.119 -134C230.338 -113.68 214.694 -92.6551 202.973 -72.8627C182.056 -37.544 163.703 10.614 149.954 52.4362C133.813 101.534 164.945 151.926 215.611 162.131C253.245 169.71 299.582 178.515 349.02 186.7C379.097 191.679 414.878 188.734 449 182.681V591H64.2678C91.896 567.18 123.297 539.478 158.175 507.763C216.509 454.718 262.262 355.008 286.596 293.445C299.382 261.096 289.834 225.17 259.411 208.307C216.02 184.256 139.508 152.751 18.5061 136.49C-24.4592 130.717 -62.5587 127.52 -96 126.094V-134H247.119Z" fill="url(#paint0_linear_397_1477)"/>
<defs>
<linearGradient id="paint0_linear_397_1477" x1="-96" y1="-95.5" x2="515" y2="591" gradientUnits="userSpaceOnUse">
<stop stop-color="#5BCFFF"/>
<stop offset="1" stop-color="#AAE6FF"/>
</linearGradient>
</defs>
</svg>
