<svg width="65" height="42" viewBox="0 0 65 42" fill="none" xmlns="http://www.w3.org/2000/svg">
<g filter="url(#filter0_d_3911_6969)">
<path d="M20.726 8.61472C20.8317 8.37757 21.1683 8.37757 21.274 8.61472L24.7972 16.5186C24.8408 16.6164 24.9332 16.6836 25.0397 16.6948L33.6455 17.6031C33.9037 17.6304 34.0077 17.9505 33.8148 18.1243L27.3865 23.9175C27.3069 23.9892 27.2716 24.0978 27.2939 24.2026L29.0893 32.6679C29.1432 32.9219 28.8709 33.1197 28.646 32.99L21.1499 28.6665C21.0571 28.6129 20.9429 28.6129 20.8501 28.6665L13.354 32.99C13.1291 33.1197 12.8568 32.9219 12.9106 32.6679L14.7061 24.2026C14.7284 24.0978 14.6931 23.9892 14.6135 23.9175L8.18517 18.1243C7.99229 17.9505 8.09631 17.6304 8.35451 17.6031L16.9603 16.6948C17.0668 16.6836 17.1592 16.6164 17.2028 16.5186L20.726 8.61472Z" fill="#F8ED3A"/>
<path d="M22.1874 8.20758C21.7293 7.17995 20.2707 7.17995 19.8126 8.20758L16.4538 15.7427L8.24955 16.6086C7.13066 16.7267 6.67992 18.114 7.51571 18.8672L13.6441 24.3901L11.9324 32.4604C11.699 33.561 12.879 34.4184 13.8536 33.8562L21 29.7344L28.1464 33.8562C29.121 34.4184 30.301 33.561 30.0676 32.4604L28.3559 24.3901L34.4843 18.8672C35.3201 18.114 34.8693 16.7267 33.7504 16.6086L25.5462 15.7427L22.1874 8.20758Z" stroke="white" stroke-width="2"/>
</g>
<g filter="url(#filter1_d_3911_6969)">
<mask id="path-3-outside-1_3911_6969" maskUnits="userSpaceOnUse" x="36" y="14" width="24" height="16" fill="black">
<rect fill="white" x="36" y="14" width="24" height="16"/>
<path d="M42.3354 26.657C43.6954 26.657 44.7664 25.688 44.7664 24.039C44.7664 22.203 43.5084 21.336 42.2844 21.336C41.1284 21.336 40.3124 21.897 40.0574 22.628L38.1534 22.526L38.9694 15.675H46.3474V17.46H40.6354L40.2444 20.554C40.8394 20.078 41.6894 19.789 42.7944 19.789C44.9024 19.789 46.8574 21.234 46.8574 24.005C46.8574 26.759 44.7494 28.221 42.3014 28.221C39.4454 28.221 37.9494 26.351 37.8134 24.226H39.7684C39.9554 25.654 40.7034 26.657 42.3354 26.657ZM54.9241 28H53.0541V24.362H49.2971V22.543H53.0541V18.888H54.9241V22.543H58.6641V24.362H54.9241V28Z"/>
</mask>
<path d="M42.3354 26.657C43.6954 26.657 44.7664 25.688 44.7664 24.039C44.7664 22.203 43.5084 21.336 42.2844 21.336C41.1284 21.336 40.3124 21.897 40.0574 22.628L38.1534 22.526L38.9694 15.675H46.3474V17.46H40.6354L40.2444 20.554C40.8394 20.078 41.6894 19.789 42.7944 19.789C44.9024 19.789 46.8574 21.234 46.8574 24.005C46.8574 26.759 44.7494 28.221 42.3014 28.221C39.4454 28.221 37.9494 26.351 37.8134 24.226H39.7684C39.9554 25.654 40.7034 26.657 42.3354 26.657ZM54.9241 28H53.0541V24.362H49.2971V22.543H53.0541V18.888H54.9241V22.543H58.6641V24.362H54.9241V28Z" fill="#102348"/>
<path d="M40.0574 22.628L40.0039 23.6266L40.7541 23.6668L41.0016 22.9574L40.0574 22.628ZM38.1534 22.526L37.1604 22.4077L37.0342 23.4675L38.0999 23.5246L38.1534 22.526ZM38.9694 15.675V14.675H38.0814L37.9764 15.5567L38.9694 15.675ZM46.3474 15.675H47.3474V14.675H46.3474V15.675ZM46.3474 17.46V18.46H47.3474V17.46H46.3474ZM40.6354 17.46V16.46H39.7538L39.6433 17.3346L40.6354 17.46ZM40.2444 20.554L39.2523 20.4286L38.943 22.8757L40.8691 21.3349L40.2444 20.554ZM37.8134 24.226V23.226H36.7473L36.8154 24.2899L37.8134 24.226ZM39.7684 24.226L40.7599 24.0962L40.646 23.226H39.7684V24.226ZM42.3354 27.657C43.2576 27.657 44.1323 27.3247 44.7764 26.665C45.4221 26.0036 45.7664 25.0856 45.7664 24.039H43.7664C43.7664 24.6414 43.5752 25.0324 43.3453 25.2678C43.1139 25.5048 42.7731 25.657 42.3354 25.657V27.657ZM45.7664 24.039C45.7664 22.8783 45.3611 21.9307 44.6749 21.2756C44.0024 20.6337 43.1261 20.336 42.2844 20.336V22.336C42.6667 22.336 43.0314 22.4718 43.2939 22.7224C43.5426 22.9598 43.7664 23.3637 43.7664 24.039H45.7664ZM42.2844 20.336C40.8242 20.336 39.5444 21.0625 39.1132 22.2986L41.0016 22.9574C41.0804 22.7315 41.4326 22.336 42.2844 22.336V20.336ZM40.1109 21.6294L38.2069 21.5274L38.0999 23.5246L40.0039 23.6266L40.1109 21.6294ZM39.1464 22.6443L39.9624 15.7933L37.9764 15.5567L37.1604 22.4077L39.1464 22.6443ZM38.9694 16.675H46.3474V14.675H38.9694V16.675ZM45.3474 15.675V17.46H47.3474V15.675H45.3474ZM46.3474 16.46H40.6354V18.46H46.3474V16.46ZM39.6433 17.3346L39.2523 20.4286L41.2365 20.6794L41.6275 17.5854L39.6433 17.3346ZM40.8691 21.3349C41.2483 21.0315 41.8618 20.789 42.7944 20.789V18.789C41.517 18.789 40.4304 19.1245 39.6197 19.7731L40.8691 21.3349ZM42.7944 20.789C43.6242 20.789 44.3855 21.0729 44.9312 21.5863C45.4645 22.0879 45.8574 22.8695 45.8574 24.005H47.8574C47.8574 22.3695 47.2727 21.0431 46.3015 20.1295C45.3427 19.2276 44.0725 18.789 42.7944 18.789V20.789ZM45.8574 24.005C45.8574 25.1036 45.448 25.8741 44.8488 26.3846C44.2298 26.912 43.3351 27.221 42.3014 27.221V29.221C43.7157 29.221 45.0989 28.799 46.1459 27.9069C47.2128 26.9979 47.8574 25.6604 47.8574 24.005H45.8574ZM42.3014 27.221C41.1031 27.221 40.2767 26.8349 39.7373 26.3062C39.1886 25.7683 38.8658 25.0128 38.8113 24.1621L36.8154 24.2899C36.897 25.5642 37.3902 26.8062 38.3374 27.7345C39.294 28.6721 40.6436 29.221 42.3014 29.221V27.221ZM37.8134 25.226H39.7684V23.226H37.8134V25.226ZM38.7768 24.3558C38.8869 25.1964 39.1766 26.0356 39.7905 26.6715C40.4266 27.3304 41.2999 27.657 42.3354 27.657V25.657C41.7389 25.657 41.4222 25.4821 41.2295 25.2825C41.0146 25.0599 40.8368 24.6836 40.7599 24.0962L38.7768 24.3558ZM54.9241 28V29H55.9241V28H54.9241ZM53.0541 28H52.0541V29H53.0541V28ZM53.0541 24.362H54.0541V23.362H53.0541V24.362ZM49.2971 24.362H48.2971V25.362H49.2971V24.362ZM49.2971 22.543V21.543H48.2971V22.543H49.2971ZM53.0541 22.543V23.543H54.0541V22.543H53.0541ZM53.0541 18.888V17.888H52.0541V18.888H53.0541ZM54.9241 18.888H55.9241V17.888H54.9241V18.888ZM54.9241 22.543H53.9241V23.543H54.9241V22.543ZM58.6641 22.543H59.6641V21.543H58.6641V22.543ZM58.6641 24.362V25.362H59.6641V24.362H58.6641ZM54.9241 24.362V23.362H53.9241V24.362H54.9241ZM54.9241 27H53.0541V29H54.9241V27ZM54.0541 28V24.362H52.0541V28H54.0541ZM53.0541 23.362H49.2971V25.362H53.0541V23.362ZM50.2971 24.362V22.543H48.2971V24.362H50.2971ZM49.2971 23.543H53.0541V21.543H49.2971V23.543ZM54.0541 22.543V18.888H52.0541V22.543H54.0541ZM53.0541 19.888H54.9241V17.888H53.0541V19.888ZM53.9241 18.888V22.543H55.9241V18.888H53.9241ZM54.9241 23.543H58.6641V21.543H54.9241V23.543ZM57.6641 22.543V24.362H59.6641V22.543H57.6641ZM58.6641 23.362H54.9241V25.362H58.6641V23.362ZM53.9241 24.362V28H55.9241V24.362H53.9241Z" fill="white" mask="url(#path-3-outside-1_3911_6969)"/>
</g>
<defs>
<filter id="filter0_d_3911_6969" x="0.0839844" y="0.437012" width="41.832" height="40.5996" filterUnits="userSpaceOnUse" color-interpolation-filters="sRGB">
<feFlood flood-opacity="0" result="BackgroundImageFix"/>
<feColorMatrix in="SourceAlpha" type="matrix" values="0 0 0 0 0 0 0 0 0 0 0 0 0 0 0 0 0 0 127 0" result="hardAlpha"/>
<feOffset/>
<feGaussianBlur stdDeviation="3"/>
<feComposite in2="hardAlpha" operator="out"/>
<feColorMatrix type="matrix" values="0 0 0 0 0 0 0 0 0 0 0 0 0 0 0 0 0 0 0.11 0"/>
<feBlend mode="normal" in2="BackgroundImageFix" result="effect1_dropShadow_3911_6969"/>
<feBlend mode="normal" in="SourceGraphic" in2="effect1_dropShadow_3911_6969" result="shape"/>
</filter>
<filter id="filter1_d_3911_6969" x="31.8125" y="9.6748" width="32.8516" height="24.5464" filterUnits="userSpaceOnUse" color-interpolation-filters="sRGB">
<feFlood flood-opacity="0" result="BackgroundImageFix"/>
<feColorMatrix in="SourceAlpha" type="matrix" values="0 0 0 0 0 0 0 0 0 0 0 0 0 0 0 0 0 0 127 0" result="hardAlpha"/>
<feOffset/>
<feGaussianBlur stdDeviation="3"/>
<feComposite in2="hardAlpha" operator="out"/>
<feColorMatrix type="matrix" values="0 0 0 0 0 0 0 0 0 0 0 0 0 0 0 0 0 0 0.11 0"/>
<feBlend mode="normal" in2="BackgroundImageFix" result="effect1_dropShadow_3911_6969"/>
<feBlend mode="normal" in="SourceGraphic" in2="effect1_dropShadow_3911_6969" result="shape"/>
</filter>
</defs>
</svg>
