<svg width="42" height="42" viewBox="0 0 42 42" fill="none" xmlns="http://www.w3.org/2000/svg">
<g filter="url(#filter0_d_946_7741)">
<path d="M20.726 8.61472C20.8317 8.37757 21.1683 8.37757 21.274 8.61472L24.7972 16.5186C24.8408 16.6164 24.9332 16.6836 25.0397 16.6948L33.6455 17.6031C33.9037 17.6304 34.0077 17.9505 33.8148 18.1243L27.3865 23.9175C27.3069 23.9892 27.2716 24.0978 27.2939 24.2026L29.0893 32.6679C29.1432 32.9219 28.8709 33.1197 28.646 32.99L21.1499 28.6665C21.0571 28.6129 20.9429 28.6129 20.8501 28.6665L13.354 32.99C13.1291 33.1197 12.8568 32.9219 12.9106 32.6679L14.7061 24.2026C14.7284 24.0978 14.6931 23.9892 14.6135 23.9175L8.18517 18.1243C7.99229 17.9505 8.09631 17.6304 8.35451 17.6031L16.9603 16.6948C17.0668 16.6836 17.1592 16.6164 17.2028 16.5186L20.726 8.61472Z" fill="#F8ED3A"/>
<path d="M22.1874 8.20758C21.7293 7.17995 20.2707 7.17995 19.8126 8.20758L16.4538 15.7427L8.24955 16.6086C7.13066 16.7267 6.67992 18.114 7.51571 18.8672L13.6441 24.3901L11.9324 32.4604C11.699 33.561 12.879 34.4184 13.8536 33.8562L21 29.7344L28.1464 33.8562C29.121 34.4184 30.301 33.561 30.0676 32.4604L28.3559 24.3901L34.4843 18.8672C35.3201 18.114 34.8693 16.7267 33.7504 16.6086L25.5462 15.7427L22.1874 8.20758Z" stroke="white" stroke-width="2"/>
</g>
<defs>
<filter id="filter0_d_946_7741" x="0.0839844" y="0.437012" width="41.832" height="40.5996" filterUnits="userSpaceOnUse" color-interpolation-filters="sRGB">
<feFlood flood-opacity="0" result="BackgroundImageFix"/>
<feColorMatrix in="SourceAlpha" type="matrix" values="0 0 0 0 0 0 0 0 0 0 0 0 0 0 0 0 0 0 127 0" result="hardAlpha"/>
<feOffset/>
<feGaussianBlur stdDeviation="3"/>
<feComposite in2="hardAlpha" operator="out"/>
<feColorMatrix type="matrix" values="0 0 0 0 0 0 0 0 0 0 0 0 0 0 0 0 0 0 0.11 0"/>
<feBlend mode="normal" in2="BackgroundImageFix" result="effect1_dropShadow_946_7741"/>
<feBlend mode="normal" in="SourceGraphic" in2="effect1_dropShadow_946_7741" result="shape"/>
</filter>
</defs>
</svg>
