<svg width="400" height="334" viewBox="0 0 400 334" fill="none" xmlns="http://www.w3.org/2000/svg">
<g clip-path="url(#clip0_1049_12114)">
<path d="M154.141 8.45649C150.692 10.7826 148.576 13.9203 147.793 17.8695C147.75 18.0579 147.812 18.2029 147.978 18.3043L148.391 18.5434C148.754 18.7681 148.986 18.6703 149.087 18.25C149.899 14.721 151.761 11.8695 154.674 9.69562C172.141 -1.04351 187.033 24.75 170.13 33.3587C169.812 33.5253 169.678 33.7862 169.728 34.1413C171.022 42.8695 172.913 55.1195 177.913 62.1195C181.598 67.2717 184.435 70.7391 186.109 75.6304C191.141 90.4239 172.283 96.5 161.663 96.8369C160.149 96.8804 158.616 96.942 157.065 97.0217C156.645 97.0434 156.438 97.2645 156.446 97.6848C156.67 106.12 157.67 114.467 159.446 122.728C159.467 122.841 159.524 122.944 159.609 123.022L169.467 132.456C169.546 132.535 169.644 132.587 169.75 132.609C198.217 137.511 216.326 166.478 226.652 190.739C227.217 192.065 227.728 192.047 228.185 190.685C229.065 188.043 231.674 184.304 234.457 183.5C236.384 182.942 237.772 183.783 238.62 186.022C240.344 190.616 240.38 194.909 238.728 198.902C238.091 200.446 238.482 200.779 239.902 199.902C242.547 198.264 245.304 196.663 248.174 195.098C253.391 192.261 257.957 196.511 257.033 201.902C256.967 202.25 257.047 202.562 257.272 202.837C260.783 207.152 260.38 207.956 259.63 213.326C259.587 213.667 259.641 213.989 259.793 214.293C262.228 219 260.087 221.402 258.37 225.609C258.232 225.942 258.221 226.279 258.337 226.62C259.804 230.989 254.859 237.206 251.978 240.076C251.92 240.134 251.878 240.206 251.857 240.285C251.835 240.364 251.835 240.448 251.856 240.527C251.877 240.606 251.918 240.679 251.976 240.737C252.034 240.795 252.106 240.837 252.185 240.859C258.96 242.685 265.67 244.743 272.315 247.033C304.989 258.272 336.283 270.576 365.054 286.62C377.591 293.605 389.239 300.993 400 308.783V311.456C398.601 313.348 396.518 314.279 393.75 314.25C366.395 313.996 339.04 313.833 311.685 313.761C280.293 313.685 248.772 315.761 217.413 314.348C215.815 314.283 214.511 314.587 213.054 315.054C206.888 317.018 200.63 318.638 194.283 319.913C167.435 325.319 140.33 327.489 112.967 326.424C111.38 326.359 109.293 326.533 108.087 326.891C80.4674 335.022 40.0543 338.717 18.0217 315.011C5.84783 301.902 0.934783 282.652 0 264.391V251.804C1.97826 217.772 15.0217 182.38 35.5435 154.141C49.2935 135.228 72.9674 115.891 98.1739 124.12C98.5072 124.228 98.7935 124.159 99.0326 123.913C102.946 119.985 105.457 116.688 106.565 114.022C110.717 104.109 114.159 93.9927 116.891 83.6739C116.904 83.6294 116.907 83.5826 116.9 83.5368C116.893 83.491 116.876 83.4473 116.85 83.4089C116.824 83.3705 116.79 83.3383 116.75 83.3146C116.71 83.2909 116.666 83.2762 116.62 83.2717C107.859 82.3369 95.6196 75.75 95.9348 65.6521C96.163 58.2065 102.38 51.7608 110.076 53.0761C110.168 53.0921 110.262 53.088 110.351 53.0642C110.441 53.0403 110.524 52.9972 110.595 52.938C110.665 52.8788 110.722 52.8049 110.76 52.7217C110.798 52.6384 110.817 52.5479 110.815 52.4565C110.692 46.942 109.359 41.7319 106.815 36.8261C104.272 31.9348 101.533 28.0543 103.37 21.913C105.793 13.7934 113.967 7.90214 122.467 10.0326C123.156 10.2065 124.616 10.7572 126.848 11.6848C127.225 11.8442 127.46 11.7246 127.554 11.3261C128.46 7.42026 130.402 4.68837 133.38 3.1304C141.953 -1.34786 148.873 0.427505 154.141 8.45649ZM140.283 90.0434C143.928 91.971 146.366 93.1558 147.598 93.5978C157.87 97.2934 172.815 96.0108 181.598 88.5434C192.402 79.3587 179.022 68 174.62 59C172.982 55.6521 171.895 52.2065 171.359 48.663C171.272 48.1195 171.087 48.0797 170.804 48.5434C169.355 50.8985 167.442 52.1884 165.065 52.413C164.71 52.4492 164.678 52.5652 164.967 52.7608C167.043 54.1956 170.554 56.4782 168.641 59.4782C167.764 60.8478 167.058 61.2681 166.522 60.7391C166.443 60.6619 166.395 60.5582 166.389 60.4491C166.383 60.3401 166.419 60.2339 166.489 60.1521L167.815 58.5326C167.954 58.3634 168.057 58.1674 168.117 57.9567C168.177 57.7461 168.193 57.5251 168.164 57.3074C168.136 57.0896 168.063 56.8797 167.951 56.6904C167.839 56.5011 167.689 56.3364 167.511 56.2065C165.772 54.9456 161.554 51.3913 162 49.0217C162.13 48.3405 162.54 47.971 163.228 47.913L170.261 47.25C170.652 47.2137 170.808 47.0072 170.728 46.6304L169.533 41.1304C169.501 40.9924 169.427 40.8675 169.322 40.7723C169.218 40.6772 169.086 40.6163 168.946 40.5978C166.793 40.3043 161.326 40.9347 160.761 38.4021C160.721 38.2228 160.721 38.0374 160.763 37.8603C160.804 37.6831 160.885 37.519 161 37.3804L162.424 35.6195C162.67 35.3152 162.598 35.1884 162.207 35.2391C158.308 35.7463 154.5 36.6449 150.783 37.9347C150.225 38.1304 150.239 38.2572 150.826 38.3152L152.739 38.5217C153.18 38.5697 153.597 38.7476 153.937 39.0331C154.277 39.3185 154.525 39.6985 154.648 40.1248C154.771 40.5512 154.765 41.0046 154.631 41.4274C154.496 41.8503 154.239 42.2236 153.891 42.5C150.543 45.1521 147.217 47.4456 144.076 50.4674C143.822 50.7101 143.505 50.878 143.161 50.9524C142.817 51.0267 142.459 51.0047 142.128 50.8887C141.797 50.7726 141.505 50.5672 141.285 50.2951C141.064 50.0231 140.924 49.6951 140.88 49.3478C140.663 47.6232 140.891 46.0181 141.565 44.5326C141.583 44.4859 141.583 44.4348 141.568 44.3876C141.552 44.3404 141.52 44.3001 141.478 44.2734C141.436 44.2467 141.386 44.2352 141.337 44.2408C141.287 44.2464 141.241 44.2689 141.207 44.3043C136.967 49.3261 134.946 54.6847 132.489 60.8043C131.054 64.3913 129.337 67.1521 125.283 64.0217C118.348 58.6956 107.304 47.6521 99.4456 59.1304C92.2609 69.6304 103.957 79.2065 113.152 81.3804C116.543 82.1848 119.964 81.9384 123.413 80.6413C123.502 80.6084 123.6 80.6067 123.689 80.6364C123.778 80.6661 123.853 80.7254 123.902 80.8043L124.076 81.1087C124.366 81.5869 124.239 81.8985 123.696 82.0434L118.848 83.2934C118.478 83.3876 118.243 83.6195 118.141 83.9891C115.438 94.4311 111.989 104.623 107.793 114.565C107.641 114.928 107.688 115.261 107.935 115.565C115.75 125.511 132.554 131.435 144.598 133.12C150.587 133.956 155.065 127.989 157.772 123.706C157.933 123.462 157.995 123.163 157.946 122.87L155.62 107.946C155.533 107.38 155.214 107.029 154.663 106.891C146.859 104.978 138.304 99.1739 139.543 90.4239C139.609 89.9456 139.855 89.8188 140.283 90.0434ZM147.065 134.804C132.728 133.315 117.554 127.424 107.196 117.087C106.935 116.826 106.692 116.841 106.467 117.13L100.63 124.478C100.384 124.783 100.435 125.025 100.783 125.206C104.551 127.221 107.138 129.438 108.543 131.859C114.446 142.076 122.13 153.163 131.13 160.848C137.913 166.641 142.152 163.783 144.326 156.13C146.268 149.304 147.351 142.395 147.576 135.402C147.591 135.04 147.42 134.841 147.065 134.804ZM86.1739 250.478C85.8841 249.956 86.0326 249.63 86.6196 249.5L103.565 245.891C103.678 245.868 103.783 245.816 103.871 245.74C103.958 245.664 104.025 245.566 104.065 245.456C112.123 223.333 116.453 200.442 117.054 176.783C117.457 160.891 115.37 129.543 95.3696 124.674C68.1196 118.033 43.7391 142.489 30.7609 163.011C17.2609 184.359 7.11957 210.239 3.11957 235.185C-1.3913 263.359 0.869564 303.348 27.2391 321C67.7391 348.12 137.489 318.978 173.957 296.304C173.998 296.279 174.035 296.245 174.063 296.205C174.091 296.165 174.111 296.12 174.121 296.072C174.131 296.025 174.132 295.975 174.122 295.927C174.112 295.879 174.093 295.834 174.065 295.793C162.25 278.88 155.457 258.804 152.652 238.456C152.601 238.065 152.384 237.92 152 238.022C135.275 242.485 118.315 245.743 101.12 247.793C97.8877 248.177 93.1196 249.257 86.8152 251.033C86.7354 251.054 86.6503 251.048 86.5735 251.014C86.4967 250.981 86.4325 250.922 86.3913 250.848L86.1739 250.478ZM167.054 152.674C168.721 153.732 169.891 153.326 170.565 151.456C170.651 151.226 170.696 150.98 170.696 150.728C170.645 146.257 170.268 141.949 169.565 137.804C168.609 132.13 163.5 128.283 159.272 124.728C159.226 124.691 159.172 124.664 159.115 124.649C159.058 124.634 158.999 124.631 158.94 124.64C158.882 124.649 158.826 124.671 158.777 124.703C158.727 124.735 158.685 124.777 158.652 124.826C156.377 128.333 153.551 131.304 150.174 133.739C149.884 133.949 149.862 134.185 150.109 134.446C154.022 138.67 157.757 143.025 161.315 147.511C162.946 149.569 164.859 151.29 167.054 152.674ZM226.185 192.859C215.38 168.706 199.457 140.685 171.87 134.326C170.826 134.087 170.62 134.399 171.25 135.261C188.12 158.391 198.783 185.956 205.848 213.674C205.942 214.036 206.156 214.134 206.489 213.967C215.388 209.598 221.949 202.92 226.174 193.935C226.341 193.572 226.344 193.214 226.185 192.859ZM145.174 158.141C144.094 160.496 143.275 162.011 142.717 162.685C134.326 172.728 118.62 149.587 114.88 143.88C114.852 143.838 114.809 143.807 114.76 143.793C114.711 143.779 114.659 143.782 114.612 143.803C114.565 143.824 114.527 143.86 114.505 143.906C114.482 143.952 114.477 144.005 114.489 144.054C123.109 176.533 116.728 214.228 105.5 245.391C105.483 245.436 105.478 245.485 105.485 245.533C105.492 245.58 105.511 245.625 105.541 245.663C105.57 245.701 105.609 245.731 105.653 245.75C105.697 245.769 105.746 245.777 105.793 245.772C122.707 243.677 139.37 240.261 155.783 235.522L177.315 227.978C186.685 224.348 195.678 220.138 204.293 215.348C204.627 215.167 204.746 214.891 204.652 214.522C197.978 187.63 187.5 160.413 171.37 137.696C171.029 137.217 170.888 137.268 170.946 137.848C171.391 142.554 172.25 146.565 171.902 151.772C171.652 155.652 167.391 154.837 165.217 153.174C163.826 152.109 162.395 150.768 160.924 149.152L149.685 135.88C149.17 135.272 148.899 135.366 148.87 136.163C148.623 143.576 147.391 150.902 145.174 158.141ZM216.293 247.522C209.091 248.058 202.946 250.841 197.859 255.87C197.826 255.902 197.786 255.926 197.742 255.94C197.698 255.954 197.651 255.957 197.606 255.95C197.56 255.943 197.517 255.925 197.48 255.897C197.443 255.87 197.412 255.835 197.391 255.793C192.326 246.62 187.996 237.109 184.402 227.261C184.264 226.877 184.007 226.761 183.63 226.913L172.565 231.391C172.423 231.449 172.306 231.556 172.234 231.693C172.163 231.83 172.141 231.989 172.174 232.141C176.065 249.931 182.58 266.688 191.717 282.413C192.203 283.254 192.859 283.417 193.685 282.902L203.011 277.098C203.05 277.071 203.08 277.033 203.098 276.989C203.117 276.946 203.122 276.898 203.114 276.851C203.106 276.804 203.085 276.761 203.053 276.725C203.021 276.69 202.98 276.665 202.935 276.652C198.101 275.398 195.391 272.268 194.804 267.261C194 260.293 200.033 253.804 205.946 251.206C211.822 248.627 217.261 248.043 222.261 249.456C226.333 250.601 229.083 253.112 230.511 256.989C230.529 257.039 230.559 257.084 230.597 257.12C230.636 257.156 230.682 257.183 230.733 257.197C230.784 257.212 230.838 257.215 230.89 257.205C230.942 257.195 230.991 257.173 231.033 257.141C237.554 252.185 257.446 236.587 257.293 228.087C257.279 227.58 257.105 227.514 256.772 227.891L253.38 231.62C253.322 231.685 253.249 231.736 253.168 231.769C253.086 231.802 252.998 231.815 252.91 231.807C252.823 231.8 252.738 231.772 252.663 231.727C252.588 231.681 252.525 231.618 252.478 231.543L252.283 231.239C252.203 231.109 252.217 230.989 252.326 230.88C255.435 227.696 260.13 221.793 259.424 217.076C259.207 215.605 258.725 215.511 257.978 216.793C256.652 219.069 254.949 221.011 252.87 222.62C252.831 222.649 252.787 222.67 252.74 222.683C252.693 222.695 252.645 222.698 252.597 222.692C252.55 222.686 252.505 222.671 252.464 222.647C252.423 222.624 252.387 222.592 252.359 222.554L252.141 222.261C252.091 222.197 252.054 222.123 252.033 222.045C252.011 221.966 252.005 221.884 252.016 221.804C252.026 221.723 252.052 221.645 252.092 221.574C252.132 221.503 252.186 221.441 252.25 221.391C256.293 218.25 261.859 209.435 257.065 204.609C256.725 204.268 256.435 204.308 256.196 204.728C254.659 207.409 252.692 209.714 250.293 211.641C249.996 211.88 249.696 211.884 249.391 211.652L249.141 211.456C249.101 211.428 249.068 211.39 249.045 211.346C249.022 211.302 249.01 211.253 249.009 211.202C249.008 211.152 249.018 211.102 249.039 211.056C249.06 211.009 249.092 210.968 249.13 210.935C251.203 209.246 253.022 207.272 254.587 205.011C257.793 200.359 254.261 192.489 248.261 196.456C244.768 198.761 241.525 200.591 238.533 201.946C236.569 202.837 236.029 202.301 236.913 200.337C238.522 196.75 239.924 188.174 236.109 185.152C235.79 184.902 235.399 184.764 234.995 184.758C234.59 184.752 234.195 184.879 233.87 185.12C232.623 186.033 231.634 187.192 230.902 188.598C227.098 195.902 222.685 203.717 216.489 208.924C212.67 212.141 208.478 214.848 203.913 217.043C203.724 217.135 203.575 217.294 203.495 217.488C203.415 217.682 203.409 217.899 203.478 218.098C206.928 228.105 211.322 237.681 216.663 246.826C216.909 247.254 216.786 247.485 216.293 247.522ZM191.043 283.859C181.511 268.293 174.935 250.5 170.826 232.728C170.739 232.366 170.518 232.243 170.163 232.359L154.326 237.424C154.212 237.461 154.115 237.537 154.052 237.638C153.988 237.739 153.962 237.86 153.978 237.978C156.587 258.185 163.478 278.457 175.272 295.141C175.309 295.196 175.356 295.242 175.411 295.278C175.466 295.314 175.528 295.339 175.593 295.351C175.657 295.363 175.723 295.362 175.788 295.349C175.852 295.335 175.913 295.309 175.967 295.272L190.826 284.891C191.225 284.609 191.297 284.264 191.043 283.859ZM216.652 275.652C216.552 275.692 216.467 275.765 216.412 275.859C216.357 275.954 216.335 276.064 216.348 276.174C217.58 288.246 217.659 300.319 216.587 312.391C216.579 312.472 216.589 312.554 216.614 312.632C216.639 312.709 216.68 312.781 216.734 312.842C216.788 312.903 216.854 312.952 216.928 312.987C217.002 313.022 217.082 313.041 217.163 313.043C242.217 313.935 267.239 313.065 292.315 312.598C292.699 312.591 292.888 312.395 292.88 312.011C292.37 293.283 296.804 277.076 308.826 262.674C309.065 262.391 309.014 262.177 308.674 262.033C291.993 255.264 275.076 249.181 257.924 243.783C256.482 243.333 254.225 242.746 251.152 242.022C250.761 241.928 250.424 242.022 250.141 242.304C244.38 248.022 238.268 253.337 231.804 258.25C231.522 258.467 231.366 258.754 231.337 259.109C230.609 268.043 224.261 272.5 216.652 275.652ZM229.32 257.938C228.814 256.673 227.899 255.587 226.626 254.741C225.354 253.895 223.749 253.306 221.903 253.007C220.057 252.708 218.007 252.706 215.869 253C213.731 253.293 211.547 253.878 209.443 254.72C207.338 255.562 205.354 256.644 203.603 257.906C201.852 259.167 200.369 260.583 199.238 262.072C198.107 263.562 197.351 265.095 197.013 266.585C196.675 268.076 196.761 269.494 197.267 270.758C197.773 272.022 198.688 273.108 199.961 273.954C201.233 274.8 202.838 275.39 204.684 275.688C206.53 275.987 208.58 275.99 210.718 275.696C212.856 275.402 215.04 274.818 217.144 273.976C219.249 273.134 221.233 272.051 222.984 270.79C224.735 269.528 226.218 268.112 227.349 266.623C228.48 265.134 229.236 263.6 229.574 262.11C229.912 260.62 229.826 259.202 229.32 257.938ZM324.109 268.38L311.304 263.043C311.071 262.95 310.814 262.933 310.571 262.995C310.328 263.058 310.113 263.197 309.957 263.391C298.384 277.449 293.149 293.678 294.25 312.076C294.272 312.417 294.457 312.587 294.804 312.587L310.902 312.38C310.962 312.379 311.021 312.366 311.076 312.342C311.131 312.317 311.18 312.282 311.222 312.239C311.263 312.196 311.296 312.145 311.317 312.089C311.339 312.033 311.349 311.973 311.348 311.913C311.065 297.326 316.674 281.217 324.261 268.848C324.287 268.808 324.303 268.764 324.31 268.717C324.316 268.67 324.311 268.622 324.297 268.578C324.282 268.533 324.258 268.492 324.225 268.458C324.193 268.423 324.153 268.397 324.109 268.38ZM349.359 300.228C349.388 300.025 349.504 299.938 349.707 299.967C356.413 300.935 371.761 304.25 375.815 310.087C376.011 310.367 376.097 310.708 376.054 311.043L375.946 312.011C375.888 312.489 376.101 312.732 376.587 312.739C382.761 312.812 388.935 312.783 395.109 312.652C396.094 312.63 397.051 312.319 397.978 311.717C398.148 311.607 398.295 311.465 398.409 311.297C398.523 311.13 398.603 310.942 398.643 310.744C398.684 310.545 398.684 310.341 398.645 310.142C398.605 309.943 398.526 309.755 398.413 309.587C397.442 308.145 396.192 306.964 394.663 306.043C372.37 292.565 350.435 279.152 326.25 269.283C326.095 269.219 325.923 269.213 325.765 269.265C325.608 269.316 325.475 269.423 325.391 269.565C317.623 282.398 313.283 296.33 312.37 311.359C312.361 311.493 312.379 311.628 312.424 311.755C312.469 311.882 312.54 311.998 312.631 312.097C312.723 312.195 312.834 312.274 312.957 312.329C313.08 312.383 313.213 312.412 313.348 312.413L373.337 312.75C373.64 312.752 373.936 312.653 374.176 312.468C374.416 312.282 374.588 312.022 374.663 311.728C375.913 306.837 353.141 301.815 349.848 301.239C349.457 301.174 349.283 300.942 349.326 300.543L349.359 300.228ZM187.315 289.054C176.873 296.489 165.946 303.062 154.533 308.772C141.808 315.156 128.739 320.529 115.326 324.891C115.291 324.904 115.262 324.929 115.243 324.96C115.224 324.992 115.217 325.03 115.222 325.066C115.227 325.103 115.244 325.137 115.271 325.162C115.298 325.188 115.333 325.203 115.37 325.206C140.275 325.851 164.391 324.087 187.717 319.913C196.783 318.297 205.754 316.036 214.63 313.13C214.794 313.079 214.939 312.98 215.047 312.845C215.156 312.709 215.222 312.544 215.239 312.37C216.283 300.507 216.232 288.645 215.087 276.783C215.043 276.348 214.815 276.192 214.402 276.315C211.67 277.083 208.895 277.391 206.076 277.239C205.707 277.217 205.366 277.308 205.054 277.511L187.315 289.054Z" fill="#102348"/>
<path d="M154.141 8.45654L154.673 9.69567C151.76 11.8696 149.898 14.721 149.086 18.25C148.985 18.6703 148.753 18.7681 148.391 18.5435L147.978 18.3044C147.811 18.2029 147.749 18.058 147.793 17.8696C148.575 13.9203 150.691 10.7826 154.141 8.45654Z" fill="white"/>
<path d="M139.543 90.4239C138.304 99.1739 146.858 104.978 154.663 106.891C155.213 107.029 155.532 107.38 155.619 107.946L157.945 122.87C157.995 123.163 157.932 123.462 157.771 123.707C155.065 127.989 150.587 133.957 144.598 133.12C132.554 131.435 115.75 125.511 107.935 115.565C107.688 115.261 107.641 114.928 107.793 114.565C111.989 104.623 115.438 94.4312 118.141 83.9891C118.242 83.6196 118.478 83.3877 118.848 83.2935L123.695 82.0435C124.239 81.8986 124.366 81.587 124.076 81.1087L123.902 80.8044C123.853 80.7255 123.778 80.6662 123.689 80.6364C123.6 80.6067 123.502 80.6085 123.413 80.6413C119.964 81.9384 116.543 82.1848 113.152 81.3804C103.956 79.2065 92.2606 69.6304 99.4454 59.1304C107.304 47.6522 118.348 58.6957 125.282 64.0217C129.337 67.1522 131.054 64.3913 132.489 60.8044C134.945 54.6848 136.967 49.3261 141.206 44.3044C141.241 44.2689 141.287 44.2465 141.337 44.2409C141.386 44.2352 141.436 44.2467 141.478 44.2734C141.52 44.3002 141.551 44.3405 141.567 44.3876C141.583 44.4348 141.582 44.486 141.565 44.5326C140.891 46.0181 140.663 47.6232 140.88 49.3478C140.924 49.6952 141.064 50.0231 141.284 50.2952C141.505 50.5672 141.797 50.7727 142.128 50.8887C142.459 51.0047 142.817 51.0268 143.16 50.9524C143.504 50.878 143.821 50.7101 144.076 50.4674C147.217 47.4457 150.543 45.1522 153.891 42.5C154.238 42.2237 154.496 41.8504 154.63 41.4275C154.765 41.0046 154.771 40.5512 154.648 40.1249C154.524 39.6986 154.277 39.3186 153.937 39.0331C153.597 38.7477 153.18 38.5697 152.739 38.5217L150.826 38.3152C150.239 38.2573 150.224 38.1304 150.782 37.9348C154.5 36.6449 158.308 35.7464 162.206 35.2391C162.598 35.1884 162.67 35.3152 162.424 35.6196L161 37.3804C160.885 37.519 160.804 37.6832 160.762 37.8603C160.721 38.0374 160.72 38.2228 160.761 38.4022C161.326 40.9348 166.793 40.3044 168.945 40.5978C169.086 40.6163 169.217 40.6772 169.322 40.7724C169.427 40.8675 169.5 40.9925 169.532 41.1304L170.728 46.6304C170.808 47.0073 170.652 47.2138 170.261 47.25L163.228 47.9131C162.54 47.971 162.13 48.3406 162 49.0217C161.554 51.3913 165.771 54.9457 167.511 56.2065C167.689 56.3365 167.838 56.5011 167.951 56.6904C168.063 56.8797 168.136 57.0897 168.164 57.3074C168.193 57.5251 168.176 57.7461 168.116 57.9568C168.056 58.1675 167.954 58.3634 167.815 58.5326L166.489 60.1522C166.419 60.2339 166.383 60.3401 166.389 60.4492C166.395 60.5582 166.442 60.6619 166.521 60.7391C167.058 61.2681 167.764 60.8478 168.641 59.4783C170.554 56.4783 167.043 54.1957 164.967 52.7609C164.677 52.5652 164.71 52.4493 165.065 52.4131C167.442 52.1884 169.355 50.8986 170.804 48.5435C171.087 48.0797 171.271 48.1196 171.358 48.6631C171.895 52.2065 172.982 55.6522 174.619 59C179.021 68 192.402 79.3587 181.598 88.5435C172.815 96.0109 157.869 97.2935 147.598 93.5978C146.366 93.1558 143.927 91.971 140.282 90.0435C139.855 89.8188 139.608 89.9457 139.543 90.4239ZM155.467 49.5326C152.348 51.3261 149.467 52.7283 146.163 54.087C144.264 54.8696 144.293 55.5616 146.25 56.1631C148.782 56.9457 158.054 57.1739 157.771 52.5109C157.706 51.4529 157.239 50.5 156.369 49.6522C156.254 49.5371 156.103 49.4632 155.94 49.4416C155.778 49.42 155.611 49.452 155.467 49.5326ZM105.5 63.6196C111.848 62.7065 117.13 66.3478 119.641 72.0218C119.682 72.1082 119.75 72.1782 119.833 72.2198C119.916 72.2614 120.01 72.2721 120.098 72.25L120.478 72.1631C120.884 72.0761 121.003 71.8406 120.837 71.4565C117.938 64.8841 112.837 61.7826 105.532 62.1522C105.372 62.1606 105.221 62.2311 105.111 62.3487C105.002 62.4663 104.942 62.6219 104.945 62.7826V63.1522C104.946 63.221 104.962 63.2889 104.991 63.3512C105.02 63.4135 105.063 63.4687 105.115 63.513C105.168 63.5574 105.23 63.5899 105.296 63.6083C105.362 63.6267 105.432 63.6305 105.5 63.6196ZM167.25 71.8587C163.242 73.2283 160.521 71.9565 159.087 68.0435C159.059 67.9676 159.007 67.9025 158.939 67.8576C158.871 67.8126 158.789 67.7902 158.706 67.7935C158.612 67.8007 158.514 67.8044 158.413 67.8044C158.116 67.8116 157.953 67.9638 157.924 68.2609C157.757 69.8189 158.043 71.0036 158.782 71.8152C162.137 75.5036 165.695 75.7862 169.456 72.6631C169.71 72.4529 169.833 72.1812 169.826 71.8478C169.826 71.7246 169.8 71.6051 169.75 71.4891C169.627 71.1775 169.406 71.0797 169.087 71.1957C168.471 71.4275 167.858 71.6486 167.25 71.8587Z" fill="white"/>
<path d="M146.162 54.087C149.467 52.7283 152.347 51.3261 155.467 49.5326C155.611 49.452 155.777 49.42 155.94 49.4416C156.103 49.4632 156.253 49.5371 156.369 49.6522C157.238 50.5 157.706 51.4529 157.771 52.5109C158.054 57.1739 148.782 56.9457 146.249 56.1631C144.293 55.5616 144.264 54.8696 146.162 54.087Z" fill="#102348"/>
<path d="M119.643 72.0218C117.132 66.3478 111.85 62.7065 105.502 63.6196C105.434 63.6305 105.364 63.6267 105.298 63.6083C105.232 63.5899 105.17 63.5574 105.117 63.5131C105.065 63.4687 105.022 63.4135 104.993 63.3512C104.964 63.2889 104.948 63.221 104.947 63.1522V62.7826C104.944 62.6219 105.004 62.4663 105.113 62.3487C105.223 62.2311 105.374 62.1606 105.534 62.1522C112.839 61.7826 117.94 64.8841 120.839 71.4565C121.005 71.8406 120.886 72.0761 120.48 72.1631L120.1 72.25C120.012 72.2721 119.918 72.2614 119.835 72.2198C119.752 72.1782 119.684 72.1082 119.643 72.0218Z" fill="#102348"/>
<path d="M167.251 71.8588C167.86 71.6486 168.472 71.4276 169.088 71.1957C169.407 71.0798 169.628 71.1776 169.751 71.4892C169.802 71.6051 169.827 71.7247 169.827 71.8479C169.834 72.1812 169.711 72.453 169.458 72.6631C165.697 75.7863 162.139 75.5037 158.784 71.8153C158.044 71.0037 157.758 69.8189 157.925 68.2609C157.954 67.9638 158.117 67.8116 158.414 67.8044C158.515 67.8044 158.613 67.8008 158.708 67.7935C158.79 67.7902 158.872 67.8127 158.94 67.8576C159.009 67.9025 159.06 67.9677 159.088 68.0435C160.523 71.9566 163.244 73.2283 167.251 71.8588Z" fill="#102348"/>
<path d="M107.197 117.087C117.556 127.424 132.73 133.315 147.067 134.804C147.422 134.841 147.592 135.04 147.577 135.402C147.353 142.395 146.269 149.304 144.327 156.13C142.153 163.783 137.914 166.641 131.132 160.848C122.132 153.163 114.447 142.076 108.545 131.859C107.139 129.438 104.552 127.221 100.784 125.207C100.436 125.025 100.385 124.783 100.632 124.478L106.469 117.13C106.693 116.841 106.936 116.826 107.197 117.087Z" fill="white"/>
<path d="M86.1724 250.478L86.3898 250.848C86.431 250.922 86.4952 250.981 86.572 251.014C86.6488 251.048 86.7339 251.054 86.8137 251.033C93.1181 249.257 97.8862 248.178 101.118 247.793C118.314 245.743 135.274 242.485 151.998 238.022C152.383 237.92 152.6 238.065 152.651 238.457C155.455 258.804 162.248 278.88 174.064 295.793C174.092 295.834 174.111 295.879 174.121 295.927C174.13 295.975 174.13 296.025 174.12 296.072C174.11 296.12 174.09 296.165 174.061 296.205C174.033 296.245 173.997 296.279 173.955 296.304C137.488 318.978 67.7376 348.12 27.2376 321C0.868068 303.348 -1.3928 263.359 3.11807 235.185C7.11807 210.239 17.2594 184.359 30.7594 163.011C43.7376 142.489 68.1181 118.033 95.3681 124.674C115.368 129.543 117.455 160.891 117.053 176.783C116.451 200.442 112.122 223.333 104.064 245.457C104.024 245.566 103.957 245.664 103.869 245.74C103.782 245.816 103.677 245.868 103.564 245.891L86.6181 249.5C86.0311 249.63 85.8826 249.957 86.1724 250.478Z" fill="white"/>
<path d="M167.053 152.674C164.857 151.29 162.944 149.569 161.314 147.511C157.756 143.025 154.02 138.67 150.107 134.446C149.861 134.185 149.883 133.949 150.173 133.739C153.549 131.304 156.375 128.333 158.651 124.826C158.683 124.777 158.726 124.735 158.775 124.703C158.825 124.671 158.881 124.649 158.939 124.64C158.997 124.631 159.057 124.634 159.114 124.649C159.171 124.664 159.224 124.691 159.27 124.728C163.499 128.283 168.607 132.13 169.564 137.804C170.267 141.949 170.644 146.257 170.694 150.728C170.694 150.98 170.65 151.227 170.564 151.457C169.89 153.326 168.72 153.732 167.053 152.674Z" fill="white"/>
<path d="M171.87 134.326C199.457 140.685 215.381 168.707 226.185 192.859C226.345 193.214 226.341 193.573 226.175 193.935C221.95 202.92 215.388 209.598 206.49 213.967C206.156 214.134 205.943 214.036 205.849 213.674C198.783 185.957 188.12 158.391 171.251 135.261C170.62 134.399 170.827 134.087 171.87 134.326Z" fill="white"/>
<path d="M160.924 149.152L159.456 159.804C159.406 160.174 159.239 160.478 158.956 160.717C157.051 162.326 154.895 163.101 152.489 163.043C149.391 162.978 147.326 160.174 145.174 158.141C147.391 150.902 148.623 143.576 148.869 136.163C148.898 135.366 149.17 135.272 149.685 135.88L160.924 149.152Z" fill="#D9C6F4"/>
<path d="M177.316 227.978C172.236 205.949 166.308 184.163 159.533 162.62C159.41 162.228 159.174 162.145 158.827 162.37C156.493 163.87 153.924 164.504 151.12 164.272C150.707 164.236 150.515 164.428 150.544 164.848C152.359 186.326 154.609 207.652 155.207 229.228C155.287 231.895 155.479 233.993 155.783 235.522C139.37 240.261 122.707 243.678 105.794 245.772C105.746 245.777 105.698 245.769 105.654 245.75C105.609 245.731 105.571 245.701 105.541 245.663C105.512 245.625 105.493 245.58 105.486 245.533C105.478 245.485 105.484 245.436 105.5 245.391C116.729 214.228 123.109 176.533 114.49 144.054C114.477 144.005 114.483 143.952 114.505 143.907C114.528 143.861 114.566 143.824 114.612 143.803C114.659 143.782 114.711 143.779 114.761 143.793C114.81 143.807 114.852 143.838 114.881 143.881C118.62 149.587 134.327 172.728 142.718 162.685C143.276 162.011 144.095 160.496 145.174 158.141C147.327 160.174 149.392 162.978 152.49 163.044C154.895 163.102 157.051 162.326 158.957 160.718C159.24 160.478 159.406 160.174 159.457 159.804L160.924 149.152C162.395 150.768 163.827 152.109 165.218 153.174C167.392 154.837 171.653 155.652 171.903 151.772C172.25 146.565 171.392 142.554 170.946 137.848C170.888 137.268 171.029 137.217 171.37 137.696C187.5 160.413 197.979 187.631 204.653 214.522C204.747 214.891 204.627 215.167 204.294 215.348C195.678 220.138 186.685 224.348 177.316 227.978Z" fill="white"/>
<path d="M177.316 227.978L155.783 235.522C155.479 233.993 155.287 231.895 155.207 229.228C154.609 207.652 152.359 186.326 150.544 164.848C150.515 164.428 150.707 164.236 151.12 164.272C153.924 164.504 156.493 163.87 158.826 162.37C159.174 162.145 159.41 162.228 159.533 162.62C166.308 184.163 172.236 205.949 177.316 227.978Z" fill="#D9C6F4"/>
<path d="M216.664 246.826C211.324 237.681 206.929 228.105 203.479 218.098C203.41 217.899 203.416 217.682 203.497 217.488C203.577 217.294 203.725 217.136 203.914 217.043C208.479 214.848 212.671 212.141 216.49 208.924C222.686 203.717 227.099 195.902 230.903 188.598C231.635 187.192 232.624 186.033 233.871 185.12C234.196 184.879 234.591 184.752 234.996 184.758C235.4 184.764 235.792 184.902 236.11 185.152C239.925 188.174 238.523 196.75 236.914 200.337C236.03 202.301 236.57 202.837 238.534 201.946C241.527 200.591 244.769 198.761 248.262 196.456C254.262 192.489 257.795 200.359 254.588 205.011C253.023 207.272 251.204 209.246 249.132 210.935C249.093 210.968 249.062 211.009 249.04 211.056C249.019 211.102 249.009 211.152 249.01 211.202C249.011 211.253 249.024 211.302 249.047 211.346C249.069 211.39 249.102 211.428 249.142 211.456L249.392 211.652C249.697 211.884 249.998 211.88 250.295 211.641C252.693 209.714 254.661 207.409 256.197 204.728C256.436 204.308 256.726 204.268 257.066 204.609C261.86 209.435 256.295 218.25 252.251 221.391C252.187 221.441 252.133 221.503 252.093 221.574C252.053 221.645 252.027 221.723 252.017 221.804C252.007 221.884 252.013 221.966 252.034 222.045C252.056 222.123 252.093 222.197 252.142 222.261L252.36 222.554C252.388 222.592 252.424 222.624 252.465 222.647C252.506 222.671 252.551 222.686 252.599 222.692C252.646 222.698 252.695 222.695 252.741 222.683C252.788 222.67 252.832 222.649 252.871 222.62C254.95 221.011 256.653 219.069 257.979 216.793C258.726 215.511 259.208 215.605 259.425 217.076C260.132 221.793 255.436 227.696 252.327 230.88C252.219 230.989 252.204 231.109 252.284 231.239L252.479 231.543C252.526 231.618 252.589 231.681 252.664 231.727C252.739 231.772 252.824 231.8 252.911 231.807C252.999 231.815 253.087 231.802 253.169 231.769C253.25 231.736 253.323 231.685 253.382 231.62L256.773 227.891C257.106 227.514 257.28 227.58 257.295 228.087C257.447 236.587 237.556 252.185 231.034 257.141C230.992 257.173 230.943 257.195 230.891 257.205C230.839 257.215 230.785 257.212 230.734 257.197C230.684 257.183 230.637 257.156 230.598 257.12C230.56 257.084 230.53 257.039 230.512 256.989C229.085 253.112 226.335 250.601 222.262 249.456C217.262 248.043 211.824 248.627 205.947 251.206C200.034 253.804 194.001 260.293 194.806 267.261C195.392 272.268 198.103 275.399 202.936 276.652C202.982 276.665 203.023 276.69 203.054 276.726C203.086 276.761 203.107 276.804 203.115 276.851C203.123 276.898 203.118 276.946 203.099 276.989C203.081 277.033 203.051 277.071 203.012 277.098L193.686 282.902C192.86 283.417 192.204 283.254 191.719 282.413C182.581 266.688 176.066 249.931 172.175 232.141C172.142 231.989 172.164 231.83 172.235 231.693C172.307 231.556 172.424 231.449 172.566 231.391L183.632 226.913C184.008 226.761 184.266 226.877 184.403 227.261C187.998 237.109 192.327 246.62 197.392 255.793C197.413 255.835 197.444 255.87 197.481 255.897C197.518 255.925 197.561 255.943 197.607 255.95C197.652 255.957 197.699 255.954 197.743 255.94C197.787 255.926 197.827 255.902 197.86 255.87C202.947 250.841 209.092 248.058 216.295 247.522C216.787 247.485 216.911 247.254 216.664 246.826Z" fill="white"/>
<path d="M170.827 232.728C174.936 250.5 181.512 268.293 191.044 283.859C191.298 284.264 191.226 284.609 190.827 284.891L175.968 295.272C175.914 295.309 175.853 295.335 175.789 295.349C175.724 295.362 175.658 295.363 175.594 295.351C175.529 295.339 175.467 295.314 175.412 295.278C175.357 295.242 175.31 295.196 175.273 295.141C163.479 278.457 156.588 258.185 153.979 237.978C153.963 237.86 153.989 237.739 154.053 237.638C154.116 237.537 154.213 237.461 154.327 237.424L170.164 232.359C170.519 232.243 170.74 232.366 170.827 232.728ZM180.74 280.913C180.74 280.339 180.512 279.789 180.107 279.384C179.701 278.978 179.151 278.75 178.577 278.75C178.003 278.75 177.453 278.978 177.048 279.384C176.642 279.789 176.414 280.339 176.414 280.913C176.414 281.487 176.642 282.037 177.048 282.443C177.453 282.848 178.003 283.076 178.577 283.076C179.151 283.076 179.701 282.848 180.107 282.443C180.512 282.037 180.74 281.487 180.74 280.913Z" fill="white"/>
<path d="M216.652 275.652C224.261 272.5 230.608 268.044 231.337 259.109C231.366 258.754 231.521 258.467 231.804 258.25C238.268 253.337 244.38 248.022 250.141 242.304C250.424 242.022 250.761 241.928 251.152 242.022C254.224 242.746 256.482 243.333 257.924 243.783C275.076 249.181 291.992 255.265 308.674 262.033C309.014 262.178 309.065 262.391 308.826 262.674C296.804 277.076 292.369 293.283 292.88 312.011C292.887 312.395 292.699 312.591 292.315 312.598C267.239 313.065 242.217 313.935 217.163 313.043C217.081 313.041 217.001 313.022 216.927 312.987C216.854 312.952 216.788 312.903 216.734 312.842C216.68 312.781 216.639 312.709 216.614 312.632C216.588 312.554 216.579 312.473 216.587 312.391C217.659 300.319 217.579 288.246 216.347 276.174C216.334 276.064 216.357 275.954 216.412 275.859C216.467 275.765 216.551 275.692 216.652 275.652Z" fill="white"/>
<path d="M229.32 257.938C229.825 259.202 229.912 260.62 229.573 262.11C229.235 263.6 228.479 265.134 227.349 266.623C226.218 268.112 224.735 269.528 222.984 270.79C221.233 272.051 219.249 273.134 217.144 273.976C215.039 274.818 212.856 275.402 210.718 275.696C208.58 275.99 206.53 275.987 204.684 275.688C202.838 275.39 201.233 274.8 199.96 273.954C198.688 273.108 197.772 272.022 197.267 270.758C196.761 269.493 196.675 268.076 197.013 266.585C197.351 265.095 198.107 263.562 199.238 262.072C200.368 260.583 201.852 259.167 203.602 257.906C205.353 256.644 207.338 255.561 209.442 254.72C211.547 253.878 213.731 253.293 215.869 253C218.007 252.706 220.057 252.708 221.903 253.007C223.749 253.306 225.354 253.895 226.626 254.741C227.899 255.587 228.814 256.673 229.32 257.938ZM214.565 264.326C214.524 264.346 214.48 264.358 214.435 264.36C214.39 264.363 214.345 264.357 214.302 264.341C214.26 264.326 214.22 264.302 214.187 264.272C214.154 264.241 214.127 264.204 214.108 264.163L211.598 258.554C211.579 258.513 211.552 258.476 211.519 258.445C211.486 258.415 211.447 258.391 211.404 258.376C211.361 258.361 211.316 258.354 211.271 258.357C211.226 258.359 211.182 258.371 211.141 258.391L210.348 258.793C210.27 258.831 210.21 258.897 210.179 258.978C210.149 259.059 210.151 259.149 210.185 259.228L213.293 266.217C213.311 266.259 213.337 266.298 213.37 266.329C213.403 266.361 213.441 266.386 213.484 266.402C213.527 266.418 213.572 266.426 213.618 266.424C213.664 266.422 213.709 266.411 213.75 266.391L224.185 261.489C224.228 261.469 224.267 261.439 224.299 261.403C224.33 261.366 224.353 261.323 224.367 261.277C224.38 261.23 224.383 261.182 224.376 261.134C224.369 261.086 224.352 261.04 224.326 261L223.848 260.217C223.804 260.145 223.736 260.092 223.655 260.068C223.575 260.044 223.488 260.051 223.413 260.087L214.565 264.326Z" fill="white"/>
<path d="M214.565 264.326L223.413 260.087C223.489 260.051 223.575 260.044 223.656 260.068C223.736 260.092 223.805 260.145 223.848 260.217L224.326 261C224.353 261.041 224.37 261.086 224.377 261.134C224.384 261.182 224.381 261.23 224.367 261.277C224.354 261.323 224.331 261.366 224.299 261.403C224.268 261.439 224.229 261.469 224.185 261.489L213.75 266.391C213.709 266.411 213.664 266.422 213.619 266.424C213.573 266.426 213.527 266.419 213.485 266.402C213.442 266.386 213.403 266.361 213.37 266.329C213.337 266.298 213.311 266.26 213.294 266.217L210.185 259.228C210.151 259.149 210.149 259.059 210.18 258.978C210.21 258.897 210.27 258.831 210.348 258.793L211.142 258.391C211.182 258.371 211.226 258.36 211.271 258.357C211.317 258.354 211.362 258.361 211.404 258.376C211.447 258.391 211.486 258.415 211.519 258.445C211.553 258.476 211.579 258.513 211.598 258.554L214.109 264.163C214.128 264.204 214.154 264.241 214.188 264.272C214.221 264.303 214.26 264.326 214.303 264.341C214.345 264.357 214.39 264.363 214.436 264.361C214.481 264.358 214.525 264.346 214.565 264.326Z" fill="#102348"/>
<path d="M311.305 263.043L324.11 268.38C324.154 268.397 324.194 268.423 324.226 268.458C324.259 268.492 324.283 268.533 324.298 268.578C324.312 268.622 324.317 268.67 324.311 268.717C324.304 268.764 324.288 268.808 324.262 268.848C316.675 281.217 311.066 297.326 311.349 311.913C311.35 311.973 311.34 312.033 311.318 312.089C311.297 312.145 311.264 312.196 311.223 312.239C311.181 312.282 311.132 312.317 311.077 312.342C311.022 312.366 310.963 312.379 310.903 312.38L294.805 312.587C294.458 312.587 294.273 312.417 294.251 312.076C293.15 293.678 298.385 277.449 309.958 263.391C310.114 263.197 310.329 263.058 310.572 262.995C310.815 262.933 311.072 262.95 311.305 263.043ZM304.186 306.685C304.186 306.111 303.958 305.561 303.552 305.155C303.147 304.75 302.596 304.522 302.023 304.522C301.449 304.522 300.899 304.75 300.493 305.155C300.088 305.561 299.86 306.111 299.86 306.685C299.86 307.258 300.088 307.809 300.493 308.214C300.899 308.62 301.449 308.848 302.023 308.848C302.596 308.848 303.147 308.62 303.552 308.214C303.958 307.809 304.186 307.258 304.186 306.685Z" fill="white"/>
<path d="M349.36 300.228L349.328 300.544C349.284 300.942 349.458 301.174 349.85 301.239C353.143 301.815 375.915 306.837 374.665 311.728C374.59 312.022 374.418 312.283 374.178 312.468C373.937 312.653 373.642 312.752 373.339 312.75L313.35 312.413C313.215 312.412 313.082 312.383 312.959 312.329C312.836 312.275 312.725 312.196 312.633 312.097C312.542 311.998 312.471 311.882 312.426 311.755C312.381 311.628 312.362 311.493 312.371 311.359C313.284 296.33 317.625 282.399 325.393 269.565C325.477 269.423 325.609 269.317 325.767 269.265C325.925 269.213 326.097 269.219 326.252 269.283C350.437 279.152 372.371 292.565 394.665 306.044C396.194 306.964 397.444 308.145 398.415 309.587C398.528 309.755 398.607 309.944 398.647 310.142C398.686 310.341 398.686 310.545 398.645 310.744C398.605 310.942 398.525 311.13 398.411 311.298C398.297 311.465 398.15 311.608 397.98 311.718C397.052 312.319 396.096 312.631 395.11 312.652C388.937 312.783 382.763 312.812 376.589 312.739C376.103 312.732 375.889 312.489 375.947 312.011L376.056 311.044C376.098 310.708 376.013 310.367 375.817 310.087C371.763 304.25 356.415 300.935 349.708 299.968C349.505 299.939 349.389 300.026 349.36 300.228Z" fill="white"/>
<path d="M154.531 308.772C157.607 312.033 169.901 321.956 174.499 318.478C180.165 314.188 184.897 309.188 188.694 303.478C188.989 303.029 189.112 302.485 189.042 301.946L187.314 289.054L205.053 277.511C205.365 277.308 205.705 277.217 206.075 277.239C208.894 277.391 211.669 277.083 214.401 276.315C214.814 276.192 215.042 276.348 215.086 276.783C216.231 288.645 216.281 300.507 215.238 312.37C215.221 312.544 215.154 312.709 215.046 312.845C214.938 312.98 214.793 313.079 214.629 313.13C205.752 316.036 196.781 318.297 187.716 319.913C164.39 324.087 140.274 325.851 115.368 325.206C115.331 325.203 115.297 325.188 115.27 325.162C115.243 325.137 115.225 325.103 115.22 325.066C115.215 325.03 115.223 324.992 115.242 324.96C115.261 324.929 115.29 324.904 115.325 324.891C128.738 320.529 141.807 315.156 154.531 308.772Z" fill="white"/>
<path d="M178.577 283.076C179.772 283.076 180.74 282.108 180.74 280.913C180.74 279.718 179.772 278.75 178.577 278.75C177.382 278.75 176.414 279.718 176.414 280.913C176.414 282.108 177.382 283.076 178.577 283.076Z" fill="#102348"/>
<path d="M187.316 289.054L189.044 301.946C189.114 302.485 188.991 303.029 188.696 303.478C184.899 309.188 180.167 314.188 174.501 318.478C169.903 321.957 157.609 312.033 154.533 308.772C165.946 303.062 176.874 296.489 187.316 289.054Z" fill="#D9C6F4"/>
<path d="M302.02 308.848C303.215 308.848 304.184 307.879 304.184 306.685C304.184 305.49 303.215 304.522 302.02 304.522C300.826 304.522 299.857 305.49 299.857 306.685C299.857 307.879 300.826 308.848 302.02 308.848Z" fill="#102348"/>
</g>
<defs>
<clipPath id="clip0_1049_12114">
<rect width="400" height="332.609" fill="white" transform="translate(0 0.695679)"/>
</clipPath>
</defs>
</svg>
