<svg width="20" height="20" viewBox="0 0 20 20" fill="none" xmlns="http://www.w3.org/2000/svg">
<path fill-rule="evenodd" clip-rule="evenodd" d="M2.28355 8.59883C6.87227 6.59953 9.93213 5.28147 11.4631 4.64465C15.8345 2.82639 16.7428 2.51054 17.3349 2.50011C17.4651 2.49782 17.7562 2.53009 17.9448 2.68312C18.104 2.81234 18.1479 2.9869 18.1688 3.10941C18.1898 3.23193 18.2159 3.51102 18.1952 3.72909C17.9583 6.21815 16.9333 12.2584 16.4118 15.0462C16.1912 16.2258 15.7567 16.6213 15.3361 16.6601C14.422 16.7442 13.7279 16.0559 12.8425 15.4756C11.4572 14.5674 10.6745 14.0021 9.32975 13.1159C7.77565 12.0917 8.7831 11.5288 9.66878 10.6089C9.90057 10.3681 13.9281 6.70468 14.006 6.37235C14.0158 6.33078 14.0248 6.17585 13.9328 6.09404C13.8407 6.01223 13.7049 6.04021 13.6069 6.06246C13.4679 6.094 11.2548 7.55687 6.96737 10.4511C6.33917 10.8825 5.77017 11.0926 5.26036 11.0816C4.69834 11.0695 3.61723 10.7638 2.81354 10.5026C1.82778 10.1821 1.04432 10.0127 1.11254 9.46851C1.14807 9.18505 1.53841 8.89516 2.28355 8.59883Z" fill="white"/>
</svg>
