<svg width="20" height="20" viewBox="0 0 20 20" fill="none" xmlns="http://www.w3.org/2000/svg">
<path fill-rule="evenodd" clip-rule="evenodd" d="M2.21341 9.07195C6.53208 7.1903 9.41187 5.94981 10.8528 5.35047C14.9669 3.63921 15.8217 3.34195 16.3789 3.33214C16.5015 3.32998 16.7755 3.36035 16.953 3.50438C17.1029 3.62599 17.1441 3.79028 17.1638 3.90558C17.1836 4.02089 17.2081 4.28355 17.1886 4.48879C16.9657 6.83137 16.001 12.5162 15.5102 15.1399C15.3026 16.2501 14.8937 16.6223 14.4978 16.6588C13.6375 16.7379 12.9842 16.0902 12.151 15.544C10.8471 14.6893 10.1106 14.1572 8.84494 13.3231C7.3823 12.3593 8.33047 11.8295 9.16402 10.9637C9.38216 10.7371 13.1726 7.28926 13.246 6.97649C13.2552 6.93737 13.2637 6.79156 13.1771 6.71456C13.0905 6.63757 12.9626 6.6639 12.8704 6.68484C12.7396 6.71452 10.6567 8.0913 6.62159 10.8152C6.03036 11.2212 5.49484 11.419 5.01504 11.4086C4.48609 11.3972 3.46861 11.1095 2.71221 10.8637C1.78447 10.5621 1.04711 10.4026 1.11132 9.89044C1.14476 9.62366 1.51213 9.35083 2.21341 9.07195Z" fill="#102348"/>
</svg>
