<svg width="28" height="28" viewBox="0 0 28 28" fill="none" xmlns="http://www.w3.org/2000/svg">
<path fill-rule="evenodd" clip-rule="evenodd" d="M3.10698 12.6999C9.15312 10.0656 13.1848 8.32895 15.2021 7.48987C20.9618 5.09412 22.1586 4.67795 22.9387 4.66421C23.1103 4.66119 23.4939 4.70371 23.7424 4.90535C23.9522 5.07561 24.0099 5.30561 24.0376 5.46703C24.0652 5.62846 24.0996 5.99619 24.0723 6.28353C23.7601 9.56313 22.4096 17.5219 21.7225 21.1951C21.4318 22.7493 20.8593 23.2705 20.3051 23.3215C19.1007 23.4323 18.1861 22.5255 17.0196 21.7608C15.1942 20.5642 14.163 19.8193 12.3911 18.6516C10.3434 17.3022 11.6709 16.5605 12.8378 15.3484C13.1432 15.0312 18.4499 10.2042 18.5526 9.7663C18.5655 9.71153 18.5774 9.5074 18.4561 9.39961C18.3348 9.29181 18.1559 9.32868 18.0267 9.35799C17.8436 9.39954 14.9275 11.327 9.27843 15.1405C8.45071 15.7089 7.70098 15.9858 7.02926 15.9713C6.28873 15.9553 4.86425 15.5526 3.8053 15.2083C2.50646 14.7861 1.47416 14.5629 1.56405 13.8458C1.61087 13.4723 2.12518 13.0904 3.10698 12.6999Z" fill="#08B3F9"/>
</svg>
