<svg width="20" height="20" viewBox="0 0 20 20" fill="none" xmlns="http://www.w3.org/2000/svg">
<path d="M18 4.54C17.4 4.8 16.78 4.98 16.12 5.06C16.8 4.66 17.32 4.02 17.56 3.24C16.92 3.62 16.22 3.88 15.48 4.04C14.88 3.4 14.02 3 13.08 3C11.26 3 9.8 4.48 9.8 6.28C9.8 6.54 9.82 6.78 9.88 7.02C7.16 6.9 4.76 5.58 3.14 3.6C1.98 5.68 3.28 7.4 4.14 7.98C3.62 7.98 3.1 7.82 2.66 7.58C2.66 9.2 3.8 10.54 5.28 10.84C4.96 10.94 4.24 11 3.8 10.9C4.22 12.2 5.44 13.16 6.86 13.18C5.74 14.06 4.1 14.76 2 14.54C3.46 15.48 5.18 16.02 7.04 16.02C13.08 16.02 16.36 11.02 16.36 6.7C16.36 6.56 16.36 6.42 16.34 6.28C17.02 5.78 17.58 5.2 18 4.54Z" fill="#102348"/>
</svg>
