<svg width="20" height="12" viewBox="0 0 20 12" fill="none" xmlns="http://www.w3.org/2000/svg">
<path fill-rule="evenodd" clip-rule="evenodd" d="M19.5417 0.957969C19.68 0.502969 19.5417 0.167969 18.8792 0.167969H16.6917C16.135 0.167969 15.8783 0.457135 15.7392 0.776302C15.7392 0.776302 14.6267 3.43963 13.0508 5.16963C12.5408 5.6713 12.3092 5.83047 12.0308 5.83047C11.8917 5.83047 11.6825 5.6713 11.6825 5.21547V0.957969C11.6825 0.411302 11.5292 0.167969 11.0658 0.167969H7.62583C7.27833 0.167969 7.06917 0.421302 7.06917 0.662135C7.06917 1.17964 7.8575 1.29964 7.93833 2.7563V5.9213C7.93833 6.61547 7.81083 6.7413 7.5325 6.7413C6.79083 6.7413 4.98667 4.06547 3.91583 1.0038C3.70833 0.407969 3.49833 0.167969 2.93917 0.167969H0.75C0.125 0.167969 0 0.457135 0 0.776302C0 1.34464 0.741667 4.16797 3.45417 7.90213C5.2625 10.4521 7.80833 11.8346 10.1275 11.8346C11.5183 11.8346 11.69 11.528 11.69 10.9988V9.0713C11.69 8.45713 11.8217 8.33463 12.2625 8.33463C12.5875 8.33463 13.1433 8.49463 14.4417 9.7238C15.925 11.1813 16.1692 11.8346 17.0042 11.8346H19.1917C19.8167 11.8346 20.13 11.528 19.95 10.9213C19.7517 10.318 19.0433 9.44213 18.1042 8.40297C17.5942 7.8113 16.8292 7.1738 16.5967 6.85463C16.2725 6.44547 16.365 6.26297 16.5967 5.8988C16.5967 5.8988 19.2633 2.21047 19.5408 0.957969H19.5417Z" fill="white"/>
</svg>
