<svg width="28" height="28" viewBox="0 0 28 28" fill="none" xmlns="http://www.w3.org/2000/svg">
<g clip-path="url(#clip0_1042_9483)">
<path fill-rule="evenodd" clip-rule="evenodd" d="M27.3583 6.94096C27.552 6.30396 27.3583 5.83496 26.4308 5.83496H23.3683C22.589 5.83496 22.2297 6.23979 22.0348 6.68663C22.0348 6.68663 20.4773 10.4153 18.2712 12.8373C17.5572 13.5396 17.2328 13.7625 16.8432 13.7625C16.6483 13.7625 16.3555 13.5396 16.3555 12.9015V6.94096C16.3555 6.17563 16.1408 5.83496 15.4922 5.83496H10.6762C10.1897 5.83496 9.89683 6.18963 9.89683 6.52679C9.89683 7.25129 11.0005 7.41929 11.1137 9.45863V13.8896C11.1137 14.8615 10.9352 15.0376 10.5455 15.0376C9.50717 15.0376 6.98133 11.2915 5.48217 7.00513C5.19167 6.17096 4.89767 5.83496 4.11483 5.83496H1.05C0.175 5.83496 0 6.23979 0 6.68663C0 7.48229 1.03833 11.435 4.83583 16.6628C7.3675 20.2328 10.9317 22.1683 14.1785 22.1683C16.1257 22.1683 16.366 21.739 16.366 20.9981V18.2996C16.366 17.4398 16.5503 17.2683 17.1675 17.2683C17.6225 17.2683 18.4007 17.4923 20.2183 19.2131C22.295 21.2536 22.6368 22.1683 23.8058 22.1683H26.8683C27.7433 22.1683 28.182 21.739 27.93 20.8896C27.6523 20.045 26.6607 18.8188 25.3458 17.364C24.6318 16.5356 23.5608 15.6431 23.2353 15.1963C22.7815 14.6235 22.911 14.368 23.2353 13.8581C23.2353 13.8581 26.9687 8.69446 27.3572 6.94096H27.3583Z" fill="#0077FF"/>
</g>
<defs>
<clipPath id="clip0_1042_9483">
<rect width="28" height="28" fill="white"/>
</clipPath>
</defs>
</svg>
