<svg width="28" height="28" viewBox="0 0 28 28" fill="none" xmlns="http://www.w3.org/2000/svg">
<path d="M14.0182 2.33398C20.4617 2.33398 25.6849 7.55715 25.6849 14.0007C25.6849 20.4442 20.4617 25.6673 14.0182 25.6673C11.9565 25.6706 9.93101 25.125 8.14991 24.0865L2.35625 25.6673L3.93358 19.8713C2.89419 18.0897 2.34813 16.0633 2.35158 14.0007C2.35158 7.55715 7.57475 2.33398 14.0182 2.33398ZM10.0422 8.51732L9.80891 8.52665C9.65785 8.53585 9.51022 8.57554 9.37491 8.64332C9.24835 8.71499 9.13282 8.80458 9.03191 8.90932C8.89191 9.04115 8.81258 9.15548 8.72741 9.26632C8.29589 9.82737 8.06355 10.5162 8.06708 11.224C8.06941 11.7957 8.21875 12.3522 8.45208 12.8725C8.92924 13.9248 9.71441 15.039 10.7504 16.0715C11.0001 16.32 11.2451 16.5697 11.5087 16.8018C12.796 17.9352 14.33 18.7525 15.9887 19.1888L16.6514 19.2903C16.8672 19.302 17.0831 19.2857 17.3001 19.2752C17.6399 19.2576 17.9716 19.1656 18.2719 19.0057C18.4247 18.927 18.5738 18.8413 18.7187 18.749C18.7187 18.749 18.7689 18.7163 18.8646 18.644C19.0221 18.5273 19.1189 18.4445 19.2496 18.308C19.3464 18.2077 19.4304 18.0898 19.4946 17.9557C19.5856 17.7655 19.6766 17.4026 19.7139 17.1005C19.7419 16.8695 19.7337 16.7435 19.7302 16.6653C19.7256 16.5405 19.6217 16.411 19.5086 16.3562L18.8296 16.0517C18.8296 16.0517 17.8146 15.6095 17.1939 15.3272C17.129 15.2988 17.0594 15.2826 16.9886 15.2793C16.9088 15.2711 16.8281 15.2801 16.752 15.3057C16.676 15.3312 16.6063 15.3728 16.5476 15.4275C16.5417 15.4251 16.4636 15.4917 15.6201 16.5137C15.5717 16.5787 15.505 16.6279 15.4285 16.6549C15.3521 16.6819 15.2693 16.6855 15.1907 16.6653C15.1147 16.6449 15.0403 16.6192 14.9679 16.5883C14.8232 16.5277 14.7731 16.5043 14.6739 16.4623C14.0043 16.1701 13.3844 15.7753 12.8364 15.2922C12.6894 15.1638 12.5529 15.0238 12.4129 14.8885C11.9539 14.4489 11.5539 13.9517 11.2229 13.4092L11.1541 13.2983C11.1046 13.2238 11.0647 13.1435 11.0351 13.0592C10.9907 12.8877 11.1062 12.75 11.1062 12.75C11.1062 12.75 11.3897 12.4397 11.5216 12.2717C11.6499 12.1083 11.7584 11.9497 11.8284 11.8365C11.9661 11.6148 12.0092 11.3873 11.9369 11.2112C11.6102 10.4132 11.2719 9.61865 10.9242 8.82998C10.8554 8.67365 10.6512 8.56165 10.4657 8.53948C10.4027 8.53248 10.3397 8.52548 10.2767 8.52082C10.1201 8.51303 9.96307 8.51459 9.80658 8.52548L10.0411 8.51615L10.0422 8.51732Z" fill="#03D95A"/>
</svg>
