<svg width="20" height="20" viewBox="0 0 20 20" fill="none" xmlns="http://www.w3.org/2000/svg">
<path d="M10.0052 1.66797C14.6077 1.66797 18.3386 5.3988 18.3386 10.0013C18.3386 14.6038 14.6077 18.3346 10.0052 18.3346C8.53254 18.337 7.08577 17.9473 5.81355 17.2055L1.67522 18.3346L2.80189 14.1946C2.05946 12.922 1.66943 11.4746 1.67189 10.0013C1.67189 5.3988 5.40272 1.66797 10.0052 1.66797ZM7.16522 6.08464L6.99855 6.0913C6.89065 6.09787 6.7852 6.12622 6.68855 6.17464C6.59815 6.22583 6.51563 6.28982 6.44355 6.36464C6.34355 6.4588 6.28689 6.54047 6.22605 6.61964C5.91782 7.02039 5.75186 7.5124 5.75439 8.01797C5.75605 8.4263 5.86272 8.8238 6.02939 9.19547C6.37022 9.94713 6.93105 10.743 7.67105 11.4805C7.84939 11.658 8.02439 11.8363 8.21272 12.0021C9.13221 12.8117 10.2279 13.3955 11.4127 13.7071L11.8861 13.7796C12.0402 13.788 12.1944 13.7763 12.3494 13.7688C12.5921 13.7563 12.8291 13.6906 13.0436 13.5763C13.1527 13.5201 13.2592 13.4589 13.3627 13.393C13.3627 13.393 13.3986 13.3696 13.4669 13.318C13.5794 13.2346 13.6486 13.1755 13.7419 13.078C13.8111 13.0063 13.8711 12.9221 13.9169 12.8263C13.9819 12.6905 14.0469 12.4313 14.0736 12.2155C14.0936 12.0505 14.0877 11.9605 14.0852 11.9046C14.0819 11.8155 14.0077 11.723 13.9269 11.6838L13.4419 11.4663C13.4419 11.4663 12.7169 11.1505 12.2736 10.9488C12.2272 10.9285 12.1775 10.917 12.1269 10.9146C12.0699 10.9088 12.0123 10.9152 11.9579 10.9334C11.9036 10.9517 11.8538 10.9814 11.8119 11.0205C11.8077 11.0188 11.7519 11.0663 11.1494 11.7963C11.1148 11.8428 11.0672 11.8779 11.0126 11.8972C10.9579 11.9165 10.8988 11.9191 10.8427 11.9046C10.7884 11.8901 10.7352 11.8717 10.6836 11.8496C10.5802 11.8063 10.5444 11.7896 10.4736 11.7596C9.99528 11.5509 9.55246 11.2689 9.16105 10.9238C9.05605 10.8321 8.95855 10.7321 8.85855 10.6355C8.53071 10.3215 8.24499 9.96631 8.00855 9.5788L7.95939 9.49964C7.92407 9.44644 7.89552 9.38905 7.87439 9.3288C7.84272 9.2063 7.92522 9.10797 7.92522 9.10797C7.92522 9.10797 8.12772 8.8863 8.22189 8.7663C8.31355 8.64963 8.39105 8.5363 8.44105 8.45547C8.53939 8.29714 8.57022 8.13464 8.51855 8.0088C8.28522 7.4388 8.04355 6.8713 7.79522 6.30797C7.74605 6.1963 7.60022 6.1163 7.46772 6.10047C7.42272 6.09547 7.37772 6.09047 7.33272 6.08714C7.22081 6.08158 7.10866 6.08269 6.99689 6.09047L7.16439 6.0838L7.16522 6.08464Z" fill="white"/>
</svg>
