<svg width="231" height="72" viewBox="0 0 231 72" fill="none" xmlns="http://www.w3.org/2000/svg">
<path fill-rule="evenodd" clip-rule="evenodd" d="M140.403 36.6028V39.502H127.303C127.502 43.199 129.036 45.0244 132.978 45.0244C135.648 45.0244 138.516 44.1654 140.173 43.0609V47.4941C138.639 48.5373 136.031 49.3043 132.549 49.3043C125.6 49.3043 121.657 45.4693 121.657 37.5999C121.657 30.6969 124.833 25.6654 131.46 25.6654C136.89 25.6654 140.403 28.6567 140.403 36.6028ZM131.337 29.9759C128.729 29.9759 127.41 31.8781 127.287 35.483H134.85V35.0228C134.85 32.1695 134.037 29.9759 131.322 29.9759H131.337ZM90.3486 35.1762V26.0796H95.825V49.0742H90.3486V39.456H83.0622V49.0742H77.6318V26.0642H83.0622V35.1762H90.3486ZM163.72 49.0742H157.553L149.499 37.784V49.0742H144.069V26.0642H149.499V36.6948L157.169 26.0796H162.676L155.007 36.6948L163.72 49.0742ZM179.796 47.9237C178.461 48.8901 176.697 49.3503 174.166 49.3503C166.926 49.3503 163.397 45.1471 163.382 37.6152C163.382 30.6662 166.987 25.7268 173.936 25.7268C176.636 25.7268 178.645 26.187 179.796 26.8312V31.4332C178.2 30.5137 176.391 30.0272 174.55 30.022C170.975 30.022 169.027 32.5377 169.027 37.4772C169.027 42.1405 170.607 45.0551 174.504 45.0551C176.789 45.0551 178.415 44.4415 179.796 43.4904V47.939V47.9237ZM117.899 44.7636H120.323V54.121H115.291V49.0281H103.096V54.121H98.0646V44.7483H99.752C101.67 40.9133 102.053 33.6422 102.053 28.0278V26.0642H117.899V44.7636ZM104.799 44.7636H112.469V30.3748H106.716V31.0497C106.716 35.0228 106.318 41.2968 104.799 44.7636Z" fill="black"/>
<path d="M73.0606 49.058V17.3043H65.0225C56.923 17.3043 52.6892 21.4461 52.6892 27.5821C52.6892 32.4448 55.0055 35.3594 59.1626 38.32L51.9375 49.058H57.9201L65.9736 37.0162L63.1817 35.16C59.8069 32.859 58.1348 31.0949 58.1348 27.2446C58.1348 23.8698 60.5125 21.5842 65.0378 21.5842H67.5075V49.0427H73.0606V49.058Z" fill="#FC3F1D"/>
</svg>
