<svg width="378" height="4" viewBox="0 0 378 4" fill="none" xmlns="http://www.w3.org/2000/svg">
<path fill-rule="evenodd" clip-rule="evenodd" d="M0.409302 2.92426C0.65094 3.32913 0.883514 3.89163 1.35461 3.91088C6.75323 4.13143 4.92419 3.93802 10.0043 3.38183C10.899 3.28387 17.0999 3.39714 18.0596 3.38183C56.8801 2.76259 284.828 2.57382 344.72 2.9243C349.761 2.9538 364.575 3.37365 374.778 2.70917C374.977 2.69617 375.173 2.66691 375.368 2.62209C377.74 2.07682 378.024 0.391131 375.592 0.283979C374.715 0.245325 373.722 0.233735 372.625 0.234717C348.733 0.252524 71.6015 -0.275387 13.025 0.197037C8.15744 0.232199 -0.74823 0.984737 0.050293 2.32267L0.409302 2.92426Z" fill="#F8ED3A"/>
</svg>
