<svg width="325" height="5" viewBox="0 0 325 5" fill="none" xmlns="http://www.w3.org/2000/svg">
<path fill-rule="evenodd" clip-rule="evenodd" d="M324.329 2.96873C324.065 3.25806 324.191 3.55399 324.397 3.84487C325.345 5.18556 320.093 5.21199 312.493 4.667C311.226 4.57619 309.969 4.51533 308.611 4.50113C253.655 3.927 95.5163 4.60583 10.7306 4.93077C4.83274 4.95338 1.64535 4.46104 0.482396 3.58641C0.0576915 3.267 0.0781376 2.67905 0.225408 2.16845C0.318113 1.84704 0.458456 1.52852 0.741743 1.35062C2.02334 0.545778 5.57485 0.280865 10.806 0.283928C94.9169 0.797204 258.483 0.238281 314.201 0C321.092 0.0326005 325.967 1.17051 324.837 2.41097L324.329 2.96873Z" fill="#F8ED3A"/>
</svg>
