<svg width="457" height="5" viewBox="0 0 457 5" fill="none" xmlns="http://www.w3.org/2000/svg">
<path fill-rule="evenodd" clip-rule="evenodd" d="M456.056 2.96873C455.685 3.25806 455.862 3.55399 456.151 3.84487C457.485 5.18556 450.1 5.21199 439.413 4.667C437.632 4.57619 435.865 4.51533 433.954 4.50113C356.678 3.927 134.311 4.60583 15.0889 4.93077C6.71606 4.95359 2.22803 4.45156 0.632074 3.56115C0.12936 3.28068 0.121016 2.65157 0.337372 2.11812C0.453861 1.8309 0.624278 1.56087 0.899902 1.41911C2.56883 0.560739 7.63427 0.280779 15.1949 0.283928C133.468 0.797204 363.467 0.238281 441.815 0C451.505 0.0326005 458.36 1.17051 456.771 2.41097L456.056 2.96873Z" fill="#F8ED3A"/>
</svg>
