<svg width="223" height="87" viewBox="0 0 223 87" fill="none" xmlns="http://www.w3.org/2000/svg">
<path d="M55.7966 7.45326C48.0977 7.20884 42.0136 9.13059 36.4784 11.4434C30.6979 13.8571 25.0788 16.3594 20.2348 19.2008C10.3658 25.0057 4.55304 31.5898 2.35708 38.9438C0.141735 46.3437 1.20084 53.8444 7.55623 60.7523C13.9116 67.6602 24.7559 73.45 37.7443 77.7151C63.8375 86.2699 98.4887 89.2273 129.097 85.2678C145.141 83.1932 160.215 79.5024 173.701 74.9287C184.248 71.351 194.213 67.0003 199.723 61.3328C205.535 55.3292 206.601 48.0485 201.815 41.8036C196.713 35.1462 186.102 29.9034 174.456 25.6443C162.024 21.1011 148.331 17.502 133.204 15.4214C117.703 13.2826 101.421 12.6716 85.3517 12.3019C62.4168 11.7764 36.7756 13.634 18.4198 20.6337C-0.368584 27.8014 -4.28255 40.1873 4.39797 50.505C13.0785 60.8226 32.2286 68.2804 52.5025 73.343C72.7765 78.4056 95.7761 81.7053 118.756 82.3805C131.874 82.7655 145.017 81.7542 157.56 79.9577C171.026 78.0268 184.222 75.1854 195.454 71.1372C219.015 62.6404 226.539 48.6687 221.521 35.2531C216.787 22.6073 202.145 9.96774 176.704 4.41938C164.432 1.73992 150.94 0.658353 137.525 0.22756C122.015 -0.273016 106.436 0.0528862 91.0805 1.19913C62.6621 3.33782 30.1425 8.36678 14.4478 20.6489C1.02656 31.1468 -1.91224 45.3446 5.8124 57.0066C21.4295 80.5901 82.9811 85.4205 128.146 84.9133C151.96 84.6414 179.042 82.5211 196.17 73.9419C215.779 64.1223 214.998 49.0079 207.228 36.8572C205.253 33.7563 202.707 30.7434 199.62 27.8532C196.578 25.0149 192.515 22.5768 188.297 20.1265C187.083 19.4207 184.972 20.432 186.179 21.1286C190.357 23.5515 193.432 26.4784 196.345 29.2648C199.344 32.1582 201.781 35.1751 203.624 38.2779C207.376 44.5441 208.985 51.281 206.938 57.7521C205.103 63.5417 200.013 68.9954 190.965 73.065C182.568 76.8322 171.808 79.1542 160.744 80.5566C138.681 83.346 114.545 83.1047 92.0492 81.7297C69.799 80.3701 46.2311 77.3027 29.0832 70.1197C10.5273 62.3471 4.65626 50.6821 6.74888 39.3228C7.85978 33.3069 11.3798 27.285 17.8708 22.0605C24.7687 16.5091 34.7668 12.7388 46.793 9.83942C73.545 3.4081 105.018 1.43744 134.722 2.17987C147.374 2.4854 160.201 3.35004 172.001 5.63537C183.703 7.89238 193.758 11.7147 200.937 16.6343C216.193 27.0833 222.941 41.5684 215.204 53.881C211.439 59.915 203.756 65.2358 193.245 69.0901C182.613 73.0009 169.993 75.7505 157.199 77.6295C145.431 79.3557 133.101 80.4191 120.752 80.1532C110.443 79.896 100.222 79.1207 90.2601 77.8404C68.6364 75.1426 47.2128 70.5384 30.3233 63.5021C14.1764 56.7805 3.19665 47.6146 5.04385 37.1993C5.91929 31.9258 10.9764 27.0038 19.2013 23.4201C27.2231 19.937 37.5376 17.7984 47.975 16.4602C58.6606 15.1467 69.6845 14.5532 80.7206 14.6972C95.2722 14.8408 110.16 15.4336 124.362 16.9765C139.046 18.5901 152.899 21.5755 165.111 25.7573C176.362 29.5489 187.173 34.144 193.458 40.0651C199.458 45.7235 199.916 52.6131 195.202 58.5159C190.913 63.8625 182.065 68.091 172.518 71.4397C147.491 80.2235 116.179 85.8697 84.7897 83.181C56.5004 80.7581 29.0767 73.9266 15.1841 61.5466C1.23963 49.1209 5.74135 32.5827 23.0959 21.4249C27.3652 18.6753 32.4353 16.2891 37.6345 13.9426C42.8338 11.5962 48.188 9.26807 55.8158 9.43001C58.5155 9.48805 58.4768 7.53881 55.8158 7.45326H55.7966Z" fill="#F8ED3A"/>
</svg>
