<svg width="257" height="4" viewBox="0 0 257 4" fill="none" xmlns="http://www.w3.org/2000/svg">
<path fill-rule="evenodd" clip-rule="evenodd" d="M0.269257 2.74449C0.453796 3.26614 0.752563 3.83374 1.30472 3.86977C4.36206 4.06922 3.38312 3.84707 6.59669 3.25352C7.18671 3.14454 11.3612 4.00644 11.9941 3.98941C37.5944 3.30051 195.324 3.60732 234.82 3.99723C238.106 4.02967 247.61 3.78111 254.326 3.04764C254.61 3.01661 254.887 2.94773 255.153 2.8444C256.766 2.21918 257.11 0.690518 255.381 0.681528C254.771 0.678357 254.062 0.699383 253.256 0.700598C237.501 0.720408 47.3371 -0.383567 8.70865 0.142003C5.49873 0.18112 -0.494049 0.586806 0.0325317 2.07525L0.269257 2.74449Z" fill="#F8ED3A"/>
</svg>
