<svg width="143" height="7" viewBox="0 0 143 7" fill="none" xmlns="http://www.w3.org/2000/svg">
<path fill-rule="evenodd" clip-rule="evenodd" d="M142.707 1.78782C142.595 1.96411 142.655 2.14031 142.749 2.31266C143.185 3.107 140.876 3.1774 137.525 2.92945C136.966 2.88813 136.413 2.86468 135.815 2.87028C111.633 3.09674 42.0807 5.14655 4.79 6.22215C2.21784 6.29634 0.810783 6.03916 0.276435 5.53512C0.0551095 5.32635 0.0706706 4.99096 0.126587 4.69189C0.165088 4.48596 0.223983 4.27374 0.38748 4.14276C0.973982 3.6729 2.51218 3.48526 4.75733 3.43404C41.7631 2.86824 113.704 0.83397 138.21 0.11228C141.242 0.0602593 143.402 0.692173 142.923 1.44798L142.707 1.78782Z" fill="#F8ED3A"/>
</svg>
