<svg width="296" height="3" viewBox="0 0 296 3" fill="none" xmlns="http://www.w3.org/2000/svg">
<path fill-rule="evenodd" clip-rule="evenodd" d="M295.472 2.21648C295.241 2.43518 295.069 2.91597 294.751 2.92347C287.177 3.10209 289.801 2.96422 283.098 2.54975C281.944 2.47841 273.946 2.5609 272.709 2.54975C222.642 2.09873 118.798 2.1542 41.5556 2.40947C35.4741 2.42957 5.27739 3.08884 0.605262 2.39378C0.17945 2.33044 0.0738566 1.98093 0.210415 1.57266C0.291408 1.33052 0.413079 1.09562 0.634436 0.968363C1.76555 0.318095 5.0214 0.104907 9.84453 0.107343C86.4719 0.510565 227.257 -0.256104 279.202 0.094718C285.479 0.120328 296.965 0.803829 295.935 1.77832L295.472 2.21648Z" fill="#F8ED3A"/>
</svg>
