<svg width="196" height="5" viewBox="0 0 196 5" fill="none" xmlns="http://www.w3.org/2000/svg">
<path fill-rule="evenodd" clip-rule="evenodd" d="M195.595 2.96873C195.436 3.25806 195.512 3.55399 195.636 3.84487C196.208 5.18556 193.041 5.21199 188.457 4.667C187.693 4.57619 186.935 4.51533 186.116 4.50113C152.973 3.927 57.6036 4.60583 6.47139 4.93077C2.96068 4.95308 1.04244 4.47374 0.318848 3.62028C-0.00268192 3.24104 0.0435618 2.69952 0.128766 2.20968C0.189669 1.85955 0.274059 1.49397 0.542057 1.26057C1.38564 0.525894 3.48279 0.280982 6.51684 0.283928C57.2422 0.797204 155.885 0.238281 189.487 0C193.643 0.0326005 196.583 1.17051 195.902 2.41097L195.595 2.96873Z" fill="#F8ED3A"/>
</svg>
