<svg width="166" height="3" viewBox="0 0 166 3" fill="none" xmlns="http://www.w3.org/2000/svg">
<path fill-rule="evenodd" clip-rule="evenodd" d="M165.657 1.86974C165.522 2.03073 165.587 2.1954 165.692 2.35725C166.176 3.10325 163.494 3.11796 159.612 2.81471C158.965 2.76418 158.323 2.73031 157.629 2.72241C129.559 2.40295 45.2955 2.3553 1.98961 2.53611C1.65481 2.53751 1.39817 2.5383 1.19608 2.53213C0.341797 2.50606 0.351439 1.37366 0.852506 0.681267C1.6198 -0.451456 3.22389 0.222446 4.592 0.23085C48.1938 0.498705 132.467 0.348379 160.484 0.217853C164.004 0.235993 166.494 0.86916 165.917 1.55939L165.657 1.86974Z" fill="#F8ED3A"/>
</svg>
