<svg width="245" height="36" viewBox="0 0 245 36" fill="none" xmlns="http://www.w3.org/2000/svg">
<path d="M0.910526 8.57404C32.443 7.86857 63.9672 7.08473 95.4827 6.22253L190.056 3.70446C207.892 3.23417 225.729 2.66588 243.566 2.28376V0.0400415C216.124 2.61689 188.684 5.47789 161.342 8.23108L79.7542 16.4123L33.4534 21.0468C31.5574 21.2329 31.4202 23.4865 33.4534 23.4472L125.419 21.7718L151.525 21.3015L151.114 18.9109C131.157 21.6673 111.237 24.4172 91.3545 27.1606C89.5459 27.4154 90.1071 29.5121 91.7661 29.5807L139.314 31.3052L138.89 28.7969C131.257 30.3548 123.535 31.7363 115.989 33.5293C114.318 33.931 114.555 36.067 116.413 35.9984C117.661 35.9984 119.008 35.871 120.293 35.8612C120.676 35.8612 121.044 35.7415 121.316 35.5283C121.587 35.3152 121.739 35.0261 121.739 34.7247C121.739 34.4233 121.587 34.1341 121.316 33.921C121.044 33.7078 120.676 33.5881 120.293 33.5881C119.045 33.5881 117.71 33.5195 116.413 33.4901L116.85 35.9592C124.546 34.6169 132.129 32.8434 139.751 31.266C140.129 31.1815 140.456 30.9925 140.672 30.734C140.887 30.4753 140.976 30.1644 140.923 29.8582C140.87 29.5521 140.678 29.2712 140.383 29.0672C140.087 28.8632 139.708 28.7499 139.314 28.7479L91.7661 27.1215L92.1776 29.5318C112.135 26.7557 132.055 23.9959 151.937 21.2525C153.658 21.0174 153.184 18.8324 151.525 18.8618L59.5475 20.5667L33.4534 21.0468V23.4472L115.602 15.168L197.814 6.9084C213.193 5.36031 228.586 3.85143 243.965 2.20538C245.562 2.03881 245.212 -0.0481407 243.591 0.000848931C212.071 1.06882 180.539 1.79387 149.018 2.67568C117.498 3.55749 85.9661 4.43931 54.4459 5.37011C36.6092 5.91226 18.7723 6.46418 0.935499 7.02598C-0.311833 7.02598 -0.311833 8.5642 0.935499 8.53483L0.910526 8.57404Z" fill="#F8ED3A"/>
</svg>
