<svg width="228" height="4" viewBox="0 0 228 4" fill="none" xmlns="http://www.w3.org/2000/svg">
<path fill-rule="evenodd" clip-rule="evenodd" d="M227.593 1.04469C227.355 0.654925 227.13 0.105581 226.674 0.0873346C221.287 -0.128092 223.114 0.0595291 218.062 0.600328C217.173 0.695456 211.013 0.585461 210.059 0.600328C171.495 1.2017 91.5062 1.12773 32.009 0.787372C27.4189 0.761114 4.9933 -0.0834379 0.706958 0.754532C0.190817 0.855436 0.0512731 1.3297 0.151051 1.84606C0.221058 2.20835 0.321737 2.58375 0.608401 2.81609C1.57495 3.59948 4.02548 3.85999 7.58295 3.85688C66.6067 3.31925 175.049 4.34147 215.061 3.87371C219.896 3.83956 228.743 2.92823 227.95 1.62891L227.593 1.04469Z" fill="#F8ED3A"/>
</svg>
