<svg width="231" height="72" viewBox="0 0 231 72" fill="none" xmlns="http://www.w3.org/2000/svg">
<g clip-path="url(#clip0_3836_14)">
<path d="M49.7393 20.7347H77.6475C78.2975 20.7347 78.8243 21.2616 78.8243 21.9115V27.3996C78.8243 28.1307 78.5071 28.8228 77.9549 29.3018L62.3485 42.3576H77.6475C78.2975 42.3576 78.8243 42.8749 78.8243 43.5249V49.8254C78.8243 50.4753 78.2975 51.0022 77.6475 51.0022H49.7393C49.0894 51.0022 48.5625 50.4753 48.5625 49.8254V44.3463C48.5625 43.6152 48.8797 42.9231 49.432 42.4441L65.0384 29.3883H49.7393C49.0894 29.3883 48.5625 28.8494 48.5625 28.1994V21.9115C48.5625 21.2616 49.0894 20.7347 49.7393 20.7347ZM98.2784 19.6613C101.505 19.6613 104.382 20.3869 106.784 21.713C109.186 23.0391 111.112 24.9656 112.438 27.3674C113.764 29.7691 114.49 32.646 114.49 35.873C114.49 39.0999 113.764 41.9768 112.438 44.3786C111.112 46.7803 109.186 48.7068 106.784 50.0329C104.382 51.359 101.505 52.0847 98.2784 52.0847C95.0515 52.0847 92.1745 51.359 89.7728 50.0329C87.3711 48.7068 85.4445 46.7803 84.1184 44.3786C82.7923 41.9768 82.0667 39.0999 82.0667 35.873C82.0667 32.646 82.7923 29.7691 84.1184 27.3674C85.4445 24.9656 87.3711 23.0391 89.7728 21.713C92.1745 20.3869 95.0515 19.6613 98.2784 19.6613ZM98.2784 28.3075C96.7348 28.3075 95.3796 28.6336 94.2588 29.2398C93.138 29.8461 92.2515 30.7326 91.6453 31.8534C91.039 32.9742 90.7129 34.3293 90.7129 35.873C90.7129 37.4166 91.039 38.7717 91.6453 39.8925C92.2515 41.0133 93.138 41.8998 94.2588 42.5061C95.3796 43.1123 96.7348 43.4384 98.2784 43.4384C99.822 43.4384 101.177 43.1123 102.298 42.5061C103.419 41.8998 104.305 41.0133 104.912 39.8925C105.518 38.7717 105.844 37.4166 105.844 35.873C105.844 34.3293 105.518 32.9742 104.912 31.8534C104.305 30.7326 103.419 29.8461 102.298 29.2398C101.177 28.6336 99.822 28.3075 98.2784 28.3075ZM132.863 19.6613C136.09 19.6613 138.967 20.3869 141.369 21.713C143.771 23.0391 145.697 24.9656 147.023 27.3674C148.349 29.7691 149.075 32.646 149.075 35.873C149.075 39.0999 148.349 41.9768 147.023 44.3786C145.697 46.7803 143.771 48.7068 141.369 50.0329C138.967 51.359 136.09 52.0847 132.863 52.0847C129.636 52.0847 126.759 51.359 124.358 50.0329C121.956 48.7068 120.029 46.7803 118.703 44.3786C117.377 41.9768 116.652 39.0999 116.652 35.873C116.652 32.646 117.377 29.7691 118.703 27.3674C120.029 24.9656 121.956 23.0391 124.358 21.713C126.759 20.3869 129.636 19.6613 132.863 19.6613ZM132.863 28.3075C131.32 28.3075 129.965 28.6336 128.844 29.2398C127.723 29.8461 126.837 30.7326 126.23 31.8534C125.624 32.9742 125.298 34.3293 125.298 35.873C125.298 37.4166 125.624 38.7717 126.23 39.8925C126.837 41.0133 127.723 41.8998 128.844 42.5061C129.965 43.1123 131.32 43.4384 132.863 43.4384C134.407 43.4384 135.762 43.1123 136.883 42.5061C138.004 41.8998 138.89 41.0133 139.496 39.8925C140.103 38.7717 140.429 37.4166 140.429 35.873C140.429 34.3293 140.103 32.9742 139.496 31.8534C138.89 30.7326 138.004 29.8461 136.883 29.2398C135.762 28.6336 134.407 28.3075 132.863 28.3075ZM182.583 21.9153V49.8249C182.583 50.4749 182.056 51.0018 181.406 51.0018H175.922C175.191 51.0018 174.498 50.6847 174.019 50.1325L160.964 34.5279V49.8249C160.964 50.4749 160.425 51.0018 159.775 51.0018H153.491C152.841 51.0018 152.314 50.4749 152.314 49.8249V21.9153C152.314 21.2653 152.841 20.7384 153.491 20.7384H158.975C159.706 20.7384 160.398 21.0557 160.877 21.608L173.933 37.218V21.9153C173.933 21.2653 174.45 20.7384 175.1 20.7384H181.406C182.056 20.7384 182.583 21.2653 182.583 21.9153Z" fill="url(#paint0_linear_3836_14)"/>
</g>
<defs>
<linearGradient id="paint0_linear_3836_14" x1="44.0625" y1="26.4376" x2="188.062" y2="48.3751" gradientUnits="userSpaceOnUse">
<stop stop-color="#6339F5"/>
<stop offset="1" stop-color="#3D3F55"/>
</linearGradient>
<clipPath id="clip0_3836_14">
<rect width="134.017" height="34.585" fill="white" transform="translate(48.5625 18.5807)"/>
</clipPath>
</defs>
</svg>
